<svg width="28" height="28" viewBox="0 0 28 28" fill="none" xmlns="http://www.w3.org/2000/svg">
<circle cx="14" cy="14" r="14" fill="#C8C8C8"/>
<path d="M18.8595 15.9585C18.7667 15.6641 18.6542 15.4079 18.522 15.1903C18.3899 14.9726 18.2007 14.7601 17.9541 14.5523C17.7077 14.3447 17.4861 14.1774 17.2896 14.0503C17.0932 13.923 16.8234 13.7807 16.4803 13.6232C16.1376 13.4658 15.8661 13.3486 15.6662 13.2716C15.466 13.1947 15.1765 13.0892 14.7978 12.9552C14.462 12.8348 14.212 12.7427 14.0475 12.6791C13.8832 12.6154 13.6671 12.5251 13.3991 12.4078C13.1313 12.2907 12.9312 12.1869 12.799 12.0965C12.6668 12.0062 12.5258 11.8957 12.3757 11.7652C12.2256 11.6346 12.1202 11.4956 12.0595 11.3483C11.9988 11.201 11.9684 11.0402 11.9684 10.8661C11.9684 10.4108 12.1827 10.0391 12.6114 9.75119C13.0401 9.46333 13.5939 9.31933 14.2727 9.31933C14.5727 9.31933 14.8785 9.35778 15.1891 9.43487C15.4996 9.51195 15.7658 9.59878 15.9873 9.69596C16.209 9.79313 16.418 9.9003 16.6145 10.0174C16.811 10.1346 16.9503 10.2233 17.0325 10.2836C17.1147 10.3439 17.1668 10.384 17.188 10.4041C17.281 10.4711 17.3772 10.4945 17.4773 10.4745C17.5844 10.4678 17.6666 10.4141 17.7239 10.3138L18.5922 8.84725C18.6779 8.71338 18.6602 8.58612 18.5386 8.46552C18.4864 8.41714 18.4327 8.37025 18.3775 8.32489C18.3134 8.27128 18.174 8.17421 17.9595 8.03351C17.7433 7.89188 17.5159 7.76596 17.2792 7.65685C17.0397 7.54644 16.7288 7.43421 16.3465 7.32043C15.9644 7.20648 15.5696 7.12953 15.1622 7.08939V5.32143C15.1622 5.22774 15.1301 5.15069 15.066 5.09038C15.0017 5.03022 14.9195 5 14.8193 5H13.3724C13.2795 5 13.1991 5.03177 13.1313 5.09542C13.0634 5.15906 13.0295 5.23435 13.0295 5.32143V7.1295C11.9077 7.33032 10.9967 7.779 10.2965 8.47544C9.59634 9.17191 9.24614 9.98206 9.24614 10.9063C9.24614 11.1808 9.27663 11.442 9.33736 11.6896C9.39803 11.9375 9.4731 12.1601 9.56244 12.3577C9.65171 12.5553 9.77859 12.7495 9.9429 12.9404C10.1072 13.1312 10.2627 13.2953 10.4091 13.4325C10.5556 13.5697 10.7467 13.712 10.9825 13.8593C11.2183 14.0067 11.4201 14.1257 11.5881 14.216C11.7561 14.3061 11.9793 14.4102 12.2579 14.5271C12.5365 14.6444 12.7563 14.733 12.9171 14.7934C13.0779 14.8536 13.2976 14.9374 13.5763 15.0443C13.9621 15.185 14.248 15.2938 14.4337 15.3709C14.6196 15.4479 14.8553 15.5551 15.1413 15.6923C15.427 15.8295 15.6359 15.9551 15.7682 16.069C15.9003 16.1828 16.02 16.3235 16.1272 16.4908C16.2345 16.6582 16.2882 16.8357 16.2882 17.0233C16.2882 17.5523 16.0685 17.9607 15.6289 18.2484C15.1896 18.5365 14.6803 18.6804 14.1017 18.6804C13.8351 18.6802 13.5692 18.6534 13.3087 18.6002C12.3799 18.4259 11.5118 18.0074 10.7044 17.3445L10.683 17.3244C10.6186 17.2509 10.5329 17.2207 10.4258 17.2342C10.3115 17.2476 10.2292 17.2878 10.1793 17.3549L9.07534 18.7108C8.96813 18.8447 8.97538 18.982 9.09682 19.1226C9.13259 19.1628 9.19509 19.2232 9.28436 19.3034C9.37385 19.384 9.54 19.5093 9.7828 19.6804C10.0257 19.8513 10.2901 20.0118 10.5759 20.1626C10.8617 20.3132 11.2243 20.4622 11.6638 20.6096C12.1033 20.7567 12.5587 20.8604 13.0303 20.9207V22.6785C13.0303 22.7657 13.0642 22.8409 13.1321 22.9046C13.2 22.9683 13.2803 23 13.3732 23H14.8201C14.9203 23 15.0025 22.9699 15.0668 22.9097C15.131 22.8495 15.163 22.7725 15.163 22.6785V20.9207C16.2992 20.7466 17.2227 20.2896 17.9335 19.5496C18.6444 18.8096 19 17.9273 19 16.9028C18.9996 16.5681 18.9533 16.2533 18.8595 15.9585Z" fill="white"/>
</svg>
