<svg width="432" height="100" viewBox="0 0 432 100" fill="none" xmlns="http://www.w3.org/2000/svg">
<g opacity="0.2">
<path d="M41 12C41 5.37258 46.3726 0 53 0H400C406.627 0 412 5.37258 412 12V88C412 94.6274 406.627 100 400 100H53C46.3726 100 41 94.6274 41 88V12Z" fill="#17171A"/>
<path d="M418 35C418 31.6863 420.686 29 424 29H426C429.314 29 432 31.6863 432 35V65C432 68.3137 429.314 71 426 71H424C420.686 71 418 68.3137 418 65V35Z" fill="#17171A"/>
</g>
<path d="M64.5 75C35.1652 75 14.6667 49.6667 0 36.5C12.8333 44.3333 43.7 60 64.5 60C90.5 60 121 26 163 26C205 26 225.5 64 262.5 64C299.5 64 304.5 28 352 28C390 28 415.5 61 423.5 77.5C414.333 65 387.2 40 352 40C308 40 302 77.5 262.5 77.5C223 77.5 196.5 40.5 163 40C129.5 39.5 108 75 64.5 75Z" fill="#F2A720"/>
</svg>
