<svg width="40" height="40" viewBox="0 0 40 40" fill="none" xmlns="http://www.w3.org/2000/svg">
<path d="M19.9994 3.15001C18.3718 3.15001 17.0477 4.47408 17.0477 6.10166C17.0477 7.72925 18.3718 9.05324 19.9994 9.05324C21.6269 9.05324 22.951 7.72909 22.951 6.10166C22.9511 4.47408 21.6269 3.15001 19.9994 3.15001ZM19.9994 7.87519C19.0214 7.87519 18.2257 7.07956 18.2257 6.10159C18.2257 5.12361 19.0213 4.32791 19.9994 4.32791C20.9774 4.32791 21.773 5.12354 21.773 6.10159C21.773 7.07964 20.9774 7.87519 19.9994 7.87519ZM19.9994 5.18326e-09C19.8432 5.18326e-09 19.6933 0.0620538 19.5829 0.17251C19.4724 0.282967 19.4104 0.432778 19.4104 0.588987V1.37649C19.4129 1.53104 19.4761 1.6784 19.5862 1.78681C19.6964 1.89521 19.8448 1.95596 19.9994 1.95596C20.1539 1.95596 20.3023 1.89521 20.4125 1.78681C20.5227 1.6784 20.5858 1.53104 20.5883 1.37649V0.588987C20.5884 0.511637 20.5731 0.435043 20.5435 0.363579C20.5139 0.292115 20.4706 0.227182 20.4159 0.172487C20.3612 0.117793 20.2962 0.0744088 20.2248 0.044813C20.1533 0.0152173 20.0767 -1.02568e-05 19.9994 5.18326e-09ZM17.0747 2.34392L16.5179 1.78712C16.4068 1.67936 16.2579 1.6196 16.1032 1.62076C15.9485 1.62192 15.8004 1.68391 15.691 1.79332C15.5816 1.90273 15.5197 2.05079 15.5185 2.2055C15.5174 2.36022 15.5772 2.50917 15.685 2.62017L16.2418 3.17704C16.3568 3.29204 16.5076 3.34954 16.6583 3.34954C16.809 3.34954 16.9597 3.29204 17.0748 3.17697C17.1853 3.06648 17.2473 2.91665 17.2473 2.76042C17.2473 2.6042 17.1852 2.45438 17.0747 2.34392ZM15.2743 5.51252H14.4868C14.4095 5.51252 14.3329 5.52776 14.2614 5.55736C14.19 5.58696 14.1251 5.63034 14.0704 5.68503C14.0157 5.73972 13.9723 5.80465 13.9427 5.87611C13.9131 5.94757 13.8979 6.02416 13.8979 6.10151C13.8979 6.25772 13.9599 6.40753 14.0704 6.51798C14.1808 6.62844 14.3306 6.6905 14.4868 6.6905H15.2743C15.4289 6.68798 15.5763 6.62482 15.6847 6.51463C15.7931 6.40445 15.8538 6.25608 15.8538 6.10151C15.8538 5.94694 15.7931 5.79856 15.6847 5.68838C15.5763 5.5782 15.4289 5.51504 15.2743 5.51252ZM17.0747 9.02629C16.9642 8.91583 16.8144 8.85378 16.6582 8.85378C16.5019 8.85378 16.3521 8.91583 16.2416 9.02629L15.6848 9.58308C15.6296 9.63768 15.5857 9.70264 15.5557 9.77425C15.5257 9.84585 15.5102 9.92268 15.51 10.0003C15.5097 10.078 15.5249 10.1549 15.5545 10.2266C15.5841 10.2984 15.6276 10.3636 15.6825 10.4185C15.7374 10.4734 15.8026 10.5169 15.8744 10.5465C15.9462 10.5761 16.0231 10.5912 16.1007 10.591C16.1784 10.5908 16.2552 10.5752 16.3268 10.5452C16.3984 10.5151 16.4634 10.4713 16.5179 10.4161L17.0747 9.85926C17.1852 9.74879 17.2472 9.59898 17.2472 9.44277C17.2472 9.28656 17.1852 9.13675 17.0747 9.02629ZM19.9994 10.2377C19.8432 10.2377 19.6933 10.2998 19.5829 10.4102C19.4724 10.5207 19.4104 10.6705 19.4104 10.8267V11.6142C19.4129 11.7687 19.4761 11.9161 19.5862 12.0245C19.6964 12.1329 19.8448 12.1937 19.9994 12.1937C20.1539 12.1937 20.3023 12.1329 20.4125 12.0245C20.5227 11.9161 20.5858 11.7687 20.5883 11.6142V10.8267C20.5884 10.7493 20.5731 10.6727 20.5435 10.6013C20.5139 10.5298 20.4706 10.4649 20.4159 10.4102C20.3612 10.3555 20.2962 10.3121 20.2248 10.2825C20.1533 10.2529 20.0767 10.2377 19.9994 10.2377ZM24.314 9.58324L23.7572 9.02644C23.6465 8.91699 23.497 8.85579 23.3414 8.85622C23.1857 8.85664 23.0366 8.91866 22.9265 9.02871C22.8164 9.13876 22.7544 9.28791 22.7539 9.44356C22.7535 9.59921 22.8146 9.74872 22.9241 9.85941L23.4809 10.4162C23.5355 10.471 23.6004 10.5144 23.6719 10.544C23.7434 10.5736 23.82 10.5888 23.8974 10.5887C24.0139 10.5887 24.1278 10.5542 24.2247 10.4895C24.3216 10.4248 24.3971 10.3328 24.4417 10.2252C24.4862 10.1175 24.4979 9.9991 24.4752 9.88484C24.4525 9.77057 24.3964 9.66562 24.314 9.58324ZM25.512 5.51268H24.7245C24.57 5.51519 24.4226 5.57836 24.3142 5.68854C24.2058 5.79872 24.1451 5.9471 24.1451 6.10166C24.1451 6.25623 24.2058 6.40461 24.3142 6.51479C24.4226 6.62497 24.57 6.68813 24.7245 6.69065H25.512C25.8374 6.69065 26.101 6.4269 26.101 6.10166C26.101 5.77643 25.8374 5.51268 25.512 5.51268ZM24.3139 1.78704C24.2034 1.6766 24.0536 1.61455 23.8974 1.61455C23.7412 1.61455 23.5914 1.6766 23.4809 1.78704L22.9241 2.34384C22.8137 2.45432 22.7516 2.60415 22.7517 2.76038C22.7517 2.9166 22.8137 3.06643 22.9242 3.17689C22.9788 3.23168 23.0437 3.27514 23.1152 3.30476C23.1866 3.33438 23.2633 3.34957 23.3406 3.34947C23.418 3.34956 23.4946 3.33437 23.5661 3.30475C23.6376 3.27513 23.7025 3.23168 23.7572 3.17689L24.314 2.62009C24.4244 2.50961 24.4865 2.35977 24.4865 2.20355C24.4865 2.04732 24.4244 1.8975 24.3139 1.78704ZM36.3373 30.1705C36.3368 30.1602 36.3368 30.15 36.3358 30.1397C36.3338 30.1191 36.3306 30.0987 36.3264 30.0786L36.3261 30.0772L35.2772 25.0946L35.2761 25.0892L34.2272 20.1069L34.2261 20.1016L33.1761 15.1143C33.1483 14.982 33.0758 14.8634 32.9709 14.7782C32.8659 14.6931 32.7349 14.6466 32.5997 14.6466H7.39892C7.26378 14.6466 7.13274 14.6931 7.02779 14.7782C6.92284 14.8634 6.85037 14.982 6.82251 15.1143L5.77282 20.101L5.77149 20.1073L4.72266 25.0897C4.72234 25.0911 4.72205 25.0926 4.7218 25.094L3.67289 30.0768C3.66845 30.098 3.66517 30.1194 3.66305 30.141C3.66258 30.146 3.66266 30.1511 3.66227 30.1561C3.66125 30.1701 3.66016 30.1841 3.66016 30.1984V32.5611C3.66016 32.7174 3.72221 32.8672 3.83267 32.9776C3.94312 33.0881 4.09293 33.1501 4.24914 33.1501H18.2289V36.4592H13.699C13.5428 36.4592 13.393 36.5213 13.2825 36.6317C13.1721 36.7422 13.11 36.892 13.11 37.0482V38.8219H7.399C7.24445 38.8245 7.09709 38.8876 6.98868 38.9978C6.88028 39.108 6.81953 39.2564 6.81953 39.4109C6.81953 39.5655 6.88028 39.7139 6.98868 39.8241C7.09709 39.9342 7.24445 39.9974 7.399 39.9999H32.5988C32.7533 39.9974 32.9007 39.9342 33.0091 39.8241C33.1175 39.7139 33.1783 39.5655 33.1783 39.4109C33.1783 39.2564 33.1175 39.108 33.0091 38.9978C32.9007 38.8876 32.7533 38.8245 32.5988 38.8219H26.8886V37.0482C26.8886 36.892 26.8266 36.7422 26.7161 36.6317C26.6056 36.5213 26.4558 36.4592 26.2996 36.4592H21.7698V33.1501H35.7496C35.9058 33.1501 36.0556 33.0881 36.1661 32.9776C36.2765 32.8672 36.3386 32.7174 36.3386 32.5611V30.2089L36.3386 30.2063V30.1986C36.3387 30.189 36.3378 30.1799 36.3373 30.1705ZM35.0239 29.6095H25.7988L25.5313 25.7999H34.2218L35.0239 29.6095ZM33.1718 20.8123L33.9739 24.6219H25.4487L25.1813 20.8123H33.1718ZM32.1218 15.8247L32.9239 19.6343H25.0986L24.8312 15.8247H32.1218ZM16.3483 15.8247H23.6503L23.9177 19.6343H16.081L16.3483 15.8247ZM15.9984 20.8123H24.0004L24.2678 24.6219H15.7311L15.9984 20.8123ZM15.6485 25.7999H24.3505L24.6178 29.6095H15.3811L15.6485 25.7999ZM7.87689 15.8247H15.1675L14.9001 19.6343H7.07486L7.87689 15.8247ZM6.82697 20.8123H14.8175L14.5501 24.6219H6.02493L6.82697 20.8123ZM25.7106 37.6374V38.8221H14.2882V37.6374H25.7106ZM19.407 36.4594V33.1503H20.5918V36.4594H19.407ZM21.1876 31.9722C21.1854 31.9722 21.1831 31.9719 21.1809 31.9719H18.818C18.8158 31.9719 18.8135 31.9722 18.8112 31.9722H4.83813V30.7875H7.644C7.80021 30.7875 7.95002 30.7255 8.06048 30.615C8.17093 30.5046 8.23299 30.3548 8.23299 30.1986C8.23299 30.0423 8.17093 29.8925 8.06048 29.7821C7.95002 29.6716 7.80021 29.6096 7.644 29.6096H4.97501L5.77696 25.7999H14.4675L14.2001 29.6095H10.1911C10.0349 29.6095 9.8851 29.6715 9.77464 29.782C9.66419 29.8925 9.60213 30.0423 9.60213 30.1985C9.60213 30.3547 9.66419 30.5045 9.77464 30.615C9.8851 30.7254 10.0349 30.7875 10.1911 30.7875H35.1605V31.9722H21.1876V31.9722Z" fill="#17171A"/>
</svg>
