<svg width="60" height="60" viewBox="0 0 60 60" fill="none" xmlns="http://www.w3.org/2000/svg">
<path d="M58.5323 38.4665C57.6627 37.6622 56.5432 37.2275 55.4029 37.1601C56.3094 34.7496 56.7698 32.2116 56.7698 29.5874C56.7698 24.9508 55.3253 20.5332 52.5922 16.8123C52.2059 16.2861 51.4661 16.1729 50.9401 16.5594C50.4141 16.9459 50.3009 17.6854 50.6872 18.2115C53.1203 21.5239 54.4062 25.4577 54.4062 29.5874C54.4062 32.4655 53.7861 35.2262 52.566 37.8004C52.2349 37.9854 51.9268 38.2088 51.648 38.4659L43.6545 45.8481C43.5357 45.9579 42.9943 46.3145 40.998 46.3145H40.9602C37.8222 46.3059 33.0464 46.2975 29.4388 46.2909L27.7372 46.288C26.8215 46.288 26.0766 45.6408 26.0766 44.8454C26.0766 44.0616 26.8371 43.3994 27.7372 43.3994H35.3118C37.7285 43.3994 39.6947 41.5431 39.6947 39.2612C39.6947 39.0485 39.6775 38.8395 39.6445 38.6354C40.5843 38.2129 41.3817 37.5274 41.9404 36.6617C42.4991 35.7959 42.7952 34.7869 42.7929 33.7565C42.7929 30.8061 40.4081 28.4056 37.4768 28.4056H32.9175C31.2711 28.4056 29.9319 27.0641 29.9319 25.4149C29.9319 23.7677 31.2712 22.4275 32.9175 22.4275H41.6111C42.2638 22.4275 42.7929 21.8984 42.7929 21.2457C42.7929 20.5931 42.2638 20.064 41.6111 20.064H36.3571L36.3641 17.2191C36.3657 16.5663 35.8379 16.036 35.1852 16.0344H35.1823C34.5309 16.0344 34.0022 16.5616 34.0004 17.2132L33.9934 20.064H32.9176C29.968 20.064 27.5684 22.4643 27.5684 25.4149C27.5684 28.3673 29.9681 30.7692 32.9176 30.7692H37.4769C39.0773 30.7692 40.4293 32.1372 40.4293 33.7565C40.4293 34.9677 39.6703 36.0539 38.5845 36.5123C37.7811 35.6606 36.612 35.1227 35.3119 35.1227H16.7652C16.227 33.3269 15.9541 31.4622 15.9553 29.5875C15.9553 28.0879 16.1268 26.6097 16.4645 25.1737C16.6061 25.2666 16.7487 25.3562 16.8925 25.4422C17.543 25.8318 18.0465 26.0267 18.5508 26.0267C19.0547 26.0267 19.5591 25.8321 20.2114 25.4428C22.5473 24.0467 24.5964 21.7274 26.3018 18.5489C27.5442 16.232 28.3151 13.8356 28.5762 11.521C30.6878 10.7459 32.9065 10.3522 35.1825 10.3522C37.8989 10.3522 40.5225 10.907 42.9804 12.0009C43.1366 12.0704 43.2997 12.1033 43.4603 12.1033C43.9128 12.1033 44.3447 11.8419 44.5406 11.4017C44.8059 10.8055 44.5378 10.1069 43.9414 9.84149C41.1791 8.61208 38.2321 7.98876 35.1824 7.98876C32.9386 7.98876 30.7438 8.33001 28.6355 9.00255C28.4687 7.71829 27.8052 7.29161 26.8057 6.75372L19.1136 2.6027C18.9412 2.50965 18.7483 2.46094 18.5524 2.46094C18.3564 2.46094 18.1635 2.50965 17.9911 2.6027L10.2947 6.75571C9.14484 7.37458 8.43949 7.8452 8.42461 9.6452C8.4 12.5267 9.22137 15.6056 10.7998 18.549C11.8818 20.5656 13.1036 22.2352 14.4498 23.5445C13.8805 25.4953 13.5915 27.5243 13.5915 29.5874C13.5915 31.5692 13.8596 33.5248 14.3897 35.4187C13.3814 35.6789 12.4244 36.1077 11.559 36.6868C11.1799 34.8604 9.47508 33.4782 7.43461 33.4782H4.20363C1.88578 33.4782 0 35.2616 0 37.4538V53.2167C0 55.407 1.88578 57.189 4.20363 57.189H7.43461C9.75246 57.189 11.6382 55.407 11.6382 53.2167V53.1916L19.1279 56.5507C19.153 56.5619 19.1786 56.5722 19.2043 56.5816C21.5252 57.4338 24.4877 57.4918 32.7171 57.5343C38.9476 57.541 39.7614 57.541 40.9437 57.541C43.9191 57.541 45.4406 57.2714 47.1361 55.603C50.6634 52.3422 54.191 49.0843 57.7211 45.824L58.5311 45.0759C59.4783 44.2022 59.9999 43.0282 59.9999 41.7706C60 40.5132 59.4784 39.3392 58.5323 38.4665ZM9.27469 53.2167C9.27469 54.1038 8.44934 54.8254 7.43473 54.8254H4.20363C3.18902 54.8254 2.36367 54.1038 2.36367 53.2167V37.4538C2.36367 36.5799 3.20625 35.8418 4.20363 35.8418H7.43461C8.43199 35.8418 9.27457 36.58 9.27457 37.4538L9.27469 53.2167ZM12.8828 17.4316C11.4913 14.837 10.767 12.1514 10.7883 9.66489C10.7907 9.36325 10.8131 9.22989 10.8253 9.17903C10.9199 9.10345 11.1817 8.96247 11.415 8.83684L18.5524 4.98536L25.6563 8.81891L25.6855 8.83462C25.9191 8.96036 26.1812 9.10145 26.2762 9.17739C26.2884 9.2286 26.3107 9.3629 26.3132 9.66677C26.3374 12.1462 25.6131 14.8312 24.2187 17.4314C22.7186 20.2274 20.9623 22.24 18.9994 23.4133C18.7377 23.5695 18.611 23.6299 18.5514 23.6531C18.4921 23.6298 18.3662 23.5695 18.107 23.4144L18.1061 23.4138C16.1668 22.2548 14.3606 20.1861 12.8828 17.4316ZM56.928 43.3393L56.1176 44.0878C52.5826 47.3527 49.0502 50.615 45.5179 53.8803C45.5082 53.8892 45.4987 53.8982 45.4894 53.9075C44.4936 54.8914 43.7763 55.1775 40.9439 55.1775C39.7618 55.1775 38.9484 55.1775 32.7247 55.1708C25.1926 55.1318 22.0307 55.0873 20.0562 54.3763L11.6385 50.6009V39.7275C12.8869 38.3177 14.7546 37.4861 16.7128 37.4861H35.312C36.0864 37.4861 36.7594 37.8718 37.098 38.4356C37.1045 38.4474 37.1106 38.4594 37.1174 38.4709C37.253 38.7092 37.3312 38.977 37.3312 39.2611C37.3312 40.2397 36.4254 41.0357 35.312 41.0357H27.7375C25.5184 41.0357 23.7131 42.7447 23.7131 44.8453C23.7131 46.944 25.5185 48.6514 27.7354 48.6514L29.4348 48.6545C33.0416 48.6609 37.8165 48.6695 40.9546 48.6779L40.9973 48.678C43.0972 48.6779 44.4525 48.3296 45.259 47.5836L53.2526 40.2016C54.2486 39.2804 55.9315 39.2803 56.9287 40.2027C57.3852 40.6238 57.6366 41.1807 57.6366 41.7706C57.6363 42.3608 57.385 42.9177 56.928 43.3393Z" fill="black"/>
<path d="M48.0138 14.889C48.3163 14.889 48.6187 14.7737 48.8495 14.5429C49.3111 14.0813 49.3111 13.3331 48.8495 12.8715L48.8462 12.8682C48.3847 12.407 47.638 12.4084 47.1765 12.87C46.7149 13.3314 46.7166 14.0813 47.1781 14.5431C47.2878 14.6529 47.418 14.74 47.5615 14.7994C47.7049 14.8587 47.8586 14.8892 48.0138 14.889ZM18.0377 17.0252C18.3456 17.0252 18.6528 16.9057 18.8841 16.6684L23.055 12.3896C23.5105 11.9222 23.501 11.1739 23.0335 10.7184C22.5662 10.2628 21.8179 10.2723 21.3623 10.7397L18.0001 14.1891L16.8332 13.097C16.3568 12.6509 15.609 12.6754 15.1627 13.1523C14.7167 13.6288 14.7414 14.3766 15.2179 14.8227L17.2303 16.7063C17.449 16.9115 17.7378 17.0255 18.0377 17.0252Z" fill="black"/>
</svg>
