<svg width="60" height="60" viewBox="0 0 60 60" fill="none" xmlns="http://www.w3.org/2000/svg">
<g clip-path="url(#clip0_1551_137627)">
<path d="M51.2132 8.78684C45.5469 3.12059 38.0133 0 30 0C21.9867 0 14.4531 3.12059 8.78684 8.78684C3.12059 14.4531 0 21.9867 0 30C0 38.0133 3.12059 45.5469 8.78684 51.2132C14.4531 56.8794 21.9867 60 30 60C38.0133 60 45.5469 56.8794 51.2132 51.2132C56.8794 45.5469 60 38.0133 60 30C60 21.9867 56.8794 14.4531 51.2132 8.78684ZM49.5495 49.5495C44.3276 54.7713 37.3848 57.6471 30 57.6471C22.6152 57.6471 15.6724 54.7713 10.4505 49.5495C5.22867 44.3276 2.35289 37.3848 2.35289 30C2.35289 22.6152 5.22867 15.6724 10.4505 10.4505C15.6724 5.22867 22.6152 2.35289 30 2.35289C37.3848 2.35289 44.3276 5.22867 49.5495 10.4505C54.7713 15.6724 57.6471 22.6152 57.6471 30C57.6471 37.3848 54.7712 44.3276 49.5495 49.5495Z" fill="black"/>
<path d="M31.6911 28.8246H28.3025C26.6632 28.8246 25.3295 27.4909 25.3295 25.8515V23.8805C25.3295 22.2412 26.6632 20.9075 28.3025 20.9075H32.057C33.4946 20.9075 34.6641 22.077 34.6641 23.5147C34.6641 24.1645 35.1909 24.6911 35.8406 24.6911C36.4903 24.6911 37.017 24.1644 37.017 23.5147C37.017 20.7796 34.7919 18.5546 32.057 18.5546H31.1732V15.6335C31.1732 14.9837 30.6465 14.457 29.9968 14.457C29.347 14.457 28.8204 14.9838 28.8204 15.6335V18.5546H28.3025C25.3658 18.5546 22.9766 20.9438 22.9766 23.8805V25.8515C22.9766 28.7882 25.3658 31.1775 28.3025 31.1775H31.6911C33.3304 31.1775 34.6641 32.5112 34.6641 34.1505V36.1215C34.6641 37.7608 33.3304 39.0945 31.6911 39.0945H27.9366C26.499 39.0945 25.3295 37.925 25.3295 36.4873C25.3295 35.8375 24.8027 35.3109 24.153 35.3109C23.5033 35.3109 22.9766 35.8377 22.9766 36.4873C22.9766 39.2224 25.2017 41.4474 27.9366 41.4474H28.8204V44.3686C28.8204 45.0184 29.3471 45.545 29.9968 45.545C30.6466 45.545 31.1732 45.0182 31.1732 44.3686V41.4474H31.6911C34.6278 41.4474 37.017 39.0582 37.017 36.1215V34.1505C37.017 31.2138 34.6278 28.8246 31.6911 28.8246Z" fill="black"/>
<path d="M45.2582 12.7426C36.8448 4.3292 23.1552 4.3292 14.7418 12.7426C14.2823 13.202 14.2824 13.9469 14.7418 14.4063C15.2012 14.8657 15.9462 14.8659 16.4057 14.4064C23.9016 6.91041 36.0985 6.9105 43.5943 14.4064C44.0538 14.8659 44.7987 14.8658 45.2582 14.4063C45.7177 13.9468 45.7176 13.202 45.2582 12.7426ZM45.2582 45.5952C44.7987 45.1357 44.0538 45.1358 43.5944 45.5952C36.0985 53.0911 23.9016 53.0911 16.4057 45.5952C15.9463 45.1357 15.2014 45.1358 14.742 45.5952C14.2825 46.0546 14.2826 46.7995 14.742 47.2589C23.1553 55.6723 36.8449 55.6723 45.2583 47.2589C45.7177 46.7994 45.7176 46.0546 45.2582 45.5952Z" fill="black"/>
<path d="M46.2862 17.7291C46.7495 18.1924 47.5005 18.1924 47.9637 17.7291C48.427 17.2659 48.427 16.5149 47.9637 16.0516C47.5005 15.5884 46.7495 15.5884 46.2863 16.0516C45.823 16.5149 45.823 17.2659 46.2862 17.7291Z" fill="black"/>
<path d="M11.9113 44.0045C12.3745 44.4678 13.1255 44.4678 13.5887 44.0045C14.052 43.5413 14.052 42.7903 13.5888 42.327C13.1255 41.8638 12.3745 41.8638 11.9112 42.327C11.448 42.7903 11.448 43.5413 11.9113 44.0045Z" fill="black"/>
</g>
<defs>
<clipPath id="clip0_1551_137627">
<rect width="60" height="60" fill="white"/>
</clipPath>
</defs>
</svg>
