<svg width="60" height="60" viewBox="0 0 60 60" fill="none" xmlns="http://www.w3.org/2000/svg">
<path d="M45.2266 5.50781C44.5797 5.50781 44.0547 6.03281 44.0547 6.67969C44.0547 7.32656 44.5797 7.85156 45.2266 7.85156C45.8734 7.85156 46.3984 7.32656 46.3984 6.67969C46.3984 6.03281 45.8737 5.50781 45.2266 5.50781Z" fill="black"/>
<path d="M46.3013 0.937355C38.9521 -1.41928 32.8102 1.2179 29.9943 2.84294C27.1786 1.21755 21.0376 -1.41975 13.6866 0.937355C3.95163 4.06004 -0.612467 18.2751 7.19303 29.7449C10.8911 35.1768 11.3849 39.3666 11.9077 43.8025C12.2904 47.0496 12.6862 50.4074 14.3392 54.3329C15.4509 56.972 17.0222 59.9908 19.3471 59.9906C19.3681 59.9906 19.3895 59.9904 19.4106 59.9899C21.2801 59.9457 22.7867 58.0916 24.2951 53.9777C25.0635 51.8807 25.5558 49.4061 26.0319 47.0133C26.8889 42.7062 27.7752 38.2525 30.0026 38.2369H30.0144C32.2174 38.2369 33.1017 42.6921 33.957 47.0005C34.4333 49.401 34.926 51.8834 35.6943 53.978C37.2046 58.0981 38.711 59.9552 40.5787 59.9993C40.6 59.9997 40.6209 60 40.6421 60C42.9623 60 44.5358 56.9763 45.6491 54.3328C47.2288 50.5815 47.6426 47.2321 48.0428 43.9929C48.6062 39.4323 49.1383 35.1248 52.804 29.7325C60.7009 18.1145 55.873 4.00567 46.3013 0.937355ZM50.8654 28.4148C46.8815 34.2754 46.2893 39.0694 45.7165 43.7056C45.3184 46.9279 44.9423 49.9714 43.4889 53.423C41.7643 57.5174 40.7643 57.6561 40.6378 57.6561H40.6341C40.5889 57.6551 39.5107 57.5794 37.8948 53.1709C37.1893 51.2476 36.7148 48.8565 36.2559 46.5442C35.7408 43.9485 35.2542 41.4966 34.4522 39.5828C33.426 37.1342 31.9344 35.8929 30.0183 35.8929L29.9861 35.893C28.062 35.9065 26.5648 37.1574 25.5365 39.611C24.7348 41.5238 24.2483 43.9682 23.7335 46.5559C23.2748 48.8612 22.8005 51.2452 22.0948 53.1711C20.4818 57.5701 19.401 57.6458 19.3558 57.6469C19.2508 57.6487 18.239 57.5526 16.4997 53.4233C14.9754 49.8035 14.6161 46.7555 14.2359 43.5282C13.703 39.0073 13.152 34.3324 9.13107 28.4263C2.09456 18.0868 6.33604 5.75703 14.4027 3.16942C21.4176 0.920011 27.207 3.84208 29.3704 5.20297C29.5572 5.32053 29.7734 5.38291 29.9941 5.38293C30.2149 5.38295 30.4311 5.32061 30.6179 5.20309C32.7822 3.84255 38.573 0.920714 45.5859 3.16954C53.8124 5.80637 57.7597 18.2723 50.8654 28.4148Z" fill="black"/>
<path d="M51.2197 12.1314C50.8391 11.0264 50.3346 10.0097 49.7204 9.10937C49.3556 8.57453 48.6266 8.43683 48.092 8.80164C47.5572 9.16632 47.4195 9.89535 47.7843 10.4301C48.2809 11.1579 48.6911 11.9873 49.0038 12.8948C50.1716 16.2843 49.8669 20.2393 48.1678 23.7456C47.8855 24.328 48.1289 25.0289 48.7113 25.3112C49.2938 25.5935 49.9947 25.3502 50.2769 24.7677C52.2443 20.708 52.588 16.1022 51.2197 12.1314ZM25.7377 16.0302L21.0201 14.4577L19.4476 9.74007C19.3698 9.50678 19.2205 9.30389 19.021 9.16011C18.8215 9.01634 18.5818 8.93897 18.3358 8.93897C18.0899 8.93897 17.8502 9.01634 17.6507 9.16011C17.4511 9.30389 17.3019 9.50678 17.2241 9.74007L15.6515 14.4577L10.9339 16.0302C10.7006 16.1081 10.4977 16.2573 10.354 16.4568C10.2102 16.6564 10.1328 16.8961 10.1328 17.142C10.1328 17.3879 10.2102 17.6276 10.354 17.8271C10.4977 18.0267 10.7006 18.1759 10.9339 18.2537L15.6515 19.8263L17.2241 24.5439C17.3019 24.7772 17.4511 24.9801 17.6507 25.1239C17.8502 25.2676 18.0899 25.345 18.3358 25.345C18.5818 25.345 18.8215 25.2676 19.021 25.1239C19.2205 24.9801 19.3698 24.7772 19.4476 24.5439L21.0201 19.8263L25.7377 18.2537C25.971 18.1759 26.1739 18.0267 26.3177 17.8271C26.4615 17.6276 26.5388 17.3879 26.5388 17.142C26.5388 16.8961 26.4615 16.6564 26.3177 16.4568C26.1739 16.2573 25.971 16.1081 25.7377 16.0302ZM19.7231 17.788C19.5505 17.8456 19.3936 17.9425 19.265 18.0711C19.1363 18.1998 19.0394 18.3566 18.9819 18.5293L18.3358 20.4675L17.6898 18.5293C17.6323 18.3566 17.5353 18.1998 17.4067 18.0711C17.278 17.9425 17.1212 17.8456 16.9486 17.788L15.0103 17.142L16.9486 16.4959C17.1212 16.4384 17.278 16.3415 17.4067 16.2128C17.5353 16.0842 17.6323 15.9273 17.6898 15.7547L18.3358 13.8164L18.9819 15.7547C19.0394 15.9273 19.1363 16.0842 19.265 16.2128C19.3936 16.3415 19.5505 16.4384 19.7231 16.4959L21.6614 17.142L19.7231 17.788Z" fill="black"/>
</svg>
