<svg width="60" height="60" viewBox="0 0 60 60" fill="none" xmlns="http://www.w3.org/2000/svg">
<g clip-path="url(#clip0_1551_137527)">
<path d="M59.9962 1.10155C59.9746 0.815966 59.8586 0.531083 59.6682 0.339716C59.3498 0.0199124 58.8183 -0.0915326 58.397 0.0806155L0.730719 23.5204C0.52751 23.603 0.351556 23.7409 0.22287 23.9186C0.0941849 24.0962 0.0179353 24.3064 0.00279535 24.5252C-0.0123446 24.744 0.0342329 24.9627 0.137229 25.1563C0.240226 25.35 0.395506 25.5109 0.585407 25.6206L10.8285 31.5439L19.5651 50.4134C19.92 51.18 21.0137 51.3124 21.5422 50.6541C21.5452 50.6504 21.5486 50.6473 21.5514 50.6436L28.5048 41.7654L39.4984 48.1227C40.0849 48.4618 40.8992 48.2147 41.1703 47.5512L59.9235 1.60944C59.9868 1.45428 60.0094 1.2778 59.9962 1.10155ZM3.83173 24.7901L47.148 7.18334L11.9433 29.4808L3.83173 24.7901ZM21.52 36.0084C21.3441 36.1804 21.2098 36.4448 21.1772 36.6944L19.9915 45.7555L13.3334 31.375L50.0456 8.12271L21.52 36.0084ZM22.3622 45.8066L23.3061 38.7592L26.4553 40.5803L22.3622 45.8066ZM39.508 45.4206L24.263 36.605L40.1038 21.1195L55.6185 5.95299L39.508 45.4206ZM14.366 45.6349C14.14 45.4089 13.8387 45.296 13.5374 45.296C13.236 45.296 12.9346 45.4091 12.7088 45.6349L3.75755 54.5854C3.31364 55.0291 3.30064 55.7856 3.75755 56.2425C4.20989 56.6948 4.96364 56.6938 5.41493 56.2425L14.366 47.2921C14.8232 46.8351 14.8232 46.0921 14.366 45.6349ZM1.27166 57.5563C0.642594 57.5563 0.0995482 58.1034 0.0995482 58.7283C0.0995482 59.3552 0.626539 59.9001 1.27154 59.9003C1.90927 59.9003 2.44365 59.3647 2.44365 58.7284C2.44376 58.1093 1.89017 57.5564 1.27166 57.5563Z" fill="black"/>
<path d="M30.5974 48.8575C30.3714 48.6314 30.0701 48.5187 29.7689 48.5187C29.4673 48.5187 29.1659 48.6318 28.9401 48.8575L23.1383 54.6589C22.6812 55.116 22.6812 55.8589 23.1382 56.316C23.5822 56.76 24.3539 56.7579 24.7955 56.316L30.5974 50.5146C31.0545 50.0576 31.0545 49.3146 30.5974 48.8575ZM8.91394 35.028C8.46663 34.5807 7.70151 34.583 7.25655 35.028L3.94073 38.3424C3.48827 38.7947 3.48874 39.5486 3.94073 40.0006C4.1628 40.2226 4.4662 40.3327 4.76948 40.3325C5.0737 40.3322 5.3778 40.2211 5.5994 40.0007L8.91394 36.6851C9.37108 36.2281 9.37108 35.4851 8.91394 35.028Z" fill="black"/>
<path d="M20.625 60C21.2722 60 21.7969 59.4753 21.7969 58.8281C21.7969 58.1809 21.2722 57.6562 20.625 57.6562C19.9778 57.6562 19.4531 58.1809 19.4531 58.8281C19.4531 59.4753 19.9778 60 20.625 60Z" fill="black"/>
<path d="M1.40625 43.709C2.05346 43.709 2.57812 43.1843 2.57812 42.5371C2.57812 41.8899 2.05346 41.3652 1.40625 41.3652C0.759041 41.3652 0.234375 41.8899 0.234375 42.5371C0.234375 43.1843 0.759041 43.709 1.40625 43.709Z" fill="black"/>
</g>
<defs>
<clipPath id="clip0_1551_137527">
<rect width="60" height="60" fill="white"/>
</clipPath>
</defs>
</svg>
