<svg width="60" height="60" viewBox="0 0 60 60" fill="none" xmlns="http://www.w3.org/2000/svg">
<g clip-path="url(#clip0_1551_137642)">
<path d="M34.1086 28.4543C34.1928 28.6187 34.3207 28.7567 34.4783 28.853C34.6358 28.9493 34.8169 29.0003 35.0016 29.0003C35.1591 29.0002 35.3144 28.9629 35.4547 28.8913C35.5136 28.8613 41.3996 25.8713 44.3026 24.9543C44.8286 24.7873 45.1206 24.2253 44.9536 23.6994C44.9141 23.574 44.8504 23.4577 44.766 23.357C44.6815 23.2563 44.5781 23.1733 44.4615 23.1126C44.3449 23.052 44.2176 23.0149 44.0867 23.0035C43.9557 22.9922 43.8239 23.0067 43.6986 23.0464C40.6406 24.0134 34.7947 26.9834 34.5467 27.1094C34.0546 27.3593 33.8587 27.9614 34.1086 28.4543ZM35.0016 17.0005C35.1591 17.0004 35.3144 16.9631 35.4547 16.8915C35.5136 16.8615 41.3996 13.8715 44.3026 12.9545C44.8286 12.7875 45.1206 12.2255 44.9536 11.6996C44.9141 11.5742 44.8504 11.4579 44.766 11.3572C44.6815 11.2565 44.5781 11.1735 44.4615 11.1128C44.3449 11.0522 44.2176 11.0151 44.0867 11.0037C43.9557 10.9924 43.8239 11.0069 43.6986 11.0466C40.6406 12.0136 34.7947 14.9836 34.5467 15.1096C34.0547 15.3595 33.8587 15.9615 34.1086 16.4545C34.1928 16.6189 34.3207 16.7568 34.4783 16.8532C34.6358 16.9495 34.8169 17.0005 35.0016 17.0005Z" fill="black"/>
<path fill-rule="evenodd" clip-rule="evenodd" d="M58.6169 15.0765C58.7382 15.0263 58.8682 15.0004 58.9996 15.0005C59.1309 15.0005 59.261 15.0263 59.3823 15.0766C59.5037 15.1268 59.6139 15.2005 59.7068 15.2933C59.7997 15.3862 59.8733 15.4965 59.9236 15.6178C59.9738 15.7392 59.9997 15.8692 59.9996 16.0006V55.0003C59.9996 57.7573 57.7566 60.0003 54.9996 60.0003H5C2.24295 60.0003 0 57.7572 0 55.0003V16.0006C0 15.4486 0.448004 15.0006 0.999953 15.0006C1.5519 15.0006 1.99991 15.4486 1.99991 16.0006V55.0003C1.99991 56.6542 3.34591 58.0002 4.99988 58.0002H28.9997V55.6492C27.7797 55.1383 24.6557 54.0003 20.9997 54.0003C12.3338 54.0003 5.46315 55.9087 5.27721 55.9604L5.27387 55.9613C5.18387 55.9873 5.09187 56.0003 4.99988 56.0003C4.78223 56.0005 4.57049 55.9295 4.39684 55.7983C4.2737 55.7048 4.17381 55.5842 4.10494 55.4457C4.03608 55.3073 4.0001 55.1549 3.99981 55.0003V11.0006C3.9998 10.7833 4.07056 10.572 4.20138 10.3986C4.33221 10.2252 4.51597 10.0991 4.72485 10.0395C5.01687 9.95561 11.9638 8.00059 20.9997 8.00059C26.1767 8.00059 30.2746 10.0206 30.4466 10.1056C30.6128 10.1888 30.7525 10.3165 30.8502 10.4746C30.9478 10.6326 30.9996 10.8148 30.9996 11.0006V49.2633C34.0466 47.5294 41.1735 43.6564 47.9995 41.2844V27.0627C47.9995 26.5104 48.4472 26.0627 48.9995 26.0627C49.5518 26.0627 49.9995 26.5104 49.9995 27.0627V42.0003C49.9996 42.2102 49.9335 42.4149 49.8107 42.5852C49.688 42.7555 49.5147 42.8829 49.3155 42.9493C40.5705 45.8639 30.724 51.7325 30.5172 51.8557L30.5147 51.8572C30.363 51.9483 30.1898 51.9976 30.0128 51.9999C29.8358 52.0022 29.6614 51.9575 29.5074 51.8703C29.3533 51.7832 29.2252 51.6567 29.136 51.5039C29.0468 51.351 28.9998 51.1772 28.9997 51.0002V11.6485C27.7726 11.1354 24.6457 10.0005 20.9997 10.0005C13.8948 10.0005 7.99681 11.2835 5.99984 11.7745V53.7132C8.43779 53.1362 14.1117 52.0002 20.9997 52.0002C25.3037 52.0002 28.8616 53.3962 30.0387 53.9162C31.3628 53.4311 35.6426 52.0002 39.9996 52.0002C46.7017 52.0002 51.7335 53.0771 53.9996 53.6711V11.8135C53.5772 11.7292 53.1542 11.6481 52.7306 11.5704C52.1875 11.4705 51.8286 10.9495 51.9285 10.4055C52.0286 9.8635 52.5515 9.5035 53.0926 9.60346C54.4326 9.84956 55.2166 10.0245 55.2166 10.0245C55.4388 10.0736 55.6376 10.1971 55.78 10.3747C55.9224 10.5522 55.9999 10.773 55.9996 11.0006V55C55.9997 55.1584 55.9621 55.3146 55.8899 55.4556C55.8178 55.5966 55.7131 55.7184 55.5846 55.8111C55.4561 55.9032 55.3075 55.9638 55.1512 55.9878C54.9948 56.0117 54.8349 55.9985 54.6847 55.9491C54.6257 55.9292 48.7107 54.0002 39.9998 54.0002C36.2558 54.0002 32.4579 55.1892 30.9998 55.6992V58.0001H54.9996C56.6536 58.0001 57.9996 56.6541 57.9996 55.0001V16.0004C57.9996 15.8691 58.0254 15.7391 58.0756 15.6177C58.1259 15.4964 58.1995 15.3861 58.2924 15.2933C58.3853 15.2004 58.4955 15.1267 58.6169 15.0765ZM47.9995 17.0118C47.9995 17.5641 48.4472 18.0118 48.9995 18.0118C49.5518 18.0118 49.9995 17.5641 49.9995 17.0118V1.00056C49.9995 0.838917 49.9603 0.679691 49.8852 0.536534C49.8101 0.393378 49.7015 0.270562 49.5685 0.178615C49.4358 0.0863692 49.2826 0.0277169 49.1222 0.0076934C48.9618 -0.0123301 48.7989 0.00687341 48.6475 0.0636554C40.7302 3.03323 32.7199 7.99752 32.4749 8.14938L32.4697 8.15258C32.0017 8.44554 31.8587 9.06253 32.1517 9.53057C32.4437 9.99862 33.0607 10.1416 33.5297 9.84862C33.6036 9.80163 40.6466 5.41967 47.9995 2.4627V17.0118Z" fill="black"/>
<path d="M34.1051 22.4545C34.1893 22.6189 34.3172 22.7569 34.4748 22.8532C34.6323 22.9495 34.8134 23.0005 34.9981 23.0005C35.1556 23.0004 35.3108 22.9631 35.4511 22.8915C35.5101 22.8615 41.3961 19.8715 44.2991 18.9545C44.8251 18.7875 45.117 18.2255 44.9501 17.6996C44.9106 17.5742 44.8469 17.4579 44.7624 17.3572C44.678 17.2565 44.5746 17.1735 44.458 17.1128C44.3414 17.0522 44.214 17.0151 44.0831 17.0037C43.9522 16.9924 43.8204 17.0069 43.6951 17.0466C40.6371 18.0136 34.7911 20.9836 34.5432 21.1096C34.0511 21.3595 33.8552 21.9616 34.1051 22.4545ZM34.1051 34.4544C34.1893 34.6188 34.3172 34.7568 34.4748 34.8531C34.6323 34.9494 34.8134 35.0004 34.9981 35.0004C35.1556 35.0003 35.3108 34.963 35.4511 34.8914C35.5101 34.8614 41.3961 31.8714 44.2991 30.9544C44.8251 30.7874 45.117 30.2254 44.9501 29.6995C44.9106 29.5741 44.8469 29.4578 44.7624 29.3571C44.678 29.2564 44.5746 29.1734 44.458 29.1127C44.3414 29.0521 44.214 29.015 44.0831 29.0036C43.9522 28.9923 43.8204 29.0069 43.6951 29.0465C40.6371 30.0135 34.7911 32.9835 34.5432 33.1095C34.0511 33.3594 33.8552 33.9615 34.1051 34.4544ZM24.2252 18.5587C18.0503 17.1096 11.0333 18.9557 10.7384 19.0347C10.61 19.0673 10.4893 19.1251 10.3835 19.2047C10.2776 19.2843 10.1886 19.3841 10.1216 19.4984C10.0546 19.6127 10.011 19.7392 9.99334 19.8704C9.97564 20.0017 9.9842 20.1352 10.0185 20.2631C10.0528 20.3911 10.1122 20.5109 10.1932 20.6158C10.2742 20.7206 10.3752 20.8082 10.4904 20.8737C10.6056 20.9391 10.7326 20.981 10.8641 20.997C10.9956 21.0129 11.129 21.0026 11.2564 20.9666C11.3235 20.9476 18.0794 19.1706 23.7694 20.5056C24.3043 20.6306 24.8454 20.2976 24.9714 19.7596C25.0972 19.2226 24.7633 18.6846 24.2252 18.5587ZM24.2252 24.5586C18.0503 23.1107 11.0333 24.9556 10.7384 25.0346C10.61 25.0672 10.4893 25.125 10.3835 25.2046C10.2776 25.2842 10.1886 25.3841 10.1216 25.4984C10.0546 25.6127 10.011 25.7391 9.99334 25.8704C9.97564 26.0017 9.9842 26.1352 10.0185 26.2631C10.0528 26.391 10.1122 26.5109 10.1932 26.6157C10.2742 26.7205 10.3752 26.8082 10.4904 26.8736C10.6056 26.9391 10.7326 26.981 10.8641 26.9969C10.9956 27.0129 11.129 27.0026 11.2564 26.9666C11.3235 26.9476 18.0794 25.1706 23.7694 26.5055C24.3043 26.6306 24.8454 26.2975 24.9714 25.7595C25.0972 25.2226 24.7633 24.6846 24.2252 24.5586ZM34.1051 40.4544C34.1893 40.6188 34.3172 40.7567 34.4748 40.8531C34.6323 40.9494 34.8134 41.0004 34.9981 41.0004C35.1556 41.0003 35.3108 40.9629 35.4511 40.8914C35.5101 40.8614 41.3961 37.8714 44.2991 36.9544C44.8251 36.7874 45.117 36.2254 44.9501 35.6994C44.9106 35.5741 44.8469 35.4577 44.7624 35.3571C44.678 35.2564 44.5746 35.1733 44.458 35.1127C44.3414 35.052 44.214 35.015 44.0831 35.0036C43.9522 34.9922 43.8204 35.0068 43.6951 35.0465C40.6371 36.0135 34.7911 38.9835 34.5432 39.1094C34.0511 39.3594 33.8552 39.9615 34.1051 40.4544ZM24.2252 30.5586C18.0503 29.1106 11.0333 30.9545 10.7384 31.0346C10.4822 31.1033 10.2638 31.271 10.1313 31.5007C9.99867 31.7304 9.96275 32.0033 10.0314 32.2595C10.0883 32.4721 10.2137 32.6599 10.3882 32.7941C10.5626 32.9282 10.7764 33.0011 10.9964 33.0016C11.0824 33.0016 11.1694 32.9896 11.2564 32.9665C11.3235 32.9475 18.0794 31.1705 23.7694 32.5055C24.3043 32.6305 24.8454 32.2975 24.9714 31.7595C25.0972 31.2225 24.7633 30.6845 24.2252 30.5586ZM24.2252 42.5585C18.0503 41.1095 11.0333 42.9555 10.7384 43.0345C10.4822 43.1032 10.2638 43.2709 10.1313 43.5006C9.99867 43.7303 9.96275 44.0032 10.0314 44.2594C10.0883 44.472 10.2137 44.6598 10.3882 44.794C10.5626 44.9281 10.7764 45.001 10.9964 45.0015C11.0824 45.0015 11.1694 44.9895 11.2564 44.9664C11.3235 44.9474 18.0794 43.1704 23.7694 44.5054C24.3043 44.6294 24.8454 44.2974 24.9714 43.7594C25.0972 43.2225 24.7633 42.6844 24.2252 42.5585ZM24.2252 36.5585C18.0503 35.1095 11.0333 36.9545 10.7384 37.0345C10.4822 37.1033 10.2638 37.2709 10.1313 37.5006C9.99867 37.7303 9.96275 38.0033 10.0314 38.2595C10.0883 38.472 10.2137 38.6599 10.3882 38.794C10.5626 38.9282 10.7764 39.0011 10.9964 39.0015C11.0824 39.0015 11.1694 38.9896 11.2564 38.9665C11.3235 38.9475 18.0794 37.1705 23.7694 38.5055C24.3043 38.6305 24.8454 38.2974 24.9714 37.7594C25.0972 37.2225 24.7633 36.6845 24.2252 36.5585Z" fill="black"/>
<path d="M48.8672 20.9863C48.2203 20.9863 47.6953 21.5113 47.6953 22.1582C47.6953 22.8051 48.2203 23.3301 48.8672 23.3301C49.5141 23.3301 50.0391 22.8051 50.0391 22.1582C50.0391 21.5113 49.5143 20.9863 48.8672 20.9863Z" fill="black"/>
</g>
<defs>
<clipPath id="clip0_1551_137642">
<rect width="60" height="60" fill="white"/>
</clipPath>
</defs>
</svg>
