<svg width="60" height="60" viewBox="0 0 60 60" fill="none" xmlns="http://www.w3.org/2000/svg">
<path d="M9.53125 5.89258C9.83969 5.89258 10.1418 5.76719 10.3598 5.54922C10.5786 5.32887 10.702 5.03126 10.7031 4.7207C10.7031 4.41133 10.5777 4.11016 10.3598 3.89078C10.1394 3.67217 9.84167 3.5493 9.53125 3.54883C9.22087 3.54948 8.92322 3.67232 8.70273 3.89078C8.48376 4.11162 8.36043 4.40971 8.35938 4.7207C8.35938 5.02891 8.48477 5.3309 8.70273 5.54922C8.92308 5.76806 9.2207 5.8914 9.53125 5.89258Z" fill="black"/>
<path d="M58.8281 24.7623H55.8975C57.068 22.3567 57.6562 20.1238 57.6562 18.073C57.6562 8.17196 50.2488 0.117189 41.1438 0.117189C37.023 0.117189 33.0277 1.81781 30 4.82344C26.9723 1.81781 22.977 0.117189 18.8562 0.117189C17.1053 0.116323 15.3673 0.416108 13.7179 1.00348C13.108 1.22039 12.7895 1.89059 13.0059 2.50031C13.223 3.11004 13.893 3.42821 14.5029 3.21164C15.9002 2.71426 17.3725 2.46034 18.8557 2.46094C22.7682 2.46094 26.4111 4.18172 29.1138 7.30594C29.3363 7.56317 29.6599 7.71141 30 7.71141C30.3401 7.71141 30.6637 7.56317 30.8863 7.30594C33.5884 4.18172 37.2313 2.46094 41.1437 2.46094C48.9566 2.46094 55.3125 9.4643 55.3125 18.073C55.3125 20.04 54.6135 22.2858 53.2512 24.7623H42.5761C42.2663 24.7623 41.9691 24.885 41.7495 25.1033L39.2605 27.5803L36.7914 25.106C36.6496 24.9642 36.4738 24.861 36.2809 24.8065C36.0879 24.7519 35.8842 24.7477 35.6891 24.7943C35.4939 24.8412 35.3141 24.9373 35.1667 25.0736C35.0193 25.2098 34.9093 25.3815 34.8472 25.5724L32.3918 33.1384L29.4196 11.8511C29.3826 11.5867 29.2566 11.3428 29.0622 11.1599C28.8678 10.9769 28.6168 10.8658 28.3507 10.8449C28.0844 10.8236 27.8189 10.894 27.5982 11.0445C27.3775 11.195 27.215 11.4165 27.1376 11.6721L23.4715 23.724L21.5571 21.806C21.3375 21.586 21.0395 21.4622 20.7286 21.4618H20.7277C20.417 21.4619 20.119 21.5852 19.8991 21.8046L16.9388 24.7641H6.74977C5.38688 22.2867 4.6875 20.0405 4.6875 18.073C4.6875 14.9446 5.52422 11.927 7.10719 9.34571C7.44551 8.7941 7.27301 8.0727 6.72094 7.73391C6.16934 7.39559 5.44781 7.56867 5.10961 8.12028C3.3 11.0706 2.34375 14.512 2.34375 18.073C2.34375 20.1243 2.93238 22.3576 4.10344 24.7641H1.17188C0.524648 24.7641 0 25.2887 0 25.9359C0 26.5833 0.524648 27.1078 1.17188 27.1078H5.39473C7.66383 30.8126 11.1919 34.8857 15.9622 39.2986C22.5709 45.4125 29.274 49.9891 29.3413 50.035C29.5399 50.17 29.7697 50.2372 30 50.2372C30.2303 50.2372 30.4601 50.17 30.6587 50.035C30.726 49.9893 37.4291 45.4125 44.0378 39.2986C48.8091 34.8848 52.3375 30.8112 54.6062 27.1061H58.8281C59.4754 27.1061 60 26.5814 60 25.9342C60 25.2868 59.4754 24.7623 58.8281 24.7623ZM42.4668 37.5595C37.1796 42.453 31.8287 46.3445 30 47.6367C28.1745 46.3467 22.8387 42.4672 17.5535 37.5778C13.4885 33.8173 10.3519 30.3004 8.19164 27.1078H17.4239C17.7347 27.1078 18.0327 26.9843 18.2524 26.765L20.7266 24.2917L23.194 26.7641C23.3372 26.9072 23.5149 27.0109 23.71 27.065C23.9051 27.1191 24.1108 27.1219 24.3073 27.073C24.5037 27.024 24.6841 26.9249 24.8309 26.7854C24.9776 26.6459 25.0856 26.4707 25.1445 26.277L27.8334 17.439L30.7745 38.5035C30.8135 38.7836 30.9526 39.0401 31.166 39.2257C31.3793 39.4113 31.6527 39.5134 31.9355 39.5133C32.4389 39.5133 32.8917 39.1896 33.0496 38.7035L36.4855 28.1176L38.4284 30.0641C38.8852 30.5218 39.6264 30.5232 40.0846 30.0668L43.06 27.1061H51.8092C49.6527 30.2939 46.5225 33.805 42.4668 37.5595Z" fill="black"/>
</svg>
