<svg width="60" height="60" viewBox="0 0 60 60" fill="none" xmlns="http://www.w3.org/2000/svg">
<g clip-path="url(#clip0_1551_137669)">
<path d="M49.3684 26.6556C49.1505 26.4376 48.8482 26.3122 48.54 26.3122C48.2318 26.3122 47.9294 26.4376 47.7114 26.6556C47.4935 26.8735 47.3681 27.1759 47.3681 27.4841C47.3681 27.7923 47.4934 28.0946 47.7114 28.3126C47.9294 28.5306 48.2318 28.6559 48.54 28.6559C48.8482 28.6559 49.1505 28.5306 49.3684 28.3126C49.5863 28.0946 49.7118 27.7923 49.7118 27.4841C49.7118 27.1759 49.5864 26.8735 49.3684 26.6556ZM32.4853 51.3282H9.86809C9.22098 51.3282 8.69621 51.8529 8.69621 52.5001C8.69621 53.1473 9.22098 53.672 9.86809 53.672H32.4853C33.1324 53.672 33.6571 53.1473 33.6571 52.5001C33.6571 51.8529 33.1324 51.3282 32.4853 51.3282ZM32.4853 44.7657H14.6728C14.0257 44.7657 13.5009 45.2904 13.5009 45.9376C13.5009 46.5848 14.0257 47.1095 14.6728 47.1095H32.4853C33.1324 47.1095 33.6571 46.5848 33.6571 45.9376C33.6571 45.2904 33.1325 44.7657 32.4853 44.7657ZM32.4853 38.2032H9.75781C9.1107 38.2032 8.58594 38.7279 8.58594 39.3751C8.58594 40.0223 9.1107 40.547 9.75781 40.547H32.4853C33.1324 40.547 33.6571 40.0223 33.6571 39.3751C33.6571 38.7279 33.1325 38.2032 32.4853 38.2032ZM10.5864 31.9841C10.3685 31.7661 10.0661 31.6407 9.75793 31.6407C9.44973 31.6407 9.14738 31.7661 8.92953 31.9841C8.71156 32.202 8.58605 32.5044 8.58605 32.8126C8.58605 33.1208 8.71145 33.4231 8.92953 33.6411C9.14963 33.8602 9.44734 33.9836 9.75793 33.9845C10.0661 33.9845 10.3685 33.8591 10.5864 33.6411C10.8044 33.4231 10.9298 33.1208 10.9298 32.8126C10.9298 32.5044 10.8045 32.202 10.5864 31.9841ZM10.5864 45.1091C10.3685 44.8911 10.0661 44.7657 9.75793 44.7657C9.44973 44.7657 9.14738 44.8911 8.92953 45.1091C8.71156 45.327 8.58605 45.6294 8.58605 45.9376C8.58605 46.2458 8.71145 46.5481 8.92953 46.7661C9.14738 46.9841 9.44973 47.1095 9.75793 47.1095C10.0661 47.1095 10.3685 46.9841 10.5864 46.7661C10.8044 46.5481 10.9298 46.2458 10.9298 45.9376C10.9298 45.6294 10.8045 45.327 10.5864 45.1091ZM32.4853 31.6407H14.6728C14.0257 31.6407 13.5009 32.1654 13.5009 32.8126C13.5009 33.4598 14.0257 33.9845 14.6728 33.9845H32.4853C33.1324 33.9845 33.6571 33.4598 33.6571 32.8126C33.6571 32.1654 33.1325 31.6407 32.4853 31.6407ZM16.0218 14.0405H9.75781C9.1107 14.0405 8.58594 14.5652 8.58594 15.2124C8.58594 15.8596 9.1107 16.3843 9.75781 16.3843H11.718V25.1493C11.718 25.7966 12.2428 26.3212 12.8899 26.3212C13.537 26.3212 14.0618 25.7966 14.0618 25.1493V16.3843H16.022C16.6691 16.3843 17.1938 15.8596 17.1938 15.2124C17.1938 14.5652 16.6691 14.0405 16.0218 14.0405ZM27.7793 24.692L23.5906 14.8297C23.5007 14.618 23.3505 14.4375 23.1587 14.3106C22.9669 14.1837 22.742 14.116 22.512 14.116C22.2821 14.116 22.0572 14.1837 21.8654 14.3106C21.6736 14.4375 21.5234 14.618 21.4334 14.8297L17.2448 24.692C16.9917 25.2877 17.2696 25.9757 17.8653 26.2286C18.4609 26.4819 19.149 26.2038 19.402 25.6081L20.1511 23.8445H24.873L25.6221 25.6081C25.6822 25.7498 25.7697 25.8782 25.8795 25.986C25.9892 26.0939 26.1192 26.179 26.2619 26.2367C26.4046 26.2943 26.5572 26.3232 26.7111 26.3219C26.865 26.3205 27.0171 26.2888 27.1588 26.2286C27.7544 25.9756 28.0323 25.2876 27.7793 24.692ZM21.1466 21.5007L22.512 18.2855L23.8776 21.5007H21.1466ZM34.6244 20.183L37.3796 15.8387C37.7261 15.2922 37.5641 14.5681 37.0175 14.2215C36.4709 13.8747 35.7468 14.037 35.4002 14.5835L33.2367 17.9949L31.0732 14.5835C30.7265 14.037 30.0027 13.8748 29.4559 14.2215C28.9093 14.5681 28.7472 15.2922 29.0938 15.8388L31.8489 20.1832L29.0938 24.5274C28.7472 25.074 28.9093 25.7981 29.4559 26.1447C29.5858 26.2273 29.7307 26.2834 29.8823 26.3099C30.034 26.3363 30.1893 26.3327 30.3396 26.299C30.4898 26.2654 30.6319 26.2025 30.7578 26.1139C30.8836 26.0253 30.9908 25.9128 31.0732 25.7827L33.2367 22.3713L35.4002 25.7827C35.4826 25.9128 35.5897 26.0253 35.7156 26.1139C35.8415 26.2025 35.9836 26.2654 36.1338 26.299C36.284 26.3326 36.4394 26.3363 36.591 26.3098C36.7426 26.2833 36.8876 26.2272 37.0175 26.1447C37.5641 25.7981 37.7261 25.074 37.3796 24.5274L34.6244 20.183Z" fill="black"/>
<path d="M59.9834 42.4219C59.9834 41.1245 59.4254 39.9553 58.5372 39.1406C59.4254 38.3259 59.9834 37.1568 59.9834 35.8594C59.9834 33.4039 57.9857 31.4062 55.5302 31.4062H45.2177C42.7623 31.4062 40.7646 33.4039 40.7646 35.8594C40.7646 37.1568 41.3225 38.3259 42.2108 39.1406C41.3225 39.9553 40.7646 41.1245 40.7646 42.4219C40.7646 43.7193 41.3225 44.8884 42.2108 45.7031C41.3225 46.5178 40.7646 47.687 40.7646 48.9844C40.7646 50.2818 41.3225 51.4509 42.2108 52.2656C41.3225 53.0803 40.7646 54.2495 40.7646 55.5469C40.7638 56.2833 40.9468 57.0084 41.297 57.6562H3.53918C2.89301 57.6562 2.3673 57.1305 2.3673 56.4844V3.51562C2.3673 2.86945 2.89301 2.34375 3.53918 2.34375H36.7032V9.4766C36.7032 11.4319 38.2939 13.0227 40.2493 13.0227H47.3673V22.6725C47.3673 23.3197 47.8921 23.8444 48.5392 23.8444C49.1863 23.8444 49.7111 23.3197 49.7111 22.6725V11.8508L49.7082 11.8514C49.7082 11.5464 49.5921 11.2465 49.3678 11.0222L38.7038 0.358125C38.4795 0.133945 38.1796 0.0178125 37.8745 0.0178125L37.875 0H3.53906C1.60055 0 0.0234375 1.57711 0.0234375 3.51562V56.4844C0.0234375 58.4229 1.60055 60 3.53906 60H55.5301C57.9855 60 59.9832 58.0023 59.9832 55.5469C59.9832 54.2495 59.4253 53.0803 58.537 52.2656C59.4253 51.4509 59.9832 50.2818 59.9832 48.9844C59.9832 47.687 59.4253 46.5178 58.537 45.7031C59.4253 44.8884 59.9834 43.7193 59.9834 42.4219ZM39.0469 4.0159L45.7098 10.6789H40.2492C39.5863 10.6789 39.0469 10.1395 39.0469 9.4766V4.0159ZM55.5302 57.6562H45.2177C44.0546 57.6562 43.1084 56.71 43.1084 55.5469C43.1084 54.3838 44.0546 53.4375 45.2177 53.4375H55.5302C56.6932 53.4375 57.6396 54.3838 57.6396 55.5469C57.6396 56.71 56.6933 57.6562 55.5302 57.6562ZM55.5302 51.0938H45.2177C44.0546 51.0938 43.1084 50.1475 43.1084 48.9844C43.1084 47.8213 44.0546 46.875 45.2177 46.875H55.5302C56.6932 46.875 57.6396 47.8213 57.6396 48.9844C57.6396 50.1475 56.6933 51.0938 55.5302 51.0938ZM55.5302 44.5312H45.2177C44.0546 44.5312 43.1084 43.585 43.1084 42.4219C43.1084 41.2588 44.0546 40.3125 45.2177 40.3125H55.5302C56.6933 40.3125 57.6396 41.2588 57.6396 42.4219C57.6396 43.585 56.6933 44.5312 55.5302 44.5312ZM55.5302 37.9688H45.2177C44.0546 37.9688 43.1084 37.0225 43.1084 35.8594C43.1084 34.6963 44.0546 33.75 45.2177 33.75H55.5302C56.6933 33.75 57.6396 34.6963 57.6396 35.8594C57.6396 37.0225 56.6933 37.9688 55.5302 37.9688Z" fill="black"/>
</g>
<defs>
<clipPath id="clip0_1551_137669">
<rect width="60" height="60" fill="white"/>
</clipPath>
</defs>
</svg>
