<svg width="60" height="60" viewBox="0 0 60 60" fill="none" xmlns="http://www.w3.org/2000/svg">
<mask id="mask0_1551_137598" style="mask-type:luminance" maskUnits="userSpaceOnUse" x="0" y="0" width="60" height="60">
<path d="M0 0.000175476H59.9998V60H0V0.000175476Z" fill="white"/>
</mask>
<g mask="url(#mask0_1551_137598)">
<path d="M10.9663 20.0449H5.44656C4.30668 20.0449 3.38281 19.121 3.38281 17.9812V16.6377C3.38281 15.498 4.30668 14.574 5.44656 14.574H10.9663" stroke="black" stroke-width="2.4" stroke-miterlimit="10" stroke-linecap="round" stroke-linejoin="round"/>
<path d="M10.9663 45.4277H5.44656C4.30668 45.4277 3.38281 44.5039 3.38281 43.364V42.1781C3.38281 41.0384 4.30668 40.1144 5.44656 40.1144H10.9663" stroke="black" stroke-width="2.4" stroke-miterlimit="10" stroke-linecap="round" stroke-linejoin="round"/>
<path d="M6.60156 39.4629L6.60156 20.6311" stroke="black" stroke-width="2.4" stroke-miterlimit="10" stroke-linecap="round" stroke-linejoin="round"/>
<path d="M37.4849 54.1484H49.9109C51.0508 54.1484 51.9747 53.2244 51.9747 52.0847V7.91741C51.9747 6.77753 51.0508 5.85366 49.9109 5.85366H13.3138C12.174 5.85366 11.25 6.77753 11.25 7.91741V52.0847C11.25 53.2244 12.174 54.1484 13.3138 54.1484H25.0147" stroke="black" stroke-width="2.4" stroke-miterlimit="10" stroke-linecap="round" stroke-linejoin="round"/>
<path d="M31.1719 52.9629C30.525 52.9629 30 53.4879 30 54.1348C30 54.7816 30.525 55.3066 31.1719 55.3066C31.8188 55.3066 32.3438 54.7816 32.3438 54.1348C32.3438 53.4879 31.819 52.9629 31.1719 52.9629Z" fill="black"/>
<path d="M15.7739 1.20964H53.1734C55.0729 1.20964 56.613 2.74961 56.613 4.64922V55.3514C56.613 57.251 55.0729 58.791 53.1734 58.791H10.0411C8.14153 58.791 6.60156 57.251 6.60156 55.3514V45.4274" stroke="black" stroke-width="2.4" stroke-miterlimit="10" stroke-linecap="round" stroke-linejoin="round"/>
<path d="M6.60156 14.543V4.64853C6.60156 2.74891 8.14153 1.20894 10.0411 1.20894H16.2739" stroke="black" stroke-width="2.4" stroke-miterlimit="10" stroke-linecap="round" stroke-linejoin="round"/>
<path d="M27.2422 43.1641V34.1641M30.2422 43.1641V37.1641C30.2422 37.1641 30.2422 34.1641 33.2422 34.1641C36.2422 34.1641 36.2422 37.1641 36.2422 37.1641V43.1641" stroke="#17171A" stroke-width="2"/>
<path d="M24.2422 32.1641L31.2422 28.1641L38.2422 32.1641" stroke="#17171A" stroke-width="2"/>
<path d="M34.9858 17.8599C34.9656 17.8242 34.9362 17.7945 34.9008 17.7738C34.8653 17.7531 34.825 17.7422 34.7839 17.7422H31.7436L32.2533 13.8476C32.2588 13.7955 32.2465 13.7431 32.2186 13.6987C32.1906 13.6544 32.1485 13.6208 32.0991 13.6033C32.0498 13.5857 31.9959 13.5854 31.9463 13.6022C31.8966 13.619 31.8541 13.652 31.8255 13.696L28.1281 20.1736C28.1065 20.2088 28.0947 20.2491 28.0938 20.2903C28.0929 20.3316 28.1031 20.3724 28.1233 20.4084C28.1434 20.4444 28.1728 20.4745 28.2084 20.4953C28.244 20.5162 28.2845 20.5272 28.3258 20.5273H31.3207L30.9168 24.4277C30.9128 24.4796 30.9263 24.5314 30.9552 24.5748C30.984 24.6182 31.0265 24.6507 31.076 24.6671C31.1254 24.6835 31.1789 24.6829 31.228 24.6654C31.2771 24.6479 31.3189 24.6145 31.3468 24.5705L34.983 18.0935C35.0041 18.0583 35.0155 18.0181 35.016 17.9771C35.0165 17.936 35.0061 17.8956 34.9858 17.8599Z" fill="black"/>
</g>
</svg>
