<svg width="26" height="25" viewBox="0 0 26 25" fill="none" xmlns="http://www.w3.org/2000/svg">
<path fill-rule="evenodd" clip-rule="evenodd" d="M5.81249 0.904197C5.76278 0.69292 5.6368 0.499634 5.47295 0.369934C5.21041 0.162109 4.84387 0.162109 4.84387 0.162109H1.6251C1.36983 0.162109 1.12501 0.263515 0.944507 0.444019C0.764004 0.624523 0.662598 0.869339 0.662598 1.12461C0.662598 1.37988 0.764004 1.6247 0.944507 1.8052C1.12501 1.9857 1.36983 2.08711 1.6251 2.08711H4.11279L6.91921 14.0162C6.91921 14.0162 4.73298 14.2952 4.73298 16.6667C4.73298 19.1496 7.31325 19.1496 7.31325 19.1496L21.1251 19.1496C21.3804 19.1496 21.6252 19.0482 21.8057 18.8677C21.9862 18.6872 22.0876 18.4424 22.0876 18.1871C22.0876 17.9318 21.9862 17.687 21.8057 17.5065C21.6252 17.326 21.3804 17.2246 21.1251 17.2246H7.3126C7.13689 17.2246 6.96838 17.1548 6.84414 17.0306C6.7199 16.9063 6.6501 16.7378 6.6501 16.5621C6.6501 16.3864 6.7199 16.2179 6.84414 16.0936C6.96838 15.9694 7.13689 15.8996 7.3126 15.8996H21.0288C21.6125 15.9011 22.1795 15.7046 22.637 15.3421C23.0946 14.9797 23.4157 14.4728 23.5478 13.9043L25.2694 6.59215C25.3588 6.21229 25.3611 5.81714 25.2761 5.43627C25.1912 5.05541 25.0212 4.69869 24.7788 4.39282C24.5365 4.08695 24.2281 3.83985 23.8768 3.67002C23.5255 3.50019 23.1403 3.41202 22.7501 3.41211H6.40199L5.81249 0.904197ZM5.28675 0.605157C5.16962 0.512434 5.02458 0.462024 4.87518 0.462109H1.6251C1.44939 0.462109 1.28088 0.531908 1.15664 0.656151C1.0324 0.780394 0.962598 0.948903 0.962598 1.12461C0.962598 1.30032 1.0324 1.46882 1.15664 1.59307C1.28088 1.71731 1.44939 1.78711 1.6251 1.78711H4.3504L7.28971 14.281L7.11602 14.2952C6.5283 14.3433 5.98204 14.6172 5.59185 15.0593C5.20166 15.5015 4.99786 16.0775 5.02321 16.6667C5.04855 17.2558 5.30107 17.8123 5.72779 18.2192C6.15451 18.6262 6.72227 18.8522 7.31195 18.8496L21.1251 18.8496C21.3008 18.8496 21.4693 18.7798 21.5936 18.6556C21.7178 18.5313 21.7876 18.3628 21.7876 18.1871C21.7876 18.0114 21.7178 17.8429 21.5936 17.7187C21.4693 17.5944 21.3008 17.5246 21.1251 17.5246H7.3126C7.05733 17.5246 6.81251 17.4232 6.63201 17.2427C6.4515 17.0622 6.3501 16.8174 6.3501 16.5621C6.3501 16.3068 6.4515 16.062 6.63201 15.8815C6.81251 15.701 7.05733 15.5996 7.3126 15.5996H21.0292C21.545 15.6009 22.0464 15.4273 22.4508 15.107C22.8551 14.7867 23.1388 14.3388 23.2556 13.8363L24.9774 6.52345C25.0564 6.18764 25.0584 5.83829 24.9833 5.50159C24.9082 5.16488 24.7579 4.84952 24.5437 4.57912C24.3295 4.30871 24.0568 4.09026 23.7462 3.94012C23.4356 3.78997 23.0951 3.71203 22.7501 3.71211H6.16433L5.52046 0.972897C5.48625 0.827473 5.40389 0.69788 5.28675 0.605157Z" fill="#1967D2"/>
<path fill-rule="evenodd" clip-rule="evenodd" d="M23.1673 5.1383C23.0383 5.07443 22.8968 5.03985 22.753 5.03711H6.47314L8.64984 14.2746H21.0287C21.2459 14.2753 21.4569 14.2022 21.627 14.0672C21.797 13.9324 21.9163 13.7432 21.9651 13.5318L23.6875 6.22007L23.6881 6.21715C23.7183 6.07644 23.717 5.9308 23.6843 5.79066C23.6516 5.65051 23.5883 5.51935 23.4989 5.40656C23.4095 5.29378 23.2963 5.20217 23.1673 5.1383ZM6.85205 5.33711L8.88736 13.9746H21.0292C21.1784 13.9751 21.3238 13.9249 21.4406 13.8322C21.5575 13.7395 21.6393 13.6099 21.6728 13.4645L23.3948 6.1542L23.3951 6.15287C23.4157 6.05585 23.4147 5.95547 23.3922 5.85887C23.3695 5.76183 23.3256 5.671 23.2638 5.5929C23.2019 5.5148 23.1235 5.45136 23.0341 5.40713C22.9453 5.36311 22.8478 5.3392 22.7486 5.33711H6.85205Z" fill="#1967D2"/>
<path fill-rule="evenodd" clip-rule="evenodd" d="M4.87518 0.462109C5.02458 0.462024 5.16962 0.512434 5.28675 0.605157C5.40389 0.69788 5.48625 0.827473 5.52046 0.972897L6.16433 3.71211H22.7501C23.0951 3.71203 23.4356 3.78997 23.7462 3.94012C24.0568 4.09026 24.3295 4.30871 24.5437 4.57912C24.7579 4.84952 24.9082 5.16488 24.9833 5.50159C25.0584 5.83829 25.0564 6.18764 24.9774 6.52345L23.2556 13.8363C23.1388 14.3388 22.8551 14.7867 22.4508 15.107C22.0464 15.4273 21.545 15.6009 21.0292 15.5996H7.3126C7.05733 15.5996 6.81251 15.701 6.63201 15.8815C6.4515 16.062 6.3501 16.3068 6.3501 16.5621C6.3501 16.8174 6.4515 17.0622 6.63201 17.2427C6.81251 17.4232 7.05733 17.5246 7.3126 17.5246H21.1251C21.3008 17.5246 21.4693 17.5944 21.5936 17.7187C21.7178 17.8429 21.7876 18.0114 21.7876 18.1871C21.7876 18.3628 21.7178 18.5313 21.5936 18.6556C21.4693 18.7798 21.3008 18.8496 21.1251 18.8496L7.31195 18.8496C6.72227 18.8522 6.15451 18.6262 5.72779 18.2192C5.30107 17.8123 5.04855 17.2558 5.02321 16.6667C4.99786 16.0775 5.20166 15.5015 5.59185 15.0593C5.98204 14.6172 6.5283 14.3433 7.11602 14.2952L7.28971 14.281L4.3504 1.78711H1.6251C1.44939 1.78711 1.28088 1.71731 1.15664 1.59307C1.0324 1.46882 0.962598 1.30032 0.962598 1.12461C0.962598 0.948903 1.0324 0.780394 1.15664 0.656151C1.28088 0.531908 1.44939 0.462109 1.6251 0.462109H4.87518ZM22.753 5.03711H6.47314L8.64984 14.2746H21.0287C21.2459 14.2753 21.4569 14.2022 21.627 14.0672C21.797 13.9324 21.9163 13.7432 21.9651 13.5318L23.6875 6.22007L23.6881 6.21715C23.7183 6.07644 23.717 5.9308 23.6843 5.79066C23.6516 5.65051 23.5883 5.51935 23.4989 5.40656C23.4095 5.29378 23.2963 5.20217 23.1673 5.1383C23.0383 5.07443 22.8968 5.03985 22.753 5.03711ZM9.7501 19.6621C9.06385 19.6621 8.40571 19.9347 7.92046 20.42C7.43521 20.9052 7.1626 21.5634 7.1626 22.2496C7.1626 22.7614 7.31435 23.2616 7.59867 23.6871C7.88299 24.1127 8.2871 24.4443 8.7599 24.6401C9.23271 24.836 9.75297 24.8872 10.2549 24.7874C10.7568 24.6876 11.2179 24.4411 11.5797 24.0792C11.9416 23.7174 12.188 23.2563 12.2879 22.7544C12.3877 22.2525 12.3365 21.7322 12.1406 21.2594C11.9448 20.7866 11.6131 20.3825 11.1876 20.0982C10.7621 19.8139 10.2619 19.6621 9.7501 19.6621ZM8.13259 20.6321C8.56158 20.2031 9.14341 19.9621 9.7501 19.9621C10.2025 19.9621 10.6448 20.0963 11.021 20.3476C11.3971 20.599 11.6903 20.9562 11.8635 21.3742C12.0366 21.7922 12.0819 22.2521 11.9936 22.6959C11.9054 23.1396 11.6875 23.5472 11.3676 23.8671C11.0477 24.187 10.6401 24.4049 10.1964 24.4932C9.75264 24.5814 9.2927 24.5361 8.87471 24.363C8.45672 24.1898 8.09946 23.8967 7.84811 23.5205C7.59676 23.1443 7.4626 22.702 7.4626 22.2496C7.4626 21.6429 7.7036 21.0611 8.13259 20.6321ZM18.6876 19.6621C18.0014 19.6621 17.3432 19.9347 16.858 20.42C16.3727 20.9052 16.1001 21.5634 16.1001 22.2496C16.1001 22.7614 16.2519 23.2616 16.5362 23.6871C16.8205 24.1127 17.2246 24.4443 17.6974 24.6401C18.1702 24.836 18.6905 24.8872 19.1924 24.7874C19.6943 24.6876 20.1554 24.4411 20.5172 24.0792C20.8791 23.7174 21.1255 23.2563 21.2254 22.7544C21.3252 22.2525 21.274 21.7322 21.0781 21.2594C20.8823 20.7866 20.5506 20.3825 20.1251 20.0982C19.6996 19.8139 19.1994 19.6621 18.6876 19.6621ZM17.0701 20.6321C17.4991 20.2031 18.0809 19.9621 18.6876 19.9621C19.14 19.9621 19.5823 20.0963 19.9585 20.3476C20.3346 20.599 20.6278 20.9562 20.801 21.3742C20.9741 21.7922 21.0194 22.2521 20.9311 22.6959C20.8429 23.1396 20.625 23.5472 20.3051 23.8671C19.9852 24.187 19.5776 24.4049 19.1339 24.4932C18.6901 24.5814 18.2302 24.5361 17.8122 24.363C17.3942 24.1898 17.037 23.8967 16.7856 23.5205C16.5343 23.1443 16.4001 22.702 16.4001 22.2496C16.4001 21.6429 16.6411 21.0611 17.0701 20.6321ZM9.38203 21.6988C9.49098 21.626 9.61907 21.5871 9.7501 21.5871C9.9258 21.5871 10.0943 21.6569 10.2186 21.7812C10.3428 21.9054 10.4126 22.0739 10.4126 22.2496C10.4126 22.3806 10.3737 22.5087 10.3009 22.6177C10.2281 22.7266 10.1247 22.8115 10.0036 22.8617C9.88257 22.9118 9.74936 22.9249 9.62085 22.8994C9.49234 22.8738 9.37429 22.8107 9.28164 22.7181C9.18899 22.6254 9.12589 22.5074 9.10033 22.3789C9.07476 22.2503 9.08788 22.1171 9.13803 21.9961C9.18817 21.875 9.27308 21.7716 9.38203 21.6988ZM9.7501 21.2871C9.55973 21.2871 9.37364 21.3436 9.21536 21.4493C9.05708 21.5551 8.93371 21.7054 8.86086 21.8813C8.78801 22.0571 8.76895 22.2507 8.80609 22.4374C8.84323 22.6241 8.9349 22.7956 9.06951 22.9302C9.20411 23.0648 9.37562 23.1565 9.56232 23.1936C9.74903 23.2308 9.94256 23.2117 10.1184 23.1388C10.2943 23.066 10.4446 22.9426 10.5504 22.7843C10.6561 22.6261 10.7126 22.44 10.7126 22.2496C10.7126 21.9943 10.6112 21.7495 10.4307 21.569C10.2502 21.3885 10.0054 21.2871 9.7501 21.2871ZM18.3195 21.6988C18.4285 21.626 18.5566 21.5871 18.6876 21.5871C18.8633 21.5871 19.0318 21.6569 19.1561 21.7812C19.2803 21.9054 19.3501 22.0739 19.3501 22.2496C19.3501 22.3806 19.3112 22.5087 19.2384 22.6177C19.1657 22.7266 19.0622 22.8115 18.9411 22.8617C18.8201 22.9118 18.6869 22.9249 18.5583 22.8994C18.4298 22.8738 18.3118 22.8107 18.2191 22.7181C18.1265 22.6254 18.0634 22.5074 18.0378 22.3789C18.0123 22.2503 18.0254 22.1171 18.0755 21.9961C18.1257 21.875 18.2106 21.7716 18.3195 21.6988ZM18.6876 21.2871C18.4972 21.2871 18.3111 21.3436 18.1529 21.4493C17.9946 21.5551 17.8712 21.7054 17.7984 21.8813C17.7255 22.0571 17.7065 22.2507 17.7436 22.4374C17.7807 22.6241 17.8724 22.7956 18.007 22.9302C18.1416 23.0648 18.3131 23.1565 18.4998 23.1936C18.6865 23.2308 18.8801 23.2117 19.0559 23.1388C19.2318 23.066 19.3821 22.9426 19.4879 22.7843C19.5936 22.6261 19.6501 22.44 19.6501 22.2496C19.6501 21.9943 19.5487 21.7495 19.3682 21.569C19.1877 21.3885 18.9429 21.2871 18.6876 21.2871Z" fill="#1967D2"/>
<path fill-rule="evenodd" clip-rule="evenodd" d="M8.13259 20.6321C8.56158 20.2031 9.14341 19.9621 9.7501 19.9621C10.2025 19.9621 10.6448 20.0963 11.021 20.3476C11.3971 20.599 11.6903 20.9562 11.8635 21.3742C12.0366 21.7922 12.0819 22.2521 11.9936 22.6959C11.9054 23.1396 11.6875 23.5472 11.3676 23.8671C11.0477 24.187 10.6401 24.4049 10.1964 24.4932C9.75264 24.5814 9.2927 24.5361 8.87471 24.363C8.45672 24.1898 8.09946 23.8967 7.84811 23.5205C7.59676 23.1443 7.4626 22.702 7.4626 22.2496C7.4626 21.6429 7.7036 21.0611 8.13259 20.6321ZM9.21536 21.4493C9.37364 21.3436 9.55973 21.2871 9.7501 21.2871C10.0054 21.2871 10.2502 21.3885 10.4307 21.569C10.6112 21.7495 10.7126 21.9943 10.7126 22.2496C10.7126 22.44 10.6561 22.6261 10.5504 22.7843C10.4446 22.9426 10.2943 23.066 10.1184 23.1388C9.94256 23.2117 9.74903 23.2308 9.56232 23.1936C9.37562 23.1565 9.20411 23.0648 9.06951 22.9302C8.9349 22.7956 8.84323 22.6241 8.80609 22.4374C8.76895 22.2507 8.78801 22.0571 8.86086 21.8813C8.93371 21.7054 9.05708 21.5551 9.21536 21.4493Z" fill="#1967D2"/>
<path fill-rule="evenodd" clip-rule="evenodd" d="M17.0701 20.6321C17.4991 20.2031 18.0809 19.9621 18.6876 19.9621C19.14 19.9621 19.5823 20.0963 19.9585 20.3476C20.3346 20.599 20.6278 20.9562 20.801 21.3742C20.9741 21.7922 21.0194 22.2521 20.9311 22.6959C20.8429 23.1396 20.625 23.5472 20.3051 23.8671C19.9852 24.187 19.5776 24.4049 19.1339 24.4932C18.6901 24.5814 18.2302 24.5361 17.8122 24.363C17.3942 24.1898 17.037 23.8967 16.7856 23.5205C16.5343 23.1443 16.4001 22.702 16.4001 22.2496C16.4001 21.6429 16.6411 21.0611 17.0701 20.6321ZM18.1529 21.4493C18.3111 21.3436 18.4972 21.2871 18.6876 21.2871C18.9429 21.2871 19.1877 21.3885 19.3682 21.569C19.5487 21.7495 19.6501 21.9943 19.6501 22.2496C19.6501 22.44 19.5936 22.6261 19.4879 22.7843C19.3821 22.9426 19.2318 23.066 19.0559 23.1388C18.8801 23.2117 18.6865 23.2308 18.4998 23.1936C18.3131 23.1565 18.1416 23.0648 18.007 22.9302C17.8724 22.7956 17.7807 22.6241 17.7436 22.4374C17.7065 22.2507 17.7255 22.0571 17.7984 21.8813C17.8712 21.7054 17.9946 21.5551 18.1529 21.4493Z" fill="#1967D2"/>
</svg>
