<svg width="100" height="100" viewBox="0 0 100 100" fill="none" xmlns="http://www.w3.org/2000/svg">
<circle cx="50" cy="50" r="50" fill="#F4B54A"/>
<mask id="mask0_1043_107735" style="mask-type:luminance" maskUnits="userSpaceOnUse" x="16" y="16" width="68" height="68">
<path d="M82.9 82.9V17.1H17.1V82.9H82.9Z" fill="white" stroke="white" stroke-width="2.2"/>
</mask>
<g mask="url(#mask0_1043_107735)">
<path d="M38.6275 70.5756L34.8219 83.0039L57.9997 60.1084" stroke="#17171A" stroke-width="2.2" stroke-miterlimit="10" stroke-linecap="round" stroke-linejoin="round"/>
</g>
<path d="M41.8328 60.1078L39.775 66.8281" stroke="#17171A" stroke-width="2.2" stroke-miterlimit="10" stroke-linecap="round" stroke-linejoin="round"/>
<mask id="mask1_1043_107735" style="mask-type:luminance" maskUnits="userSpaceOnUse" x="16" y="16" width="68" height="68">
<path d="M82.9 82.9V17.1H17.1V82.9H82.9Z" fill="white" stroke="white" stroke-width="2.2"/>
</mask>
<g mask="url(#mask1_1043_107735)">
<path d="M58.1671 60.1562H41.8328V28.2702L49.9999 16.996L58.1671 28.2702V60.1562Z" stroke="#17171A" stroke-width="2.2" stroke-miterlimit="10" stroke-linecap="round" stroke-linejoin="round"/>
</g>
<path d="M28.1237 36.1055H41.2495" stroke="#17171A" stroke-width="2.2" stroke-miterlimit="10" stroke-linecap="round" stroke-linejoin="round"/>
<path d="M45.4262 28.0383H41.9787L28.1237 36.1052V40.4805" stroke="#17171A" stroke-width="2.2" stroke-miterlimit="10" stroke-linecap="round" stroke-linejoin="round"/>
<path d="M71.8764 40.4805V36.1052L58.0214 28.0383H49.4106" stroke="#17171A" stroke-width="2.2" stroke-miterlimit="10" stroke-linecap="round" stroke-linejoin="round"/>
<path d="M71.8763 36.1055H58.7505" stroke="#17171A" stroke-width="2.2" stroke-miterlimit="10" stroke-linecap="round" stroke-linejoin="round"/>
<path d="M28.1237 52.1484H41.2495" stroke="#17171A" stroke-width="2.2" stroke-miterlimit="10" stroke-linecap="round" stroke-linejoin="round"/>
<path d="M71.8764 56.5234V52.1482L58.0214 44.0813H41.9787L28.1235 52.1482V56.5234" stroke="#17171A" stroke-width="2.2" stroke-miterlimit="10" stroke-linecap="round" stroke-linejoin="round"/>
<path d="M71.8763 52.1484H58.7505" stroke="#17171A" stroke-width="2.2" stroke-miterlimit="10" stroke-linecap="round" stroke-linejoin="round"/>
<path d="M42.0002 28.2013L57.9998 44.0059" stroke="#17171A" stroke-width="2.2" stroke-miterlimit="10" stroke-linecap="round" stroke-linejoin="round"/>
<path d="M57.9996 28.2013L42.0001 44.0059" stroke="#17171A" stroke-width="2.2" stroke-miterlimit="10" stroke-linecap="round" stroke-linejoin="round"/>
<path d="M42.0002 59.959L57.9998 44.1544" stroke="#17171A" stroke-width="2.2" stroke-miterlimit="10" stroke-linecap="round" stroke-linejoin="round"/>
<path d="M57.9996 59.959L42.0001 44.1544" stroke="#17171A" stroke-width="2.2" stroke-miterlimit="10" stroke-linecap="round" stroke-linejoin="round"/>
<mask id="mask2_1043_107735" style="mask-type:luminance" maskUnits="userSpaceOnUse" x="16" y="16" width="68" height="68">
<path d="M82.9 82.9V17.1H17.1V82.9H82.9Z" fill="white" stroke="white" stroke-width="2.2"/>
</mask>
<g mask="url(#mask2_1043_107735)">
<path d="M58.1671 60.1084L65.1782 83.0039L42.0001 60.1084" stroke="#17171A" stroke-width="2.2" stroke-miterlimit="10" stroke-linecap="round" stroke-linejoin="round"/>
</g>
</svg>
