<svg width="18" height="20" viewBox="0 0 18 20" fill="none" xmlns="http://www.w3.org/2000/svg">
<g clip-path="url(#clip0_2790_114117)">
<path fill-rule="evenodd" clip-rule="evenodd" d="M5 6.75C4.80109 6.75 4.61032 6.67098 4.46967 6.53033C4.32902 6.38968 4.25 6.19891 4.25 6C4.25 5.80109 4.32902 5.61032 4.46967 5.46967C4.61032 5.32902 4.80109 5.25 5 5.25H12C12.1989 5.25 12.3897 5.32902 12.5303 5.46967C12.671 5.61032 12.75 5.80109 12.75 6C12.75 6.19891 12.671 6.38968 12.5303 6.53033C12.3897 6.67098 12.1989 6.75 12 6.75H5ZM5 10.75C4.80109 10.75 4.61032 10.671 4.46967 10.5303C4.32902 10.3897 4.25 10.1989 4.25 10C4.25 9.80109 4.32902 9.61032 4.46967 9.46967C4.61032 9.32902 4.80109 9.25 5 9.25H12C12.1989 9.25 12.3897 9.32902 12.5303 9.46967C12.671 9.61032 12.75 9.80109 12.75 10C12.75 10.1989 12.671 10.3897 12.5303 10.5303C12.3897 10.671 12.1989 10.75 12 10.75H5ZM5 14.75C4.80109 14.75 4.61032 14.671 4.46967 14.5303C4.32902 14.3897 4.25 14.1989 4.25 14C4.25 13.8011 4.32902 13.6103 4.46967 13.4697C4.61032 13.329 4.80109 13.25 5 13.25H9.5C9.69891 13.25 9.88968 13.329 10.0303 13.4697C10.171 13.6103 10.25 13.8011 10.25 14C10.25 14.1989 10.171 14.3897 10.0303 14.5303C9.88968 14.671 9.69891 14.75 9.5 14.75H5Z" fill="#17171A"/>
<path d="M17.25 17C17.25 18.2426 16.2426 19.25 15 19.25H3C1.75736 19.25 0.75 18.2426 0.75 17V3C0.75 1.75736 1.75736 0.75 3 0.75H11.7365C12.332 0.75 12.9032 0.98605 13.3249 1.40643L16.5884 4.65933C17.0119 5.08149 17.25 5.6549 17.25 6.2529V17Z" stroke="#17171A" stroke-width="1.5"/>
</g>
<defs>
<clipPath id="clip0_2790_114117">
<rect width="18" height="20" fill="white"/>
</clipPath>
</defs>
</svg>
