<svg width="30" height="30" viewBox="0 0 30 30" fill="none" xmlns="http://www.w3.org/2000/svg">
<circle cx="15" cy="15" r="15" fill="white"/>
<circle cx="15" cy="15" r="12" fill="#17171A"/>
<path d="M10.7583 12.1716C10.3677 11.781 10.3677 11.1479 10.7583 10.7574C11.1488 10.3668 11.782 10.3668 12.1725 10.7574L19.2435 17.8284C19.6341 18.219 19.6341 18.8521 19.2435 19.2426C18.853 19.6332 18.2199 19.6332 17.8293 19.2426L10.7583 12.1716Z" fill="white"/>
<path d="M17.8293 10.7574C18.2199 10.3668 18.853 10.3668 19.2435 10.7574C19.6341 11.1479 19.6341 11.781 19.2435 12.1716L12.1725 19.2426C11.782 19.6332 11.1488 19.6332 10.7583 19.2426C10.3677 18.8521 10.3677 18.219 10.7583 17.8284L17.8293 10.7574Z" fill="white"/>
</svg>
