<svg width="100" height="100" viewBox="0 0 100 100" fill="none" xmlns="http://www.w3.org/2000/svg">
<circle cx="50" cy="50" r="50" fill="#F4B54A"/>
<g clip-path="url(#clip0_1043_107820)">
<path d="M82 31H79.816C79.6099 30.4171 79.2288 29.9121 78.7247 29.5541C78.2206 29.1961 77.6183 29.0026 77 29H73C72.2044 29 71.4413 29.3161 70.8787 29.8787C70.3161 30.4413 70 31.2044 70 32V42C70.0026 42.6183 70.1961 43.2206 70.5541 43.7247C70.9121 44.2288 71.4171 44.6099 72 44.816V66C72 66.2652 71.8946 66.5196 71.7071 66.7071C71.5196 66.8946 71.2652 67 71 67C70.7348 67 70.4804 66.8946 70.2929 66.7071C70.1054 66.5196 70 66.2652 70 66V58C70 56.9391 69.5786 55.9217 68.8284 55.1716C68.0783 54.4214 67.0609 54 66 54H62V27C62 25.9391 61.5786 24.9217 60.8284 24.1716C60.0783 23.4214 59.0609 23 58 23H32C30.9391 23 29.9217 23.4214 29.1716 24.1716C28.4214 24.9217 28 25.9391 28 27V75H27C26.2044 75 25.4413 75.3161 24.8787 75.8787C24.3161 76.4413 24 77.2044 24 78V80C24 80.7956 24.3161 81.5587 24.8787 82.1213C25.4413 82.6839 26.2044 83 27 83H63C63.7956 83 64.5587 82.6839 65.1213 82.1213C65.6839 81.5587 66 80.7956 66 80V78C66 77.2044 65.6839 76.4413 65.1213 75.8787C64.5587 75.3161 63.7956 75 63 75H62V60H64V66C64 67.8565 64.7375 69.637 66.0503 70.9497C67.363 72.2625 69.1435 73 71 73C72.8565 73 74.637 72.2625 75.9497 70.9497C77.2625 69.637 78 67.8565 78 66V44.816C78.5829 44.6099 79.0879 44.2288 79.4459 43.7247C79.8039 43.2206 79.9974 42.6183 80 42V37H82C82.5304 37 83.0391 36.7893 83.4142 36.4142C83.7893 36.0391 84 35.5304 84 35V33C84 32.4696 83.7893 31.9609 83.4142 31.5858C83.0391 31.2107 82.5304 31 82 31V31ZM32 25H58C58.5304 25 59.0391 25.2107 59.4142 25.5858C59.7893 25.9609 60 26.4696 60 27V50H30V27C30 26.4696 30.2107 25.9609 30.5858 25.5858C30.9609 25.2107 31.4696 25 32 25V25ZM64 78V80C64 80.2652 63.8946 80.5196 63.7071 80.7071C63.5196 80.8946 63.2652 81 63 81H27C26.7348 81 26.4804 80.8946 26.2929 80.7071C26.1054 80.5196 26 80.2652 26 80V78C26 77.7348 26.1054 77.4804 26.2929 77.2929C26.4804 77.1054 26.7348 77 27 77H63C63.2652 77 63.5196 77.1054 63.7071 77.2929C63.8946 77.4804 64 77.7348 64 78ZM30 75V52H60V75H30ZM71 71C69.6744 70.9984 68.4036 70.4711 67.4662 69.5338C66.5289 68.5964 66.0016 67.3256 66 66V60C66 59.4696 65.7893 58.9609 65.4142 58.5858C65.0391 58.2107 64.5304 58 64 58H62V56H66C66.5304 56 67.0391 56.2107 67.4142 56.5858C67.7893 56.9609 68 57.4696 68 58V66C68 66.7956 68.3161 67.5587 68.8787 68.1213C69.4413 68.6839 70.2044 69 71 69C71.7956 69 72.5587 68.6839 73.1213 68.1213C73.6839 67.5587 74 66.7956 74 66V45H76V66C75.9984 67.3256 75.4711 68.5964 74.5338 69.5338C73.5964 70.4711 72.3256 70.9984 71 71V71ZM78 42C78 42.2652 77.8946 42.5196 77.7071 42.7071C77.5196 42.8946 77.2652 43 77 43H73C72.7348 43 72.4804 42.8946 72.2929 42.7071C72.1054 42.5196 72 42.2652 72 42V32C72 31.7348 72.1054 31.4804 72.2929 31.2929C72.4804 31.1054 72.7348 31 73 31H77C77.2652 31 77.5196 31.1054 77.7071 31.2929C77.8946 31.4804 78 31.7348 78 32V42ZM82 35H80V33H82V35Z" fill="#17171A" stroke="#17171A" stroke-width="0.5"/>
<path d="M54 61C54.5933 61 55.1734 60.8241 55.6667 60.4944C56.1601 60.1648 56.5446 59.6962 56.7716 59.1481C56.9987 58.5999 57.0581 57.9967 56.9424 57.4147C56.8266 56.8328 56.5409 56.2982 56.1213 55.8787C55.7018 55.4591 55.1672 55.1734 54.5853 55.0576C54.0033 54.9419 53.4001 55.0013 52.8519 55.2284C52.3038 55.4554 51.8352 55.8399 51.5056 56.3333C51.1759 56.8266 51 57.4067 51 58C51 58.7957 51.3161 59.5587 51.8787 60.1213C52.4413 60.6839 53.2044 61 54 61V61ZM54 57C54.1978 57 54.3911 57.0587 54.5556 57.1685C54.72 57.2784 54.8482 57.4346 54.9239 57.6173C54.9996 57.8 55.0194 58.0011 54.9808 58.1951C54.9422 58.3891 54.847 58.5673 54.7071 58.7071C54.5673 58.847 54.3891 58.9422 54.1951 58.9808C54.0011 59.0194 53.8 58.9996 53.6173 58.9239C53.4346 58.8482 53.2784 58.72 53.1685 58.5556C53.0586 58.3911 53 58.1978 53 58C53 57.7348 53.1054 57.4804 53.2929 57.2929C53.4804 57.1054 53.7348 57 54 57Z" fill="#17171A" stroke="#17171A" stroke-width="0.5"/>
<path d="M54 64C53.4067 64 52.8266 64.1759 52.3333 64.5056C51.8399 64.8352 51.4554 65.3038 51.2284 65.852C51.0013 66.4001 50.9419 67.0033 51.0576 67.5853C51.1734 68.1672 51.4591 68.7018 51.8787 69.1213C52.2982 69.5409 52.8328 69.8266 53.4147 69.9424C53.9967 70.0581 54.5999 69.9987 55.1481 69.7716C55.6962 69.5446 56.1648 69.1601 56.4944 68.6667C56.8241 68.1734 57 67.5933 57 67C57 66.2044 56.6839 65.4413 56.1213 64.8787C55.5587 64.3161 54.7957 64 54 64V64ZM54 68C53.8022 68 53.6089 67.9414 53.4444 67.8315C53.28 67.7216 53.1518 67.5654 53.0761 67.3827C53.0004 67.2 52.9806 66.9989 53.0192 66.8049C53.0578 66.6109 53.153 66.4327 53.2929 66.2929C53.4327 66.153 53.6109 66.0578 53.8049 66.0192C53.9989 65.9806 54.2 66.0004 54.3827 66.0761C54.5654 66.1518 54.7216 66.28 54.8315 66.4444C54.9414 66.6089 55 66.8022 55 67C55 67.2652 54.8946 67.5196 54.7071 67.7071C54.5196 67.8946 54.2652 68 54 68Z" fill="#17171A" stroke="#17171A" stroke-width="0.5"/>
<path d="M45.8571 33.5152C45.988 33.2881 46.0245 33.0187 45.9588 32.765C45.8932 32.5113 45.7305 32.2935 45.5058 32.1585C45.2812 32.0235 45.0125 31.9821 44.7577 32.0432C44.5028 32.1043 44.2821 32.263 44.1431 32.4852L41.1431 37.4852C41.0519 37.6369 41.0026 37.8101 41.0003 37.987C40.998 38.164 41.0427 38.3385 41.1299 38.4925C41.217 38.6466 41.3435 38.7747 41.4964 38.8639C41.6492 38.9531 41.8231 39.0001 42.0001 39.0002H46.2331L44.1431 42.4852C44.0726 42.5978 44.0253 42.7233 44.0038 42.8544C43.9824 42.9855 43.9873 43.1195 44.0183 43.2487C44.0493 43.3779 44.1057 43.4996 44.1842 43.6068C44.2627 43.7139 44.3618 43.8043 44.4757 43.8728C44.5895 43.9412 44.7159 43.9862 44.8474 44.0053C44.9788 44.0243 45.1128 44.017 45.2414 43.9837C45.37 43.9504 45.4907 43.8918 45.5964 43.8114C45.7021 43.7309 45.7907 43.6302 45.8571 43.5152L48.8571 38.5152C48.9482 38.3634 48.9975 38.1902 48.9998 38.0133C49.0021 37.8363 48.9574 37.6618 48.8703 37.5078C48.7831 37.3537 48.6566 37.2256 48.5038 37.1364C48.3509 37.0472 48.1771 37.0002 48.0001 37.0002H43.7671L45.8571 33.5152Z" fill="#17171A" stroke="#17171A" stroke-width="0.5"/>
<path d="M45 48C47.6513 47.9971 50.1931 46.9426 52.0679 45.0679C53.9426 43.1931 54.9971 40.6513 55 38C55.0043 36.4575 54.6482 34.9354 53.96 33.555C53.9022 33.4364 53.8214 33.3304 53.7224 33.2432C53.6235 33.1559 53.5082 33.0892 53.3833 33.0467C53.2584 33.0042 53.1263 32.9868 52.9946 32.9956C52.863 33.0044 52.7344 33.0391 52.6162 33.0978C52.498 33.1566 52.3927 33.2381 52.3062 33.3377C52.2196 33.4373 52.1537 33.5531 52.1121 33.6783C52.0706 33.8035 52.0542 33.9358 52.0639 34.0673C52.0737 34.1989 52.1094 34.3273 52.169 34.445C52.7193 35.549 53.0039 36.7664 53 38C53 39.5823 52.5308 41.129 51.6518 42.4446C50.7727 43.7602 49.5233 44.7855 48.0615 45.391C46.5997 45.9965 44.9911 46.155 43.4393 45.8463C41.8874 45.5376 40.462 44.7757 39.3431 43.6569C38.2243 42.538 37.4624 41.1126 37.1537 39.5607C36.845 38.0089 37.0035 36.4003 37.609 34.9385C38.2145 33.4767 39.2398 32.2273 40.5554 31.3482C41.871 30.4692 43.4178 30 45 30C45.2652 30 45.5196 29.8946 45.7071 29.7071C45.8946 29.5196 46 29.2652 46 29C46 28.7348 45.8946 28.4804 45.7071 28.2929C45.5196 28.1054 45.2652 28 45 28C42.3478 28 39.8043 29.0536 37.9289 30.9289C36.0536 32.8043 35 35.3478 35 38C35 40.6522 36.0536 43.1957 37.9289 45.0711C39.8043 46.9464 42.3478 48 45 48V48Z" fill="#17171A" stroke="#17171A" stroke-width="0.5"/>
</g>
<defs>
<clipPath id="clip0_1043_107820">
<rect width="60" height="60" fill="white" transform="translate(24 23)"/>
</clipPath>
</defs>
</svg>
