<svg width="252" height="252" viewBox="0 0 252 252" fill="none" xmlns="http://www.w3.org/2000/svg">
<path d="M103.557 251.598C102.629 251.598 101.716 251.441 100.804 251.111C97.359 249.824 95.2668 246.339 95.7545 242.728L109.172 141.707H55.2173C52.2442 141.707 49.5229 140.027 48.1858 137.374C46.8487 134.721 47.1319 131.534 48.9251 129.148L143.307 3.55846C145.494 0.638506 149.379 -0.397606 152.698 1.04667C156.033 2.47526 157.968 5.97606 157.37 9.55536L143.15 94.6109H196.791C199.685 94.6109 202.344 96.1965 203.712 98.7397C205.081 101.283 204.939 104.36 203.366 106.793L110.132 248.081C108.638 250.326 106.137 251.598 103.557 251.598ZM70.9477 126.008H118.139C120.42 126.008 122.559 126.997 124.053 128.693C125.548 130.373 126.24 132.649 125.941 134.894L115.858 210.844L182.193 110.31H133.869C131.557 110.31 129.37 109.305 127.86 107.531C126.366 105.773 125.721 103.434 126.114 101.173L136.543 38.7235L70.9477 126.008Z" fill="#F4B54A"/>
<path d="M70.9477 126.008H118.139C120.42 126.008 122.559 126.997 124.053 128.693C125.548 130.373 126.24 132.649 125.941 134.894L115.858 210.844L182.193 110.31H133.869C131.557 110.31 129.37 109.305 127.86 107.531C126.366 105.773 125.721 103.434 126.114 101.173L136.543 38.7235L70.9477 126.008Z" fill="#F4B54A"/>
</svg>
