<svg width="80" height="80" viewBox="0 0 80 80" fill="none" xmlns="http://www.w3.org/2000/svg">
<path d="M47.5125 74.7121H5.5C4.8125 74.7121 4.25 74.1496 4.25 73.4621V43.5746C4.25 42.8871 4.8125 42.3246 5.5 42.3246H8.6875V17.9121C8.6875 17.4246 8.975 16.9871 9.4125 16.7746L42.175 1.58711C42.5125 1.43711 42.9 1.43711 43.225 1.58711L75.9875 16.7871C76.425 16.9871 76.7125 17.4371 76.7125 17.9246V49.1496C76.7125 49.8371 76.15 50.3996 75.4625 50.3996H11.525V66.5871H47.5125C48.2 66.5871 48.7625 67.1496 48.7625 67.8371V73.4871C48.7625 74.1496 48.2 74.7121 47.5125 74.7121ZM6.75 72.2121H46.2625V69.0621H10.275C9.5875 69.0621 9.025 68.4996 9.025 67.8121V49.1371C9.025 48.4496 9.5875 47.8871 10.275 47.8871H74.2125V44.8246H6.75V72.2121ZM11.1875 42.3246H74.2125V18.7121L42.7 4.09961L11.1875 18.7121V42.3246Z" fill="#17171A"/>
<path d="M75.4656 74.7117H47.5156C46.8281 74.7117 46.2656 74.1492 46.2656 73.4617V49.1367C46.2656 48.4492 46.8281 47.8867 47.5156 47.8867H75.4531C76.1406 47.8867 76.7031 48.4492 76.7031 49.1367V73.4617C76.7156 74.1492 76.1531 74.7117 75.4656 74.7117ZM48.7656 72.2117H74.2031V50.3867H48.7656V72.2117Z" fill="#17171A"/>
<path d="M64.2484 74.7125C63.5609 74.7125 62.9984 74.15 62.9984 73.4625V49.1375C62.9984 48.45 63.5609 47.8875 64.2484 47.8875C64.9359 47.8875 65.4984 48.45 65.4984 49.1375V73.4625C65.4984 74.15 64.9359 74.7125 64.2484 74.7125ZM58.9359 74.7125C58.2484 74.7125 57.6859 74.15 57.6859 73.4625V49.1375C57.6859 48.45 58.2484 47.8875 58.9359 47.8875C59.6234 47.8875 60.1859 48.45 60.1859 49.1375V73.4625C60.1859 74.15 59.6234 74.7125 58.9359 74.7125ZM53.3734 74.7125C52.6859 74.7125 52.1234 74.15 52.1234 73.4625V49.1375C52.1234 48.45 52.6859 47.8875 53.3734 47.8875C54.0609 47.8875 54.6234 48.45 54.6234 49.1375V73.4625C54.6234 74.15 54.0609 74.7125 53.3734 74.7125ZM70.8859 44.825C70.1984 44.825 69.6359 44.2625 69.6359 43.575V22.1125L42.6109 9.575L15.5859 22.1125V43.575C15.5859 44.2625 15.0234 44.825 14.3359 44.825C13.6484 44.825 13.0859 44.2625 13.0859 43.575V21.3125C13.0859 20.825 13.3734 20.3875 13.8109 20.175L42.0859 7.05C42.4234 6.9 42.8109 6.9 43.1359 7.05L71.4109 20.175C71.8484 20.375 72.1359 20.825 72.1359 21.3125V43.575C72.1359 44.2625 71.5859 44.825 70.8859 44.825Z" fill="#17171A"/>
<path d="M69.8109 74.7125C69.1234 74.7125 68.5609 74.15 68.5609 73.4625V49.1375C68.5609 48.45 69.1234 47.8875 69.8109 47.8875C70.4984 47.8875 71.0609 48.45 71.0609 49.1375V73.4625C71.0609 74.15 70.4984 74.7125 69.8109 74.7125Z" fill="#17171A"/>
<path d="M34.186 34.3377C34.0113 34.3389 33.8384 34.3027 33.6788 34.2315C33.5193 34.1604 33.3768 34.0559 33.261 33.9252C33.1508 33.8038 33.0656 33.6619 33.0104 33.5076C32.9552 33.3532 32.9309 33.1895 32.939 33.0258C32.9472 32.8621 32.9875 32.7016 33.0578 32.5535C33.128 32.4054 33.2268 32.2726 33.3485 32.1627L38.5485 27.4752C38.7938 27.2531 39.1173 27.1375 39.4478 27.1539C39.7784 27.1703 40.0888 27.3174 40.311 27.5627C40.5331 27.808 40.6486 28.1315 40.6322 28.4621C40.6158 28.7926 40.4688 29.1031 40.2235 29.3252L35.0235 34.0127C34.786 34.2252 34.486 34.3377 34.186 34.3377ZM42.6235 33.4002C42.2735 33.4002 41.936 33.2627 41.686 32.9752C41.576 32.8529 41.4917 32.7098 41.4377 32.5544C41.3838 32.399 41.3614 32.2345 41.3719 32.0703C41.3824 31.9062 41.4255 31.7458 41.4987 31.5985C41.572 31.4513 41.6739 31.3201 41.7985 31.2127L49.711 24.2002C50.236 23.7502 51.0235 23.7877 51.4735 24.3127C51.936 24.8252 51.886 25.6252 51.361 26.0752L43.4485 33.0877C43.2235 33.3002 42.9235 33.4002 42.6235 33.4002Z" fill="#F2A720"/>
</svg>
