<svg width="10" height="8" viewBox="0 0 10 8" fill="none" xmlns="http://www.w3.org/2000/svg">
<g clip-path="url(#clip0_1821_38307)">
<path d="M9.90008 2.61851L9.39911 2.10313C9.33236 2.0343 9.25546 2 9.16853 2C9.08181 2 9.00494 2.0343 8.93819 2.10313L5.00005 6.15463L1.06209 2.10323C0.995301 2.03441 0.918439 2.00011 0.831611 2.00011C0.744747 2.00011 0.667886 2.03441 0.601132 2.10323L0.100235 2.61865C0.0333416 2.68733 0 2.76641 0 2.85578C0 2.94507 0.0334469 3.02415 0.100235 3.09283L4.76957 7.89695C4.83633 7.96566 4.91322 8 5.00005 8C5.08688 8 5.16364 7.96566 5.23036 7.89695L9.90008 3.09283C9.96683 3.02411 10 2.94504 10 2.85578C10 2.76641 9.96683 2.68733 9.90008 2.61851Z" fill="white"/>
</g>
<defs>
<clipPath id="clip0_1821_38307">
<rect width="10" height="8" fill="white"/>
</clipPath>
</defs>
</svg>
