<?xml version="1.0" encoding="UTF-8" standalone="no"?>
<!DOCTYPE svg PUBLIC "-//W3C//DTD SVG 1.1//EN" "http://www.w3.org/Graphics/SVG/1.1/DTD/svg11.dtd">
<svg width="100%" height="100%" viewBox="0 0 964 629" version="1.1" xmlns="http://www.w3.org/2000/svg" xmlns:xlink="http://www.w3.org/1999/xlink" xml:space="preserve" xmlns:serif="http://www.serif.com/" style="fill-rule:evenodd;clip-rule:evenodd;stroke-linejoin:round;stroke-miterlimit:2;">
    <g transform="matrix(1,0,0,1,471.363,330.911)">
        <g id="Markers--2-.svg" serif:id="Markers (2).svg" transform="matrix(1,0,0,1,-362,-97)">
            <circle cx="645" cy="152" r="14" style="fill:rgb(20,174,54);"/>
            <path d="M649.859,153.958C649.767,153.664 649.654,153.408 649.522,153.19C649.39,152.973 649.201,152.76 648.954,152.552C648.708,152.345 648.486,152.177 648.29,152.05C648.093,151.923 647.823,151.781 647.48,151.623C647.138,151.466 646.866,151.349 646.666,151.272C646.466,151.195 646.176,151.089 645.798,150.955C645.462,150.835 645.212,150.743 645.047,150.679C644.883,150.615 644.667,150.525 644.399,150.408C644.131,150.291 643.931,150.187 643.799,150.097C643.667,150.006 643.526,149.896 643.376,149.765C643.226,149.635 643.12,149.496 643.059,149.348C642.999,149.201 642.968,149.04 642.968,148.866C642.968,148.411 643.183,148.039 643.611,147.751C644.04,147.463 644.594,147.319 645.273,147.319C645.573,147.319 645.878,147.358 646.189,147.435C646.5,147.512 646.766,147.599 646.987,147.696C647.209,147.793 647.418,147.9 647.615,148.017C647.811,148.135 647.95,148.223 648.033,148.284C648.115,148.344 648.167,148.384 648.188,148.404C648.281,148.471 648.377,148.494 648.477,148.474C648.584,148.468 648.667,148.414 648.724,148.314L649.592,146.847C649.678,146.713 649.66,146.586 649.539,146.466C649.486,146.417 649.433,146.37 649.378,146.325C649.313,146.271 649.174,146.174 648.96,146.034C648.743,145.892 648.516,145.766 648.279,145.657C648.04,145.546 647.729,145.434 647.347,145.32C646.964,145.206 646.57,145.13 646.162,145.089L646.162,143.321C646.162,143.228 646.13,143.151 646.066,143.09C646.002,143.03 645.92,143 645.819,143L644.372,143C644.28,143 644.199,143.032 644.131,143.095C644.063,143.159 644.029,143.234 644.029,143.321L644.029,145.129C642.908,145.33 641.997,145.779 641.296,146.475C640.596,147.172 640.246,147.982 640.246,148.906C640.246,149.181 640.277,149.442 640.337,149.69C640.398,149.937 640.473,150.16 640.562,150.358C640.652,150.555 640.779,150.749 640.943,150.94C641.107,151.131 641.263,151.295 641.409,151.432C641.556,151.57 641.747,151.712 641.982,151.859C642.218,152.007 642.42,152.126 642.588,152.216C642.756,152.306 642.979,152.41 643.258,152.527C643.537,152.644 643.756,152.733 643.917,152.793C644.078,152.854 644.298,152.937 644.576,153.044C644.962,153.185 645.248,153.294 645.434,153.371C645.62,153.448 645.855,153.555 646.141,153.692C646.427,153.829 646.636,153.955 646.768,154.069C646.9,154.183 647.02,154.323 647.127,154.491C647.234,154.658 647.288,154.836 647.288,155.023C647.288,155.552 647.068,155.961 646.629,156.248C646.19,156.536 645.68,156.68 645.102,156.68C644.835,156.68 644.569,156.653 644.309,156.6C643.38,156.426 642.512,156.007 641.704,155.344L641.683,155.324C641.619,155.251 641.533,155.221 641.426,155.234C641.311,155.248 641.229,155.288 641.179,155.355L640.075,156.711C639.968,156.845 639.975,156.982 640.097,157.123C640.133,157.163 640.195,157.223 640.284,157.303C640.374,157.384 640.54,157.509 640.783,157.68C641.026,157.851 641.29,158.012 641.576,158.163C641.862,158.313 642.224,158.462 642.664,158.61C643.103,158.757 643.559,158.86 644.03,158.921L644.03,160.679C644.03,160.766 644.064,160.841 644.132,160.905C644.2,160.968 644.28,161 644.373,161L645.82,161C645.92,161 646.003,160.97 646.067,160.91C646.131,160.85 646.163,160.772 646.163,160.679L646.163,158.921C647.299,158.747 648.223,158.29 648.934,157.55C649.644,156.81 650,155.927 650,154.903C650,154.568 649.953,154.253 649.859,153.958Z" style="fill:white;fill-rule:nonzero;"/>
            <circle cx="710" cy="37" r="14" style="fill:rgb(20,174,54);"/>
            <path d="M714.859,38.959C714.767,38.664 714.654,38.408 714.522,38.19C714.39,37.973 714.201,37.76 713.954,37.552C713.708,37.345 713.486,37.177 713.29,37.05C713.093,36.923 712.823,36.781 712.48,36.623C712.138,36.466 711.866,36.349 711.666,36.272C711.466,36.195 711.176,36.089 710.798,35.955C710.462,35.835 710.212,35.743 710.047,35.679C709.883,35.615 709.667,35.525 709.399,35.408C709.131,35.291 708.931,35.187 708.799,35.097C708.667,35.006 708.526,34.896 708.376,34.765C708.226,34.635 708.12,34.496 708.059,34.348C707.999,34.201 707.968,34.04 707.968,33.866C707.968,33.411 708.183,33.039 708.611,32.751C709.04,32.463 709.594,32.319 710.273,32.319C710.573,32.319 710.878,32.358 711.189,32.435C711.5,32.512 711.766,32.599 711.987,32.696C712.209,32.793 712.418,32.9 712.615,33.017C712.811,33.135 712.95,33.223 713.033,33.284C713.115,33.344 713.167,33.384 713.188,33.404C713.281,33.471 713.377,33.495 713.477,33.475C713.584,33.468 713.667,33.414 713.724,33.314L714.592,31.847C714.678,31.713 714.66,31.586 714.539,31.465C714.486,31.417 714.433,31.37 714.378,31.325C714.313,31.271 714.174,31.174 713.96,31.034C713.743,30.892 713.516,30.766 713.279,30.657C713.04,30.546 712.729,30.434 712.347,30.32C711.964,30.206 711.57,30.13 711.162,30.089L711.162,28.321C711.162,28.228 711.13,28.151 711.066,28.09C711.002,28.03 710.92,28 710.819,28L709.372,28C709.28,28 709.199,28.032 709.131,28.095C709.063,28.159 709.029,28.234 709.029,28.321L709.029,30.13C707.908,30.33 706.997,30.779 706.296,31.475C705.596,32.172 705.246,32.982 705.246,33.906C705.246,34.181 705.277,34.442 705.337,34.69C705.398,34.938 705.473,35.16 705.562,35.358C705.652,35.555 705.779,35.75 705.943,35.94C706.107,36.131 706.263,36.295 706.409,36.433C706.556,36.57 706.747,36.712 706.982,36.859C707.218,37.007 707.42,37.126 707.588,37.216C707.756,37.306 707.979,37.41 708.258,37.527C708.537,37.644 708.756,37.733 708.917,37.793C709.078,37.854 709.298,37.937 709.576,38.044C709.962,38.185 710.248,38.294 710.434,38.371C710.62,38.448 710.855,38.555 711.141,38.692C711.427,38.83 711.636,38.955 711.768,39.069C711.9,39.183 712.02,39.324 712.127,39.491C712.234,39.658 712.288,39.836 712.288,40.023C712.288,40.552 712.068,40.961 711.629,41.248C711.19,41.536 710.68,41.68 710.102,41.68C709.835,41.68 709.569,41.653 709.309,41.6C708.38,41.426 707.512,41.007 706.704,40.344L706.683,40.324C706.619,40.251 706.533,40.221 706.426,40.234C706.311,40.248 706.229,40.288 706.179,40.355L705.075,41.711C704.968,41.845 704.975,41.982 705.097,42.123C705.133,42.163 705.195,42.223 705.284,42.303C705.374,42.384 705.54,42.509 705.783,42.68C706.026,42.851 706.29,43.012 706.576,43.163C706.862,43.313 707.224,43.462 707.664,43.61C708.103,43.757 708.559,43.86 709.03,43.921L709.03,45.679C709.03,45.766 709.064,45.841 709.132,45.905C709.2,45.968 709.28,46 709.373,46L710.82,46C710.92,46 711.003,45.97 711.067,45.91C711.131,45.85 711.163,45.773 711.163,45.679L711.163,43.921C712.299,43.747 713.223,43.29 713.934,42.55C714.644,41.81 715,40.927 715,39.903C715,39.568 714.953,39.253 714.859,38.959Z" style="fill:white;fill-rule:nonzero;"/>
            <circle cx="511" cy="180" r="14" style="fill:rgb(20,174,54);"/>
            <path d="M515.859,181.958C515.767,181.664 515.654,181.408 515.522,181.19C515.39,180.973 515.201,180.76 514.954,180.552C514.708,180.345 514.486,180.177 514.29,180.05C514.093,179.923 513.823,179.781 513.48,179.623C513.138,179.466 512.866,179.349 512.666,179.272C512.466,179.195 512.176,179.089 511.798,178.955C511.462,178.835 511.212,178.743 511.047,178.679C510.883,178.615 510.667,178.525 510.399,178.408C510.131,178.291 509.931,178.187 509.799,178.097C509.667,178.006 509.526,177.896 509.376,177.765C509.226,177.635 509.12,177.496 509.059,177.348C508.999,177.201 508.968,177.04 508.968,176.866C508.968,176.411 509.183,176.039 509.611,175.751C510.04,175.463 510.594,175.319 511.273,175.319C511.573,175.319 511.878,175.358 512.189,175.435C512.5,175.512 512.766,175.599 512.987,175.696C513.209,175.793 513.418,175.9 513.615,176.017C513.811,176.135 513.95,176.223 514.033,176.284C514.115,176.344 514.167,176.384 514.188,176.404C514.281,176.471 514.377,176.494 514.477,176.474C514.584,176.468 514.667,176.414 514.724,176.314L515.592,174.847C515.678,174.713 515.66,174.586 515.539,174.466C515.486,174.417 515.433,174.37 515.378,174.325C515.313,174.271 515.174,174.174 514.96,174.034C514.743,173.892 514.516,173.766 514.279,173.657C514.04,173.546 513.729,173.434 513.347,173.32C512.964,173.206 512.57,173.13 512.162,173.089L512.162,171.321C512.162,171.228 512.13,171.151 512.066,171.09C512.002,171.03 511.92,171 511.819,171L510.372,171C510.28,171 510.199,171.032 510.131,171.095C510.063,171.159 510.029,171.234 510.029,171.321L510.029,173.129C508.908,173.33 507.997,173.779 507.296,174.475C506.596,175.172 506.246,175.982 506.246,176.906C506.246,177.181 506.277,177.442 506.337,177.69C506.398,177.937 506.473,178.16 506.562,178.358C506.652,178.555 506.779,178.749 506.943,178.94C507.107,179.131 507.263,179.295 507.409,179.432C507.556,179.57 507.747,179.712 507.982,179.859C508.218,180.007 508.42,180.126 508.588,180.216C508.756,180.306 508.979,180.41 509.258,180.527C509.537,180.644 509.756,180.733 509.917,180.793C510.078,180.854 510.298,180.937 510.576,181.044C510.962,181.185 511.248,181.294 511.434,181.371C511.62,181.448 511.855,181.555 512.141,181.692C512.427,181.829 512.636,181.955 512.768,182.069C512.9,182.183 513.02,182.323 513.127,182.491C513.234,182.658 513.288,182.836 513.288,183.023C513.288,183.552 513.068,183.961 512.629,184.248C512.19,184.536 511.68,184.68 511.102,184.68C510.835,184.68 510.569,184.653 510.309,184.6C509.38,184.426 508.512,184.007 507.704,183.344L507.683,183.324C507.619,183.251 507.533,183.221 507.426,183.234C507.311,183.248 507.229,183.288 507.179,183.355L506.075,184.711C505.968,184.845 505.975,184.982 506.097,185.123C506.133,185.163 506.195,185.223 506.284,185.303C506.374,185.384 506.54,185.509 506.783,185.68C507.026,185.851 507.29,186.012 507.576,186.163C507.862,186.313 508.224,186.462 508.664,186.61C509.103,186.757 509.559,186.86 510.03,186.921L510.03,188.679C510.03,188.766 510.064,188.841 510.132,188.905C510.2,188.968 510.28,189 510.373,189L511.82,189C511.92,189 512.003,188.97 512.067,188.91C512.131,188.85 512.163,188.772 512.163,188.679L512.163,186.921C513.299,186.747 514.223,186.29 514.934,185.55C515.644,184.81 516,183.927 516,182.903C516,182.568 515.953,182.253 515.859,181.958Z" style="fill:white;fill-rule:nonzero;"/>
            <circle cx="14" cy="14" r="14" style="fill:rgb(20,174,54);"/>
            <path d="M18.86,15.959C18.767,15.664 18.654,15.408 18.522,15.19C18.39,14.973 18.201,14.76 17.954,14.552C17.708,14.345 17.486,14.177 17.29,14.05C17.093,13.923 16.823,13.781 16.48,13.623C16.138,13.466 15.866,13.349 15.666,13.272C15.466,13.195 15.177,13.089 14.798,12.955C14.462,12.835 14.212,12.743 14.048,12.679C13.883,12.615 13.667,12.525 13.399,12.408C13.131,12.291 12.931,12.187 12.799,12.097C12.667,12.006 12.526,11.896 12.376,11.765C12.226,11.635 12.12,11.496 12.06,11.348C11.999,11.201 11.968,11.04 11.968,10.866C11.968,10.411 12.183,10.039 12.611,9.751C13.04,9.463 13.594,9.319 14.273,9.319C14.573,9.319 14.879,9.358 15.189,9.435C15.5,9.512 15.766,9.599 15.987,9.696C16.209,9.793 16.418,9.9 16.615,10.017C16.811,10.135 16.95,10.223 17.033,10.284C17.115,10.344 17.167,10.384 17.188,10.404C17.281,10.471 17.377,10.495 17.477,10.475C17.584,10.468 17.667,10.414 17.724,10.314L18.592,8.847C18.678,8.713 18.66,8.586 18.539,8.466C18.486,8.417 18.433,8.37 18.378,8.325C18.313,8.271 18.174,8.174 17.959,8.034C17.743,7.892 17.516,7.766 17.279,7.657C17.04,7.546 16.729,7.434 16.346,7.32C15.964,7.206 15.57,7.13 15.162,7.089L15.162,5.321C15.162,5.228 15.13,5.151 15.066,5.09C15.002,5.03 14.919,5 14.819,5L13.372,5C13.28,5 13.199,5.032 13.131,5.095C13.063,5.159 13.03,5.234 13.03,5.321L13.03,7.13C11.908,7.33 10.997,7.779 10.297,8.475C9.596,9.172 9.246,9.982 9.246,10.906C9.246,11.181 9.277,11.442 9.337,11.69C9.398,11.938 9.473,12.16 9.562,12.358C9.652,12.555 9.779,12.75 9.943,12.94C10.107,13.131 10.263,13.295 10.409,13.432C10.556,13.57 10.747,13.712 10.983,13.859C11.218,14.007 11.42,14.126 11.588,14.216C11.756,14.306 11.979,14.41 12.258,14.527C12.537,14.644 12.756,14.733 12.917,14.793C13.078,14.854 13.298,14.937 13.576,15.044C13.962,15.185 14.248,15.294 14.434,15.371C14.62,15.448 14.855,15.555 15.141,15.692C15.427,15.83 15.636,15.955 15.768,16.069C15.9,16.183 16.02,16.323 16.127,16.491C16.235,16.658 16.288,16.836 16.288,17.023C16.288,17.552 16.069,17.961 15.629,18.248C15.19,18.537 14.68,18.68 14.102,18.68C13.835,18.68 13.569,18.653 13.309,18.6C12.38,18.426 11.512,18.007 10.704,17.345L10.683,17.324C10.619,17.251 10.533,17.221 10.426,17.234C10.312,17.248 10.229,17.288 10.179,17.355L9.075,18.711C8.968,18.845 8.975,18.982 9.097,19.123C9.133,19.163 9.195,19.223 9.284,19.303C9.374,19.384 9.54,19.509 9.783,19.68C10.026,19.851 10.29,20.012 10.576,20.163C10.862,20.313 11.224,20.462 11.664,20.61C12.103,20.757 12.559,20.86 13.03,20.921L13.03,22.679C13.03,22.766 13.064,22.841 13.132,22.905C13.2,22.968 13.28,23 13.373,23L14.82,23C14.92,23 15.003,22.97 15.067,22.91C15.131,22.85 15.163,22.773 15.163,22.679L15.163,20.921C16.299,20.747 17.223,20.29 17.934,19.55C18.644,18.81 19,17.927 19,16.903C19,16.568 18.953,16.253 18.86,15.959Z" style="fill:white;fill-rule:nonzero;"/>
            <circle cx="78" cy="112" r="14" style="fill:rgb(20,174,54);"/>
            <path d="M82.86,113.958C82.767,113.664 82.654,113.408 82.522,113.19C82.39,112.973 82.201,112.76 81.954,112.552C81.708,112.345 81.486,112.177 81.29,112.05C81.093,111.923 80.823,111.781 80.48,111.623C80.138,111.466 79.866,111.349 79.666,111.272C79.466,111.195 79.177,111.089 78.798,110.955C78.462,110.835 78.212,110.743 78.048,110.679C77.883,110.615 77.667,110.525 77.399,110.408C77.131,110.291 76.931,110.187 76.799,110.097C76.667,110.006 76.526,109.896 76.376,109.765C76.226,109.635 76.12,109.496 76.06,109.348C75.999,109.201 75.968,109.04 75.968,108.866C75.968,108.411 76.183,108.039 76.611,107.751C77.04,107.463 77.594,107.319 78.273,107.319C78.573,107.319 78.879,107.358 79.189,107.435C79.5,107.512 79.766,107.599 79.987,107.696C80.209,107.793 80.418,107.9 80.615,108.017C80.811,108.135 80.95,108.223 81.033,108.284C81.115,108.344 81.167,108.384 81.188,108.404C81.281,108.471 81.377,108.494 81.477,108.474C81.584,108.468 81.667,108.414 81.724,108.314L82.592,106.847C82.678,106.713 82.66,106.586 82.539,106.466C82.486,106.417 82.433,106.37 82.378,106.325C82.313,106.271 82.174,106.174 81.96,106.034C81.743,105.892 81.516,105.766 81.279,105.657C81.04,105.546 80.729,105.434 80.347,105.32C79.964,105.206 79.57,105.13 79.162,105.089L79.162,103.321C79.162,103.228 79.13,103.151 79.066,103.09C79.002,103.03 78.92,103 78.819,103L77.372,103C77.28,103 77.199,103.032 77.131,103.095C77.063,103.159 77.03,103.234 77.03,103.321L77.03,105.129C75.908,105.33 74.997,105.779 74.297,106.475C73.596,107.172 73.246,107.982 73.246,108.906C73.246,109.181 73.277,109.442 73.337,109.69C73.398,109.937 73.473,110.16 73.562,110.358C73.652,110.555 73.779,110.749 73.943,110.94C74.107,111.131 74.263,111.295 74.409,111.432C74.556,111.57 74.747,111.712 74.983,111.859C75.218,112.007 75.42,112.126 75.588,112.216C75.756,112.306 75.979,112.41 76.258,112.527C76.537,112.644 76.756,112.733 76.917,112.793C77.078,112.854 77.298,112.937 77.576,113.044C77.962,113.185 78.248,113.294 78.434,113.371C78.62,113.448 78.855,113.555 79.141,113.692C79.427,113.829 79.636,113.955 79.768,114.069C79.9,114.183 80.02,114.323 80.127,114.491C80.235,114.658 80.288,114.836 80.288,115.023C80.288,115.552 80.069,115.961 79.629,116.248C79.19,116.536 78.68,116.68 78.102,116.68C77.835,116.68 77.569,116.653 77.309,116.6C76.38,116.426 75.512,116.007 74.704,115.344L74.683,115.324C74.619,115.251 74.533,115.221 74.426,115.234C74.312,115.248 74.229,115.288 74.179,115.355L73.075,116.711C72.968,116.845 72.975,116.982 73.097,117.123C73.133,117.163 73.195,117.223 73.284,117.303C73.374,117.384 73.54,117.509 73.783,117.68C74.026,117.851 74.29,118.012 74.576,118.163C74.862,118.313 75.224,118.462 75.664,118.61C76.103,118.757 76.559,118.86 77.03,118.921L77.03,120.679C77.03,120.766 77.064,120.841 77.132,120.905C77.2,120.968 77.28,121 77.373,121L78.82,121C78.92,121 79.003,120.97 79.067,120.91C79.131,120.85 79.163,120.772 79.163,120.679L79.163,118.921C80.299,118.747 81.223,118.29 81.934,117.55C82.644,116.81 83,115.927 83,114.903C83,114.568 82.953,114.253 82.86,113.958Z" style="fill:white;fill-rule:nonzero;"/>
        </g>
        <g id="Markers--2-.svg1" serif:id="Markers (2).svg">
        </g>
    </g>
</svg>
