<svg width="20" height="21" viewBox="0 0 20 21" fill="none" xmlns="http://www.w3.org/2000/svg">
<circle cx="10" cy="10.9395" r="10" fill="#14AE36"/>
<path d="M14.214 12.6804C14.1367 12.4187 14.043 12.191 13.9329 11.9976C13.8228 11.804 13.6652 11.6152 13.4597 11.4305C13.2545 11.2459 13.0698 11.0972 12.9061 10.9842C12.7425 10.8711 12.5177 10.7446 12.2319 10.6046C11.9464 10.4647 11.7202 10.3605 11.5536 10.292C11.3869 10.2236 11.1457 10.1299 10.8302 10.0108C10.5504 9.90375 10.3421 9.82187 10.2051 9.76536C10.0682 9.70879 9.88819 9.62848 9.66496 9.52424C9.44182 9.42016 9.27514 9.32784 9.16499 9.24753C9.05488 9.16722 8.93735 9.06902 8.81232 8.95297C8.68729 8.83691 8.5995 8.71338 8.54887 8.58244C8.49836 8.45146 8.47303 8.30857 8.47303 8.1538C8.47303 7.74912 8.65154 7.41865 9.00868 7.16277C9.36586 6.90689 9.82724 6.77889 10.3928 6.77889C10.6426 6.77889 10.8974 6.81307 11.1562 6.88159C11.4149 6.95011 11.6367 7.02729 11.8212 7.11367C12.0059 7.20005 12.18 7.29531 12.3437 7.39942C12.5074 7.50362 12.6234 7.58243 12.692 7.636C12.7604 7.68961 12.8038 7.72529 12.8215 7.74318C12.899 7.80269 12.9791 7.82349 13.0625 7.80569C13.1517 7.79975 13.2202 7.75206 13.268 7.66287L13.9913 6.35926C14.0627 6.24026 14.048 6.12714 13.9467 6.01994C13.9032 5.97694 13.8585 5.93525 13.8125 5.89494C13.7591 5.84728 13.643 5.76099 13.4642 5.63593C13.2841 5.51004 13.0946 5.3981 12.8974 5.30111C12.6979 5.20298 12.4389 5.10321 12.1204 5.00207C11.8021 4.90078 11.4732 4.83238 11.1338 4.7967V3.22517C11.1338 3.14189 11.1071 3.0734 11.0536 3.0198C11.0001 2.96632 10.9316 2.93945 10.8481 2.93945H9.64266C9.56529 2.93945 9.49834 2.96769 9.44179 3.02427C9.38525 3.08084 9.35698 3.14777 9.35698 3.22517V4.83235C8.4224 5.01086 7.66345 5.4097 7.0801 6.02876C6.49682 6.64785 6.20507 7.36799 6.20507 8.18952C6.20507 8.43354 6.23046 8.66569 6.28106 8.88582C6.3316 9.10615 6.39415 9.30408 6.46858 9.47965C6.54295 9.65534 6.64865 9.82791 6.78554 9.9976C6.92242 10.1672 7.05192 10.3131 7.17392 10.4351C7.29598 10.557 7.45523 10.6835 7.6516 10.8144C7.84809 10.9455 8.01625 11.0512 8.15616 11.1315C8.29611 11.2116 8.4821 11.3041 8.71418 11.4081C8.94632 11.5123 9.12943 11.5911 9.26338 11.6448C9.39732 11.6983 9.58033 11.7728 9.81257 11.8678C10.134 11.9928 10.3721 12.0896 10.5269 12.1581C10.6817 12.2266 10.8781 12.3218 11.1163 12.4438C11.3544 12.5657 11.5284 12.6774 11.6386 12.7786C11.7487 12.8798 11.8484 13.0048 11.9377 13.1536C12.0271 13.3024 12.0718 13.4601 12.0718 13.6269C12.0718 14.0971 11.8888 14.4602 11.5226 14.7159C11.1566 14.972 10.7323 15.0999 10.2502 15.0999C10.0281 15.0998 9.80667 15.0759 9.58962 15.0287C8.81579 14.8737 8.09259 14.5017 7.41995 13.9124L7.4021 13.8945C7.34849 13.8292 7.27703 13.8024 7.18784 13.8144C7.09258 13.8263 7.02409 13.862 6.98247 13.9217L6.06277 15.1269C5.97345 15.246 5.97949 15.368 6.08066 15.493C6.11046 15.5287 6.16253 15.5824 6.2369 15.6537C6.31146 15.7253 6.44988 15.8367 6.65215 15.9888C6.85449 16.1407 7.07475 16.2834 7.3129 16.4175C7.55102 16.5513 7.85306 16.6837 8.21921 16.8147C8.58536 16.9455 8.96474 17.0377 9.35764 17.0913V18.6538C9.35764 18.7313 9.38594 18.7982 9.44245 18.8548C9.49902 18.9114 9.56595 18.9396 9.64332 18.9396H10.8488C10.9323 18.9396 11.0008 18.9128 11.0543 18.8593C11.1078 18.8058 11.1344 18.7373 11.1344 18.6538V17.0913C12.081 16.9366 12.8504 16.5303 13.4426 15.8725C14.0349 15.2147 14.3311 14.4305 14.3311 13.5198C14.3308 13.2223 14.2921 12.9425 14.214 12.6804Z" fill="white"/>
</svg>
