<svg width="26" height="24" viewBox="0 0 26 24" fill="none" xmlns="http://www.w3.org/2000/svg">
<path fill-rule="evenodd" clip-rule="evenodd" d="M13.0005 0C6.42904 0 1.0957 5.376 1.0957 12C1.0957 18.624 6.42904 24 13.0005 24C19.5719 24 24.9052 18.624 24.9052 12C24.9052 5.376 19.5719 0 13.0005 0ZM3.47666 12C3.47666 17.292 7.75046 21.6 13.0005 21.6C18.2505 21.6 22.5243 17.292 22.5243 12C22.5243 6.708 18.2505 2.4 13.0005 2.4C7.75046 2.4 3.47666 6.708 3.47666 12Z" fill="#1967D2"/>
<path d="M10.6866 7.10418L10.5988 7.14119L10.5575 7.1666L10.5189 7.19624L10.4527 7.26809L10.4264 7.30911L10.3897 7.39703L10.3723 7.48844L10.3687 7.53443C10.3662 7.59579 10.3663 7.65715 10.3662 7.71855V8.22489V9.2836V15.2216V16.0962V16.2803L10.3664 16.3724C10.3677 16.4489 10.367 16.5279 10.3897 16.6018L10.4264 16.6897L10.4527 16.7308L10.4837 16.7685L10.5575 16.8323L10.642 16.8783L10.7317 16.9065L10.7772 16.9147L10.8229 16.9192L10.8685 16.9207L10.9142 16.9191L11.0055 16.9054L11.0969 16.8747L11.1882 16.8278L11.3252 16.7429L11.5992 16.5707L11.9188 16.3582L12.2385 16.1564C12.3761 16.067 12.5107 15.9731 12.6495 15.8855L12.8778 15.7421L13.1975 15.5296L13.5171 15.3278L13.8368 15.1153L14.1565 14.9135L14.4761 14.7011L14.7958 14.4993L15.1154 14.2868L15.4351 14.085L15.7547 13.8725L16.0744 13.6707L16.3941 13.4582L16.5767 13.3432L16.7594 13.2264L17.0334 13.044L17.353 12.8422L17.5814 12.69L17.7184 12.6001L17.8097 12.5411L17.9003 12.4777L17.9874 12.404L18.0639 12.3197L18.0955 12.2749L18.1411 12.1835L18.1552 12.1375L18.1644 12.0915L18.171 11.9994L18.1644 11.9074L18.1552 11.8613L18.1411 11.8153L18.0955 11.7239L18.0639 11.6792L17.9874 11.5948L17.9003 11.5211L17.8097 11.4577L17.764 11.4282L17.5814 11.3088L17.353 11.1567L17.0334 10.9549L16.6681 10.713L16.3941 10.5406L16.0287 10.2987L15.7547 10.1263L15.4351 9.91386L15.1154 9.71206L14.7958 9.49958L14.4761 9.29778L14.1565 9.0853L13.8368 8.8835L13.5171 8.67102L13.1975 8.46922L12.8778 8.25675L12.6038 8.08436L12.3755 7.93338C12.2998 7.88288 12.2241 7.83266 12.1472 7.7841L11.9188 7.64067L11.5992 7.42819L11.3709 7.28476L11.2339 7.1984C11.1895 7.17148 11.1448 7.14427 11.0969 7.12411C11.0525 7.10542 11.0074 7.09193 10.9599 7.08461L10.8685 7.07812L10.8229 7.07964L10.7772 7.08415L10.6866 7.10418Z" fill="#1967D2"/>
</svg>
