<svg width="30" height="30" viewBox="0 0 30 30" fill="none" xmlns="http://www.w3.org/2000/svg">
<path d="M15 1.81445L3.75 5.90594V14.9999C3.75 25.2758 14.6667 28.0709 14.7766 28.0983L15 28.1523L15.2234 28.0983C15.3333 28.0709 26.25 25.2758 26.25 14.9999V5.90594L15 1.81445ZM24.375 14.9999C24.375 23.1362 16.4914 25.7875 15.0037 26.2151C13.569 25.7903 5.625 23.0666 5.625 14.9999V7.21881L15 3.8103L24.375 7.21881V14.9999Z" fill="#17171A"/>
<path d="M10.0386 14.3359L8.71289 15.6616L13.1257 20.0745L21.2886 11.9116L19.9629 10.5859L13.1257 17.4231L10.0386 14.3359Z" fill="#17171A"/>
</svg>
