<svg width="32" height="32" viewBox="0 0 32 32" fill="none" xmlns="http://www.w3.org/2000/svg">
<g clip-path="url(#clip0_1103_106665)">
<path fill-rule="evenodd" clip-rule="evenodd" d="M28.1686 0H3.8279C2.84195 0 1.89522 0.380401 1.18388 1.05994C0.430362 1.77976 4.94314e-07 2.78346 -0.000121406 3.82797L0.000791768 14.82C0.00370649 20.7047 0.00678523 26.9258 -0.00012207 28.1716C-0.00012207 29.1869 0.403186 30.1607 1.12108 30.8787C1.83897 31.5966 2.81265 32 3.8279 32H28.1686C29.1838 32 30.1575 31.5966 30.8754 30.8787C31.5933 30.1607 31.9966 29.1869 31.9966 28.1716L31.9966 28.1704C31.9876 27.0101 31.9917 21.0219 31.9957 15.2377L31.9957 15.2334C31.9992 10.0905 32.0026 5.10979 31.9966 3.82841C31.9966 3.32566 31.8976 2.82783 31.7052 2.36334C31.5128 1.89886 31.2309 1.47682 30.8754 1.12132C30.5199 0.765815 30.0979 0.483817 29.6335 0.291421C29.1691 0.0990248 28.6713 0 28.1686 0ZM28.1685 1.25826H3.82814C3.14746 1.26043 2.49531 1.53201 2.01424 2.01363C1.53316 2.49527 1.26229 3.14778 1.26083 3.82855V23.6355H30.7413V3.82865C30.7402 3.1468 30.4688 2.49322 29.9864 2.01133C29.5041 1.52945 28.8503 1.25861 28.1685 1.25826ZM1.26083 24.8867V28.1714C1.26229 28.8522 1.53316 29.5047 2.01424 29.9864C2.49537 30.468 3.1476 30.7396 3.82836 30.7417H28.1684C28.8501 30.741 29.5037 30.4701 29.986 29.9883C30.4683 29.5064 30.7399 28.853 30.7413 28.1713V24.8867H1.26083Z" fill="#17171A"/>
<circle cx="7.30603" cy="27.8737" r="1.10061" stroke="#17171A" stroke-width="1.3"/>
<circle cx="12.1489" cy="27.8737" r="1.10061" stroke="#17171A" stroke-width="1.3"/>
<circle cx="9.47925" cy="17.3304" r="3.77029" stroke="#17171A" stroke-width="1.3"/>
<circle cx="9.47925" cy="17.3309" r="1.55984" stroke="#17171A" stroke-width="1.3"/>
<circle cx="9.50476" cy="7.49878" r="2.84878" stroke="#17171A" stroke-width="1.3"/>
<circle cx="22.9924" cy="7.47302" r="3.77029" stroke="#17171A" stroke-width="1.3"/>
<circle cx="22.9924" cy="7.47278" r="1.55325" stroke="#17171A" stroke-width="1.3"/>
<circle cx="22.9924" cy="17.3314" r="2.85134" stroke="#17171A" stroke-width="1.3"/>
<circle cx="19.8998" cy="27.8737" r="1.10061" stroke="#17171A" stroke-width="1.3"/>
<circle cx="24.743" cy="27.8737" r="1.10061" stroke="#17171A" stroke-width="1.3"/>
</g>
<defs>
<clipPath id="clip0_1103_106665">
<rect width="32" height="32" fill="white"/>
</clipPath>
</defs>
</svg>
