<svg width="40" height="40" viewBox="0 0 40 40" fill="none" xmlns="http://www.w3.org/2000/svg">
<g clip-path="url(#clip0_1103_106790)">
<path d="M27.5602 0.46875L12.4398 0.46875C11.6045 0.46937 10.8036 0.801419 10.2129 1.392C9.62214 1.98258 9.28989 2.78344 9.28906 3.61875L9.28906 35.1211C9.28975 35.5506 9.43643 35.9671 9.70502 36.3023C9.97361 36.6375 10.3482 36.8714 10.7672 36.9656L11.875 39.1828C11.9275 39.2875 12.008 39.3755 12.1076 39.437C12.2072 39.4986 12.322 39.5312 12.4391 39.5312L13.6984 39.5312C13.8155 39.5312 13.9303 39.4986 14.0299 39.437C14.1295 39.3755 14.21 39.2875 14.2625 39.1828L15.3484 37.0109L24.6508 37.0109L25.7367 39.1828C25.7892 39.2875 25.8697 39.3755 25.9693 39.437C26.0689 39.4986 26.1837 39.5312 26.3008 39.5312L27.5602 39.5312C27.6772 39.5312 27.792 39.4986 27.8916 39.437C27.9912 39.3755 28.0718 39.2875 28.1242 39.1828L29.2328 36.9656C29.6518 36.8714 30.0264 36.6375 30.295 36.3023C30.5636 35.9671 30.7102 35.5506 30.7109 35.1211L30.7109 3.61875C30.7101 2.78344 30.3779 1.98258 29.7871 1.392C29.1964 0.801419 28.3955 0.46937 27.5602 0.46875ZM12.4398 1.72891L27.5602 1.72891C28.0617 1.7287 28.5429 1.92764 28.8978 2.28201C29.2528 2.63638 29.4525 3.11718 29.4531 3.61875L29.4531 11.8094L10.5469 11.8094L10.5469 3.61875C10.5475 3.11718 10.7472 2.63638 11.1022 2.28201C11.4571 1.92764 11.9383 1.7287 12.4398 1.72891ZM13.3109 38.2711L12.8281 38.2711L12.1984 37.0109L13.9406 37.0109L13.3109 38.2711ZM27.1719 38.2711L26.6891 38.2711L26.0594 37.0109L27.8016 37.0109L27.1719 38.2711ZM28.8203 35.7508L11.1797 35.7508C11.0127 35.7506 10.8526 35.6842 10.7344 35.5662C10.6162 35.4481 10.5496 35.2881 10.5492 35.1211L10.5492 13.0695L29.4531 13.0695L29.4531 35.1211C29.4529 35.204 29.4364 35.286 29.4045 35.3625C29.3726 35.4391 29.3259 35.5085 29.2671 35.567C29.2084 35.6255 29.1387 35.6718 29.062 35.7033C28.9853 35.7349 28.9032 35.751 28.8203 35.7508Z" fill="#17171A"/>
<path d="M12.4398 10.5461C12.5225 10.5461 12.6044 10.5298 12.6808 10.4982C12.7572 10.4665 12.8266 10.4201 12.8851 10.3617C12.9435 10.3032 12.9899 10.2338 13.0216 10.1574C13.0532 10.081 13.0695 9.9991 13.0695 9.91641L13.0695 6.13828C13.0638 5.97501 12.9949 5.82035 12.8773 5.70689C12.7598 5.59342 12.6028 5.53 12.4394 5.53C12.2761 5.53 12.1191 5.59342 12.0015 5.70689C11.884 5.82035 11.8151 5.97501 11.8094 6.13828L11.8094 9.92109C11.8106 10.0874 11.8776 10.2465 11.9957 10.3636C12.1138 10.4807 12.2735 10.5463 12.4398 10.5461ZM12.4398 14.3289C12.3571 14.3288 12.2751 14.345 12.1986 14.3766C12.1221 14.4082 12.0526 14.4546 11.9941 14.5131C11.9355 14.5715 11.8891 14.641 11.8574 14.7174C11.8257 14.7939 11.8094 14.8758 11.8094 14.9586L11.8094 20.7391C11.8064 20.8237 11.8205 20.908 11.8508 20.9871C11.8811 21.0661 11.927 21.1382 11.9858 21.1991C12.0446 21.2601 12.1151 21.3085 12.193 21.3416C12.271 21.3747 12.3548 21.3917 12.4394 21.3917C12.5241 21.3917 12.6079 21.3747 12.6858 21.3416C12.7637 21.3085 12.8342 21.2601 12.893 21.1991C12.9518 21.1382 12.9978 21.0661 13.0281 20.9871C13.0584 20.908 13.0725 20.8237 13.0695 20.7391L13.0695 14.9586C13.0695 14.7916 13.0032 14.6314 12.8851 14.5133C12.767 14.3952 12.6068 14.3289 12.4398 14.3289ZM17.4797 4.24844L22.5203 4.24844C22.6836 4.24269 22.8382 4.17379 22.9517 4.05625C23.0652 3.93872 23.1286 3.78173 23.1286 3.61836C23.1286 3.45499 23.0652 3.298 22.9517 3.18047C22.8382 3.06293 22.6836 2.99403 22.5203 2.98828L17.4797 2.98828C17.3164 2.99403 17.1617 3.06293 17.0483 3.18047C16.9348 3.298 16.8714 3.45499 16.8714 3.61836C16.8714 3.78173 16.9348 3.93872 17.0483 4.05625C17.1617 4.17379 17.3164 4.24269 17.4797 4.24844Z" fill="#17171A"/>
</g>
<defs>
<clipPath id="clip0_1103_106790">
<rect width="40" height="40" fill="white"/>
</clipPath>
</defs>
</svg>
