<svg width="40" height="40" viewBox="0 0 40 40" fill="none" xmlns="http://www.w3.org/2000/svg">
<path d="M37.1447 23.8783L2.85512 23.8783C2.36327 23.8777 1.89173 23.682 1.54393 23.3342C1.19614 22.9864 1.00048 22.5149 0.999878 22.023L0.999878 9.85524C1.00036 9.36335 1.19598 8.89174 1.5438 8.54392C1.89162 8.1961 2.36323 8.00048 2.85512 8L37.1447 8C37.6366 8.00048 38.1082 8.1961 38.456 8.54392C38.8038 8.89174 38.9994 9.36335 38.9999 9.85524L38.9999 22.023C38.9993 22.5149 38.8037 22.9864 38.4559 23.3342C38.1081 23.682 37.6365 23.8777 37.1447 23.8783ZM2.85512 9.46154C2.75074 9.46166 2.65067 9.50318 2.57686 9.57699C2.50306 9.65079 2.46154 9.75086 2.46142 9.85524L2.46142 22.023C2.46154 22.1274 2.50306 22.2275 2.57686 22.3013C2.65067 22.3751 2.75074 22.4166 2.85512 22.4167L37.1447 22.4167C37.2491 22.4166 37.3491 22.3751 37.4229 22.3013C37.4967 22.2275 37.5383 22.1274 37.5384 22.023L37.5384 9.85524C37.5383 9.75086 37.4967 9.65079 37.4229 9.57699C37.3491 9.50318 37.2491 9.46166 37.1447 9.46154L2.85512 9.46154Z" fill="#17171A"/>
<path d="M5.47319 27.0124C5.36932 27.0121 5.26672 26.9896 5.17221 26.9465C5.0777 26.9035 4.99346 26.8407 4.92511 26.7625L2.18472 23.6284C2.09246 23.5229 2.03251 23.393 2.01201 23.2544C1.99151 23.1157 2.01132 22.9741 2.0691 22.8463C2.12687 22.7186 2.22015 22.6102 2.33783 22.534C2.45551 22.4579 2.59262 22.4171 2.7328 22.4167L37.2672 22.4167C37.4073 22.4171 37.5445 22.4579 37.6621 22.534C37.7798 22.6102 37.8731 22.7186 37.9309 22.8463C37.9886 22.974 38.0085 23.1157 37.988 23.2544C37.9675 23.393 37.9075 23.5229 37.8152 23.6284L35.0749 26.7625C35.0065 26.8407 34.9223 26.9035 34.8278 26.9465C34.7333 26.9896 34.6306 27.0121 34.5268 27.0124L5.47319 27.0124ZM5.80523 25.5508L34.1947 25.5508L35.6563 23.8783L4.34278 23.8783L5.80523 25.5508ZM27.88 12.761L12.12 12.761C11.2631 12.7599 10.4417 12.419 9.83579 11.813C9.22992 11.2071 8.88913 10.3856 8.88817 9.52868L8.88817 8.73077C8.88817 8.53696 8.96516 8.35108 9.1022 8.21404C9.23925 8.07699 9.42512 8 9.61894 8L30.381 8C30.5748 8 30.7607 8.07699 30.8978 8.21404C31.0348 8.35108 31.1118 8.53696 31.1118 8.73077L31.1118 9.52868C31.1108 10.3856 30.77 11.2071 30.1642 11.813C29.5583 12.419 28.7369 12.7599 27.88 12.761ZM10.3497 9.46154L10.3497 9.52868C10.3502 9.99808 10.5368 10.4481 10.8687 10.7801C11.2006 11.1121 11.6506 11.2988 12.12 11.2994L27.88 11.2994C28.3494 11.2988 28.7994 11.1121 29.1313 10.7801C29.4631 10.4481 29.6498 9.99808 29.6503 9.52868L29.6503 9.46154L10.3497 9.46154ZM32.7885 20.3628C32.2398 20.3628 31.7034 20.2001 31.2472 19.8953C30.791 19.5904 30.4354 19.1572 30.2254 18.6503C30.0155 18.1433 29.9605 17.5855 30.0676 17.0474C30.1746 16.5093 30.4388 16.0149 30.8268 15.627C31.2148 15.239 31.7091 14.9748 32.2472 14.8677C32.7854 14.7607 33.3432 14.8156 33.8501 15.0256C34.357 15.2356 34.7903 15.5912 35.0951 16.0474C35.3999 16.5036 35.5626 17.0399 35.5626 17.5886C35.5619 18.3242 35.2694 19.0294 34.7493 19.5495C34.2292 20.0696 33.524 20.3621 32.7885 20.3628ZM32.7885 16.2764C32.5288 16.2764 32.275 16.3534 32.0591 16.4977C31.8433 16.6419 31.675 16.847 31.5757 17.0869C31.4764 17.3267 31.4504 17.5907 31.5011 17.8453C31.5518 18.1 31.6768 18.3339 31.8604 18.5174C32.0441 18.701 32.278 18.826 32.5327 18.8766C32.7873 18.9272 33.0513 18.9011 33.2911 18.8017C33.531 18.7022 33.7359 18.5339 33.8801 18.318C34.0243 18.1021 34.1012 17.8483 34.1011 17.5886C34.1007 17.2406 33.9623 16.907 33.7162 16.661C33.4701 16.415 33.1364 16.2767 32.7885 16.2764ZM22.501 18.3194L19.6643 18.3194C19.4705 18.3194 19.2846 18.2424 19.1476 18.1054C19.0105 17.9683 18.9335 17.7824 18.9335 17.5886C18.9335 17.3948 19.0105 17.2089 19.1476 17.0719C19.2846 16.9348 19.4705 16.8578 19.6643 16.8578L22.501 16.8578C22.6949 16.8578 22.8807 16.9348 23.0178 17.0719C23.1548 17.2089 23.2318 17.3948 23.2318 17.5886C23.2318 17.7824 23.1548 17.9683 23.0178 18.1053C22.8807 18.2424 22.6949 18.3194 22.501 18.3194ZM28.0412 18.3194L25.204 18.3194C25.0102 18.3194 24.8243 18.2424 24.6872 18.1053C24.5502 17.9683 24.4732 17.7824 24.4732 17.5886C24.4732 17.3948 24.5502 17.2089 24.6872 17.0719C24.8243 16.9348 25.0102 16.8578 25.204 16.8578L28.0412 16.8578C28.235 16.8578 28.4209 16.9348 28.5579 17.0719C28.695 17.2089 28.772 17.3948 28.772 17.5886C28.772 17.7824 28.695 17.9683 28.5579 18.1053C28.4209 18.2424 28.235 18.3194 28.0412 18.3194ZM6.96898 34.4986C6.83776 34.4985 6.709 34.4631 6.5962 34.396C6.48341 34.329 6.39075 34.2328 6.32795 34.1176C6.26516 34.0024 6.23454 33.8724 6.23933 33.7412C6.24411 33.6101 6.28411 33.4827 6.35514 33.3723L7.0142 32.3479L6.35514 31.3248C6.27912 31.2068 6.23869 31.0694 6.23869 30.9291C6.23869 30.7887 6.27912 30.6513 6.35514 30.5333L7.2686 29.1174C7.3735 28.9544 7.53885 28.8398 7.72827 28.7987C7.91769 28.7577 8.11568 28.7935 8.27866 28.8984C8.44164 29.0033 8.55628 29.1687 8.59735 29.3581C8.63842 29.5475 8.60256 29.7455 8.49766 29.9085L7.83906 30.932L8.49766 31.9551C8.57358 32.0731 8.61396 32.2104 8.61396 32.3506C8.61396 32.4909 8.57358 32.6282 8.49766 32.7462L7.5842 34.1648C7.51778 34.2675 7.42665 34.3518 7.31917 34.4102C7.21168 34.4685 7.09127 34.4989 6.96898 34.4986ZM11.9985 34.4986C11.8673 34.4985 11.7385 34.4631 11.6257 34.396C11.5129 34.329 11.4203 34.2328 11.3575 34.1176C11.2947 34.0024 11.2641 33.8724 11.2689 33.7412C11.2736 33.6101 11.3136 33.4827 11.3847 33.3723L12.0433 32.3479L11.3847 31.3248C11.3086 31.2068 11.2682 31.0694 11.2682 30.9291C11.2682 30.7887 11.3086 30.6513 11.3847 30.5333L12.2981 29.1174C12.403 28.9544 12.5684 28.8398 12.7578 28.7987C12.9472 28.7577 13.1452 28.7935 13.3082 28.8984C13.4712 29.0033 13.5858 29.1687 13.6269 29.3581C13.6679 29.5475 13.6321 29.7455 13.5272 29.9085L12.8681 30.932L13.5272 31.9551C13.6031 32.0731 13.6435 32.2104 13.6435 32.3506C13.6435 32.4909 13.6031 32.6282 13.5272 32.7462L12.6137 34.1648C12.5473 34.2675 12.4562 34.3518 12.3487 34.4102C12.2412 34.4685 12.1208 34.4989 11.9985 34.4986ZM17.028 34.4986C16.8968 34.4985 16.768 34.4631 16.6553 34.396C16.5425 34.329 16.4498 34.2328 16.387 34.1176C16.3242 34.0024 16.2936 33.8724 16.2984 33.7412C16.3032 33.6101 16.3432 33.4827 16.4142 33.3723L17.0728 32.3479L16.4142 31.3248C16.3382 31.2068 16.2977 31.0694 16.2977 30.9291C16.2977 30.7887 16.3382 30.6513 16.4142 30.5333L17.3276 29.1174C17.3786 29.0347 17.4456 28.9629 17.5246 28.9064C17.6037 28.8498 17.6932 28.8096 17.788 28.7881C17.8828 28.7666 17.9809 28.7642 18.0766 28.781C18.1723 28.7979 18.2637 28.8337 18.3455 28.8863C18.4272 28.9389 18.4976 29.0073 18.5525 29.0874C18.6075 29.1676 18.6459 29.2579 18.6656 29.3531C18.6852 29.4483 18.6856 29.5464 18.6669 29.6418C18.6481 29.7372 18.6105 29.8278 18.5563 29.9085L17.899 30.932L18.5576 31.9551C18.6335 32.0731 18.6739 32.2104 18.6739 32.3506C18.6739 32.4909 18.6335 32.6282 18.5576 32.7462L17.6442 34.1648C17.5777 34.2676 17.4864 34.352 17.3787 34.4104C17.2711 34.4687 17.1505 34.4991 17.028 34.4986ZM22.0553 34.4986C21.9241 34.4984 21.7954 34.4629 21.6827 34.3959C21.5699 34.3288 21.4773 34.2326 21.4146 34.1174C21.3519 34.0022 21.3213 33.8722 21.3261 33.7411C21.3309 33.61 21.3709 33.4826 21.4419 33.3723L22.1009 32.3479L21.4423 31.3248C21.3663 31.2068 21.3259 31.0694 21.3259 30.9291C21.3259 30.7887 21.3663 30.6513 21.4423 30.5333L22.3558 29.1174C22.4068 29.0347 22.4737 28.9629 22.5528 28.9064C22.6318 28.8498 22.7214 28.8096 22.8162 28.7881C22.9109 28.7666 23.0091 28.7642 23.1048 28.781C23.2005 28.7979 23.2919 28.8337 23.3736 28.8863C23.4553 28.9389 23.5257 29.0073 23.5807 29.0874C23.6357 29.1676 23.6741 29.2579 23.6937 29.3531C23.7133 29.4483 23.7138 29.5464 23.695 29.6418C23.6762 29.7372 23.6386 29.8278 23.5844 29.9085L22.9272 30.932L23.5858 31.9551C23.6617 32.0731 23.7021 32.2104 23.7021 32.3506C23.7021 32.4909 23.6617 32.6282 23.5858 32.7462L22.6723 34.1648C22.6057 34.2677 22.5143 34.3523 22.4065 34.4106C22.2987 34.4689 22.1779 34.4992 22.0553 34.4986ZM27.0866 34.4986C26.9554 34.4985 26.8266 34.4631 26.7139 34.396C26.6011 34.329 26.5084 34.2328 26.4456 34.1176C26.3828 34.0024 26.3522 33.8724 26.357 33.7412C26.3618 33.6101 26.4018 33.4827 26.4728 33.3723L27.1318 32.3479L26.4728 31.3248C26.3968 31.2068 26.3563 31.0694 26.3563 30.9291C26.3563 30.7887 26.3968 30.6513 26.4728 30.5333L27.3862 29.1174C27.4382 29.0367 27.5055 28.967 27.5844 28.9124C27.6633 28.8577 27.7521 28.8191 27.8459 28.7987C27.9397 28.7784 28.0366 28.7767 28.131 28.7938C28.2255 28.811 28.3156 28.8465 28.3963 28.8984C28.477 28.9504 28.5467 29.0177 28.6014 29.0966C28.6561 29.1754 28.6947 29.2643 28.715 29.3581C28.7353 29.4519 28.737 29.5488 28.7199 29.6432C28.7028 29.7376 28.6673 29.8278 28.6153 29.9085L27.9567 30.932L28.6153 31.9551C28.6912 32.0731 28.7316 32.2104 28.7316 32.3506C28.7316 32.4909 28.6912 32.6282 28.6153 32.7462L27.7018 34.1648C27.6354 34.2675 27.5443 34.3518 27.4368 34.4102C27.3293 34.4685 27.2089 34.4989 27.0866 34.4986ZM32.1162 34.4986C31.9849 34.4985 31.8562 34.4631 31.7434 34.396C31.6306 34.329 31.5379 34.2328 31.4751 34.1176C31.4123 34.0024 31.3817 33.8724 31.3865 33.7412C31.3913 33.6101 31.4313 33.4827 31.5023 33.3723L32.1609 32.3479L31.5023 31.3248C31.4263 31.2068 31.3859 31.0694 31.3859 30.9291C31.3859 30.7887 31.4263 30.6513 31.5023 30.5333L32.4158 29.1174C32.5207 28.9544 32.686 28.8398 32.8754 28.7987C33.0649 28.7577 33.2628 28.7935 33.4258 28.8984C33.5888 29.0033 33.7035 29.1687 33.7445 29.3581C33.7856 29.5475 33.7497 29.7455 33.6448 29.9085L32.9858 30.932L33.6448 31.9551C33.7208 32.0731 33.7611 32.2104 33.7611 32.3506C33.7611 32.4909 33.7208 32.6282 33.6448 32.7462L32.7314 34.1648C32.665 34.2675 32.5738 34.3518 32.4663 34.4102C32.3589 34.4685 32.2384 34.4989 32.1162 34.4986Z" fill="#17171A"/>
</svg>
