<svg width="40" height="40" viewBox="0 0 40 40" fill="none" xmlns="http://www.w3.org/2000/svg">
<path d="M37.0534 7.6875H2.94664C1.32187 7.6875 0 9.00937 0 10.6341V29.3668C0 30.9916 1.32187 32.3134 2.94664 32.3134H37.0534C38.6782 32.3134 40 30.9916 40 29.3668V10.6341C40 9.00937 38.6782 7.6875 37.0534 7.6875ZM38.7879 29.3668C38.7879 30.3232 38.0098 31.1012 37.0534 31.1012H2.94664C1.99023 31.1012 1.21211 30.3231 1.21211 29.3668V10.6341C1.21211 9.67781 1.99023 8.89969 2.94664 8.89969H37.0534C38.0098 8.89969 38.7879 9.67781 38.7879 10.6341V29.3668ZM29.5204 11.0791H5.22289C4.16062 11.0791 3.29641 11.9434 3.29641 13.0056V27.2965C3.29641 28.3588 4.16062 29.223 5.22289 29.223H29.5204C30.5827 29.223 31.4469 28.3588 31.4469 27.2965V13.0056C31.4468 11.9433 30.5827 11.0791 29.5204 11.0791ZM30.2347 27.2965C30.2347 27.6904 29.9142 28.0109 29.5204 28.0109H5.22289C4.82898 28.0109 4.50852 27.6904 4.50852 27.2965V13.0056C4.50852 12.6117 4.82898 12.2913 5.22289 12.2913H29.5204C29.9143 12.2913 30.2347 12.6117 30.2347 13.0056V27.2965ZM34.9274 12.7768C33.7989 12.7768 32.8808 13.6949 32.8808 14.8234C32.8808 15.952 33.7989 16.8701 34.9274 16.8701C36.0559 16.8701 36.9741 15.952 36.9741 14.8234C36.9741 13.6949 36.0559 12.7768 34.9274 12.7768ZM34.9274 15.6579C34.4673 15.6579 34.093 15.2835 34.093 14.8234C34.093 14.3633 34.4673 13.9889 34.9274 13.9889C35.3876 13.9889 35.762 14.3633 35.762 14.8234C35.7619 15.2835 35.3876 15.6579 34.9274 15.6579ZM34.9274 18.672C33.7989 18.672 32.8808 19.5902 32.8808 20.7187C32.8808 21.8472 33.7989 22.7653 34.9274 22.7653C36.0559 22.7653 36.9741 21.8472 36.9741 20.7187C36.9741 19.5902 36.0559 18.672 34.9274 18.672ZM34.9274 21.5531C34.4673 21.5531 34.093 21.1787 34.093 20.7186C34.093 20.2584 34.4673 19.8841 34.9274 19.8841C35.3876 19.8841 35.762 20.2584 35.762 20.7186C35.762 21.1787 35.3876 21.5531 34.9274 21.5531ZM19.2362 17.3939C19.1791 15.6245 17.8291 14.4186 17.7716 14.3681C17.5209 14.1478 17.1402 14.1726 16.9188 14.4224C16.6976 14.6723 16.7208 15.0549 16.9698 15.2772C16.98 15.2863 17.9899 16.202 18.025 17.4426C18.0469 18.2156 17.6828 18.9827 16.943 19.7226C15.2598 21.4058 15.3558 23.1198 15.7326 24.2614C16.127 25.4561 16.9069 26.2567 16.9399 26.2902C16.9961 26.3473 17.0631 26.3927 17.1371 26.4237C17.211 26.4547 17.2904 26.4706 17.3705 26.4705C17.5236 26.4705 17.6768 26.4127 17.7949 26.2971C18.0335 26.0634 18.0375 25.6802 17.8046 25.4408C17.7983 25.4343 17.1702 24.7814 16.872 23.8457C16.4971 22.6694 16.8094 21.5705 17.8002 20.5798C18.7894 19.5904 19.2725 18.5186 19.2362 17.3939ZM22.0873 18.6745C22.0494 17.4995 21.1562 16.7017 21.1182 16.6683C21.0584 16.6157 20.9889 16.5755 20.9135 16.5499C20.8382 16.5242 20.7585 16.5136 20.6791 16.5188C20.5997 16.5239 20.522 16.5446 20.4506 16.5798C20.3792 16.6149 20.3154 16.6638 20.2629 16.7236C20.1568 16.8443 20.103 17.0023 20.1134 17.1627C20.1237 17.3231 20.1974 17.4728 20.3181 17.5789C20.3235 17.5836 20.8552 18.0785 20.8757 18.7137C20.8887 19.1159 20.6915 19.5236 20.2896 19.9255C19.4263 20.7888 19.1451 21.8527 19.4978 22.9212C19.7499 23.6848 20.2323 24.189 20.2865 24.244C20.3428 24.3013 20.41 24.3468 20.4841 24.3778C20.5583 24.4088 20.6378 24.4247 20.7182 24.4246C20.8377 24.4246 20.9545 24.3893 21.054 24.3231C21.1535 24.2569 21.2312 24.1628 21.2773 24.0525C21.3235 23.9423 21.336 23.8209 21.3133 23.7036C21.2906 23.5862 21.2337 23.4782 21.1498 23.3931C21.1465 23.3898 20.812 23.0356 20.6488 22.5412C20.4383 21.9034 20.6012 21.3281 21.1467 20.7826C21.795 20.1342 22.1115 19.425 22.0873 18.6745ZM14.8736 18.6745C14.8357 17.4995 13.9425 16.7017 13.9045 16.6683C13.8447 16.6157 13.7752 16.5755 13.6998 16.5499C13.6245 16.5242 13.5448 16.5136 13.4654 16.5188C13.386 16.5239 13.3084 16.5446 13.2369 16.5798C13.1655 16.6149 13.1017 16.6638 13.0492 16.7236C12.9431 16.8443 12.8894 17.0023 12.8997 17.1627C12.9101 17.3231 12.9837 17.4728 13.1045 17.5789C13.1098 17.5836 13.6416 18.0785 13.662 18.7137C13.675 19.1159 13.4778 19.5236 13.0759 19.9255C12.2127 20.7888 11.9314 21.8527 12.2841 22.9212C12.5363 23.6848 13.0187 24.189 13.0728 24.244C13.1291 24.3013 13.1963 24.3468 13.2705 24.3778C13.3446 24.4088 13.4242 24.4247 13.5045 24.4246C13.624 24.4246 13.7408 24.3893 13.8403 24.3231C13.9398 24.2569 14.0175 24.1627 14.0636 24.0525C14.1098 23.9423 14.1223 23.8209 14.0996 23.7036C14.077 23.5862 14.0201 23.4782 13.9363 23.3931C13.9329 23.3898 13.5984 23.0356 13.4352 22.5412C13.2247 21.9034 13.3876 21.3281 13.9331 20.7826C14.5814 20.1342 14.8978 19.425 14.8736 18.6745Z" fill="#17171A"/>
</svg>
