<svg width="40" height="40" viewBox="0 0 40 40" fill="none" xmlns="http://www.w3.org/2000/svg">
<g clip-path="url(#clip0_1103_106645)">
<path d="M20.0001 36C20.1769 36 20.3465 36.0703 20.4715 36.1953C20.5965 36.3203 20.6667 36.4899 20.6667 36.6667V39.3333C20.6667 39.5101 20.5965 39.6797 20.4715 39.8047C20.3465 39.9298 20.1769 40 20.0001 40C19.8233 40 19.6537 39.9298 19.5287 39.8047C19.4037 39.6797 19.3334 39.5101 19.3334 39.3333V36.6667C19.3334 36.4899 19.4037 36.3203 19.5287 36.1953C19.6537 36.0703 19.8233 36 20.0001 36ZM11.7562 36.9454L13.0895 34.6367C13.1328 34.5606 13.1906 34.4938 13.2597 34.44C13.3288 34.3863 13.4078 34.3467 13.4922 34.3234C13.5767 34.3002 13.6648 34.2939 13.7517 34.3047C13.8386 34.3156 13.9224 34.3434 13.9986 34.3867C14.0747 34.43 14.1415 34.4878 14.1953 34.5569C14.249 34.6261 14.2886 34.7051 14.3118 34.7895C14.335 34.8739 14.3414 34.9621 14.3305 35.0489C14.3197 35.1358 14.2918 35.2197 14.2486 35.2958L14.2441 35.3035L12.9108 37.6121C12.867 37.6879 12.8088 37.7544 12.7393 37.8077C12.6698 37.861 12.5906 37.9 12.506 37.9227C12.4214 37.9454 12.3332 37.9511 12.2464 37.9397C12.1596 37.9283 12.0759 37.8998 12.0001 37.8561C11.9243 37.8123 11.8579 37.754 11.8046 37.6845C11.7513 37.6151 11.7122 37.5358 11.6895 37.4512C11.6669 37.3667 11.6611 37.2785 11.6725 37.1917C11.684 37.1049 11.7124 37.0212 11.7562 36.9454ZM6.38055 31.0938L6.38822 31.0894L8.69686 29.7561C8.77242 29.7111 8.85613 29.6815 8.94318 29.669C9.03023 29.6564 9.11889 29.6613 9.20407 29.6832C9.28925 29.7051 9.36925 29.7436 9.43946 29.7966C9.50968 29.8495 9.56873 29.9158 9.6132 29.9917C9.65767 30.0676 9.6867 30.1515 9.6986 30.2386C9.7105 30.3258 9.70504 30.4144 9.68253 30.4994C9.66003 30.5844 9.62093 30.6642 9.56748 30.734C9.51403 30.8038 9.44729 30.8624 9.3711 30.9063L9.36344 30.9108L7.0548 32.2441C6.97924 32.2891 6.89553 32.3187 6.80848 32.3312C6.72143 32.3437 6.63276 32.3389 6.54759 32.317C6.46241 32.2951 6.38241 32.2566 6.31219 32.2036C6.24198 32.1507 6.18293 32.0844 6.13846 32.0085C6.09398 31.9326 6.06496 31.8487 6.05306 31.7616C6.04116 31.6744 6.04662 31.5858 6.06912 31.5008C6.09163 31.4158 6.13073 31.336 6.18418 31.2662C6.23763 31.1964 6.30437 31.1378 6.38055 31.0938ZM8.0002 24.0002C8.0002 24.177 7.92996 24.3465 7.80494 24.4716C7.67992 24.5966 7.51035 24.6668 7.33354 24.6668H4.6669C4.49009 24.6668 4.32053 24.5966 4.1955 24.4716C4.07048 24.3465 4.00024 24.177 4.00024 24.0002C4.00024 23.8234 4.07048 23.6538 4.1955 23.5288C4.32053 23.4037 4.49009 23.3335 4.6669 23.3335H7.33354C7.51035 23.3335 7.67992 23.4037 7.80494 23.5288C7.92996 23.6538 8.0002 23.8234 8.0002 24.0002ZM8.70461 18.2487L8.69686 18.2442L6.38822 16.9109C6.23549 16.823 6.12376 16.6783 6.07745 16.5083C6.03114 16.3383 6.05402 16.1568 6.14109 16.0036C6.22816 15.8505 6.37233 15.738 6.54209 15.6908C6.71186 15.6436 6.8934 15.6655 7.04705 15.7518L7.0548 15.7563L9.36344 17.0896C9.51617 17.1774 9.6279 17.3222 9.6742 17.4922C9.72051 17.6622 9.69763 17.8436 9.61057 17.9968C9.5235 18.15 9.37933 18.2625 9.20956 18.3097C9.0398 18.3569 8.85825 18.335 8.70461 18.2487ZM33.6197 16.9064L33.6119 16.9109L31.3033 18.2442C31.1508 18.3337 30.969 18.3589 30.7979 18.3143C30.6268 18.2697 30.4804 18.1589 30.391 18.0064C30.3015 17.8539 30.2763 17.6721 30.3209 17.501C30.3655 17.3299 30.4763 17.1835 30.6288 17.0941L30.6365 17.0896L32.9452 15.7563C33.0977 15.6668 33.2795 15.6416 33.4506 15.6862C33.6217 15.7308 33.7681 15.8416 33.8575 15.9941C33.947 16.1466 33.9721 16.3284 33.9275 16.4995C33.8829 16.6706 33.7722 16.817 33.6197 16.9064ZM35.3332 24.6668H32.6666C32.4898 24.6668 32.3202 24.5966 32.1952 24.4716C32.0702 24.3465 32 24.177 32 24.0002C32 23.8234 32.0702 23.6538 32.1952 23.5288C32.3202 23.4037 32.4898 23.3335 32.6666 23.3335H35.3332C35.5101 23.3335 35.6796 23.4037 35.8046 23.5288C35.9297 23.6538 35.9999 23.8234 35.9999 24.0002C35.9999 24.177 35.9297 24.3465 35.8046 24.4716C35.6796 24.5966 35.5101 24.6668 35.3332 24.6668ZM30.9706 29.6668C31.0876 29.6668 31.2026 29.6976 31.304 29.7561L33.6126 31.0894C33.6887 31.1327 33.7555 31.1905 33.8093 31.2596C33.863 31.3288 33.9027 31.4078 33.9259 31.4922C33.9491 31.5766 33.9554 31.6648 33.9446 31.7516C33.9337 31.8385 33.9059 31.9224 33.8626 31.9985C33.8193 32.0746 33.7615 32.1414 33.6924 32.1952C33.6233 32.2489 33.5443 32.2886 33.4598 32.3118C33.3754 32.335 33.2873 32.3413 33.2004 32.3305C33.1135 32.3196 33.0296 32.2918 32.9535 32.2485L32.9459 32.2441L30.6372 30.9108C30.5101 30.8374 30.4108 30.7241 30.3546 30.5885C30.2985 30.4529 30.2887 30.3026 30.3266 30.1608C30.3646 30.0191 30.4483 29.8938 30.5648 29.8045C30.6812 29.7152 30.8239 29.6668 30.9706 29.6668ZM25.9992 34.3925C26.075 34.3486 26.1588 34.3201 26.2457 34.3086C26.3325 34.2972 26.4208 34.3029 26.5054 34.3256C26.5901 34.3483 26.6694 34.3874 26.7389 34.4408C26.8084 34.4941 26.8667 34.5606 26.9105 34.6366L26.9106 34.6367L28.2439 36.9454C28.3333 37.0979 28.3585 37.2797 28.3139 37.4508C28.2693 37.6219 28.1586 37.7682 28.0061 37.8577C27.8536 37.9471 27.6718 37.9723 27.5007 37.9277C27.3296 37.8831 27.1832 37.7724 27.0938 37.6199L27.0893 37.6121L25.7559 35.3035C25.6674 35.1504 25.6433 34.9684 25.6889 34.7976C25.7345 34.6268 25.8461 34.481 25.9992 34.3925ZM21.3334 13.3336C21.5102 13.3336 21.6798 13.4038 21.8048 13.5289C21.9298 13.6539 22.0001 13.8235 22.0001 14.0003V21.3335H23.3334C24.8061 21.3335 26 22.5274 26 24.0002C26 25.4729 24.8061 26.6668 23.3334 26.6668C21.8606 26.6668 20.6667 25.4729 20.6667 24.0002V22.6668H19.3334V24.0002C19.3334 25.4729 18.1395 26.6668 16.6668 26.6668C15.194 26.6668 14.0001 25.4729 14.0001 24.0002C14.0001 22.5274 15.194 21.3335 16.6668 21.3335H18.0001V14.0003C18.0001 13.8235 18.0703 13.6539 18.1954 13.5289C18.3204 13.4038 18.4899 13.3336 18.6668 13.3336C18.8436 13.3336 19.0131 13.4038 19.1382 13.5289C19.2632 13.6539 19.3334 13.8235 19.3334 14.0003V21.3335H20.6667V14.0003C20.6667 13.8235 20.737 13.6539 20.862 13.5289C20.987 13.4038 21.1566 13.3336 21.3334 13.3336ZM22.0001 24.0002C22.0001 24.7366 22.597 25.3335 23.3334 25.3335C24.0698 25.3335 24.6667 24.7366 24.6667 24.0002C24.6667 23.2638 24.0698 22.6668 23.3334 22.6668H22.0001V24.0002ZM18.0001 22.6668H16.6668C15.9304 22.6668 15.3335 23.2638 15.3335 24.0002C15.3335 24.7366 15.9304 25.3335 16.6668 25.3335C17.4032 25.3335 18.0001 24.7366 18.0001 24.0002V22.6668Z" fill="#17171A"/>
<path d="M20.518 34.6535C14.6338 34.9362 9.63456 30.3953 9.35189 24.5111C9.27205 22.8495 9.58196 21.1923 10.2569 19.6718C10.9317 18.1513 11.9529 16.8098 13.2388 15.7544C13.4708 15.5726 13.6595 15.3415 13.7912 15.0778C13.9229 14.8141 13.9942 14.5244 14.0001 14.2297V12.6664C14.0018 12.2542 14.1308 11.8527 14.3695 11.5166C14.6081 11.1806 14.9448 10.9265 15.3334 10.7891V9.99976C15.3352 9.50617 15.5205 9.03089 15.8534 8.66644C15.1601 7.91279 15.1601 6.75346 15.8534 5.99981C15.1122 5.18731 15.1701 3.92783 15.9826 3.18667C16.1875 2.99974 16.4273 2.85936 16.6856 2.77184C16.8925 2.70173 17.1112 2.66554 17.3334 2.66651C17.4539 2.66335 17.5729 2.69379 17.6772 2.7544C17.7814 2.81501 17.8667 2.90342 17.9236 3.00974C17.9804 3.11606 18.0066 3.2361 17.9991 3.35644C17.9917 3.47677 17.9509 3.59267 17.8814 3.69116C17.8603 3.73194 17.8353 3.77057 17.8067 3.8065C17.7519 3.85667 17.6893 3.89764 17.6214 3.92783C17.6023 3.93745 17.5827 3.94613 17.5627 3.95383C17.4953 3.97841 17.4245 3.99257 17.3527 3.99583C17.3461 3.99583 17.3401 3.99983 17.3334 3.99983C17.1566 3.99983 16.987 4.07006 16.862 4.19509C16.737 4.32011 16.6667 4.48968 16.6667 4.66649C16.6667 4.8433 16.737 5.01286 16.862 5.13789C16.987 5.26291 17.1566 5.33315 17.3334 5.33315H20C20.1768 5.33315 20.3464 5.40338 20.4714 5.52841C20.5965 5.65343 20.6667 5.823 20.6667 5.99981C20.6667 6.17661 20.5965 6.34618 20.4714 6.47121C20.3464 6.59623 20.1768 6.66647 20 6.66647H17.3334C17.1566 6.66647 16.987 6.7367 16.862 6.86172C16.737 6.98675 16.6667 7.15631 16.6667 7.33312C16.6667 7.50993 16.737 7.6795 16.862 7.80453C16.987 7.92955 17.1566 7.99978 17.3334 7.99978H20C20.1768 7.99978 20.3464 8.07002 20.4714 8.19504C20.5965 8.32007 20.6667 8.48964 20.6667 8.66644C20.6667 8.84325 20.5965 9.01282 20.4714 9.13784C20.3464 9.26287 20.1768 9.3331 20 9.3331H17.3334C17.1566 9.3331 16.987 9.40334 16.862 9.52836C16.737 9.65339 16.6667 9.82295 16.6667 9.99976V10.6664H20C20.1768 10.6664 20.3464 10.7367 20.4714 10.8617C20.5965 10.9867 20.6667 11.1563 20.6667 11.3331C20.6667 11.5099 20.5965 11.6795 20.4714 11.8045C20.3464 11.9295 20.1768 11.9997 20 11.9997H16.0001C15.8233 11.9997 15.6537 12.07 15.5287 12.195C15.4037 12.32 15.3334 12.4896 15.3334 12.6664V14.2297C15.328 14.722 15.213 15.2068 14.9968 15.649C14.7806 16.0913 14.4686 16.4798 14.0834 16.7864C10.1011 20.0592 9.52606 25.9406 12.7989 29.9229C13.7221 31.0463 14.8952 31.9385 16.2244 32.5282C17.5536 33.1179 19.0022 33.3889 20.4547 33.3195C25.3802 33.0265 29.2493 28.9898 29.3333 24.0563C29.3451 22.6557 29.0396 21.2705 28.4398 20.0048C27.84 18.739 26.9615 17.6255 25.87 16.7477C25.4878 16.4329 25.1812 16.0362 24.9729 15.587C24.7647 15.1378 24.66 14.6475 24.6667 14.1524V12.6664C24.6667 12.4896 24.5964 12.32 24.4714 12.195C24.3464 12.07 24.1768 11.9997 24 11.9997H22C21.8232 11.9997 21.6536 11.9295 21.5286 11.8045C21.4036 11.6795 21.3334 11.5099 21.3334 11.3331C21.3334 11.1563 21.4036 10.9867 21.5286 10.8617C21.6536 10.7367 21.8232 10.6664 22 10.6664H23.3333V9.99976C23.3333 9.82295 23.2631 9.65339 23.1381 9.52836C23.013 9.40334 22.8435 9.3331 22.6667 9.3331H22C21.8232 9.3331 21.6536 9.26287 21.5286 9.13784C21.4036 9.01282 21.3334 8.84325 21.3334 8.66644C21.3334 8.48964 21.4036 8.32007 21.5286 8.19504C21.6536 8.07002 21.8232 7.99978 22 7.99978H22.6667C22.8435 7.99978 23.013 7.92955 23.1381 7.80453C23.2631 7.6795 23.3333 7.50993 23.3333 7.33312C23.3333 7.15631 23.2631 6.98675 23.1381 6.86172C23.013 6.7367 22.8435 6.66647 22.6667 6.66647H22C21.8232 6.66647 21.6536 6.59623 21.5286 6.47121C21.4036 6.34618 21.3334 6.17661 21.3334 5.99981C21.3334 5.823 21.4036 5.65343 21.5286 5.52841C21.6536 5.40338 21.8232 5.33315 22 5.33315H22.6667C22.8435 5.33315 23.013 5.26291 23.1381 5.13789C23.2631 5.01286 23.3333 4.8433 23.3333 4.66649C23.3333 4.48968 23.2631 4.32011 23.1381 4.19509C23.013 4.07006 22.8435 3.99983 22.6667 3.99983H19.3334L19.3307 3.99982C19.1548 3.99911 18.9864 3.92896 18.862 3.80457C18.737 3.67954 18.6667 3.50998 18.6667 3.33317C18.6667 3.15636 18.737 2.98679 18.862 2.86177C18.987 2.73674 19.1566 2.66651 19.3334 2.66651H21.886C21.5179 1.6251 20.3753 1.07927 19.3339 1.44735C19.0151 1.56005 18.73 1.75175 18.5054 2.00451C18.3869 2.13329 18.2226 2.21034 18.0478 2.21906C17.8731 2.22778 17.7019 2.16747 17.5712 2.05112C17.4405 1.93478 17.3608 1.77174 17.3492 1.59715C17.3418 1.48436 17.3631 1.3726 17.41 1.27186C17.4356 1.21667 17.469 1.16478 17.5094 1.11786C18.7286 -0.256046 20.8308 -0.381462 22.2047 0.837692C22.7722 1.34125 23.1504 2.02372 23.2767 2.77184C24.3207 3.09817 24.9026 4.20907 24.5763 5.25315C24.4896 5.53055 24.3429 5.78547 24.1467 5.99981C24.84 6.75346 24.84 7.91279 24.1467 8.66644C24.4796 9.03089 24.6649 9.50617 24.6667 9.99976V10.7891C25.0553 10.9265 25.3919 11.1806 25.6306 11.5166C25.8693 11.8527 25.9983 12.2542 26 12.6664V14.1524C25.9956 14.4482 26.0567 14.7413 26.179 15.0107C26.3013 15.28 26.4817 15.519 26.7073 15.7104C27.9554 16.7138 28.96 17.9868 29.6457 19.434C30.3315 20.8812 30.6805 22.4649 30.6666 24.0663C30.5703 29.7052 26.1478 34.3188 20.518 34.6535Z" fill="#17171A"/>
<path d="M17.6772 2.7544C17.5729 2.69379 17.4539 2.66335 17.3334 2.66651C17.1112 2.66554 16.8925 2.70173 16.6856 2.77184C16.8906 2.05112 17.1089 1.74765 17.41 1.27186C17.3631 1.3726 17.3418 1.48436 17.3492 1.59715C17.3608 1.77174 17.4405 1.93478 17.5712 2.05112C17.7019 2.16747 17.8731 2.22778 18.0478 2.21906C18.2226 2.21034 18.3869 2.13329 18.5054 2.00451C18.5054 2.00451 18.2148 2.37061 18.1819 2.66651H19.3334C19.1566 2.66651 18.987 2.73674 18.862 2.86177C18.737 2.98679 18.6667 3.15636 18.6667 3.33317C18.6667 3.50998 18.737 3.67954 18.862 3.80457C18.9864 3.92896 19.1548 3.99911 19.3307 3.99982L17.3527 3.99583C17.4245 3.99257 17.4953 3.97841 17.5627 3.95383C17.5827 3.94613 17.6023 3.93745 17.6214 3.92783C17.6893 3.89764 17.7519 3.85667 17.8067 3.8065C17.8353 3.77057 17.8603 3.73194 17.8814 3.69116C17.9509 3.59267 17.9917 3.47677 17.9991 3.35644C18.0066 3.2361 17.9804 3.11606 17.9236 3.00974C17.8667 2.90342 17.7814 2.81501 17.6772 2.7544Z" fill="#17171A"/>
<path d="M20.4714 5.52841C20.3464 5.40338 20.1768 5.33315 20 5.33315H22C21.8232 5.33315 21.6536 5.40338 21.5286 5.52841C21.4036 5.65343 21.3334 5.823 21.3334 5.99981C21.3334 6.17661 21.4036 6.34618 21.5286 6.47121C21.6536 6.59623 21.8232 6.66647 22 6.66647H20C20.1768 6.66647 20.3464 6.59623 20.4714 6.47121C20.5965 6.34618 20.6667 6.17661 20.6667 5.99981C20.6667 5.823 20.5965 5.65343 20.4714 5.52841Z" fill="#17171A"/>
<path d="M20.4714 8.19504C20.3464 8.07002 20.1768 7.99978 20 7.99978H22C21.8232 7.99978 21.6536 8.07002 21.5286 8.19504C21.4036 8.32007 21.3334 8.48964 21.3334 8.66644C21.3334 8.84325 21.4036 9.01282 21.5286 9.13784C21.6536 9.26287 21.8232 9.3331 22 9.3331H20C20.1768 9.3331 20.3464 9.26287 20.4714 9.13784C20.5965 9.01282 20.6667 8.84325 20.6667 8.66644C20.6667 8.48964 20.5965 8.32007 20.4714 8.19504Z" fill="#17171A"/>
<path d="M20.4714 10.8617C20.3464 10.7367 20.1768 10.6664 20 10.6664H22C21.8232 10.6664 21.6536 10.7367 21.5286 10.8617C21.4036 10.9867 21.3334 11.1563 21.3334 11.3331C21.3334 11.5099 21.4036 11.6795 21.5286 11.8045C21.6536 11.9295 21.8232 11.9997 22 11.9997H20C20.1768 11.9997 20.3464 11.9295 20.4714 11.8045C20.5965 11.6795 20.6667 11.5099 20.6667 11.3331C20.6667 11.1563 20.5965 10.9867 20.4714 10.8617Z" fill="#17171A"/>
</g>
<defs>
<clipPath id="clip0_1103_106645">
<rect width="40" height="40" fill="white" transform="matrix(1 0 0 -1 0 40)"/>
</clipPath>
</defs>
</svg>
