<svg width="40" height="40" viewBox="0 0 40 40" fill="none" xmlns="http://www.w3.org/2000/svg">
<g clip-path="url(#clip0_1103_106707)">
<path d="M27.3371 19.3395V18.6731C27.3341 16.0977 25.2472 14.0107 22.6718 14.0078H8.00963C5.43458 14.0107 3.3473 16.0977 3.34438 18.6731V19.3395C1.90598 19.3317 0.625457 20.2491 0.170846 21.6139C-0.284099 22.9784 0.189673 24.4809 1.34499 25.3378V31.336C1.34499 32.44 2.24022 33.3354 3.34438 33.3354V36.6677C3.34438 36.8444 3.4146 37.0139 3.53958 37.1389C3.66457 37.2639 3.83409 37.3341 4.01084 37.3341H6.6767C6.85346 37.3341 7.02298 37.2639 7.14796 37.1389C7.27295 37.0139 7.34316 36.8444 7.34316 36.6677V33.3354H23.3383V36.6677C23.3383 36.8444 23.4085 37.0139 23.5335 37.1389C23.6585 37.2639 23.828 37.3341 24.0048 37.3341H26.6706C26.8474 37.3341 27.0169 37.2639 27.1419 37.1389C27.2669 37.0139 27.3371 36.8444 27.3371 36.6677V33.3354C28.4415 33.3354 29.3365 32.44 29.3365 31.336V25.3201C30.4839 24.4626 30.9518 22.966 30.4978 21.6074C30.0436 20.2491 28.7696 19.3347 27.3371 19.3395ZM8.00963 15.3407H22.6718C24.5114 15.3427 26.0022 16.8335 26.0042 18.6731V19.6219C25.4106 19.8811 24.9054 20.3075 24.5503 20.8492C24.1952 21.3908 24.0057 22.0242 24.0048 22.6718V24.6885C23.4314 24.2474 22.7288 24.0072 22.0054 24.0048H8.67609C7.95267 24.0072 7.25011 24.2474 6.6767 24.6885V22.6718C6.67759 22.0235 6.48877 21.389 6.1335 20.8466C5.77823 20.3043 5.27204 19.8777 4.67731 19.6194V18.6731C4.67956 16.8335 6.17027 15.3427 8.00963 15.3407ZM24.0048 32.0023H6.6767V30.6694H24.0048V32.0023ZM24.0048 29.3365H6.6767V27.3371C6.6767 26.2326 7.57193 25.3377 8.67609 25.3377H22.0054C23.1098 25.3377 24.0048 26.2326 24.0048 27.3371V29.3365ZM2.67792 31.3359V25.9375C2.89718 25.9823 3.12045 26.0045 3.34438 26.0042V24.6712C2.99297 24.671 2.64794 24.5774 2.34468 24.3998C1.50894 23.9189 1.13372 22.9111 1.45162 22.0005C1.58743 21.6083 1.84342 21.2688 2.18322 21.0304C2.52301 20.792 2.92932 20.6667 3.34438 20.6725H3.35896C3.52308 20.6725 3.68636 20.6946 3.84423 20.7388C4.27365 20.8482 4.6543 21.0977 4.92592 21.4479C5.19753 21.798 5.34458 22.2287 5.34377 22.6718V32.0023H3.34438C3.16762 32.0023 2.99811 31.9321 2.87312 31.8071C2.74813 31.6822 2.67792 31.5126 2.67792 31.3359ZM6.01024 36.0011H4.67731V33.3353H6.01024V36.0011ZM26.0042 36.0011H24.6712V33.3353H26.0042V36.0011ZM27.3371 24.6712V26.0042C27.5609 26.0042 27.7842 25.9821 28.0035 25.9375V31.3359C28.0035 31.5126 27.9333 31.6822 27.8083 31.8071C27.6834 31.9321 27.5138 32.0023 27.3371 32.0023H25.3377V22.6718C25.3377 21.5673 26.2329 20.6725 27.3371 20.6725C28.4415 20.6725 29.3365 21.5673 29.3365 22.6718C29.3365 23.776 28.4415 24.6712 27.3371 24.6712Z" fill="#17171A"/>
<path d="M18.6731 22.005H20.006V20.6721H21.3389V19.3392H20.006V18.0062H18.6731V19.3392H17.3401V20.6721H18.6731V22.005ZM10.6755 22.005H12.0084V20.6721H13.3414V19.3392H12.0084V18.0062H10.6755V19.3392H9.34257V20.6721H10.6755V22.005ZM39.3335 33.3349H36.6676V16.0069H38.667C38.8437 16.0069 39.0133 15.9366 39.1382 15.8117C39.2632 15.6867 39.3335 15.5171 39.3335 15.3404V0.678183C39.3335 0.501425 39.2632 0.331908 39.1382 0.206922C39.0133 0.0819353 38.8437 0.0117188 38.667 0.0117188H33.3353C33.1585 0.0117188 32.989 0.0819353 32.864 0.206922C32.739 0.331908 32.6688 0.501425 32.6688 0.678183V15.3404C32.6688 15.5171 32.739 15.6867 32.864 15.8117C32.989 15.9366 33.1585 16.0069 33.3353 16.0069H35.3347V33.3349H32.6688C32.4921 33.3349 32.3225 33.4051 32.1976 33.5301C32.0726 33.6551 32.0023 33.8246 32.0023 34.0014V36.6672C32.0023 36.844 32.0726 37.0135 32.1976 37.1385C32.3225 37.2635 32.4921 37.3337 32.6688 37.3337H39.3335C39.5102 37.3337 39.6797 37.2635 39.8047 37.1385C39.9297 37.0135 39.9999 36.844 39.9999 36.6672V34.0014C39.9999 33.8246 39.9297 33.6551 39.8047 33.5301C39.6797 33.4051 39.5102 33.3349 39.3335 33.3349ZM34.0017 1.34465H38.0005V14.6739H34.0017V1.34465ZM38.667 36.0008H33.3353V34.6678H38.667V36.0008ZM6.67672 10.6751H24.0048C24.1815 10.6751 24.3511 10.6049 24.476 10.4799C24.601 10.355 24.6712 10.1854 24.6712 10.0087V0.678183C24.6712 0.501425 24.601 0.331908 24.476 0.206922C24.3511 0.0819353 24.1815 0.0117188 24.0048 0.0117188H6.67672C6.49996 0.0117188 6.33044 0.0819353 6.20546 0.206922C6.08047 0.331908 6.01025 0.501425 6.01025 0.678183V10.0087C6.01025 10.1854 6.08047 10.355 6.20546 10.4799C6.33044 10.6049 6.49996 10.6751 6.67672 10.6751ZM7.34318 1.34465H23.3383V9.34221H7.34318V1.34465Z" fill="#17171A"/>
<path d="M18.2018 7.53851L21.5342 4.20619L22.4766 5.14857L19.1443 8.48089L18.2018 7.53851ZM15.5356 6.87138L18.868 3.53906L19.8104 4.48178L16.4781 7.81385L15.5356 6.87138Z" fill="#17171A"/>
</g>
<defs>
<clipPath id="clip0_1103_106707">
<rect width="40" height="40" fill="white"/>
</clipPath>
</defs>
</svg>
