<svg width="18" height="18" viewBox="0 0 18 18" fill="none" xmlns="http://www.w3.org/2000/svg">
<g clip-path="url(#clip0_2741_136013)">
<path fill-rule="evenodd" clip-rule="evenodd" d="M4.81925 4.36849C4.81925 2.10834 6.69732 0.277344 8.99686 0.277344C11.2964 0.277344 13.1745 2.10834 13.1745 4.36849C13.1745 6.37091 11.6999 8.03624 9.7651 8.38999V9.54195H14.1109C15.1572 9.54195 16.0156 10.3755 16.0156 11.4096V12.9971C17.0017 13.3138 17.7203 14.2241 17.7203 15.3007C17.7203 16.6413 16.607 17.7242 15.2474 17.7242C13.8878 17.7242 12.7745 16.6413 12.7745 15.3007C12.7745 14.2241 13.493 13.3138 14.4791 12.9971V11.4096C14.4791 11.2177 14.3179 11.0537 14.1109 11.0537H9.7651V12.9969C10.7513 13.3136 11.4698 14.2241 11.4698 15.3007C11.4698 16.6413 10.3564 17.7242 8.99686 17.7242C7.63728 17.7242 6.52393 16.6413 6.52397 15.3007C6.52397 14.2241 7.24248 13.3136 8.22865 12.9969V11.0537H3.88284C3.67581 11.0537 3.5146 11.2177 3.5146 11.4096V12.9971C4.50072 13.3138 5.21928 14.2241 5.21928 15.3007C5.21928 16.6413 4.10594 17.7242 2.74636 17.7242C1.38679 17.7242 0.273438 16.6413 0.273438 15.3007C0.273438 14.2241 0.992005 13.3138 1.97812 12.9971V11.4096C1.97812 10.3755 2.83655 9.54195 3.88281 9.54195H8.22862V8.38999C6.29374 8.03624 4.81925 6.37091 4.81925 4.36849ZM8.99686 0.677344C6.9099 0.677344 5.21925 2.33749 5.21925 4.36849C5.21925 6.22081 6.62529 7.76434 8.45645 8.0217L8.62862 8.0459V9.94195H3.88281C3.04913 9.94195 2.37812 10.6046 2.37812 11.4096V13.3035L2.22714 13.3416C1.33169 13.568 0.673438 14.3633 0.673438 15.3007C0.673438 16.4122 1.59937 17.3242 2.74636 17.3242C3.89336 17.3242 4.81928 16.4122 4.81928 15.3007C4.81928 14.3632 4.16104 13.568 3.26559 13.3416L3.1146 13.3035V11.4096C3.1146 10.9885 3.46323 10.6537 3.88284 10.6537H8.62865V13.3033L8.47765 13.3415C7.58221 13.5678 6.92397 14.3632 6.92397 15.3007C6.92394 16.4122 7.84986 17.3242 8.99686 17.3242C10.1439 17.3242 11.0698 16.4122 11.0698 15.3007C11.0698 14.3632 10.4115 13.5678 9.5161 13.3415L9.3651 13.3033V10.6537H14.1109C14.5305 10.6537 14.8791 10.9885 14.8791 11.4096V13.3035L14.7282 13.3416C13.8327 13.568 13.1745 14.3633 13.1745 15.3007C13.1745 16.4122 14.1004 17.3242 15.2474 17.3242C16.3944 17.3242 17.3203 16.4122 17.3203 15.3007C17.3203 14.3633 16.662 13.568 15.7666 13.3416L15.6156 13.3035V11.4096C15.6156 10.6046 14.9446 9.94195 14.1109 9.94195H9.3651V8.0459L9.53726 8.0217C11.3684 7.76434 12.7745 6.22081 12.7745 4.36849C12.7745 2.33749 11.0838 0.677344 8.99686 0.677344ZM8.99686 1.78909C7.53655 1.78909 6.35573 2.95051 6.35573 4.36849C6.35573 5.78647 7.53654 6.94787 8.99686 6.94787C10.4572 6.94787 11.638 5.78644 11.638 4.36846C11.638 2.95048 10.4572 1.78909 8.99686 1.78909ZM5.95573 4.36849C5.95573 2.72136 7.32396 1.38909 8.99686 1.38909C10.6698 1.38909 12.038 2.72133 12.038 4.36846C12.038 6.01559 10.6698 7.34787 8.99686 7.34787C7.32396 7.34787 5.95573 6.01562 5.95573 4.36849ZM2.74636 14.389C2.22601 14.389 1.80992 14.8023 1.80992 15.3007C1.80992 15.7991 2.22601 16.2124 2.74636 16.2124C3.26671 16.2124 3.68281 15.7991 3.68281 15.3007C3.68281 14.8023 3.26671 14.389 2.74636 14.389ZM1.40992 15.3007C1.40992 14.5731 2.01343 13.989 2.74636 13.989C3.47929 13.989 4.08281 14.5731 4.08281 15.3007C4.08281 16.0283 3.47929 16.6124 2.74636 16.6124C2.01343 16.6124 1.40992 16.0283 1.40992 15.3007ZM8.99686 14.389C8.47651 14.389 8.06041 14.8023 8.06041 15.3007C8.06041 15.7991 8.47651 16.2124 8.99686 16.2124C9.51721 16.2124 9.9333 15.7991 9.9333 15.3007C9.9333 14.8023 9.51721 14.389 8.99686 14.389ZM7.66041 15.3007C7.66041 14.5731 8.26392 13.989 8.99686 13.989C9.72979 13.989 10.3333 14.5731 10.3333 15.3007C10.3333 16.0283 9.72979 16.6124 8.99686 16.6124C8.26392 16.6124 7.66041 16.0283 7.66041 15.3007ZM15.2474 14.389C14.727 14.389 14.3109 14.8023 14.3109 15.3007C14.3109 15.7992 14.727 16.2125 15.2474 16.2125C15.7677 16.2125 16.1838 15.7991 16.1838 15.3007C16.1838 14.8023 15.7677 14.389 15.2474 14.389ZM13.9109 15.3007C13.9109 14.5731 14.5144 13.989 15.2474 13.989C15.9803 13.989 16.5838 14.5731 16.5838 15.3007C16.5838 16.0283 15.9803 16.6125 15.2474 16.6125C14.5144 16.6125 13.9109 16.0283 13.9109 15.3007Z" fill="#17171A"/>
<path fill-rule="evenodd" clip-rule="evenodd" d="M5.21925 4.36849C5.21925 2.33749 6.9099 0.677344 8.99686 0.677344C11.0838 0.677344 12.7745 2.33749 12.7745 4.36849C12.7745 6.22081 11.3684 7.76434 9.53726 8.0217L9.3651 8.0459V9.94195H14.1109C14.9446 9.94195 15.6156 10.6046 15.6156 11.4096V13.3035L15.7666 13.3416C16.662 13.568 17.3203 14.3633 17.3203 15.3007C17.3203 16.4122 16.3944 17.3242 15.2474 17.3242C14.1004 17.3242 13.1745 16.4122 13.1745 15.3007C13.1745 14.3633 13.8327 13.568 14.7282 13.3416L14.8791 13.3035V11.4096C14.8791 10.9885 14.5305 10.6537 14.1109 10.6537H9.3651V13.3033L9.5161 13.3415C10.4115 13.5678 11.0698 14.3632 11.0698 15.3007C11.0698 16.4122 10.1439 17.3242 8.99686 17.3242C7.84986 17.3242 6.92394 16.4122 6.92397 15.3007C6.92397 14.3632 7.58221 13.5678 8.47765 13.3415L8.62865 13.3033V10.6537H3.88284C3.46323 10.6537 3.1146 10.9885 3.1146 11.4096V13.3035L3.26559 13.3416C4.16104 13.568 4.81928 14.3632 4.81928 15.3007C4.81928 16.4122 3.89336 17.3242 2.74636 17.3242C1.59937 17.3242 0.673438 16.4122 0.673438 15.3007C0.673438 14.3633 1.33169 13.568 2.22714 13.3416L2.37812 13.3035V11.4096C2.37812 10.6046 3.04913 9.94195 3.88281 9.94195H8.62862V8.0459L8.45645 8.0217C6.62529 7.76434 5.21925 6.22081 5.21925 4.36849ZM5.95573 4.36849C5.95573 2.72136 7.32396 1.38909 8.99686 1.38909C10.6698 1.38909 12.038 2.72133 12.038 4.36846C12.038 6.01559 10.6698 7.34787 8.99686 7.34787C7.32396 7.34787 5.95573 6.01562 5.95573 4.36849ZM1.40992 15.3007C1.40992 14.5731 2.01343 13.989 2.74636 13.989C3.47929 13.989 4.08281 14.5731 4.08281 15.3007C4.08281 16.0283 3.47929 16.6124 2.74636 16.6124C2.01343 16.6124 1.40992 16.0283 1.40992 15.3007ZM7.66041 15.3007C7.66041 14.5731 8.26392 13.989 8.99686 13.989C9.72979 13.989 10.3333 14.5731 10.3333 15.3007C10.3333 16.0283 9.72979 16.6124 8.99686 16.6124C8.26392 16.6124 7.66041 16.0283 7.66041 15.3007ZM13.9109 15.3007C13.9109 14.5731 14.5144 13.989 15.2474 13.989C15.9803 13.989 16.5838 14.5731 16.5838 15.3007C16.5838 16.0283 15.9803 16.6125 15.2474 16.6125C14.5144 16.6125 13.9109 16.0283 13.9109 15.3007Z" fill="#17171A"/>
</g>
<defs>
<clipPath id="clip0_2741_136013">
<rect width="18" height="18" fill="white"/>
</clipPath>
</defs>
</svg>
