<svg width="30" height="30" viewBox="0 0 30 30" fill="none" xmlns="http://www.w3.org/2000/svg">
<path fill-rule="evenodd" clip-rule="evenodd" d="M27.9482 13.6453H27.5953L26.4862 8.74916C26.3338 8.07674 25.7464 7.60717 25.057 7.60717H20.5765V6.14162C20.5765 5.01023 19.6561 4.08984 18.5247 4.08984H2.05184C0.920391 4.08984 0 5.01023 0 6.14162V20.5627C0 21.6935 0.920391 22.6145 2.05178 22.6145H3.71314C4.1182 24.4963 5.79539 25.9114 7.79678 25.9114C9.79816 25.9114 11.4754 24.4963 11.8804 22.6145H20.3179C20.723 24.4963 22.4002 25.9114 24.4015 25.9114C26.4299 25.9114 28.1252 24.4588 28.5004 22.5389C29.3646 22.2974 30 21.503 30 20.5627V15.697C30 14.5656 29.0796 13.6453 27.9482 13.6453ZM28.2413 15.6971V20.092C27.6023 18.603 26.1215 17.5578 24.4015 17.5578C22.6945 17.5578 21.2237 18.5872 20.5764 20.058L20.3179 20.8559H18.8178H11.8804C11.4754 18.9729 9.79816 17.5577 7.79678 17.5577C5.79539 17.5577 4.1182 18.9729 3.71314 20.8559H2.05178C1.89 20.8559 1.75869 20.724 1.75869 20.5627V6.14162C1.75869 5.97984 1.89 5.84854 2.05178 5.84854H5.63713H7.39582H13.1807H14.9394H18.5247C18.6865 5.84854 18.8178 5.97984 18.8178 6.14162V15.404H20.5764H27.9482C28.11 15.4039 28.2413 15.5353 28.2413 15.6971ZM24.8225 9.36586L25.7921 13.6453H20.5765V9.36586H24.8225ZM7.79678 24.1528C6.10758 24.1528 4.92311 22.4492 5.54332 20.8559C6.51006 18.3909 10.2149 19.057 10.2149 21.7352C10.2149 23.0718 9.12721 24.1528 7.79678 24.1528ZM24.4015 24.1528C22.7047 24.1528 21.5292 22.4386 22.1487 20.8559C22.501 19.956 23.378 19.3164 24.4015 19.3164C26.1019 19.3164 27.2745 21.0373 26.6538 22.6146C26.3021 23.5138 25.4251 24.1528 24.4015 24.1528Z" fill="#17171A"/>
</svg>
