<svg width="112" height="126" viewBox="0 0 112 126" fill="none" xmlns="http://www.w3.org/2000/svg">
<path d="M91.998 51.9257H98.9994V107.344H91.998V51.9257Z" fill="white"/>
<path d="M90.3525 109.268H100.868V49.4252H90.3525V109.268ZM102.46 110.861H88.7598V47.8325H102.46V110.861Z" fill="#17171A"/>
<path d="M90.592 109.03H100.628V49.6658H90.592V109.03ZM101.665 111.102H89.5568C88.985 111.102 88.5215 110.638 88.5215 110.065V48.629C88.5215 48.0572 88.985 47.5937 89.5568 47.5937H101.665C102.236 47.5937 102.7 48.0572 102.7 48.629V110.065C102.7 110.638 102.236 111.102 101.665 111.102Z" fill="#17171A"/>
<path d="M72.2363 59.0933H79.1252V107.344H72.2363V59.0933Z" fill="white"/>
<path d="M70.5439 109.268H81.0639V57.0464H70.5439V109.268ZM82.6566 110.861H68.9512V55.4536H82.6566V110.861Z" fill="#17171A"/>
<path opacity="0.1" d="M70.7851 109.03H80.8256V57.287H70.7851V109.03ZM81.8608 111.102H69.7482C69.1764 111.102 68.7129 110.638 68.7129 110.065V56.2501C68.7129 55.6783 69.1764 55.2149 69.7482 55.2149H81.8608C82.4326 55.2149 82.8961 55.6783 82.8961 56.2501V110.065C82.8961 110.638 82.4326 111.102 81.8608 111.102Z" fill="#17171A"/>
<path d="M52.377 66.4311H59.4847V107.344H52.377V66.4311Z" fill="white"/>
<path d="M50.7392 109.268H61.2575V64.4458H50.7392V109.268ZM62.8502 110.861H49.1465V62.8531H62.8502V110.861Z" fill="#17171A"/>
<path d="M50.9803 109.03H61.0208V64.6849H50.9803V109.03ZM62.0561 111.102H49.945C49.3732 111.102 48.9082 110.638 48.9082 110.065V63.6496C48.9082 63.0767 49.3732 62.6132 49.945 62.6132H62.0561C62.6295 62.6132 63.093 63.0767 63.093 63.6496V110.065C63.093 110.638 62.6295 111.102 62.0561 111.102Z" fill="#17171A"/>
<path d="M32.6738 76.7917H39.5192V107.344H32.6738V76.7917Z" fill="white"/>
<path d="M30.9384 109.268H41.4583V74.7668H30.9384V109.268ZM43.051 110.861H29.3457V73.1741H43.051V110.861Z" fill="#17171A"/>
<path d="M31.1757 109.03H41.2146V75.0078H31.1757V109.03ZM42.2514 111.102H30.1388C29.567 111.102 29.1035 110.638 29.1035 110.065V73.9706C29.1035 73.3988 29.567 72.9353 30.1388 72.9353H42.2514C42.8232 72.9353 43.2867 73.3988 43.2867 73.9706V110.065C43.2867 110.638 42.8232 111.102 42.2514 111.102Z" fill="#17171A"/>
<path d="M12.5332 87.3005H20.2555V107.344H12.5332V87.3005Z" fill="white"/>
<path d="M11.1376 109.268H21.6512V85.5226H11.1376V109.268ZM23.2439 110.861H9.54492V83.9299H23.2439V110.861Z" fill="#17171A"/>
<path d="M11.3748 109.03H21.4106V85.7629H11.3748V109.03ZM22.4459 111.102H10.3396C9.76618 111.102 9.30273 110.638 9.30273 110.065V84.7264C9.30273 84.1547 9.76618 83.6911 10.3396 83.6911H22.4459C23.0192 83.6911 23.4827 84.1547 23.4827 84.7264V110.065C23.4827 110.638 23.0192 111.102 22.4459 111.102Z" fill="#17171A"/>
<path d="M10.3727 75.0331C9.94904 75.0331 9.55089 74.77 9.39958 74.3481C9.20527 73.8099 9.48553 73.2171 10.0223 73.0249C10.559 72.8301 63.9773 53.3879 87.4699 26.0409C87.8458 25.6061 88.4972 25.5583 88.9304 25.9294C89.3652 26.3037 89.413 26.9567 89.0419 27.39C65.1909 55.1543 11.2662 74.7762 10.7231 74.9709C10.6084 75.0139 10.489 75.0331 10.3727 75.0331Z" fill="#17171A"/>
<path d="M87.9716 39.9074C87.3982 39.9058 86.9348 39.4423 86.9348 38.8705L86.9395 28.0798L76.7334 28.1276H76.7286C76.16 28.1276 75.6965 27.6673 75.6934 27.0971C75.6918 26.5254 76.1521 26.0587 76.7239 26.0555L87.9716 26.0029C87.9732 26.0029 87.9748 26.0029 87.9764 26.0029C88.2504 26.0029 88.5132 26.1113 88.7075 26.3056C88.9018 26.4999 89.0117 26.7643 89.0117 27.0398L89.0069 38.8705C89.0053 39.4439 88.5418 39.9074 87.9716 39.9074Z" fill="#17171A"/>
<path d="M36.0074 1.03521H52.3121L45.7008 11.7096L61.319 13.9761L27.1583 48.2371L38.4905 23.3397H26.5371L36.0074 1.03521Z" fill="#F4B54A"/>
<path d="M27.7419 22.5432H39.7319L29.7152 44.5482L59.6393 14.5366L44.3858 12.3211L50.8857 1.83146H36.5369L27.7419 22.5432ZM24.6074 51.9257L37.2552 24.1359H25.3353L35.4826 0.238735H53.7446L47.0202 11.0963L63.0047 13.4169L24.6074 51.9257Z" fill="#17171A"/>
<path d="M28.1021 22.3045H38.4914C38.8434 22.3045 39.1715 22.4829 39.3626 22.7807C39.5521 23.0753 39.5808 23.4496 39.4343 23.7698L30.48 43.4399L59.1315 14.704L45.552 12.7338C45.2063 12.6828 44.9101 12.4615 44.7635 12.1461C44.6154 11.8307 44.6377 11.4596 44.8208 11.1634L50.4543 2.07215H36.6948L28.1021 22.3045ZM27.1592 49.2724C26.9538 49.2724 26.7483 49.2119 26.5699 49.0876C26.1574 48.8041 26.0108 48.2642 26.2163 47.8087L36.8843 24.3766H26.538C26.1908 24.3766 25.8659 24.2014 25.6748 23.9115C25.482 23.6216 25.4486 23.2553 25.584 22.9352L35.0543 0.630726C35.2184 0.248474 35.5926 1.52588e-05 36.0083 1.52588e-05H52.313C52.6889 1.52588e-05 53.0345 0.20388 53.2193 0.531979C53.4008 0.860081 53.3913 1.26144 53.1938 1.58158L47.4138 10.9117L61.4696 12.952C61.8566 13.0078 62.1799 13.2785 62.3041 13.6496C62.4268 14.0223 62.3296 14.4316 62.0525 14.7072L27.8918 48.9682C27.6927 49.1689 27.4268 49.2724 27.1592 49.2724Z" fill="#17171A"/>
<path d="M110.195 126C109.624 126 109.16 125.537 109.16 124.965V117.597H2.83967V124.965C2.83967 125.537 2.37623 126 1.80285 126C1.23106 126 0.767578 125.537 0.767578 124.965V116.561C0.767578 115.988 1.23106 115.524 1.80285 115.524H110.195C110.767 115.524 111.231 115.988 111.231 116.561V124.965C111.231 125.537 110.767 126 110.195 126Z" fill="#17171A"/>
</svg>
