<svg width="30" height="30" viewBox="0 0 30 30" fill="none" xmlns="http://www.w3.org/2000/svg">
<g clip-path="url(#clip0_1406_126295)">
<path d="M16.9335 2.34808C17.6222 3.09643 18.681 3.38011 19.6516 3.07638C21.1185 2.61736 22.6645 3.50997 23.0004 5.00983C23.2227 6.00229 23.9977 6.77736 24.9902 6.9996C26.49 7.33556 27.3827 8.88151 26.9236 10.3484C26.6198 11.3191 26.9036 12.3778 27.6519 13.0665C28.7829 14.1074 28.7829 15.8925 27.6519 16.9334C26.9036 17.6221 26.6198 18.6808 26.9236 19.6515C27.3827 21.1184 26.49 22.6643 24.9902 23.0002C23.9977 23.2225 23.2227 23.9976 23.0004 24.9901C22.6645 26.4899 21.1185 27.3825 19.6516 26.9234C18.681 26.6197 17.6222 26.9034 16.9335 27.6517C15.8926 28.7828 14.1075 28.7828 13.0667 27.6517C12.3779 26.9034 11.3192 26.6197 10.3485 26.9234C8.88163 27.3825 7.33567 26.4899 6.99979 24.9901C6.77747 23.9976 6.00241 23.2225 5.00995 23.0002C3.51009 22.6643 2.61748 21.1184 3.07657 19.6515C3.38029 18.6808 3.09655 17.6221 2.3482 16.9334C1.21727 15.8925 1.21727 14.1074 2.3482 13.0665C3.09655 12.3778 3.38029 11.3191 3.07657 10.3484C2.61748 8.88151 3.51009 7.33556 5.00995 6.9996C6.00241 6.77736 6.77747 6.00229 6.99979 5.00983C7.33567 3.50997 8.88163 2.61736 10.3485 3.07638C11.3192 3.38011 12.3779 3.09643 13.0667 2.34808C14.1075 1.21708 15.8926 1.21708 16.9335 2.34808Z" stroke="#17171A" stroke-width="2" stroke-miterlimit="10" stroke-linecap="round" stroke-linejoin="round"/>
<path d="M17.4535 16.9611L21.4678 12.6788C21.8686 12.2512 21.8686 11.558 21.4678 11.1304L20.2062 9.78453C19.8053 9.35693 19.1555 9.35693 18.7546 9.78453L13.4347 15.4597L11.3486 13.2342C10.9478 12.8066 10.2979 12.8066 9.89705 13.2342L8.535 14.6873C8.13417 15.1149 8.13417 15.8082 8.535 16.2357L12.0247 19.9585C12.7479 20.73 13.9205 20.73 14.6438 19.9585L15.8468 18.6751" stroke="#17171A" stroke-width="2" stroke-miterlimit="10" stroke-linecap="round" stroke-linejoin="round"/>
</g>
<defs>
<clipPath id="clip0_1406_126295">
<rect width="30" height="30" fill="white"/>
</clipPath>
</defs>
</svg>
