<svg width="40" height="40" viewBox="0 0 40 40" fill="none" xmlns="http://www.w3.org/2000/svg">
<g clip-path="url(#clip0_1103_106751)">
<path d="M37.7022 29.0012C38.3114 29.0005 38.8954 28.7573 39.3262 28.3252C39.757 27.893 39.9993 27.3071 40 26.6959V12.0886C39.9993 11.4774 39.757 10.8915 39.3262 10.4593C38.8954 10.0272 38.3114 9.78407 37.7022 9.78335H32.3669V7.01462C32.3667 6.85863 32.3056 6.70892 32.1967 6.59762L29.8478 4.18067C29.7924 4.1235 29.726 4.07806 29.6528 4.04703C29.5795 4.016 29.5008 4.00001 29.4213 4H18.3371C18.1791 4 18.0276 4.06297 17.9158 4.17505C17.8041 4.28714 17.7414 4.43915 17.7414 4.59766V9.78335H13.3841C12.9554 9.78389 12.5444 9.95498 12.2413 10.2591C11.9382 10.5632 11.7676 10.9755 11.7671 11.4056V15.2183L9.75865 15.9468C9.64339 15.9884 9.54375 16.0647 9.47332 16.1653C9.40289 16.2658 9.36511 16.3857 9.36513 16.5086V17.2941H7.4874V15.6377C7.48745 15.5592 7.47207 15.4815 7.44215 15.409C7.41223 15.3364 7.36835 15.2705 7.31302 15.215C7.25769 15.1595 7.192 15.1155 7.11971 15.0855C7.04741 15.0554 6.96992 15.04 6.89168 15.0401H1.81951C1.66787 15.0397 1.5218 15.0974 1.41102 15.2013L0.188589 16.3474C0.129073 16.4033 0.0816248 16.4708 0.0491851 16.5458C0.0167453 16.6209 4.52843e-06 16.7018 2.14425e-08 16.7835V22.001C-2.18613e-05 22.0828 0.0167055 22.1638 0.0491454 22.2389C0.0815854 22.3139 0.129047 22.3815 0.188589 22.4374L1.41068 23.5833C1.52134 23.6874 1.66746 23.7452 1.81917 23.7448H6.89168C6.96992 23.7448 7.04741 23.7294 7.11971 23.6994C7.192 23.6694 7.25769 23.6254 7.31302 23.5698C7.36835 23.5143 7.41223 23.4484 7.44215 23.3759C7.47207 23.3034 7.48745 23.2256 7.4874 23.1471V21.4918H9.36513V22.2773C9.36511 22.4002 9.40289 22.5201 9.47332 22.6206C9.54375 22.7212 9.64339 22.7975 9.75865 22.8391L11.7671 23.5675V27.3789C11.7675 27.809 11.938 28.2214 12.2412 28.5255C12.5443 28.8297 12.9553 29.0007 13.3841 29.0012H19.2358C18.8395 32.1159 15.3612 32.1753 15.1971 32.1773H12.3635C12.2055 32.1773 12.054 32.2403 11.9423 32.3524C11.8305 32.4645 11.7678 32.6165 11.7678 32.775V35.4023C11.7678 35.5608 11.8305 35.7129 11.9423 35.825C12.054 35.937 12.2055 36 12.3635 36H39.4043C39.5623 36 39.7138 35.937 39.8255 35.825C39.9372 35.7129 40 35.5608 40 35.4023V32.7726C40 32.6141 39.9372 32.4621 39.8255 32.35C39.7138 32.2379 39.5623 32.1749 39.4043 32.1749H36.5707C36.4134 32.1749 32.9282 32.1179 32.5313 28.9988L37.7022 29.0012ZM17.1752 27.8058V25.9978H32.9364V27.8058H17.1752ZM32.9364 10.9787V12.7887H17.1752V10.9787H32.9364ZM32.9364 19.9901V21.8002H17.1752V19.9901H32.9364ZM17.1752 18.7948V16.9847H32.9364V18.7948H17.1752ZM32.9364 15.7894H17.1752V13.9793H32.9364V15.7894ZM17.1752 22.9941H32.9364V24.8042H17.1752V22.9941ZM38.8086 12.0886V26.6959C38.8082 26.9902 38.6915 27.2723 38.4841 27.4804C38.2767 27.6884 37.9955 27.8055 37.7022 27.8058H34.1258V10.9787H37.7022C37.9955 10.979 38.2767 11.0961 38.4841 11.3042C38.6915 11.5123 38.8082 11.7944 38.8086 12.0886ZM18.9328 5.19533H29.1697L31.1755 7.25779V9.78505H18.9328V5.19533ZM6.29596 22.5495H2.05304L1.19281 21.7414V17.0428L2.05304 16.2354H6.29596V22.5495ZM7.4874 20.2954V18.4853H9.36513V20.2954H7.4874ZM10.5566 21.8558V16.928L11.7678 16.4888V22.2947L10.5566 21.8558ZM12.9592 27.3779V11.4056C12.9594 11.2924 13.0043 11.1839 13.0841 11.1039C13.1638 11.0239 13.2719 10.9789 13.3847 10.9787H15.9838V27.8058H13.3847C13.2719 27.8058 13.1637 27.7607 13.084 27.6807C13.0042 27.6007 12.9593 27.4921 12.9592 27.3789V27.3779ZM38.8086 34.803H12.9592V33.3703H38.8086V34.803ZM33.0045 32.176H18.7643C19.2489 31.7934 19.6481 31.313 19.936 30.7659C20.224 30.2188 20.3942 29.6171 20.4357 28.9998H31.3317C31.3733 29.6172 31.5438 30.219 31.8319 30.7661C32.1201 31.3132 32.5196 31.7936 33.0045 32.176Z" fill="#17171A"/>
</g>
<defs>
<clipPath id="clip0_1103_106751">
<rect width="40" height="40" fill="white"/>
</clipPath>
</defs>
</svg>
