<svg width="60" height="60" viewBox="0 0 60 60" fill="none" xmlns="http://www.w3.org/2000/svg">
<g clip-path="url(#clip0_1551_137414)">
<path d="M13.5446 19.3554V26.1296C13.5446 26.6641 13.9779 27.0973 14.5123 27.0973C15.0468 27.0973 15.4801 26.6641 15.4801 26.1296V21.2909C15.4801 20.222 16.3466 19.3554 17.4156 19.3554H18.3833C18.9178 19.3554 19.3511 18.9221 19.3511 18.3877C19.3511 17.8532 18.9178 17.4199 18.3833 17.4199H15.4801C14.4127 17.4199 13.5446 18.288 13.5446 19.3554ZM13.5446 30.0006C13.5446 29.4661 13.9779 29.0328 14.5123 29.0328C15.0468 29.0328 15.4801 29.4661 15.4801 30.0006C15.4801 30.535 15.0468 30.9683 14.5123 30.9683C13.9779 30.9683 13.5446 30.535 13.5446 30.0006ZM13.5446 33.8715C13.5446 33.3371 13.9779 32.9038 14.5123 32.9038C15.0468 32.9038 15.4801 33.3371 15.4801 33.8715C15.4801 34.406 15.0468 34.8393 14.5123 34.8393C13.9779 34.8393 13.5446 34.406 13.5446 33.8715ZM42.5769 35.807C42.5769 35.2725 43.0101 34.8393 43.5446 34.8393C44.0791 34.8393 44.5123 35.2725 44.5123 35.807C44.5123 36.3415 44.0791 36.7748 43.5446 36.7748C43.0101 36.7748 42.5769 36.3415 42.5769 35.807ZM42.5769 39.678C42.5769 39.1435 43.0101 38.7102 43.5446 38.7102C44.0791 38.7102 44.5123 39.1435 44.5123 39.678C44.5123 40.2125 44.0791 40.6457 43.5446 40.6457C43.0101 40.6457 42.5769 40.2125 42.5769 39.678ZM42.5769 31.9361C42.5769 31.4016 43.0101 30.9683 43.5446 30.9683C44.0791 30.9683 44.5123 31.4016 44.5123 31.9361C44.5123 32.4705 44.0791 32.9038 43.5446 32.9038C43.0101 32.9038 42.5769 32.4705 42.5769 31.9361ZM3.86719 33.8715C3.86719 33.3371 4.30046 32.9038 4.83493 32.9038C5.3694 32.9038 5.80267 33.3371 5.80267 33.8715C5.80267 34.406 5.3694 34.8393 4.83493 34.8393C4.30046 34.8393 3.86719 34.406 3.86719 33.8715ZM3.86719 41.6135C3.86719 41.079 4.30046 40.6457 4.83493 40.6457C5.3694 40.6457 5.80267 41.079 5.80267 41.6135C5.80267 42.1479 5.3694 42.5812 4.83493 42.5812C4.30046 42.5812 3.86719 42.1479 3.86719 41.6135ZM3.86719 37.7425C3.86719 37.208 4.30046 36.7748 4.83493 36.7748C5.3694 36.7748 5.80267 37.208 5.80267 37.7425C5.80267 38.277 5.3694 38.7102 4.83493 38.7102C4.30046 38.7102 3.86719 38.277 3.86719 37.7425Z" fill="#17171A"/>
<path d="M55.1613 0H26.129C23.4611 0 21.2903 2.17077 21.2903 4.83871V13.5484H14.5161C11.8482 13.5484 9.67742 15.7192 9.67742 18.3871V27.0968H4.83871C2.17077 27.0968 0 29.2675 0 31.9355V55.1613C0 57.8292 2.17077 60 4.83871 60H33.871C36.5389 60 38.7097 57.8292 38.7097 55.1613V46.4516H43.5484C46.2163 46.4516 48.3871 44.2808 48.3871 41.6129V32.9032H55.1613C57.8292 32.9032 60 30.7325 60 28.0645V4.83871C60 2.17077 57.8292 0 55.1613 0ZM36.7742 55.1613C36.7742 56.7617 35.4714 58.0645 33.871 58.0645H4.83871C3.23831 58.0645 1.93548 56.7617 1.93548 55.1613V31.9355C1.93548 30.3351 3.23831 29.0323 4.83871 29.0323H9.67742V41.6129C9.67742 44.2808 11.8482 46.4516 14.5161 46.4516H36.7742V55.1613ZM46.4516 41.6129C46.4516 43.2133 45.1488 44.5161 43.5484 44.5161H14.5161C12.9157 44.5161 11.6129 43.2133 11.6129 41.6129V18.3871C11.6129 16.7867 12.9157 15.4839 14.5161 15.4839H43.5484C45.1488 15.4839 46.4516 16.7867 46.4516 18.3871V41.6129ZM54.1935 7.74194H40.6452V5.80645H54.1935V7.74194ZM58.0645 28.0645C58.0645 29.6649 56.7617 30.9677 55.1613 30.9677H48.3871V18.3871C48.3871 15.7192 46.2163 13.5484 43.5484 13.5484H40.6452V9.67742H54.1935V19.533C53.8897 19.4243 53.5664 19.3548 53.2258 19.3548C51.6254 19.3548 50.3226 20.6577 50.3226 22.2581C50.3226 23.8585 51.6254 25.1613 53.2258 25.1613C54.8262 25.1613 56.129 23.8585 56.129 22.2581V3.87097H38.7097V13.5484H23.2258V4.83871C23.2258 3.23831 24.5286 1.93548 26.129 1.93548H55.1613C56.7617 1.93548 58.0645 3.23831 58.0645 4.83871V28.0645ZM54.1935 22.2581C54.1935 22.792 53.7598 23.2258 53.2258 23.2258C52.6919 23.2258 52.2581 22.792 52.2581 22.2581C52.2581 21.7241 52.6919 21.2903 53.2258 21.2903C53.7598 21.2903 54.1935 21.7241 54.1935 22.2581Z" fill="#17171A"/>
<path d="M21.2865 36.0719C21.2865 37.5587 22.8512 38.5257 24.181 37.8607L36.3243 31.789C37.7984 31.0519 37.7984 28.9483 36.3243 28.2113L24.181 22.1395C22.8512 21.4746 21.2865 22.4416 21.2865 23.9284V36.0719ZM23.222 25.4421C23.222 24.6988 24.0043 24.2153 24.6692 24.5477L33.7855 29.1057C34.5226 29.4742 34.5226 30.526 33.7855 30.8946L24.6692 35.4526C24.0043 35.785 23.222 35.3015 23.222 34.5581V25.4421ZM14.5123 51.3227C14.5123 50.7704 14.0646 50.3227 13.5123 50.3227H9.7059C9.15361 50.3227 8.7059 50.7704 8.7059 51.3227V52.2582H4.83493C4.30046 52.2582 3.86719 52.6915 3.86719 53.2259C3.86719 53.7604 4.30046 54.1937 4.83493 54.1937H8.7059V55.1292C8.7059 55.6814 9.15361 56.1292 9.7059 56.1292H13.5124C14.0646 56.1292 14.5123 55.6814 14.5123 55.1292V54.1937H33.8672C34.4017 54.1937 34.8349 53.7604 34.8349 53.2259C34.8349 52.6915 34.4017 52.2582 33.8672 52.2582H14.5123V51.3227ZM12.5769 53.2259C12.5769 53.7604 12.1436 54.1937 11.6091 54.1937C11.0747 54.1937 10.6414 53.7604 10.6414 53.2259C10.6414 52.6915 11.0747 52.2582 11.6091 52.2582C12.1436 52.2582 12.5769 52.6915 12.5769 53.2259ZM25.1575 4.83884C25.1575 4.30437 25.5908 3.87109 26.1253 3.87109H35.8027C36.3371 3.87109 36.7704 4.30437 36.7704 4.83884C36.7704 5.3733 36.3371 5.80658 35.8027 5.80658H26.1253C25.5908 5.80658 25.1575 5.3733 25.1575 4.83884ZM25.1575 8.7098C25.1575 8.17533 25.5908 7.74206 26.1253 7.74206H35.8027C36.3371 7.74206 36.7704 8.17533 36.7704 8.7098C36.7704 9.24427 36.3371 9.67755 35.8027 9.67755H26.1253C25.5908 9.67755 25.1575 9.24427 25.1575 8.7098Z" fill="#17171A"/>
<path d="M23.2245 25.4413C23.2245 24.6979 24.0068 24.2144 24.6717 24.5468L33.788 29.1048C34.5251 29.4734 34.5251 30.5252 33.788 30.8937L24.6717 35.4517C24.0068 35.7841 23.2245 35.3006 23.2245 34.5573V25.4413Z" fill="#F4B54A"/>
</g>
<defs>
<clipPath id="clip0_1551_137414">
<rect width="60" height="60" fill="white"/>
</clipPath>
</defs>
</svg>
