<svg width="36" height="36" viewBox="0 0 36 36" fill="none" xmlns="http://www.w3.org/2000/svg">
<g clip-path="url(#clip0_1103_106800)">
<path d="M18.0001 10.8008C16.576 10.8008 15.184 11.2231 13.9999 12.0142C12.8159 12.8053 11.8931 13.9298 11.3481 15.2455C10.8032 16.5611 10.6606 18.0088 10.9384 19.4054C11.2162 20.8021 11.9019 22.085 12.9089 23.092C13.9158 24.0989 15.1987 24.7846 16.5954 25.0624C17.9921 25.3402 19.4397 25.1977 20.7554 24.6527C22.071 24.1078 23.1955 23.1849 23.9866 22.0009C24.7778 20.8169 25.2001 19.4248 25.2001 18.0008C25.1979 16.0919 24.4387 14.2618 23.0889 12.912C21.7391 11.5622 19.909 10.8029 18.0001 10.8008ZM18.0001 24.0008C16.8134 24.0008 15.6533 23.6489 14.6666 22.9896C13.6799 22.3303 12.9109 21.3932 12.4568 20.2969C12.0026 19.2005 11.8838 17.9941 12.1153 16.8302C12.3469 15.6664 12.9183 14.5973 13.7574 13.7581C14.5965 12.919 15.6656 12.3476 16.8295 12.1161C17.9934 11.8846 19.1998 12.0034 20.2962 12.4575C21.3925 12.9116 22.3296 13.6807 22.9889 14.6674C23.6482 15.6541 24.0001 16.8141 24.0001 18.0008C23.9982 19.5915 23.3655 21.1166 22.2407 22.2414C21.1159 23.3663 19.5908 23.999 18.0001 24.0008Z" fill="#17171A"/>
<path d="M18.0002 8.40039C16.1015 8.40039 14.2454 8.96342 12.6667 10.0183C11.088 11.0731 9.85751 12.5725 9.13091 14.3266C8.40431 16.0808 8.21419 18.011 8.58461 19.8733C8.95503 21.7355 9.86934 23.446 11.2119 24.7886C12.5545 26.1312 14.2651 27.0455 16.1273 27.4159C17.9895 27.7863 19.9197 27.5962 21.6739 26.8696C23.4281 26.143 24.9274 24.9126 25.9823 23.3339C27.0371 21.7552 27.6002 19.8991 27.6002 18.0004C27.5973 15.4552 26.5849 13.0151 24.7852 11.2153C22.9855 9.41562 20.5453 8.40327 18.0002 8.40039ZM18.0002 26.4004C16.3388 26.4004 14.7147 25.9077 13.3334 24.9847C11.952 24.0617 10.8753 22.7498 10.2396 21.2149C9.60379 19.68 9.43744 17.9911 9.76155 16.3616C10.0857 14.7322 10.8857 13.2355 12.0605 12.0607C13.2352 10.8859 14.732 10.0859 16.3614 9.76179C17.9908 9.43768 19.6798 9.60403 21.2147 10.2398C22.7496 10.8756 24.0615 11.9522 24.9845 13.3336C25.9075 14.715 26.4002 16.339 26.4002 18.0004C26.3976 20.2274 25.5118 22.3625 23.9371 23.9373C22.3623 25.5121 20.2272 26.3979 18.0002 26.4004Z" fill="#17171A"/>
<path d="M31.2 35.4L31.2 0.599999C31.2 0.440869 31.1368 0.288257 31.0243 0.175735C30.9118 0.0632134 30.7592 -6.26696e-07 30.6 -6.22854e-07L5.40005 -1.4485e-08C5.24092 -1.06433e-08 5.08831 0.0632141 4.97578 0.175736C4.86326 0.288258 4.80005 0.44087 4.80005 0.6L4.80005 35.4C4.80005 35.5591 4.86326 35.7117 4.97579 35.8243C5.08831 35.9368 5.24092 36 5.40005 36L30.6 36C30.7592 36 30.9118 35.9368 31.0243 35.8243C31.1368 35.7117 31.2 35.5591 31.2 35.4ZM6.00005 7.2L30 7.2L30 30L6.00005 30L6.00005 7.2ZM13.2 1.2L24 1.2L24 4.2C24 4.35913 24.0633 4.51174 24.1758 4.62426C24.2883 4.73679 24.4409 4.8 24.6 4.8L30 4.8L30 6L13.2 6L13.2 1.2ZM30 3.6L25.2 3.6L25.2 1.2L30 1.2L30 3.6ZM12 1.2L12 6L6.00005 6L6.00005 1.2L12 1.2ZM6.00005 34.8L6.00005 31.2L30 31.2L30 34.8L6.00005 34.8Z" fill="#17171A"/>
<path d="M17.4 1.80078C17.0439 1.80078 16.6959 1.90635 16.3999 2.10414C16.1039 2.30192 15.8732 2.58304 15.737 2.91195C15.6007 3.24086 15.5651 3.60278 15.6345 3.95194C15.704 4.30111 15.8754 4.62184 16.1272 4.87357C16.3789 5.12531 16.6996 5.29674 17.0488 5.36619C17.398 5.43565 17.7599 5.4 18.0888 5.26376C18.4177 5.12753 18.6988 4.89682 18.8966 4.60081C19.0944 4.3048 19.2 3.95679 19.2 3.60078C19.1994 3.12356 19.0096 2.66603 18.6722 2.32858C18.3347 1.99113 17.8772 1.80132 17.4 1.80078ZM17.4 4.20078C17.2813 4.20078 17.1653 4.16559 17.0666 4.09966C16.9679 4.03373 16.891 3.94003 16.8456 3.83039C16.8002 3.72076 16.7883 3.60012 16.8115 3.48373C16.8346 3.36734 16.8918 3.26043 16.9757 3.17652C17.0596 3.09261 17.1665 3.03546 17.2829 3.01231C17.3993 2.98916 17.5199 3.00104 17.6296 3.04645C17.7392 3.09187 17.8329 3.16877 17.8988 3.26744C17.9648 3.36611 18 3.48211 18 3.60078C17.9998 3.75986 17.9365 3.91236 17.824 4.02485C17.7115 4.13733 17.559 4.2006 17.4 4.20078ZM7.19995 3.00078L10.8 3.00078L10.8 4.20078L7.19995 4.20078L7.19995 3.00078ZM20.4 1.80078L22.8 1.80078L22.8 3.00078L20.4 3.00078L20.4 1.80078ZM20.4 4.20078L22.8 4.20078L22.8 5.40078L20.4 5.40078L20.4 4.20078ZM19.2 13.8008C19.2 13.6417 19.1367 13.489 19.0242 13.3765C18.9117 13.264 18.7591 13.2008 18.6 13.2008C18.4408 13.2008 18.2882 13.264 18.1757 13.3765C18.0632 13.489 18 13.6417 18 13.8008C18 14.2788 17.8187 14.4901 17.5444 14.8101C17.2125 15.1971 16.8 15.6786 16.8 16.6005C16.8 17.5224 17.2125 18.0041 17.5444 18.391C17.8187 18.7111 18 18.9225 18 19.4007C18 19.8788 17.8187 20.0901 17.5444 20.4102C17.2125 20.7972 16.8 21.2788 16.8 22.2008C16.8 22.3599 16.8632 22.5125 16.9757 22.625C17.0882 22.7376 17.2408 22.8008 17.4 22.8008C17.5591 22.8008 17.7117 22.7376 17.8242 22.625C17.9367 22.5125 18 22.3599 18 22.2008C18 21.7227 18.1812 21.5112 18.4555 21.1911C18.7872 20.8042 19.2 20.3226 19.2 19.4007C19.2 18.4787 18.7875 17.997 18.4555 17.6101C18.1812 17.29 18 17.0783 18 16.6005C18 16.1228 18.1812 15.9112 18.4555 15.5912C18.7875 15.2043 19.2 14.7227 19.2 13.8008ZM21 16.6005C21 16.1226 21.1812 15.9111 21.4556 15.591C21.5165 15.52 21.5773 15.4485 21.6361 15.3752C21.7323 15.2506 21.7757 15.0932 21.7569 14.9369C21.7381 14.7806 21.6586 14.6379 21.5356 14.5397C21.4126 14.4415 21.2559 14.3955 21.0994 14.4117C20.9428 14.4279 20.7989 14.505 20.6986 14.6264C20.6485 14.6891 20.5965 14.7495 20.5446 14.8101C20.2125 15.197 19.8 15.6786 19.8 16.6005C19.8 17.5224 20.2125 18.0041 20.5444 18.391C20.8187 18.7111 21 18.9225 21 19.4007C21 19.8788 20.8187 20.0902 20.5443 20.4103C20.4834 20.4815 20.4225 20.5528 20.3637 20.6264C20.2675 20.751 20.2241 20.9084 20.2429 21.0647C20.2617 21.221 20.3411 21.3636 20.4641 21.4619C20.5871 21.5601 20.7438 21.6061 20.9004 21.5899C21.057 21.5736 21.2009 21.4965 21.3012 21.3752C21.3513 21.3124 21.4033 21.2519 21.4552 21.1913C21.7875 20.8043 22.2 20.3226 22.2 19.4007C22.2 18.4787 21.7875 17.997 21.4555 17.6101C21.1812 17.29 21 17.0783 21 16.6005ZM15 16.6005C15 16.1226 15.1812 15.9111 15.4556 15.591C15.5165 15.52 15.5773 15.4485 15.6361 15.3752C15.7323 15.2506 15.7757 15.0932 15.7569 14.9369C15.7381 14.7806 15.6586 14.6379 15.5356 14.5397C15.4126 14.4415 15.2559 14.3955 15.0994 14.4117C14.9428 14.4279 14.7989 14.505 14.6986 14.6264C14.6485 14.6891 14.5965 14.7495 14.5446 14.8101C14.2125 15.197 13.8 15.6786 13.8 16.6005C13.8 17.5224 14.2125 18.0041 14.5444 18.391C14.8187 18.7111 15 18.9225 15 19.4007C15 19.8788 14.8187 20.0902 14.5443 20.4103C14.4834 20.4815 14.4225 20.5528 14.3637 20.6264C14.2675 20.751 14.2241 20.9084 14.2429 21.0647C14.2617 21.221 14.3411 21.3636 14.4641 21.4619C14.5871 21.5601 14.7438 21.6061 14.9004 21.5899C15.057 21.5736 15.2009 21.4965 15.3012 21.3752C15.3513 21.3124 15.4033 21.2519 15.4552 21.1913C15.7875 20.8043 16.2 20.3226 16.2 19.4007C16.2 18.4787 15.7875 17.997 15.4555 17.6101C15.1812 17.29 15 17.0783 15 16.6005Z" fill="#17171A"/>
</g>
<defs>
<clipPath id="clip0_1103_106800">
<rect width="36" height="36" fill="white"/>
</clipPath>
</defs>
</svg>
