<svg width="31" height="30" viewBox="0 0 31 30" fill="none" xmlns="http://www.w3.org/2000/svg">
<g clip-path="url(#clip0_1406_126309)">
<path d="M22.5246 9.86902L21.1071 8.46495C20.4785 7.84234 19.4625 7.84543 18.8378 8.47184L15.998 11.3191L13.1583 8.47183C12.5336 7.84542 11.5176 7.84234 10.889 8.46495L9.4715 9.86902C8.84294 10.4916 8.83984 11.5042 9.46459 12.1306L12.3267 15.0003L9.4651 17.8694C8.84035 18.4958 8.84344 19.5084 9.47201 20.131L10.8895 21.5351C11.5181 22.1577 12.5341 22.1546 13.1588 21.5282L15.998 18.6814L18.8373 21.5282C19.462 22.1546 20.478 22.1577 21.1066 21.535L22.5241 20.131C23.1527 19.5084 23.1557 18.4958 22.531 17.8694L19.6694 15.0003L22.5315 12.1306C23.1562 11.5042 23.1532 10.4916 22.5246 9.86902Z" stroke="#17171A" stroke-width="2"/>
<path d="M6.45222 5.45394L10.4069 1.50176L15.9979 1.5L15.9982 1.5L21.5892 1.50176L25.5439 5.45394L25.5441 5.45417L29.4963 9.40885L29.498 14.9998V15.0001L29.4963 20.5911L25.5441 24.5458L25.5439 24.546L21.5892 28.4982L15.9982 28.5H15.9979L10.4069 28.4982L6.45222 24.546L6.452 24.5458L2.49981 20.5911L2.49805 15.0001V14.9998L2.4998 9.40885L6.452 5.45417L6.45222 5.45394Z" stroke="#17171A" stroke-width="2"/>
</g>
<defs>
<clipPath id="clip0_1406_126309">
<rect width="30" height="30" fill="white" transform="translate(0.998047)"/>
</clipPath>
</defs>
</svg>
