<svg width="16" height="12" viewBox="0 0 16 12" fill="none" xmlns="http://www.w3.org/2000/svg">
<path d="M7.44924 6.82045C7.57895 6.9454 7.79601 7.02468 8.02792 7.0244C8.25952 7.0261 8.47719 6.94398 8.60052 6.82551L14.3215 1.45157C14.7043 1.09218 14.5742 0.800781 14.031 0.800781H2.06564C1.52268 0.800781 1.39175 1.09304 1.77298 1.45351L7.44924 6.82045Z" fill="#17171A"/>
<path d="M0.890642 9.69415L4.78464 5.97937L0.893935 2.30043C0.512404 1.93991 0.203125 2.05838 0.203125 2.56503V9.43291C0.203125 9.93927 0.510884 10.0563 0.890642 9.69415Z" fill="#17171A"/>
<path d="M2.05898 11.2013H13.9369C14.4799 11.2013 14.6126 10.9074 14.2332 10.5452L10.3592 6.84395L9.49515 7.65694C9.09 8.03523 8.55125 8.20391 8.02521 8.20476C7.50095 8.20419 6.95829 8.03467 6.54803 7.65103L5.66975 6.82031L1.76364 10.5458C1.38388 10.9076 1.51602 11.2013 2.05898 11.2013Z" fill="#17171A"/>
<path d="M15.8024 9.43244V2.65566C15.8024 2.14906 15.4923 2.02974 15.1095 2.38907L11.2578 6.00651L15.1158 9.69335C15.4949 10.0559 15.8024 9.93908 15.8024 9.43244Z" fill="#17171A"/>
</svg>
