<svg width="34" height="34" viewBox="0 0 34 34" fill="none" xmlns="http://www.w3.org/2000/svg">
<g clip-path="url(#clip0_1103_106810)">
<mask id="mask0_1103_106810" style="mask-type:luminance" maskUnits="userSpaceOnUse" x="0" y="0" width="34" height="34">
<path d="M0 9.91821e-05H33.9999V34H0V9.91821e-05Z" fill="white"/>
</mask>
<g mask="url(#mask0_1103_106810)">
<path d="M21.3495 19.7227L21.5484 12.4394C19.5371 11.8747 18.0624 10.0276 18.0624 7.83591C18.0624 5.19527 19.4859 0.664053 22.8436 0.664053C26.2014 0.664053 27.6248 5.19527 27.6248 7.83591C27.6248 10.0276 26.1501 11.8747 24.1389 12.4394L24.3377 19.7227" stroke="#17171A" stroke-width="1.3" stroke-miterlimit="22.926" stroke-linecap="round" stroke-linejoin="round"/>
<path d="M22.8435 33.3359C24.1218 33.3359 25.2065 32.2895 25.1677 31.0117L24.8357 20.0547H20.8513L20.5193 31.0117C20.4806 32.2895 21.5652 33.3359 22.8435 33.3359Z" stroke="#17171A" stroke-width="1.3" stroke-miterlimit="22.926" stroke-linecap="round" stroke-linejoin="round"/>
<path d="M10.4921 33.3359C11.7704 33.3359 12.855 32.2895 12.8163 31.0117L12.4843 20.0547H8.4999L8.16787 31.0117C8.12922 32.2895 9.21377 33.3359 10.4921 33.3359Z" stroke="#17171A" stroke-width="1.3" stroke-miterlimit="22.926" stroke-linecap="round" stroke-linejoin="round"/>
<path d="M8.99792 19.7227L9.1968 12.4394C7.18556 11.8747 6.37488 10.0276 6.37488 7.83591V0.664053M14.6092 0.664053V7.83591C14.6093 10.0276 13.7986 11.8747 11.7873 12.4394L11.9862 19.7227" stroke="#17171A" stroke-width="1.3" stroke-miterlimit="22.926" stroke-linecap="round" stroke-linejoin="round"/>
<path d="M6.71497 7.83594H14.2694" stroke="#17171A" stroke-width="1.3" stroke-miterlimit="22.926" stroke-linecap="round" stroke-linejoin="round"/>
<path d="M9.11963 0.663539V7.47461" stroke="#17171A" stroke-width="1.3" stroke-miterlimit="22.926" stroke-linecap="round" stroke-linejoin="round"/>
<path d="M11.8644 0.663539V7.47461" stroke="#17171A" stroke-width="1.3" stroke-miterlimit="22.926" stroke-linecap="round" stroke-linejoin="round"/>
</g>
</g>
<defs>
<clipPath id="clip0_1103_106810">
<rect width="34" height="34" fill="white"/>
</clipPath>
</defs>
</svg>
