<svg width="40" height="40" viewBox="0 0 40 40" fill="none" xmlns="http://www.w3.org/2000/svg">
<path d="M7.47479 36.909C6.78307 36.909 6.22229 36.3482 6.22229 35.6565V1.83844C6.22229 1.14672 6.78307 0.585938 7.47479 0.585938H32.5253C33.217 0.585938 33.7778 1.14672 33.7777 1.83844V35.6565C33.7777 36.3482 33.2169 36.909 32.5252 36.909H7.47479ZM7.47479 36.909V38.7877C7.47479 38.9538 7.54077 39.1131 7.65821 39.2306C7.77566 39.348 7.93495 39.414 8.10104 39.414H10.6061C10.7722 39.414 10.9315 39.348 11.0489 39.2306C11.1664 39.1131 11.2324 38.9538 11.2324 38.7877V36.909M32.5253 36.909V38.7877C32.5253 38.9538 32.4593 39.1131 32.3418 39.2306C32.2244 39.348 32.0651 39.414 31.899 39.414H29.3939C29.2278 39.414 29.0685 39.348 28.9511 39.2306C28.8337 39.1131 28.7677 38.9538 28.7677 38.7877V36.909M11.2324 31.8989H33.7778M6.22229 31.8989H8.72737" stroke="#17171A" stroke-width="1.17188" stroke-miterlimit="10" stroke-linecap="round" stroke-linejoin="round"/>
<path d="M20 29.3933C25.1881 29.3933 29.3939 25.1875 29.3939 19.9994C29.3939 14.8113 25.1881 10.6055 20 10.6055C14.8119 10.6055 10.6061 14.8113 10.6061 19.9994C10.6061 25.1875 14.8119 29.3933 20 29.3933Z" stroke="#17171A" stroke-width="1.17188" stroke-miterlimit="10" stroke-linecap="round" stroke-linejoin="round"/>
<path d="M20.0001 8.1007C20.6918 8.1007 21.2526 7.53994 21.2526 6.8482C21.2526 6.15647 20.6918 5.5957 20.0001 5.5957C19.3083 5.5957 18.7476 6.15647 18.7476 6.8482C18.7476 7.53994 19.3083 8.1007 20.0001 8.1007Z" stroke="#17171A" stroke-width="1.17188" stroke-miterlimit="10" stroke-linecap="round" stroke-linejoin="round"/>
<path d="M16.2425 3.08984V6.84742C16.2425 7.53914 15.6817 8.09992 14.99 8.09992H9.97992C9.2882 8.09992 8.72742 7.53914 8.72742 6.84742V3.08984M31.2727 3.08984V6.84742C31.2727 7.53914 30.7119 8.09992 30.0202 8.09992H25.0102C24.3184 8.09992 23.7577 7.53914 23.7577 6.84742V3.08984" stroke="#17171A" stroke-width="1.17188" stroke-miterlimit="10" stroke-linecap="round" stroke-linejoin="round"/>
<path d="M11.2324 8.09992V6.22109C11.2324 6.055 11.2983 5.89571 11.4158 5.77827C11.5332 5.66082 11.6925 5.59484 11.8586 5.59484H13.1111C13.2772 5.59484 13.4365 5.66082 13.5539 5.77827C13.6714 5.89571 13.7374 6.055 13.7374 6.22109V8.09984M6.22229 3.08984H33.7778" stroke="#17171A" stroke-width="1.17188" stroke-miterlimit="10" stroke-linecap="round" stroke-linejoin="round"/>
<path d="M19.9999 26.889C23.8045 26.889 26.8887 23.8048 26.8887 20.0002C26.8887 16.1956 23.8045 13.1113 19.9999 13.1113C16.1953 13.1113 13.1111 16.1956 13.1111 20.0002C13.1111 23.8048 16.1953 26.889 19.9999 26.889Z" stroke="#17171A" stroke-width="1.17188" stroke-miterlimit="10" stroke-linecap="round" stroke-linejoin="round"/>
<path d="M22.3366 16.2893C21.6602 15.8623 20.8589 15.6152 19.9999 15.6152C17.5788 15.6152 15.6161 17.578 15.6161 19.9991C15.6161 22.4202 17.5788 24.3829 19.9999 24.3829C21.8158 24.3829 23.3737 23.2789 24.0392 21.7055" stroke="#17171A" stroke-width="1.17188" stroke-miterlimit="10" stroke-linecap="round" stroke-linejoin="round"/>
<path d="M26.2626 22.5048H25.6363C24.5987 22.5048 23.7576 21.6636 23.7576 20.626V19.3735C23.7576 18.3359 24.5987 17.4948 25.6363 17.4948H26.2626M26.2626 5.5957H28.7676" stroke="#17171A" stroke-width="1.17188" stroke-miterlimit="10" stroke-linecap="round" stroke-linejoin="round"/>
</svg>
