<svg width="40" height="40" viewBox="0 0 40 40" fill="none" xmlns="http://www.w3.org/2000/svg">
<path d="M36.75 34.375H36.25V11C36.25 10.8921 36.2221 10.786 36.169 10.6921C36.1159 10.5982 36.0394 10.5196 35.9469 10.4641L20.3219 1.08906C20.2246 1.03078 20.1134 1 20 1C19.8866 1 19.7754 1.03078 19.6781 1.08906L4.05313 10.4641C3.96064 10.5196 3.88411 10.5982 3.83099 10.6921C3.77787 10.786 3.74997 10.8921 3.75 11V34.375H3.25C3.08424 34.375 2.92527 34.4408 2.80806 34.5581C2.69085 34.6753 2.625 34.8342 2.625 35V36.875C2.625 37.0408 2.69085 37.1997 2.80806 37.3169C2.92527 37.4342 3.08424 37.5 3.25 37.5H36.75C36.9158 37.5 37.0747 37.4342 37.1919 37.3169C37.3092 37.1997 37.375 37.0408 37.375 36.875V35C37.375 34.8342 37.3092 34.6753 37.1919 34.5581C37.0747 34.4408 36.9158 34.375 36.75 34.375ZM5 11.3539L20 2.35391L35 11.3539V34.375H31.25V18.125H32.5C32.6658 18.125 32.8247 18.0592 32.9419 17.9419C33.0592 17.8247 33.125 17.6658 33.125 17.5V15.625C33.125 15.4592 33.0592 15.3003 32.9419 15.1831C32.8247 15.0658 32.6658 15 32.5 15H7.5C7.33424 15 7.17527 15.0658 7.05806 15.1831C6.94085 15.3003 6.875 15.4592 6.875 15.625V17.5C6.875 17.6658 6.94085 17.8247 7.05806 17.9419C7.17527 18.0592 7.33424 18.125 7.5 18.125H8.75V34.375H5V11.3539ZM10 26.875V25.625H30V26.875H10ZM30 28.125V34.375H10V28.125H30ZM10 24.375V23.125H30V24.375H10ZM10 21.875V20.625H30V21.875H10ZM10 19.375V18.125H30V19.375H10ZM8.125 16.875V16.25H31.875V16.875H8.125ZM36.125 36.25H3.875V35.625H36.125V36.25Z" fill="#17171A"/>
</svg>
