<svg width="140" height="126" viewBox="0 0 140 126" fill="none" xmlns="http://www.w3.org/2000/svg">
<path d="M32.2181 106.184H16.3907V71.6273H4.03125L39.7869 51.9646L52.6206 59.0315V52.2818H60.2395V63.2118L75.5358 71.6273H63.1746V106.184H38.1849" fill="white"/>
<path d="M64.0306 107.047H38.1787V105.323H62.3061V70.7657H72.1719L59.371 63.7229V53.1447H53.4767V60.4911L39.7807 52.9499L7.38264 70.7657H17.2467V105.323H32.2119V107.047H15.5223V72.4902H0.667969L39.7807 50.9823L51.7522 57.5733V51.4202H61.0955V62.702L78.8854 72.4902H64.0306V107.047Z" fill="#17171A"/>
<path d="M63.1714 107.306H38.1817C37.5643 107.306 37.0625 106.804 37.0625 106.185C37.0625 105.564 37.5643 105.062 38.1817 105.062H62.0504V71.6275C62.0504 71.0067 62.5523 70.5049 63.1714 70.5049H71.1696L59.6948 64.1933C59.3378 63.9967 59.1153 63.6207 59.1153 63.212V53.403H53.7384V59.0318C53.7384 59.4267 53.528 59.7941 53.1865 59.9959C52.8451 60.1994 52.4226 60.2045 52.076 60.0131L39.7837 53.2444L8.39274 70.5049H16.3875C17.0066 70.5049 17.5084 71.0067 17.5084 71.6275V105.062H32.2149C32.834 105.062 33.3358 105.564 33.3358 106.185C33.3358 106.804 32.834 107.306 32.2149 107.306H16.3875C15.7684 107.306 15.2666 106.804 15.2666 106.185V72.7485H4.02805C3.51588 72.7485 3.06922 72.4019 2.94161 71.9069C2.814 71.4103 3.03991 70.8912 3.48828 70.6446L39.244 50.9836C39.5785 50.7974 39.9872 50.7974 40.3235 50.9836L51.4965 57.1349V52.2821C51.4965 51.6613 51.9984 51.1595 52.6175 51.1595H60.2363C60.8536 51.1595 61.3555 51.6613 61.3555 52.2821V62.5498L76.0723 70.6446C76.5207 70.8912 76.7449 71.4103 76.6172 71.9069C76.4896 72.4019 76.0447 72.7485 75.5326 72.7485H64.2923V106.185C64.2923 106.804 63.7905 107.306 63.1714 107.306Z" fill="#17171A"/>
<path d="M33.8393 79.7506H46.0677L41.1115 89.7993L52.8243 91.4996L27.2017 117.203L35.7018 98.5269H26.7344L33.8393 79.7506Z" fill="#F4B54A"/>
<path d="M27.9848 97.664H37.0436L29.9697 113.207L51.0051 92.106L39.8148 90.4798L44.6831 80.6122H34.4361L27.9848 97.664ZM24.4375 121.2L34.3637 99.3885H25.4894L33.2462 78.8877H47.4561L42.4119 89.1157L54.649 90.8919L24.4375 121.2Z" fill="#17171A"/>
<path d="M28.3565 97.4056H35.7011C36.0822 97.4056 36.4375 97.5988 36.6427 97.9212C36.8496 98.2403 36.8789 98.6455 36.722 98.9921L30.7966 112.009L50.4559 92.2873L40.9505 90.9077C40.5952 90.856 40.2865 90.637 40.1192 90.3196C39.952 90.0023 39.9468 89.6247 40.1055 89.3039L44.2649 80.8711H34.6129L28.3565 97.4056ZM27.2011 118.325C26.9786 118.325 26.7561 118.26 26.563 118.124C26.1163 117.817 25.956 117.232 26.1801 116.739L33.9593 99.6492H26.7337C26.3664 99.6492 26.0215 99.4663 25.8128 99.1628C25.6024 98.861 25.5559 98.4748 25.6852 98.1299L32.7901 79.3518C32.9557 78.9173 33.373 78.6275 33.8386 78.6275H46.067C46.4551 78.6275 46.8155 78.8276 47.019 79.1587C47.2242 79.4863 47.2431 79.8968 47.0724 80.2452L42.7991 88.9107L52.984 90.3886C53.4048 90.4507 53.7531 90.7439 53.8876 91.1457C54.0221 91.5475 53.9169 91.9906 53.6186 92.2907L27.9943 117.994C27.777 118.212 27.4908 118.325 27.2011 118.325Z" fill="#17171A"/>
<path d="M105.483 45.2659C112.21 55.3385 120.866 89.6836 105.483 93.1217C90.0509 87.6318 98.4735 55.7441 105.483 45.2659Z" fill="white"/>
<path d="M105.488 39.4298C98.7021 49.7716 91.7921 72.7177 96.1982 86.2809C97.8727 91.4285 101.015 94.8361 105.543 96.414C109.649 95.4845 112.595 92.796 114.304 88.4192C119.562 74.9389 111.957 49.4801 105.488 39.4298ZM105.441 98.1989L105.221 98.1264C100.025 96.4002 96.4379 92.5943 94.5599 86.812C89.7641 72.059 97.4174 47.6901 104.791 37.3966L105.493 36.4188L106.193 37.3966C112.831 46.6709 121.778 74.0024 115.909 89.0452C113.945 94.079 110.499 97.1435 105.669 98.1506L105.441 98.1989Z" fill="#17171A"/>
<path d="M105.488 39.9087C98.8001 50.3574 92.1091 72.8517 96.4479 86.1993C98.0844 91.24 101.151 94.5838 105.56 96.1445C109.539 95.2184 112.399 92.5903 114.064 88.3239C119.235 75.0677 111.88 50.1332 105.488 39.9087ZM105.495 98.4294C105.374 98.4294 105.255 98.4088 105.141 98.3708C99.8624 96.6187 96.2203 92.7559 94.3147 86.8926C89.4947 72.0619 97.1774 47.581 104.582 37.2444C104.793 36.9512 105.132 36.777 105.495 36.777C105.857 36.777 106.195 36.9512 106.405 37.246C113.07 46.5583 122.051 74.0158 116.152 89.1396C114.155 94.2614 110.646 97.3776 105.722 98.4054C105.646 98.4209 105.57 98.4294 105.495 98.4294Z" fill="#17171A"/>
<path d="M106.127 107.306C105.513 107.306 105.013 106.812 105.006 106.195L104.906 97.1915C104.899 96.5724 105.396 96.0654 106.013 96.0585C106.019 96.0585 106.022 96.0585 106.027 96.0585C106.641 96.0585 107.141 96.5517 107.148 97.1673L107.248 106.173C107.255 106.79 106.76 107.297 106.141 107.306C106.136 107.306 106.132 107.306 106.127 107.306Z" fill="#17171A"/>
<path d="M105.855 98.3004C105.236 98.3004 104.734 97.7986 104.734 97.1795V58.6663C104.734 58.0472 105.236 57.5454 105.855 57.5454C106.474 57.5454 106.976 58.0472 106.976 58.6663V97.1795C106.976 97.7986 106.474 98.3004 105.855 98.3004Z" fill="#17171A"/>
<path d="M105.855 71.7778C105.702 71.7778 105.547 71.7468 105.398 71.6813C104.833 71.426 104.579 70.7655 104.833 70.1982L108.309 62.4276C108.563 61.8619 109.223 61.6102 109.791 61.8602C110.356 62.1154 110.608 62.7777 110.356 63.3433L106.878 71.1157C106.693 71.5313 106.283 71.7778 105.855 71.7778Z" fill="#17171A"/>
<path d="M105.848 66.651C105.534 66.651 105.222 66.5199 105.001 66.2647L100.826 61.4672C100.419 60.9998 100.469 60.2911 100.937 59.8858C101.404 59.4771 102.111 59.5288 102.518 59.9944L106.691 64.7937C107.098 65.2593 107.048 65.9681 106.583 66.3751C106.37 66.5596 106.108 66.651 105.848 66.651Z" fill="#17171A"/>
<path d="M105.855 80.9589C105.605 80.9589 105.352 80.8744 105.143 80.702C104.665 80.3088 104.596 79.6035 104.99 79.1241L110.306 72.6623C110.699 72.1864 111.405 72.1157 111.884 72.5088C112.362 72.9037 112.431 73.6091 112.038 74.0868L106.721 80.5485C106.5 80.8192 106.179 80.9589 105.855 80.9589Z" fill="#17171A"/>
<path d="M105.848 77.5583C105.539 77.5583 105.231 77.4307 105.01 77.1807L99.8847 71.4019C99.4725 70.938 99.5156 70.2293 99.9795 69.8188C100.442 69.4084 101.15 69.4498 101.561 69.912L106.688 75.6924C107.098 76.1563 107.055 76.8651 106.591 77.2755C106.379 77.4635 106.114 77.5583 105.848 77.5583Z" fill="#17171A"/>
<path d="M105.848 86.5382C105.54 86.5382 105.231 86.4106 105.008 86.1589L99.8832 80.3645C99.4728 79.9007 99.5159 79.1919 99.9798 78.7814C100.444 78.3693 101.152 78.4142 101.563 78.8798L106.688 84.674C107.099 85.1379 107.055 85.8467 106.592 86.2571C106.378 86.4451 106.114 86.5382 105.848 86.5382Z" fill="#17171A"/>
<path d="M131.79 83.9869C130.193 83.9869 128.892 85.2837 128.892 86.8754C128.892 88.4775 130.193 89.7795 131.79 89.7795C133.39 89.7795 134.694 88.4775 134.694 86.8754C134.694 85.2837 133.39 83.9869 131.79 83.9869ZM131.79 91.504C129.243 91.504 127.168 89.4277 127.168 86.8754C127.168 84.3318 129.243 82.2624 131.79 82.2624C134.342 82.2624 136.418 84.3318 136.418 86.8754C136.418 89.4277 134.342 91.504 131.79 91.504Z" fill="#17171A"/>
<path d="M131.793 84.2458C130.339 84.2458 129.154 85.4254 129.154 86.8757C129.154 88.3346 130.339 89.5211 131.793 89.5211C133.252 89.5211 134.438 88.3346 134.438 86.8757C134.438 85.4254 133.252 84.2458 131.793 84.2458ZM131.793 91.7629C129.102 91.7629 126.914 89.571 126.914 86.8757C126.914 84.1889 129.102 82.0023 131.793 82.0023C134.488 82.0023 136.68 84.1889 136.68 86.8757C136.68 89.571 134.488 91.7629 131.793 91.7629Z" fill="#17171A"/>
<path d="M121.857 51.832C120.922 51.832 120.162 52.5908 120.162 53.5255C120.162 54.4602 120.922 55.2224 121.857 55.2224C122.79 55.2224 123.549 54.4602 123.549 53.5255C123.549 52.5908 122.79 51.832 121.857 51.832ZM121.857 56.9469C119.972 56.9469 118.438 55.4121 118.438 53.5255C118.438 51.6424 119.972 50.1075 121.857 50.1075C123.742 50.1075 125.273 51.6424 125.273 53.5255C125.273 55.4121 123.742 56.9469 121.857 56.9469Z" fill="#17171A"/>
<path d="M121.858 52.0907C121.065 52.0907 120.422 52.734 120.422 53.5255C120.422 54.3188 121.065 54.962 121.858 54.962C122.648 54.962 123.291 54.3188 123.291 53.5255C123.291 52.734 122.648 52.0907 121.858 52.0907ZM121.858 57.2056C119.83 57.2056 118.18 55.5553 118.18 53.5255C118.18 51.4992 119.83 49.8488 121.858 49.8488C123.884 49.8488 125.533 51.4992 125.533 53.5255C125.533 55.5553 123.884 57.2056 121.858 57.2056Z" fill="#17171A"/>
<path d="M32.2118 107.306H8.20686C7.58777 107.306 7.08594 106.804 7.08594 106.185C7.08594 105.564 7.58777 105.062 8.20686 105.062H32.2118C32.8309 105.062 33.3328 105.564 33.3328 106.185C33.3328 106.804 32.8309 107.306 32.2118 107.306ZM124.929 107.306H38.1786C37.5612 107.306 37.0594 106.804 37.0594 106.185C37.0594 105.564 37.5612 105.062 38.1786 105.062H124.929C125.548 105.062 126.05 105.564 126.05 106.185C126.05 106.804 125.548 107.306 124.929 107.306Z" fill="#17171A"/>
<path d="M25.9512 42.5959C25.8546 42.5959 25.7564 42.5821 25.6598 42.5562C25.0631 42.3958 24.7061 41.7819 24.8665 41.1835C29.921 22.2934 48.5387 10.453 67.2598 14.2159C67.8668 14.3383 68.26 14.9298 68.1376 15.5351C68.0151 16.1421 67.4254 16.525 66.8166 16.4146C49.263 12.8759 31.7817 24.0144 27.0325 41.7629C26.898 42.2647 26.4461 42.5959 25.9512 42.5959ZM96.3279 57.6956C96.2675 57.6956 96.2054 57.6921 96.1434 57.6817C95.5329 57.58 95.119 57.0041 95.219 56.3936C96.659 47.6245 94.7483 38.7261 89.8403 31.3384C89.4972 30.8228 89.6368 30.1278 90.1525 29.7863C90.6698 29.4414 91.3631 29.5845 91.708 30.1002C96.9297 37.9587 98.9629 47.4245 97.4316 56.7574C97.3419 57.3058 96.8659 57.6956 96.3279 57.6956Z" fill="#17171A"/>
<path d="M43.9101 26.7632C43.5479 26.7632 43.1944 26.5873 42.9771 26.2666C42.6322 25.751 42.7702 25.056 43.2841 24.7111C49.6526 20.4412 57.3249 18.6547 64.8903 19.6704C65.5025 19.7532 65.9336 20.3171 65.8508 20.931C65.7681 21.5449 65.2162 21.9778 64.5902 21.8933C57.5715 20.9465 50.4442 22.6107 44.5326 26.5736C44.3412 26.7012 44.1239 26.7632 43.9101 26.7632ZM30.8022 56.2728C30.2555 56.2728 29.7761 55.8727 29.6951 55.3174C29.0673 51.0821 29.3105 46.8277 30.4193 42.6717C30.578 42.0716 31.1971 41.7198 31.7903 41.8767C32.3887 42.0354 32.7457 42.6493 32.5853 43.2477C31.5558 47.1089 31.3299 51.058 31.9128 54.9864C32.0024 55.6003 31.5799 56.1711 30.9677 56.259C30.9125 56.2676 30.8556 56.2728 30.8022 56.2728ZM90.0058 59.7615C89.9093 59.7615 89.811 59.7477 89.7144 59.7218C89.1177 59.5614 88.7625 58.9475 88.9211 58.3491C91.8683 47.3382 88.0865 35.5306 79.2864 28.2687C78.8087 27.8738 78.7397 27.1685 79.1346 26.6908C79.5278 26.2166 80.2349 26.1442 80.7125 26.5408C90.1886 34.358 94.2602 47.0709 91.0871 58.9285C90.9543 59.4304 90.5008 59.7615 90.0058 59.7615Z" fill="#17171A"/>
<path d="M70.4959 104.485C69.8768 104.485 69.375 103.983 69.375 103.364V79.3848C69.375 78.764 69.8768 78.2622 70.4959 78.2622C71.115 78.2622 71.6168 78.764 71.6168 79.3848V103.364C71.6168 103.983 71.115 104.485 70.4959 104.485Z" fill="#17171A"/>
<path d="M75.4373 101.034C74.8182 101.034 74.3164 100.532 74.3164 99.9133V82.8338C74.3164 82.213 74.8182 81.7112 75.4373 81.7112C76.0564 81.7112 76.5583 82.213 76.5583 82.8338V99.9133C76.5583 100.532 76.0564 101.034 75.4373 101.034Z" fill="#17171A"/>
<path d="M80.3709 99.7885C79.7536 99.7885 79.25 99.2866 79.25 98.6658V84.0679C79.25 83.4488 79.7536 82.947 80.3709 82.947C80.99 82.947 81.4919 83.4488 81.4919 84.0679V98.6658C81.4919 99.2866 80.99 99.7885 80.3709 99.7885Z" fill="#17171A"/>
<path d="M85.2928 98.1124C84.6737 98.1124 84.1719 97.6106 84.1719 96.9915V85.7564C84.1719 85.1373 84.6737 84.6355 85.2928 84.6355C85.9119 84.6355 86.4137 85.1373 86.4137 85.7564V96.9915C86.4137 97.6106 85.9119 98.1124 85.2928 98.1124Z" fill="#17171A"/>
<path d="M90.2303 97.1936C89.6112 97.1936 89.1094 96.6918 89.1094 96.071V86.6759C89.1094 86.0568 89.6112 85.555 90.2303 85.555C90.8494 85.555 91.3512 86.0568 91.3512 86.6759V96.071C91.3512 96.6918 90.8494 97.1936 90.2303 97.1936Z" fill="#17171A"/>
<path d="M126.759 18.2852C128.299 18.2783 130.592 18.2714 132.261 18.2714C133.353 18.2714 134.235 17.0158 134.235 16.0334C134.235 15.0518 133.672 14.4249 132.887 14.1636C132.637 13.5195 132.14 12.9996 131.511 12.7247L131.514 12.6742C131.514 11.2421 130.35 10.0789 128.915 10.0789C127.713 10.0789 126.701 10.8977 126.406 12.0044" fill="white"/>
<path d="M123.156 23.3053L123.149 21.5808C126.252 21.567 130.868 21.5532 134.231 21.5532C135.878 21.5532 137.342 19.5166 137.342 17.9093C137.342 15.9607 136.011 15.2261 135.217 14.9622L134.833 14.8346L134.686 14.4552C134.269 13.3791 133.426 12.4962 132.375 12.0375L131.836 11.8012L131.86 11.2114C131.863 8.74023 129.902 6.78289 127.493 6.78289C125.517 6.78289 123.782 8.11248 123.275 10.0198L121.609 9.57484C122.318 6.91567 124.736 5.0584 127.493 5.0584C130.706 5.0584 133.346 7.55379 133.57 10.7079C134.688 11.3287 135.595 12.3013 136.138 13.4653C137.98 14.2293 139.066 15.8658 139.066 17.9093C139.066 20.3409 136.909 23.2777 134.231 23.2777C130.87 23.2777 126.257 23.2915 123.156 23.3053Z" fill="#17171A"/>
<path d="M123.16 23.5642C122.543 23.5642 122.043 23.0658 122.039 22.4484C122.037 21.8293 122.537 21.3258 123.155 21.3224C126.257 21.3086 130.875 21.2947 134.238 21.2947C135.707 21.2947 137.092 19.3892 137.092 17.9096C137.092 16.2144 136.032 15.5039 135.143 15.2073C134.826 15.1021 134.573 14.8624 134.452 14.5503C134.059 13.5363 133.267 12.7085 132.279 12.2757C131.855 12.0894 131.589 11.6635 131.608 11.2013C131.612 8.88359 129.767 7.0418 127.501 7.0418C125.642 7.0418 124.01 8.29377 123.532 10.0855C123.372 10.6856 122.756 11.0375 122.16 10.8806C121.563 10.7219 121.206 10.108 121.367 9.50957C122.105 6.73658 124.626 4.79996 127.501 4.79996C130.803 4.79996 133.524 7.32981 133.824 10.5512C134.904 11.1841 135.787 12.136 136.337 13.2673C138.223 14.0864 139.332 15.7885 139.332 17.9096C139.332 20.5118 137.108 23.5384 134.238 23.5384C130.877 23.5384 126.264 23.5521 123.165 23.5642C123.163 23.5642 123.162 23.5642 123.16 23.5642Z" fill="#17171A"/>
<path d="M116.928 8.42335C114.936 8.42335 113.315 10.0298 113.285 12.0139C112.006 12.1799 111.002 13.208 110.878 14.4995C110.65 14.4478 110.403 14.4032 110.153 14.4032C108.62 14.4032 107.383 15.6502 107.383 17.1774C107.383 18.7141 108.62 19.9526 110.153 19.9526C114.081 19.9526 117.574 19.925 121.627 19.925C123.159 19.925 124.403 18.1622 124.403 16.7829C124.403 15.4049 123.611 14.5247 122.51 14.1579C122.159 13.2537 121.461 12.5238 120.579 12.1378V12.0753C120.579 10.0563 118.945 8.42335 116.928 8.42335Z" fill="white"/>
<path d="M107.664 15.3596C105.948 15.3596 104.553 16.7565 104.553 18.4758C104.553 20.1951 105.948 21.5936 107.664 21.5936C110.456 21.5936 113.096 21.5833 115.757 21.5747C118.462 21.5643 121.189 21.554 124.119 21.554C125.724 21.554 127.237 19.5018 127.237 17.9101C127.237 15.9614 125.905 15.2268 125.112 14.963L124.728 14.8353L124.579 14.456C124.162 13.3799 123.32 12.497 122.268 12.0382L121.753 11.8123V11.2484C121.753 8.74617 119.79 6.78367 117.379 6.78367C115.01 6.78367 113.053 8.71337 113.016 11.0846L113.004 11.8313L112.265 11.9262C110.813 12.1159 109.702 13.2626 109.562 14.7181L109.469 15.6907L108.516 15.4751C108.259 15.4182 107.957 15.3596 107.664 15.3596ZM107.664 23.3181C104.998 23.3181 102.828 21.1453 102.828 18.4758C102.828 15.8063 104.998 13.6351 107.664 13.6351C107.784 13.6351 107.903 13.6403 108.017 13.6489C108.481 12.0537 109.731 10.8104 111.344 10.3585C111.737 7.38034 114.31 5.05917 117.379 5.05917C120.59 5.05917 123.227 7.55283 123.46 10.7052C124.579 11.3278 125.488 12.3003 126.031 13.4661C127.875 14.23 128.961 15.8666 128.961 17.9101C128.961 20.3417 126.802 23.2785 124.119 23.2785C121.191 23.2785 118.466 23.2888 115.762 23.2992C113.099 23.3078 110.459 23.3181 107.664 23.3181Z" fill="#17171A"/>
<path d="M107.664 15.6176C106.092 15.6176 104.812 16.899 104.812 18.4752C104.812 20.0514 106.092 21.3326 107.664 21.3326C110.456 21.3326 113.097 21.3257 115.756 21.3154C118.462 21.305 121.19 21.2947 124.12 21.2947C125.592 21.2947 126.979 19.3891 126.979 17.9095C126.979 16.2143 125.918 15.5038 125.03 15.2072C124.715 15.102 124.461 14.8623 124.34 14.5502C123.947 13.5362 123.154 12.7084 122.166 12.2756C121.759 12.0962 121.495 11.6927 121.495 11.2478C121.495 8.88869 119.65 7.04173 117.38 7.04173C115.152 7.04173 113.31 8.85589 113.276 11.0874C113.267 11.6444 112.852 12.1118 112.298 12.1825C110.967 12.3549 109.948 13.4069 109.82 14.7399C109.791 15.0624 109.624 15.3538 109.363 15.5418C109.103 15.7297 108.772 15.7987 108.458 15.728C108.216 15.6728 107.932 15.6176 107.664 15.6176ZM107.664 23.5762C104.855 23.5762 102.57 21.2878 102.57 18.4752C102.57 15.6056 104.988 13.2879 107.833 13.3776C108.346 11.8462 109.558 10.6477 111.112 10.1579C111.595 7.13145 114.238 4.79988 117.38 4.79988C120.679 4.79988 123.399 7.32624 123.707 10.5493C124.789 11.1805 125.673 12.1342 126.224 13.2672C128.11 14.0863 129.221 15.7884 129.221 17.9095C129.221 20.5118 126.993 23.5383 124.12 23.5383C121.191 23.5383 118.467 23.5469 115.764 23.5572C113.102 23.5658 110.46 23.5762 107.664 23.5762Z" fill="#17171A"/>
</svg>
