<svg width="40" height="40" viewBox="0 0 40 40" fill="none" xmlns="http://www.w3.org/2000/svg">
<path d="M37.2084 6.61914L2.79165 6.61914C2.59321 6.61914 2.40291 6.69797 2.2626 6.83828C2.12228 6.97859 2.04346 7.1689 2.04346 7.36733L2.04346 29.813C2.04346 30.0114 2.12228 30.2017 2.2626 30.3421C2.40291 30.4824 2.59322 30.5612 2.79165 30.5612L15.5109 30.5612L15.5109 32.1922L8.62752 33.554C8.42909 33.5936 8.25455 33.7105 8.1423 33.8789C8.03005 34.0473 7.98929 34.2533 8.02897 34.4518C8.06866 34.6502 8.18555 34.8248 8.35392 34.937C8.5223 35.0493 8.72837 35.09 8.9268 35.0503C17.8153 33.2696 14.4335 33.554 23.6661 33.554C31.6119 35.1401 31.148 35.0503 31.2228 35.0503C31.4213 35.0702 31.6195 35.0104 31.7738 34.8841C31.9281 34.7578 32.026 34.5754 32.0458 34.377C32.0657 34.1785 32.0059 33.9803 31.8796 33.826C31.7533 33.6717 31.5709 33.5738 31.3725 33.554L24.4891 32.1922L24.4891 30.5612L37.2084 30.5612C37.4068 30.5612 37.5971 30.4824 37.7374 30.3421C37.8777 30.2017 37.9565 30.0114 37.9565 29.813L37.9565 7.36733C37.9565 7.1689 37.8777 6.97859 37.7374 6.83828C37.5971 6.69797 37.4068 6.61914 37.2084 6.61914ZM36.4602 8.11552L36.4602 26.0721L3.53984 26.0721L3.53984 8.11552L36.4602 8.11552ZM3.53984 27.5684L5.03622 27.5684L5.03622 29.0648L3.53984 29.0648L3.53984 27.5684ZM22.9928 32.0576L17.0072 32.0576L17.0072 30.5612L22.9928 30.5612L22.9928 32.0576ZM6.53259 29.0648L6.53259 27.5684L36.4602 27.5684L36.4602 29.0648L6.53259 29.0648Z" fill="#17171A"/>
<path d="M10.7177 14.4011L13.7117 14.4011L13.7117 22.3057C13.7117 22.4898 13.7874 22.6663 13.922 22.7965C14.0566 22.9266 14.2391 22.9998 14.4295 22.9998C14.6198 22.9998 14.8024 22.9266 14.937 22.7965C15.0716 22.6663 15.1472 22.4898 15.1472 22.3057L15.1472 14.4011L18.1412 14.4011C18.3316 14.4011 18.5141 14.3279 18.6488 14.1978C18.7834 14.0676 18.859 13.8911 18.859 13.7071C18.859 13.523 18.7834 13.3465 18.6488 13.2163C18.5141 13.0862 18.3316 13.013 18.1412 13.013L10.7177 13.013C10.5274 13.013 10.3448 13.0862 10.2102 13.2163C10.0756 13.3465 10 13.523 10 13.7071C10 13.8911 10.0756 14.0676 10.2102 14.1978C10.3448 14.328 10.5274 14.4011 10.7177 14.4011ZM24.9036 22.5726C24.958 22.6992 25.0499 22.8073 25.1678 22.8834C25.2857 22.9594 25.4242 23 25.566 23C25.7077 23 25.8462 22.9594 25.9641 22.8834C26.082 22.8073 26.1739 22.6992 26.2283 22.5726L29.9388 13.9743C29.9774 13.8899 29.9982 13.7988 29.9999 13.7064C30.0016 13.6141 29.9842 13.5223 29.9488 13.4365C29.9133 13.3508 29.8606 13.2727 29.7935 13.2069C29.7265 13.1411 29.6465 13.0889 29.5583 13.0534C29.4702 13.0179 29.3755 12.9997 29.28 13C29.1845 13.0003 29.09 13.019 29.0021 13.0551C28.9141 13.0911 28.8345 13.1438 28.7679 13.21C28.7013 13.2762 28.649 13.3546 28.6141 13.4405L25.566 20.5033L22.5178 13.4405C22.4445 13.2707 22.3044 13.1359 22.1283 13.0659C21.9523 12.996 21.7547 12.9965 21.579 13.0674C21.4033 13.1383 21.264 13.2737 21.1916 13.444C21.1192 13.6142 21.1198 13.8053 21.1931 13.9751L24.9036 22.5726Z" fill="#17171A"/>
</svg>
