<svg width="30" height="30" viewBox="0 0 30 30" fill="none" xmlns="http://www.w3.org/2000/svg">
<path d="M15 1C7.27978 1 1 7.28036 1 15.0002C1 22.7201 7.27978 29 15 29C22.7198 29 28.9996 22.7201 29 15.0002C29.0001 7.28036 22.7203 1 15 1ZM15 27.2086C8.2684 27.2086 2.79186 21.7319 2.79186 15.0002C2.79186 8.26856 8.2684 2.79189 15 2.79189C21.7316 2.79189 27.2081 8.2685 27.2081 15.0002C27.2081 21.7319 21.7317 27.2086 15 27.2086Z" fill="#17171A"/>
<path d="M15.1782 23C14.6601 23 14.2401 22.58 14.2401 22.0619V21.491C14.2401 21.2807 14.0773 21.1072 13.8682 21.0862C13.1789 21.0173 12.5212 20.8909 11.8949 20.707C11.4311 20.5611 11.0055 20.3802 10.6184 20.1643C10.241 19.9539 10.1186 19.4857 10.287 19.0878C10.5172 18.5442 11.1876 18.3504 11.7228 18.5996C12.0244 18.74 12.3382 18.8606 12.6642 18.9615C13.3646 19.1783 14.1338 19.2866 14.9719 19.2866C15.8849 19.2866 16.5541 19.1383 16.9794 18.8417C17.4046 18.5451 17.6173 18.1743 17.6173 17.7294C17.6173 17.3301 17.4734 17.0107 17.1857 16.7711C16.8981 16.5316 16.3852 16.3376 15.6473 16.1893L13.6585 15.7957C12.5328 15.5676 11.6823 15.1911 11.1069 14.6663C10.5441 14.1301 10.2627 13.4228 10.2627 12.5444C10.2627 11.5861 10.6191 10.7818 11.3321 10.1316C11.9855 9.53557 12.8368 9.15246 13.886 8.98222C14.0869 8.94962 14.2401 8.77985 14.2401 8.57629V7.93809C14.2401 7.42 14.6601 7 15.1782 7C15.6963 7 16.1163 7.42 16.1163 7.93809V8.55012C16.1163 8.75749 16.275 8.92926 16.4804 8.95772C17.0031 9.03014 17.5134 9.15903 18.0113 9.34439C18.4061 9.49138 18.762 9.67151 19.079 9.88479C19.3879 10.0927 19.4689 10.4979 19.3206 10.8395C19.0886 11.3742 18.4022 11.5318 17.8789 11.2754C17.1144 10.9007 16.2267 10.7134 15.2158 10.7134C14.4403 10.7134 13.8149 10.8788 13.3396 11.2096C12.8768 11.5291 12.6454 11.9512 12.6454 12.4759C12.6454 12.8638 12.7892 13.1775 13.0769 13.4171C13.3646 13.6567 13.8274 13.8392 14.4653 13.9647L16.454 14.3583C17.6548 14.5979 18.5428 14.98 19.1182 15.5048C19.7061 16.0182 20 16.7027 20 17.5583C20 18.5166 19.6373 19.3037 18.9118 19.9198C18.2713 20.463 17.4541 20.8266 16.4602 21.0107C16.2639 21.0471 16.1163 21.215 16.1163 21.4146V22.0619C16.1163 22.58 15.6963 23 15.1782 23Z" fill="#17171A"/>
</svg>
