<svg width="38" height="38" viewBox="0 0 38 38" fill="none" xmlns="http://www.w3.org/2000/svg">
<path d="M36.2505 9.25018C35.8352 9.25018 35.499 9.58579 35.499 10V16.0002H34.0005V14.5C34.0005 12.846 32.6536 11.5002 30.999 11.5002C30.1047 11.5002 29.3006 11.8946 28.749 12.5191C28.1997 11.8946 27.3955 11.5002 26.499 11.5002C25.6048 11.5002 24.8006 11.8946 24.2491 12.5191C23.6998 11.8946 22.8956 11.5002 21.9991 11.5002C21.1048 11.5002 20.3006 11.8946 19.7496 12.5191C19.1998 11.8946 18.3955 11.5002 17.4996 11.5002C16.6048 11.5002 15.8001 11.8946 15.2496 12.5191C14.6998 11.8946 13.8955 11.5002 12.9996 11.5002C12.1048 11.5002 11.3001 11.8946 10.7496 12.5191C10.1997 11.8946 9.3955 11.5002 8.49958 11.5002C7.10493 11.5002 5.92824 12.4576 5.59426 13.7501H3.24989C2.83567 13.7501 2.50007 14.0858 2.50007 14.5V16.0002H1.74969C1.33548 16.0002 0.999878 16.3358 0.999878 16.75C0.999878 17.1642 1.33548 17.4998 1.74969 17.4998H2.50007V19C2.50007 19.4142 2.83567 19.7498 3.24989 19.7498H5.4999V34.0007C5.4999 35.6542 6.84575 37 8.49972 37C9.39565 37 10.1999 36.6045 10.7497 35.9805C11.3001 36.6045 12.1049 37 12.9997 37C13.8957 37 14.6999 36.6045 15.2497 35.9805C15.8002 36.6045 16.6049 37 17.4998 37C18.3957 37 19.1999 36.6045 19.7498 35.9805C20.3007 36.6045 21.1049 37 21.9992 37C22.8957 37 23.6999 36.6045 24.2492 35.9805C24.8008 36.6045 25.6049 37 26.4992 37C27.3956 37 28.1999 36.6045 28.7492 35.9805C29.3007 36.6045 30.1049 37 30.9991 37C32.6536 37 34.0006 35.6541 34.0006 34.0007V17.4998H36.2506C36.6637 17.4998 36.9999 17.1642 36.9999 16.75V10C36.9997 9.58579 36.6636 9.25018 36.2505 9.25018ZM5.4999 18.2502H3.9997V15.2498H5.4999V18.2502ZM9.99984 34.0007C9.99984 34.8269 9.32744 35.4992 8.49965 35.4992C7.67298 35.4992 7.00002 34.8269 7.00002 34.0007V14.5C7.00002 13.6732 7.67291 12.9998 8.49965 12.9998C9.32744 12.9998 9.99984 13.6732 9.99984 14.5V34.0007ZM14.4999 34.0007C14.4998 34.8269 13.8275 35.4992 12.9997 35.4992C12.173 35.4992 11.5 34.8269 11.5 34.0007V14.5C11.5 13.6732 12.1729 12.9998 12.9997 12.9998C13.8275 12.9998 14.4999 13.6732 14.4999 14.5V34.0007ZM18.9998 34.0007C18.9998 34.8269 18.3275 35.4992 17.4996 35.4992C16.6729 35.4992 16 34.8269 16 34.0007V14.5C16 13.6732 16.6729 12.9998 17.4996 12.9998C18.3274 12.9998 18.9998 13.6732 18.9998 14.5V34.0007ZM23.4998 34.0007C23.4998 34.8269 22.8275 35.4992 21.9991 35.4992C21.1729 35.4992 20.5006 34.8269 20.5006 34.0007V14.5C20.5006 13.6732 21.1729 12.9998 21.9991 12.9998C22.8274 12.9998 23.4998 13.6732 23.4998 14.5V34.0007ZM27.9998 34.0007C27.9998 34.8269 27.3274 35.4992 26.499 35.4992C25.6729 35.4992 25.0005 34.8269 25.0005 34.0007V14.5C25.0005 13.6732 25.6728 12.9998 26.499 12.9998C27.3274 12.9998 27.9998 13.6732 27.9998 14.5V34.0007ZM32.4997 34.0007C32.4997 34.8269 31.8274 35.4992 30.999 35.4992C30.1729 35.4992 29.5005 34.8269 29.5005 34.0007V14.5C29.5005 13.6732 30.1728 12.9998 30.999 12.9998C31.8273 12.9998 32.4997 13.6732 32.4997 14.5V34.0007ZM26.0925 8.28942C26.0002 7.97027 26.0573 7.73789 26.2815 7.51211C26.8901 6.90074 27.0922 6.10698 26.8483 5.27532C26.6858 4.71717 26.3694 4.32278 26.3298 4.27335C26.3276 4.27335 26.3276 4.27279 26.3276 4.27279V4.27174C26.1892 4.10587 25.9826 3.99984 25.7497 3.99984C25.3356 3.99984 25.0005 4.336 25.0005 4.75022C25.0005 4.93205 25.0642 5.09904 25.1719 5.2287C25.1741 5.23031 25.3323 5.43528 25.4092 5.6967C25.4983 6.00376 25.4422 6.2301 25.2181 6.45369C24.6116 7.06387 24.4084 7.86312 24.6501 8.70357C24.8138 9.27324 25.1302 9.67642 25.1653 9.72093C25.3038 9.89123 25.5136 10 25.7498 10C26.164 10 26.499 9.6644 26.499 9.25018C26.499 9.07166 26.4375 8.90797 26.3342 8.77944C26.332 8.77726 26.1694 8.56245 26.0925 8.28942ZM19.8898 7.79287C19.7168 7.10127 19.8552 6.51353 20.3117 5.99659C21.1137 5.09018 21.3686 3.97895 21.05 2.78145C20.8258 1.94205 20.3952 1.35923 20.3469 1.29553V1.29665C20.2084 1.117 19.9937 1 19.7498 1C19.3354 1 18.9998 1.3356 18.9998 1.74982C18.9998 1.91955 19.0564 2.07558 19.1514 2.20081H19.1503C19.1536 2.20517 19.4661 2.63035 19.6106 3.20769C19.7831 3.89866 19.6446 4.48647 19.1876 5.00334C18.3868 5.90975 18.1319 7.02105 18.4505 8.21855C18.6736 9.05795 19.1048 9.64077 19.1525 9.70447L19.1537 9.70335C19.2232 9.79563 19.3133 9.87047 19.4167 9.92195C19.5201 9.97344 19.6341 10.0002 19.7497 10C20.1644 10 20.5006 9.6644 20.5006 9.25018C20.5006 9.08045 20.4435 8.92442 20.349 8.79919C20.3457 8.79483 20.0332 8.36965 19.8898 7.79287ZM14.334 8.77944C14.3324 8.77726 14.1703 8.56245 14.0918 8.28942C14 7.97027 14.0566 7.73789 14.2813 7.51211C14.8904 6.90074 15.0915 6.10698 14.8481 5.27532C14.685 4.71717 14.3708 4.32391 14.3284 4.27335L14.3273 4.27117C14.1894 4.10531 13.9824 3.99984 13.75 3.99984C13.3358 3.99984 12.9996 4.336 12.9996 4.75022C12.9996 4.93205 13.0644 5.09904 13.1721 5.2287C13.1737 5.23031 13.3319 5.43528 13.4083 5.6967C13.4983 6.00376 13.4412 6.2301 13.2182 6.45369C12.6107 7.06387 12.4085 7.86312 12.6503 8.70357C12.814 9.27324 13.1304 9.67642 13.1661 9.72093C13.304 9.89123 13.5138 10 13.75 10C14.1643 10 14.4999 9.6644 14.4999 9.25018C14.4999 9.07166 14.4378 8.90797 14.334 8.77944Z" fill="#17171A"/>
</svg>
