<svg width="127" height="116" viewBox="0 0 127 116" fill="none" xmlns="http://www.w3.org/2000/svg">
<path d="M8.54096 39.046H37.3885L40.8891 64.5646H5.04297L7.87278 43.9438L8.54096 39.046Z" fill="white"/>
<path d="M2.16723 66.4657H43.7656L39.7432 37.1457H6.18484L2.16723 66.4657ZM45.5992 68.0657H0.332031L4.78801 35.5457H41.1384L45.5992 68.0657Z" fill="#17171A"/>
<path d="M2.44266 66.2238H43.4923L39.5355 37.387H6.39625L2.44266 66.2238ZM44.7147 68.3054C44.7083 68.3054 44.6955 68.3054 44.6843 68.3054H1.25067C0.949867 68.3054 0.665045 68.1742 0.468245 67.947C0.269845 67.723 0.180277 67.4206 0.220277 67.123L4.45867 36.2062C4.52908 35.6894 4.96907 35.3054 5.48907 35.3054H40.4427C40.9627 35.3054 41.4027 35.6894 41.473 36.2062L45.6811 66.875C45.7291 66.995 45.7563 67.1278 45.7563 67.2654C45.7563 67.8398 45.2907 68.3054 44.7147 68.3054Z" fill="#17171A"/>
<path opacity="0.1" d="M24.4366 67.2652V77.5628H31.5214V80.5052H22.9534H14.4062V77.5628H21.4959V67.2652H24.4366Z" fill="#17171A"/>
<path d="M15.2055 79.7056H30.7207V78.3632H23.6359V68.0656H22.2951V78.3632H15.2055V79.7056ZM32.3207 81.3056H13.6055V76.7632H20.6951V66.4656H25.2359V76.7632H32.3207V81.3056Z" fill="#17171A"/>
<path d="M15.4472 79.4652H30.4824V78.6044H24.4376C23.8632 78.6044 23.3976 78.1388 23.3976 77.5628V68.3052H22.5368V77.5628C22.5368 78.1388 22.0712 78.6044 21.4968 78.6044H15.4472V79.4652ZM31.5224 81.5452H14.4072C13.8328 81.5452 13.3672 81.0796 13.3672 80.5052V77.5628C13.3672 76.9884 13.8328 76.5228 14.4072 76.5228H20.4568V67.2652C20.4568 66.6892 20.9224 66.2236 21.4968 66.2236H24.4376C25.012 66.2236 25.4776 66.6892 25.4776 67.2652V76.5228H31.5224C32.0968 76.5228 32.5624 76.9884 32.5624 77.5628V80.5052C32.5624 81.0796 32.0968 81.5452 31.5224 81.5452Z" fill="#17171A"/>
<path d="M41.1974 45.2482H4.67902C4.10622 45.2482 3.64062 44.7826 3.64062 44.2082C3.64062 43.6322 4.10622 43.1666 4.67902 43.1666H41.1974C41.7718 43.1666 42.2374 43.6322 42.2374 44.2082C42.2374 44.7826 41.7718 45.2482 41.1974 45.2482Z" fill="#17171A"/>
<path d="M34.7832 68.3405C34.252 68.3405 33.7992 67.9342 33.7496 67.395L30.9224 36.4414C30.8696 35.8686 31.292 35.363 31.8632 35.3102C32.4232 35.2478 32.9416 35.6781 32.9944 36.2509L35.8216 67.2046C35.8728 67.7774 35.452 68.2813 34.8792 68.3357C34.8472 68.3389 34.8152 68.3405 34.7832 68.3405Z" fill="#17171A"/>
<path d="M42.6339 53.1694H3.2275C2.6531 53.1694 2.1875 52.7038 2.1875 52.1294C2.1875 51.5534 2.6531 51.0879 3.2275 51.0879H42.6339C43.2083 51.0879 43.6739 51.5534 43.6739 52.1294C43.6739 52.7038 43.2083 53.1694 42.6339 53.1694Z" fill="#17171A"/>
<path d="M22.6337 68.3405C22.0594 68.3405 21.5938 67.8749 21.5938 67.2989V36.3454C21.5938 35.771 22.0594 35.3054 22.6337 35.3054C23.2081 35.3054 23.6737 35.771 23.6737 36.3454V67.2989C23.6737 67.8749 23.2081 68.3405 22.6337 68.3405Z" fill="#17171A"/>
<path d="M43.6205 60.4767H2.25094C1.67654 60.4767 1.21094 60.0111 1.21094 59.4367C1.21094 58.8623 1.67654 58.3967 2.25094 58.3967H43.6205C44.1949 58.3967 44.6605 58.8623 44.6605 59.4367C44.6605 60.0111 44.1949 60.4767 43.6205 60.4767Z" fill="#17171A"/>
<path d="M11.0817 68.3405C11.0497 68.3405 11.0177 68.3389 10.9857 68.3357C10.4129 68.2813 9.99208 67.7774 10.0433 67.2046L12.8721 36.2509C12.9249 35.6781 13.4369 35.2494 14.0033 35.3102C14.5745 35.363 14.9969 35.8686 14.9441 36.4414L12.1153 67.395C12.0673 67.9342 11.6129 68.3405 11.0817 68.3405Z" fill="#17171A"/>
<path d="M76.4714 6.55945V8.3636V6.55945ZM71.0877 8.88458L72.3125 10.1618L71.0877 8.88458ZM68.8555 14.4908H70.5874H68.8555ZM71.0877 20.0891L72.3125 18.8207L71.0877 20.0891ZM76.4714 22.4152V20.6101V22.4152ZM81.8552 20.0891L80.6333 18.8207L81.8552 20.0891ZM84.0844 14.4908H82.3544H84.0844ZM81.8552 8.88458L80.6333 10.1618L81.8552 8.88458ZM76.4714 10.7105C78.4743 10.7105 80.0955 12.4009 80.0955 14.4908C80.0955 16.5747 78.4743 18.2642 76.4714 18.2642C74.4686 18.2642 72.8463 16.5747 72.8463 14.4908C72.8463 12.4009 74.4686 10.7105 76.4714 10.7105Z" fill="#F4B54A"/>
<path d="M77.2709 4.57606H75.6709V1.65606H77.2709V4.57606ZM83.7845 8.04008L82.6293 6.93446L84.6069 4.86727L85.7637 5.97286L83.7845 8.04008ZM69.1621 8.04008L67.1781 5.97286L68.3333 4.86727L70.3157 6.93446L69.1621 8.04008ZM66.9477 15.2929H64.1445V13.6929H66.9477V15.2929ZM88.7925 15.2929H85.9925V13.6929H88.7925V15.2929ZM76.4709 9.17446C73.6773 9.17446 71.4037 11.5601 71.4037 14.4929C71.4037 17.4193 73.6773 19.8001 76.4709 19.8001C79.2645 19.8001 81.5365 17.4193 81.5365 14.4929C81.5365 11.5601 79.2645 9.17446 76.4709 9.17446ZM76.4709 21.4001C72.7941 21.4001 69.8037 18.3009 69.8037 14.4929C69.8037 10.6769 72.7941 7.57446 76.4709 7.57446C80.1461 7.57446 83.1365 10.6769 83.1365 14.4929C83.1365 18.3009 80.1461 21.4001 76.4709 21.4001ZM84.6085 24.1089L82.6309 22.0561L83.7829 20.9457L85.7621 23.0001L84.6085 24.1089ZM68.3317 24.1105L67.1813 22.9985L69.1653 20.9441L70.3141 22.0577L68.3317 24.1105ZM77.2709 27.3185H75.6709V24.3969H77.2709V27.3185Z" fill="#17171A"/>
<path d="M76.4718 5.6161C75.8974 5.6161 75.4318 5.1505 75.4318 4.5761V1.6561C75.4318 1.0801 75.8974 0.614494 76.4718 0.614494C77.0462 0.614494 77.5118 1.0801 77.5118 1.6561V4.5761C77.5118 5.1505 77.0462 5.6161 76.4718 5.6161ZM69.7407 8.52813C69.4671 8.52813 69.1934 8.41933 68.9902 8.20813L67.0079 6.1409C66.6095 5.7249 66.6238 5.06731 67.0382 4.67051C67.451 4.27211 68.1102 4.2849 68.507 4.6993L70.4911 6.76653C70.8895 7.18253 70.8751 7.84012 70.4607 8.23692C70.2591 8.43052 69.9999 8.52813 69.7407 8.52813ZM83.2079 8.52813C82.9487 8.52813 82.6911 8.43052 82.4895 8.23852C82.0735 7.84172 82.0591 7.18253 82.4559 6.76813L84.435 4.7009C84.835 4.2849 85.4927 4.27531 85.9055 4.66891C86.3199 5.06571 86.3343 5.7249 85.9375 6.1393L83.9598 8.20653C83.755 8.41933 83.4815 8.52813 83.2079 8.52813ZM66.9486 15.5345H64.1455C63.5711 15.5345 63.1055 15.0689 63.1055 14.4929C63.1055 13.9185 63.5711 13.4529 64.1455 13.4529H66.9486C67.523 13.4529 67.9886 13.9185 67.9886 14.4929C67.9886 15.0689 67.523 15.5345 66.9486 15.5345ZM88.7934 15.5345H85.9934C85.419 15.5345 84.9534 15.0689 84.9534 14.4929C84.9534 13.9185 85.419 13.4529 85.9934 13.4529H88.7934C89.3694 13.4529 89.835 13.9185 89.835 14.4929C89.835 15.0689 89.3694 15.5345 88.7934 15.5345ZM76.4718 9.4145C73.811 9.4145 71.6447 11.6929 71.6447 14.4929C71.6447 17.2865 73.811 19.5585 76.4718 19.5585C79.1326 19.5585 81.2975 17.2865 81.2975 14.4929C81.2975 11.6929 79.1326 9.4145 76.4718 9.4145ZM76.4718 21.6401C72.6622 21.6401 69.5647 18.4337 69.5647 14.4929C69.5647 10.5457 72.6622 7.3345 76.4718 7.3345C80.2798 7.3345 83.3775 10.5457 83.3775 14.4929C83.3775 18.4337 80.2798 21.6401 76.4718 21.6401ZM85.1855 24.5953C84.9135 24.5953 84.6398 24.4865 84.4382 24.2753L82.4591 22.2225C82.0607 21.8097 82.0719 21.1505 82.4863 20.7521C82.8991 20.3521 83.5598 20.3665 83.9566 20.7793L85.9343 22.8321C86.3327 23.2465 86.3214 23.9041 85.907 24.3025C85.707 24.4977 85.4447 24.5953 85.1855 24.5953ZM67.7582 24.5953C67.4974 24.5953 67.2382 24.4977 67.0366 24.3025C66.6222 23.9025 66.6111 23.2449 67.0095 22.8321L68.9918 20.7793C69.3934 20.3633 70.0511 20.3521 70.4623 20.7521C70.8767 21.1521 70.8879 21.8097 70.4895 22.2225L68.507 24.2753C68.3022 24.4881 68.0302 24.5953 67.7582 24.5953ZM76.4718 28.3585C75.8974 28.3585 75.4318 27.8929 75.4318 27.3185V24.3969C75.4318 23.8209 75.8974 23.3553 76.4718 23.3553C77.0462 23.3553 77.5118 23.8209 77.5118 24.3969V27.3185C77.5118 27.8929 77.0462 28.3585 76.4718 28.3585Z" fill="#17171A"/>
<path d="M72.5234 82.3805H106.687V111.426H72.5234V82.3805Z" fill="white"/>
<path d="M69.9281 113.544H108.786V79.7824H69.9281V113.544ZM110.386 115.144H68.3281V78.1824H110.386V115.144Z" fill="#17171A"/>
<path d="M70.1714 113.304H108.547V80.0223H70.1714V113.304ZM109.587 115.385H69.1298C68.5554 115.385 68.0898 114.92 68.0898 114.344V78.9823C68.0898 78.4079 68.5554 77.9423 69.1298 77.9423H109.587C110.163 77.9423 110.629 78.4079 110.629 78.9823V114.344C110.629 114.92 110.163 115.385 109.587 115.385Z" fill="#17171A"/>
<path d="M68.7734 77.2273L111.939 77.2273L104.717 73.6161V69.3624H102.617V73.1961L89.4319 67.2334L68.7734 77.2273Z" fill="white"/>
<path d="M61.9752 78.1821H116.737L106.244 73.1837V65.2814H101.26V70.8078L89.3528 65.1357L61.9752 78.1821ZM123.818 79.7821H54.8984L89.3528 63.363L99.66 68.2733V63.6814H107.844V72.1741L123.818 79.7821Z" fill="#17171A"/>
<path d="M63.0391 77.9424H115.677L106.599 73.6176C106.237 73.4464 106.006 73.08 106.006 72.6784V65.5232H101.503V69.5408C101.503 69.896 101.318 70.2288 101.017 70.4192C100.714 70.6096 100.337 70.6288 100.015 70.4784L89.3543 65.4016L63.0391 77.9424ZM120.279 80.0224H58.4391C57.9527 80.0224 57.5303 79.6848 57.4247 79.2112C57.3159 78.7376 57.5527 78.2528 57.9911 78.0432L88.9079 63.3104C89.1879 63.176 89.5191 63.176 89.8007 63.3104L99.4215 67.8928V64.4816C99.4215 63.9072 99.8871 63.4416 100.462 63.4416H107.046C107.622 63.4416 108.087 63.9072 108.087 64.4816V72.0224L120.726 78.0432C121.166 78.2528 121.401 78.7376 121.294 79.2112C121.186 79.6848 120.765 80.0224 120.279 80.0224Z" fill="#17171A"/>
<path d="M83.2891 94.5213H95.4266V114.344H83.2891V94.5213Z" fill="white"/>
<path d="M84.0922 113.544H94.6298V95.3217H84.0922V113.544ZM96.2298 115.144H82.4922V93.7217H96.2298V115.144Z" fill="#17171A"/>
<path d="M84.3316 113.304H94.3876V95.5615H84.3316V113.304ZM95.4292 115.385H83.2916C82.7156 115.385 82.25 114.92 82.25 114.344V94.5215C82.25 93.9455 82.7156 93.4799 83.2916 93.4799H95.4292C96.0036 93.4799 96.4692 93.9455 96.4692 94.5215V114.344C96.4692 114.92 96.0036 115.385 95.4292 115.385Z" fill="#17171A"/>
<path d="M69.1246 109.325H52.6638C52.0894 109.325 51.6238 108.859 51.6238 108.283V96.8445H22.9502C22.3758 96.8445 21.9102 96.3789 21.9102 95.8045V80.5053C21.9102 79.9309 22.3758 79.4653 22.9502 79.4653C23.5246 79.4653 23.9902 79.9309 23.9902 80.5053V94.7629H52.6638C53.2382 94.7629 53.7053 95.2285 53.7053 95.8045V107.243H69.1246C69.7006 107.243 70.1662 107.709 70.1662 108.283C70.1662 108.859 69.7006 109.325 69.1246 109.325Z" fill="#17171A"/>
<path d="M22.5283 37.3872C21.9539 37.3872 21.4883 36.9216 21.4883 36.3456V15.3456C21.4883 14.7712 21.9539 14.3056 22.5283 14.3056H60.7875C61.3635 14.3056 61.8291 14.7712 61.8291 15.3456C61.8291 15.9216 61.3635 16.3872 60.7875 16.3872H23.5683V36.3456C23.5683 36.9216 23.1027 37.3872 22.5283 37.3872Z" fill="#17171A"/>
<path d="M117.126 39.7632C116.552 39.7632 116.086 39.2976 116.086 38.7232V35.5488C116.086 34.9744 116.552 34.5088 117.126 34.5088C117.702 34.5088 118.168 34.9744 118.168 35.5488V38.7232C118.168 39.2976 117.702 39.7632 117.126 39.7632Z" fill="#17171A"/>
<path d="M120.927 40.1341C120.839 40.1341 120.75 40.1213 120.658 40.0973C120.105 39.9485 119.774 39.3789 119.922 38.8237L120.743 35.7517C120.89 35.1997 121.447 34.8685 122.017 35.0157C122.572 35.1645 122.902 35.7357 122.753 36.2893L121.932 39.3613C121.809 39.8253 121.388 40.1341 120.927 40.1341Z" fill="#17171A"/>
<path d="M113.365 40.4001C112.906 40.4001 112.485 40.0929 112.36 39.6273L111.54 36.5681C111.391 36.0129 111.72 35.4433 112.276 35.2945C112.821 35.1473 113.399 35.4753 113.549 36.0305L114.37 39.0897C114.517 39.6449 114.188 40.2145 113.634 40.3633C113.544 40.3873 113.453 40.4001 113.365 40.4001Z" fill="#17171A"/>
<path d="M122.241 57.6609V63.8593H113.007V57.6609C110.89 56.1921 109.508 53.7441 109.508 50.9761C109.508 46.4945 113.137 42.8593 117.626 42.8593C122.108 42.8593 125.746 46.4945 125.746 50.9761C125.746 53.7441 124.353 56.1921 122.241 57.6609Z" fill="#F4B54A"/>
<path d="M113.806 63.0591H121.44V57.2415L121.782 57.0047C123.763 55.6255 124.945 53.3727 124.945 50.9759C124.945 46.9423 121.661 43.6591 117.625 43.6591C113.59 43.6591 110.307 46.9423 110.307 50.9759C110.307 53.3791 111.488 55.6319 113.462 57.0031L113.806 57.2415V63.0591ZM123.04 64.6591H112.206V58.0671C110.008 56.3807 108.707 53.7615 108.707 50.9759C108.707 46.0591 112.707 42.0591 117.625 42.0591C122.544 42.0591 126.545 46.0591 126.545 50.9759C126.545 53.7551 125.241 56.3743 123.04 58.0671V64.6591Z" fill="#17171A"/>
<path d="M114.048 62.8177H121.2V57.6609C121.2 57.3201 121.368 57.0018 121.646 56.8082C123.563 55.4754 124.707 53.2945 124.707 50.9761C124.707 47.0737 121.531 43.8993 117.627 43.8993C113.723 43.8993 110.55 47.0737 110.55 50.9761C110.55 53.3009 111.691 55.4802 113.6 56.8066C113.882 57.0002 114.048 57.3201 114.048 57.6609V62.8177ZM122.242 64.8993H113.008C112.434 64.8993 111.968 64.4337 111.968 63.8593V58.1841C109.768 56.4513 108.469 53.7969 108.469 50.9761C108.469 45.9265 112.576 41.8177 117.627 41.8177C122.678 41.8177 126.787 45.9265 126.787 50.9761C126.787 53.7905 125.486 56.4449 123.282 58.1841V63.8593C123.282 64.4337 122.816 64.8993 122.242 64.8993Z" fill="#17171A"/>
<path d="M115.656 65.5422H119.592V64.899H115.656V65.5422ZM120.633 67.6222H114.616C114.041 67.6222 113.574 67.1566 113.574 66.5822V63.859C113.574 63.283 114.041 62.8174 114.616 62.8174H120.633C121.208 62.8174 121.673 63.283 121.673 63.859V66.5822C121.673 67.1566 121.208 67.6222 120.633 67.6222Z" fill="#17171A"/>
<path d="M116.957 67.9101H118.293V67.6221H116.957V67.9101ZM119.333 69.9917H115.915C115.341 69.9917 114.875 69.5261 114.875 68.9501V66.5821C114.875 66.0077 115.341 65.5421 115.915 65.5421H119.333C119.909 65.5421 120.374 66.0077 120.374 66.5821V68.9501C120.374 69.5261 119.909 69.9917 119.333 69.9917Z" fill="#17171A"/>
</svg>
