<svg width="40" height="40" viewBox="0 0 40 40" fill="none" xmlns="http://www.w3.org/2000/svg">
<g clip-path="url(#clip0_1103_106781)">
<path d="M37.0656 9.31375C36.7779 8.48732 36.3502 7.71651 35.8013 7.035L33.9256 4.68375C33.3804 4.00082 32.6881 3.44977 31.9003 3.07166C31.1125 2.69355 30.2495 2.49814 29.3756 2.5H26.2506C25.9075 2.5 25.59 2.59938 25.3131 2.76062C24.6687 1.14562 23.0925 0 21.2506 0H6.25C3.8375 0 1.875 1.96312 1.875 4.375V24.375C1.875 26.5744 3.50812 28.395 5.625 28.7V30C5.625 31.0338 6.46625 31.875 7.5 31.875H12.5C13.5337 31.875 14.375 31.0338 14.375 30V28.75H17.5V30C17.5 35.5137 21.9862 40 27.5 40C28.8134 40.004 30.1145 39.7469 31.3276 39.2434C32.5408 38.74 33.6416 38.0003 34.5662 37.0675C35.4994 36.1428 36.2393 35.0417 36.743 33.8284C37.2466 32.6151 37.5039 31.3137 37.5 30V11.875C37.5 10.9994 37.3537 10.1375 37.0656 9.31375ZM26.25 3.75H29.375C30.0613 3.74853 30.7392 3.90198 31.3579 4.19893C31.9767 4.49587 32.5205 4.92865 32.9487 5.465L34.825 7.81625C35.7482 8.96749 36.2509 10.3993 36.25 11.875V22.5H33.75C33.0606 22.5 32.5 21.9394 32.5 21.25V15C32.5001 14.9179 32.484 14.8366 32.4526 14.7608C32.4211 14.6849 32.375 14.6161 32.3169 14.5581L28.5669 10.8081C28.4497 10.6909 28.2907 10.625 28.125 10.625H26.2387C26.0782 10.6249 25.9242 10.561 25.8106 10.4475C25.7513 10.3891 25.7043 10.3194 25.6724 10.2425C25.6404 10.1657 25.6241 10.0832 25.6244 10V4.375C25.6244 4.03 25.9056 3.75 26.25 3.75ZM21.875 28.7C23.9919 28.395 25.625 26.5744 25.625 24.375V11.765C25.8213 11.8337 26.0287 11.875 26.25 11.875H27.8662L31.25 15.2587V21.25C31.25 22.4119 32.05 23.3819 33.125 23.6613V30C33.1267 30.7389 32.982 31.4708 32.6991 32.1534C32.4162 32.836 32.0008 33.4558 31.4769 33.9769C30.9558 34.5008 30.3361 34.9163 29.6535 35.1992C28.9709 35.4821 28.2389 35.6268 27.5 35.625C24.3988 35.625 21.875 33.1019 21.875 30V28.7ZM3.125 24.375V4.375C3.125 2.65188 4.52688 1.25 6.25 1.25H21.25C22.9731 1.25 24.375 2.65188 24.375 4.375V24.375C24.375 26.0981 22.9731 27.5 21.25 27.5H6.25C4.52688 27.5 3.125 26.0981 3.125 24.375ZM13.125 30C13.1258 30.0823 13.1102 30.164 13.0791 30.2402C13.048 30.3164 13.002 30.3856 12.9438 30.4438C12.8856 30.502 12.8164 30.548 12.7402 30.5791C12.664 30.6102 12.5823 30.6258 12.5 30.625H7.5C7.41769 30.6258 7.33604 30.6102 7.25984 30.5791C7.18363 30.548 7.1144 30.502 7.0562 30.4438C6.99799 30.3856 6.95199 30.3164 6.92087 30.2402C6.88976 30.164 6.87416 30.0823 6.875 30V28.75H13.125V30ZM33.6825 36.1838C32.8736 37.0001 31.9105 37.6474 30.8491 38.088C29.7877 38.5286 28.6492 38.7536 27.5 38.75C22.675 38.75 18.75 34.825 18.75 30V28.75H20.625V30C20.625 33.7906 23.7094 36.875 27.5 36.875C28.4031 36.8772 29.2977 36.7003 30.132 36.3545C30.9663 36.0088 31.7238 35.501 32.3606 34.8606C33.0011 34.2239 33.5089 33.4664 33.8547 32.6321C34.2005 31.7978 34.3773 30.9031 34.375 30V23.75H36.25V30C36.25 32.3375 35.3387 34.5331 33.6825 36.1838Z" fill="#17171A"/>
<path d="M13.75 26.25C15.3575 26.25 16.9119 25.7819 18.2444 24.8956C18.3825 24.8038 18.4784 24.6609 18.5111 24.4983C18.5438 24.3357 18.5106 24.1668 18.4188 24.0287C18.3269 23.8907 18.184 23.7947 18.0214 23.762C17.8589 23.7293 17.69 23.7625 17.5519 23.8544C16.4254 24.6036 15.1022 25.0022 13.7494 25C9.95877 25 6.87439 21.9156 6.87439 18.125C6.87439 14.3344 9.95877 11.25 13.7494 11.25C17.54 11.25 20.6244 14.3344 20.6244 18.125C20.6244 19.5756 20.1788 20.9625 19.3356 22.135C19.2466 22.2699 19.2132 22.4339 19.2424 22.5929C19.2717 22.7518 19.3613 22.8933 19.4924 22.9876C19.6236 23.082 19.7863 23.1219 19.9462 23.099C20.1062 23.0762 20.2511 22.9923 20.3506 22.865C21.3453 21.485 21.8786 19.8261 21.8744 18.125C21.8744 13.645 18.2294 10 13.7494 10C9.26939 10 5.62439 13.645 5.62439 18.125C5.62439 22.605 9.27001 26.25 13.75 26.25Z" fill="#17171A"/>
<path d="M18.3656 17.5481L15.08 16.1794L15.615 13.2369C15.6382 13.1089 15.6209 12.977 15.5655 12.8593C15.5102 12.7417 15.4195 12.6443 15.3062 12.5806C15.1928 12.5169 15.0625 12.4901 14.9332 12.504C14.8039 12.5179 14.6822 12.5718 14.585 12.6581L8.96 17.6581C8.88133 17.7286 8.82176 17.8178 8.78682 17.9175C8.75189 18.0171 8.74273 18.124 8.76019 18.2282C8.77766 18.3323 8.82118 18.4304 8.88671 18.5132C8.95224 18.596 9.03765 18.6609 9.135 18.7019L12.4206 20.0706L11.8856 23.0131C11.8623 23.1411 11.8795 23.2732 11.9349 23.391C11.9902 23.5087 12.0809 23.6063 12.1944 23.67C12.5512 23.8469 12.7988 23.6963 12.9156 23.5919L18.5406 18.5919C18.6193 18.5214 18.6789 18.4322 18.7138 18.3325C18.7487 18.2329 18.7579 18.126 18.7404 18.0218C18.723 17.9177 18.6794 17.8196 18.6139 17.7368C18.5484 17.654 18.463 17.5891 18.3656 17.5481ZM13.4394 21.4538L13.74 19.7994C13.7653 19.6591 13.742 19.5144 13.6739 19.3892C13.6058 19.264 13.4971 19.1657 13.3656 19.1106L10.5344 17.9306L14.0612 14.7956L13.7606 16.45C13.7081 16.7387 13.8644 17.0256 14.135 17.1388L16.9662 18.3187L13.4394 21.4538ZM8.75 8.75H18.75C18.9158 8.75 19.0747 8.68415 19.1919 8.56694C19.3092 8.44973 19.375 8.29076 19.375 8.125V3.75C19.375 3.58424 19.3092 3.42527 19.1919 3.30806C19.0747 3.19085 18.9158 3.125 18.75 3.125H8.75C8.58424 3.125 8.42527 3.19085 8.30806 3.30806C8.19085 3.42527 8.125 3.58424 8.125 3.75V8.125C8.125 8.29076 8.19085 8.44973 8.30806 8.56694C8.42527 8.68415 8.58424 8.75 8.75 8.75ZM9.375 4.375H18.125V7.5H9.375V4.375ZM6.25 8.75C6.41576 8.75 6.57473 8.68415 6.69194 8.56694C6.80915 8.44973 6.875 8.29076 6.875 8.125V3.75C6.875 3.58424 6.80915 3.42527 6.69194 3.30806C6.57473 3.19085 6.41576 3.125 6.25 3.125C6.08424 3.125 5.92527 3.19085 5.80806 3.30806C5.69085 3.42527 5.625 3.58424 5.625 3.75V8.125C5.625 8.29076 5.69085 8.44973 5.80806 8.56694C5.92527 8.68415 6.08424 8.75 6.25 8.75ZM21.25 8.75C21.4158 8.75 21.5747 8.68415 21.6919 8.56694C21.8092 8.44973 21.875 8.29076 21.875 8.125V3.75C21.875 3.58424 21.8092 3.42527 21.6919 3.30806C21.5747 3.19085 21.4158 3.125 21.25 3.125C21.0842 3.125 20.9253 3.19085 20.8081 3.30806C20.6908 3.42527 20.625 3.58424 20.625 3.75V8.125C20.625 8.29076 20.6908 8.44973 20.8081 8.56694C20.9253 8.68415 21.0842 8.75 21.25 8.75Z" fill="#17171A"/>
<path d="M27.5 7.5C27.8452 7.5 28.125 7.22018 28.125 6.875C28.125 6.52982 27.8452 6.25 27.5 6.25C27.1548 6.25 26.875 6.52982 26.875 6.875C26.875 7.22018 27.1548 7.5 27.5 7.5Z" fill="#17171A"/>
<path d="M30 7.5C30.3452 7.5 30.625 7.22018 30.625 6.875C30.625 6.52982 30.3452 6.25 30 6.25C29.6548 6.25 29.375 6.52982 29.375 6.875C29.375 7.22018 29.6548 7.5 30 7.5Z" fill="#17171A"/>
</g>
<defs>
<clipPath id="clip0_1103_106781">
<rect width="40" height="40" fill="white"/>
</clipPath>
</defs>
</svg>
