<svg width="40" height="40" viewBox="0 0 40 40" fill="none" xmlns="http://www.w3.org/2000/svg">
<path d="M32.8187 0H6.56594C5.15109 0 4 1.15109 4 2.56594V26.001C4 26.1564 4.06173 26.3055 4.17162 26.4153C4.2815 26.5252 4.43054 26.587 4.58594 26.587C4.90977 26.587 5.17187 26.3248 5.17187 26.001V8.48148H34.2127V33.6151C34.2127 34.3838 33.5874 35.0091 32.8187 35.0091H6.56594C5.79719 35.0091 5.17187 34.3838 5.17187 33.6151V28.3445C5.17187 28.0207 4.90977 27.7586 4.58594 27.7586C4.26211 27.7586 4 28.0207 4 28.3445V33.6152C4 34.9021 4.95219 35.9705 6.18906 36.1534V38.9453C6.18906 39.527 6.66234 40 7.24375 40H9.30305C9.74008 40 10.1368 39.7253 10.2909 39.3158L10.6126 38.458H28.6562L28.978 39.3164C29.1318 39.7253 29.5287 40 29.9655 40H32.1405C32.7222 40 33.1952 39.527 33.1952 38.9453V36.1533C34.432 35.9705 35.3845 34.902 35.3845 33.6151V2.56586C35.3846 1.15117 34.2334 0 32.8187 0ZM30.0468 38.8281L29.6863 37.8668C29.5551 37.5192 29.217 37.2858 28.8453 37.2858H10.4227C10.0516 37.2858 9.71406 37.5192 9.58203 37.8684L9.22211 38.8281H7.36094V36.181H32.0234V38.8281H30.0468ZM5.17187 7.30953V2.56594C5.17187 1.79719 5.79719 1.17188 6.56594 1.17188H32.8187C33.5874 1.17188 34.2127 1.79719 34.2127 2.56594V7.30953H5.17187Z" fill="#17171A"/>
<path d="M4.17162 26.4153C4.06173 26.3055 4 26.1564 4 26.001V28.3445C4 28.0207 4.26211 27.7586 4.58594 27.7586C4.90977 27.7586 5.17187 28.0207 5.17187 28.3445V26.001C5.17187 26.3248 4.90977 26.587 4.58594 26.587C4.43054 26.587 4.2815 26.5252 4.17162 26.4153Z" fill="#17171A"/>
<path d="M32.4549 15.9087C32.6103 15.9087 32.7594 15.8469 32.8692 15.7371C32.9791 15.6272 33.0409 15.4781 33.0409 15.3227V10.2387C33.0409 9.91531 32.7784 9.65281 32.4549 9.65281H6.92969C6.60625 9.65281 6.34375 9.91531 6.34375 10.2387V33.2509C6.34375 33.4063 6.40548 33.5553 6.51537 33.6652C6.62525 33.7751 6.77429 33.8368 6.92969 33.8368H32.4549C32.6103 33.8368 32.7594 33.7751 32.8692 33.6652C32.9791 33.5553 33.0409 33.4063 33.0409 33.2509V17.6665C33.0409 17.5111 32.9791 17.362 32.8692 17.2522C32.7594 17.1423 32.6103 17.0805 32.4549 17.0805C32.2995 17.0805 32.1505 17.1423 32.0406 17.2522C31.9307 17.362 31.869 17.5111 31.869 17.6665V32.6649H7.51562V10.8247H31.869V15.3227C31.869 15.6465 32.1311 15.9087 32.4549 15.9087ZM22.2703 2.44336H17.1141C16.6187 2.44336 16.2156 2.84648 16.2156 3.3418V5.13867C16.2156 5.63398 16.6187 6.03711 17.1141 6.03711H22.2703C22.7659 6.03711 23.1688 5.63398 23.1688 5.13867V3.3418C23.1688 2.84648 22.7659 2.44336 22.2703 2.44336ZM21.9969 4.86523H17.3875V3.61523H21.9969V4.86523ZM26.8211 3.6543H25.9617C25.8063 3.6543 25.6573 3.71603 25.5474 3.82591C25.4375 3.9358 25.3758 4.08483 25.3758 4.24023C25.3758 4.39563 25.4375 4.54467 25.5474 4.65455C25.6573 4.76444 25.8063 4.82617 25.9617 4.82617H26.8211C27.1448 4.82617 27.407 4.56406 27.407 4.24023C27.407 4.08483 27.3453 3.9358 27.2354 3.82591C27.1255 3.71603 26.9765 3.6543 26.8211 3.6543ZM13.4227 3.6543H12.5633C12.4079 3.6543 12.2588 3.71603 12.149 3.82591C12.0391 3.9358 11.9773 4.08483 11.9773 4.24023C11.9773 4.39563 12.0391 4.54467 12.149 4.65455C12.2588 4.76444 12.4079 4.82617 12.5633 4.82617H13.4227C13.7464 4.82617 14.0086 4.56406 14.0086 4.24023C14.0086 4.08483 13.9469 3.9358 13.837 3.82591C13.7271 3.71603 13.5781 3.6543 13.4227 3.6543Z" fill="#17171A"/>
<path d="M32.8692 15.7371C32.7594 15.8469 32.6103 15.9087 32.4549 15.9087C32.1311 15.9087 31.869 15.6465 31.869 15.3227V17.6665C31.869 17.5111 31.9307 17.362 32.0406 17.2522C32.1505 17.1423 32.2995 17.0805 32.4549 17.0805C32.6103 17.0805 32.7594 17.1423 32.8692 17.2522C32.9791 17.362 33.0409 17.5111 33.0409 17.6665V15.3227C33.0409 15.4781 32.9791 15.6272 32.8692 15.7371Z" fill="#17171A"/>
<path d="M16.0334 18.0405C16.0785 17.9288 16.0954 17.8077 16.0828 17.6879C16.0701 17.568 16.0282 17.4531 15.9607 17.3533C15.8932 17.2529 15.8019 17.1706 15.6951 17.1138C15.5882 17.057 15.469 17.0273 15.348 17.0273H9.84902C9.72795 17.0273 9.60871 17.057 9.50184 17.1139C9.39496 17.1708 9.30374 17.2531 9.23621 17.3536C9.16874 17.4534 9.12686 17.5684 9.11426 17.6882C9.10166 17.8081 9.11872 17.9292 9.16394 18.0409C9.65863 19.2634 10.7417 20.1096 12.0124 20.3104V23.3466C10.669 23.6188 9.65457 24.8091 9.65457 26.2318V29.8872C9.65457 30.3782 10.0538 30.7773 10.5448 30.7773H14.6522C15.1432 30.7773 15.5424 30.3781 15.5424 29.8872V26.2317C15.5424 24.8091 14.528 23.6188 13.1843 23.3466V20.3105C14.4554 20.1097 15.5384 19.263 16.0334 18.0405ZM10.5921 18.1992H14.6052C14.134 18.8127 13.4007 19.1844 12.5986 19.1844C11.7964 19.1844 11.063 18.8127 10.5921 18.1992ZM14.3705 26.2318V29.6055H10.8266V26.2318C10.8266 25.2549 11.6216 24.4599 12.5987 24.4599C13.5758 24.4599 14.3705 25.2549 14.3705 26.2318ZM23.7922 30.7773C27.3664 30.7773 30.2744 27.8693 30.2744 24.2951C30.2744 20.7206 27.3664 17.8129 23.7922 17.8129C20.218 17.8129 17.31 20.7206 17.31 24.2951C17.31 27.8693 20.218 30.7773 23.7922 30.7773ZM23.7922 18.9848C26.7204 18.9848 29.1025 21.367 29.1025 24.2951C29.1025 27.2232 26.7204 29.6055 23.7922 29.6055C20.8641 29.6055 18.4818 27.2233 18.4818 24.2951C18.4818 21.3669 20.864 18.9848 23.7922 18.9848Z" fill="#17171A"/>
<path d="M23.7922 27.329C25.4646 27.329 26.8253 25.9682 26.8253 24.2955C26.8253 22.6228 25.4646 21.262 23.7922 21.262C22.1196 21.262 20.7588 22.6228 20.7588 24.2955C20.7588 25.9681 22.1196 27.329 23.7922 27.329ZM23.7922 22.4339C24.8185 22.4339 25.6535 23.2689 25.6535 24.2955C25.6535 25.3218 24.8185 26.1568 23.7922 26.1568C22.7656 26.1568 21.9306 25.3218 21.9306 24.2955C21.9306 23.2691 22.7656 22.4339 23.7922 22.4339ZM25.2366 12.7324C25.2366 12.577 25.1749 12.428 25.065 12.3181C24.9551 12.2082 24.806 12.1465 24.6506 12.1465H14.734C14.5786 12.1465 14.4296 12.2082 14.3197 12.3181C14.2098 12.428 14.1481 12.577 14.1481 12.7324C14.1481 12.8878 14.2098 13.0369 14.3197 13.1467C14.4296 13.2566 14.5786 13.3184 14.734 13.3184H24.6506C24.9741 13.3184 25.2366 13.0559 25.2366 12.7324Z" fill="#17171A"/>
</svg>
