<svg width="12" height="14" viewBox="0 0 12 14" fill="none" xmlns="http://www.w3.org/2000/svg">
<path d="M11.4079 12.5596C10.9932 13.1705 9.59821 13.5659 8.95592 13.5124C8.40276 13.4786 7.68975 13.3218 7.01354 12.9976C6.60472 12.7322 6.01765 12.4276 5.37826 11.936C2.44578 9.97486 1.05848 6.5105 0.93544 6.22017C0.793999 6.01356 -0.0517511 4.3357 0.27955 2.82887C0.610851 1.32205 1.56023 0.828712 1.90124 0.55265C2.24224 0.276589 2.59874 0.354973 2.86612 0.413761C3.04438 0.452953 3.31175 0.511741 3.49001 0.550933C3.66826 0.590125 3.95405 0.565201 4.09259 1.20998C4.23113 1.85475 4.52371 3.49875 4.59443 3.60206C4.64675 3.78908 4.60994 3.9565 4.484 4.10433C4.35806 4.25216 4.23212 4.39999 4.01706 4.52822C3.80199 4.65645 3.56852 4.8684 3.46099 4.93251C3.24593 5.06075 3.03087 5.18898 3.1539 5.47931C3.25853 5.85335 3.67996 6.91136 4.47629 7.96404C5.5032 9.24294 6.40997 9.79334 6.72966 10.0392C7.04936 10.285 7.24602 10.2404 7.46108 10.1122C7.67614 9.98397 8.44728 9.45145 8.69915 9.15579C8.95103 8.86013 9.2 9.00263 9.44898 9.14513C9.69795 9.28763 11.1366 10.3938 11.3671 10.62C11.6868 10.8658 11.8467 10.9887 11.9174 11.092C11.9513 11.3627 11.8225 11.9487 11.4079 12.5596Z" fill="#17171A"/>
</svg>
