<svg width="40" height="40" viewBox="0 0 40 40" fill="none" xmlns="http://www.w3.org/2000/svg">
<g clip-path="url(#clip0_1103_106689)">
<path d="M29.3334 0H10.6667C9.60621 0.00105895 8.58941 0.422826 7.83949 1.17274C7.08957 1.92266 6.66781 2.93946 6.66675 4V27.3333C6.6685 28.2777 7.00399 29.1911 7.61395 29.912C8.2239 30.633 9.06905 31.1152 10.0001 31.2733V32C10.0018 32.4122 10.1308 32.8138 10.3695 33.1498C10.6081 33.4858 10.9448 33.7399 11.3334 33.8773V34.6667C11.3351 35.0788 11.4641 35.4804 11.7028 35.8165C11.9415 36.1525 12.2781 36.4066 12.6667 36.544V38.6667C12.6667 39.0203 12.8072 39.3594 13.0573 39.6095C13.3073 39.8595 13.6465 40 14.0001 40H15.3334C15.687 40 16.0262 39.8595 16.2762 39.6095C16.5263 39.3594 16.6667 39.0203 16.6667 38.6667V36.544C17.0554 36.4066 17.392 36.1525 17.6307 35.8165C17.8694 35.4804 17.9984 35.0788 18.0001 34.6667V34H22.0001V34.6667C22.0018 35.0788 22.1308 35.4804 22.3695 35.8165C22.6081 36.1525 22.9448 36.4066 23.3334 36.544V38.6667C23.3334 39.0203 23.4739 39.3594 23.7239 39.6095C23.974 39.8595 24.3131 40 24.6667 40H26.0001C26.3537 40 26.6928 39.8595 26.9429 39.6095C27.1929 39.3594 27.3334 39.0203 27.3334 38.6667V36.544C27.722 36.4066 28.0587 36.1525 28.2974 35.8165C28.536 35.4804 28.665 35.0788 28.6667 34.6667V33.8773C29.0554 33.7399 29.392 33.4858 29.6307 33.1498C29.8694 32.8138 29.9984 32.4122 30.0001 32V31.2733C30.9311 31.1152 31.7763 30.633 32.3862 29.912C32.9962 29.1911 33.3317 28.2777 33.3334 27.3333V4C33.3324 2.93946 32.9106 1.92266 32.1607 1.17274C31.4108 0.422826 30.394 0.00105895 29.3334 0ZM10.6667 1.33333H29.3334C30.0407 1.33333 30.7189 1.61428 31.219 2.11438C31.7191 2.61448 32.0001 3.29276 32.0001 4V15.3333H8.00008V4C8.00008 3.29276 8.28103 2.61448 8.78113 2.11438C9.28123 1.61428 9.9595 1.33333 10.6667 1.33333ZM14.0001 38.6667V36.6667H15.3334V38.6667H14.0001ZM16.6667 34.6667C16.6667 34.8435 16.5965 35.0131 16.4715 35.1381C16.3465 35.2631 16.1769 35.3333 16.0001 35.3333H13.3334C13.1566 35.3333 12.987 35.2631 12.862 35.1381C12.737 35.0131 12.6667 34.8435 12.6667 34.6667V34H16.6667V34.6667ZM24.6667 38.6667V36.6667H26.0001V38.6667H24.6667ZM26.6667 35.3333H24.0001C23.8233 35.3333 23.6537 35.2631 23.5287 35.1381C23.4037 35.0131 23.3334 34.8435 23.3334 34.6667V34H27.3334V34.6667C27.3334 34.8435 27.2632 35.0131 27.1382 35.1381C27.0131 35.2631 26.8436 35.3333 26.6667 35.3333ZM28.0001 32.6667H12.0001C11.8233 32.6667 11.6537 32.5964 11.5287 32.4714C11.4037 32.3464 11.3334 32.1768 11.3334 32V31.3333H28.6667V32C28.6667 32.1768 28.5965 32.3464 28.4715 32.4714C28.3465 32.5964 28.1769 32.6667 28.0001 32.6667ZM29.3334 30H10.6667C9.9595 30 9.28123 29.719 8.78113 29.219C8.28103 28.7189 8.00008 28.0406 8.00008 27.3333V16.6667H32.0001V27.3333C32.0001 28.0406 31.7191 28.7189 31.219 29.219C30.7189 29.719 30.0407 30 29.3334 30Z" fill="#17171A"/>
<path d="M20.0001 14.0007C21.0549 14.0007 22.0861 13.6879 22.9631 13.1018C23.8402 12.5158 24.5238 11.6828 24.9274 10.7083C25.3311 9.73376 25.4367 8.6614 25.2309 7.62684C25.0251 6.59227 24.5172 5.64196 23.7713 4.89608C23.0254 4.1502 22.0751 3.64225 21.0406 3.43647C20.006 3.23068 18.9336 3.3363 17.9591 3.73996C16.9846 4.14363 16.1516 4.82722 15.5656 5.70428C14.9795 6.58134 14.6667 7.61249 14.6667 8.66732C14.6683 10.0813 15.2307 11.437 16.2306 12.4368C17.2304 13.4367 18.5861 13.9991 20.0001 14.0007ZM20.0001 4.66732C20.7912 4.66732 21.5646 4.90192 22.2224 5.34144C22.8802 5.78097 23.3928 6.40568 23.6956 7.13659C23.9984 7.86749 24.0776 8.67176 23.9232 9.44768C23.7689 10.2236 23.3879 10.9363 22.8285 11.4957C22.2691 12.0552 21.5564 12.4361 20.7804 12.5905C20.0045 12.7448 19.2003 12.6656 18.4693 12.3628C17.7384 12.0601 17.1137 11.5474 16.6742 10.8896C16.2347 10.2318 16.0001 9.45845 16.0001 8.66732C16.0011 7.60678 16.4229 6.58998 17.1728 5.84006C17.9227 5.09015 18.9395 4.66838 20.0001 4.66732ZM22.0001 22.6673H19.1494L21.2454 19.0007C21.2913 18.9246 21.3216 18.84 21.3343 18.7521C21.3471 18.6641 21.3422 18.5745 21.3198 18.4885C21.2974 18.4025 21.2581 18.3218 21.2041 18.2512C21.1501 18.1806 21.0825 18.1216 21.0053 18.0775C20.9282 18.0334 20.843 18.0051 20.7547 17.9945C20.6665 17.9838 20.577 17.9908 20.4916 18.0152C20.4061 18.0396 20.3264 18.0809 20.2571 18.1365C20.1878 18.1922 20.1303 18.2611 20.0881 18.3393L17.4214 23.006C17.3642 23.1073 17.3344 23.2218 17.3352 23.3382C17.3359 23.4545 17.3671 23.5687 17.4256 23.6692C17.4841 23.7698 17.5679 23.8533 17.6687 23.9115C17.7695 23.9696 17.8837 24.0004 18.0001 24.0007H20.8507L18.7547 27.6673C18.6671 27.8208 18.644 28.0028 18.6905 28.1733C18.737 28.3438 18.8493 28.4889 19.0027 28.5767C19.1562 28.6643 19.3382 28.6874 19.5088 28.6409C19.6793 28.5944 19.8243 28.4821 19.9121 28.3287L22.5787 23.662C22.636 23.5607 22.6657 23.4462 22.665 23.3298C22.6643 23.2135 22.6331 23.0993 22.5746 22.9987C22.5161 22.8982 22.4323 22.8147 22.3315 22.7565C22.2307 22.6984 22.1164 22.6676 22.0001 22.6673Z" fill="#17171A"/>
<path d="M20 9.33289C20.1768 9.33285 20.3464 9.26259 20.4714 9.13756L21.8854 7.72356C22.0068 7.59782 22.074 7.42942 22.0725 7.25462C22.071 7.07983 22.0008 6.91262 21.8772 6.78901C21.7536 6.66541 21.5864 6.59529 21.4116 6.59378C21.2368 6.59226 21.0684 6.65945 20.9427 6.78089L19.5287 8.19489C19.4355 8.28813 19.372 8.4069 19.3463 8.5362C19.3206 8.66551 19.3338 8.79953 19.3842 8.92133C19.4347 9.04313 19.5201 9.14724 19.6297 9.22049C19.7393 9.29375 19.8682 9.33286 20 9.33289Z" fill="#17171A"/>
</g>
<defs>
<clipPath id="clip0_1103_106689">
<rect width="40" height="40" fill="white"/>
</clipPath>
</defs>
</svg>
