<svg width="40" height="40" viewBox="0 0 40 40" fill="none" xmlns="http://www.w3.org/2000/svg">
<circle cx="20" cy="20" r="20" fill="#DFDFDF"/>
<path fill-rule="evenodd" clip-rule="evenodd" d="M15.7015 9.33398H20.1746C23.0994 9.33398 23.4435 9.33398 24.4757 9.50465C25.508 9.50465 26.3682 9.67532 27.0564 10.0167C27.7445 10.1873 28.2607 10.5286 28.9488 11.2113C29.465 11.7233 29.8091 12.406 30.1531 13.0887C30.4972 13.7713 30.6693 14.454 30.6693 15.6487V20.086V24.5233C30.6693 25.5473 30.4972 26.4007 30.1531 27.0833C29.9811 27.766 29.637 28.278 28.9488 28.9607C28.4327 29.4727 27.7445 29.814 27.0564 30.1553C26.3682 30.4966 25.68 30.6673 24.4757 30.6673H20.0026H15.5295C14.4972 30.6673 13.637 30.4966 12.9488 30.1553C12.2607 29.9846 11.7445 29.6433 11.0564 28.9607C10.5402 28.4487 10.1962 27.766 9.85207 27.0833C9.50798 26.4007 9.33594 25.718 9.33594 24.5233V20.086V15.6487C9.33594 14.6247 9.50798 13.7713 9.85207 13.0887C10.0241 12.406 10.3682 11.894 11.0564 11.2113C11.5725 10.5286 12.2607 10.1873 13.1209 9.84598C13.8091 9.50465 14.4972 9.33398 15.7015 9.33398ZM14.4972 20.2567C14.4972 17.1847 17.0779 14.6247 20.1746 14.6247C23.2714 14.6247 25.8521 17.1847 25.8521 20.2567C25.8521 23.3287 23.2714 25.8886 20.1746 25.8886C17.0779 25.718 14.4972 23.3287 14.4972 20.2567ZM20.0026 23.8407C17.9381 23.8407 16.3897 22.3047 16.3897 20.2567C16.3897 18.2087 18.1101 16.502 20.0026 16.6726C22.0671 16.6726 23.6155 18.2087 23.6155 20.2567C23.6155 22.3047 22.0671 23.8407 20.0026 23.8407ZM27.4005 14.2833C27.4005 15.1367 26.7123 15.6487 26.0241 15.6487C25.1639 15.6487 24.6478 15.1367 24.6478 14.2833C24.6478 13.43 25.1639 12.918 26.0241 12.918C26.8843 12.918 27.4005 13.6007 27.4005 14.2833Z" fill="#17171A"/>
</svg>
