<svg width="64" height="16" viewBox="0 0 64 16" fill="none" xmlns="http://www.w3.org/2000/svg">
<path d="M8.96398 6L10.304 0.86C10.324 0.797 10.334 0.7295 10.334 0.66C10.334 0.297 10.0405 0 9.67698 0C9.47048 0 9.28698 0.0935 9.16748 0.2435L2.47748 8.92C2.38748 9.0335 2.33398 9.1765 2.33398 9.3335C2.33398 9.7 2.63398 10 3.00048 10H7.03698L5.69698 15.14C5.67648 15.2035 5.66698 15.2705 5.66698 15.34C5.66748 15.7035 5.96048 16 6.32398 16C6.53048 16 6.71398 15.907 6.83398 15.7565L13.5235 7.08C13.614 6.9665 13.667 6.8235 13.667 6.6665C13.667 6.3 13.367 6 13.0005 6H8.96398Z" fill="#F4B54A"/>
<path d="M24.964 6L26.304 0.86C26.324 0.797 26.334 0.7295 26.334 0.66C26.334 0.297 26.0405 0 25.677 0C25.4705 0 25.287 0.0935 25.1675 0.2435L18.4775 8.92C18.3875 9.0335 18.334 9.1765 18.334 9.3335C18.334 9.7 18.634 10 19.0005 10H23.037L21.697 15.14C21.6765 15.2035 21.667 15.2705 21.667 15.34C21.6675 15.7035 21.9605 16 22.324 16C22.5305 16 22.714 15.907 22.834 15.7565L29.5235 7.08C29.614 6.9665 29.667 6.8235 29.667 6.6665C29.667 6.3 29.367 6 29.0005 6H24.964Z" fill="#F4B54A"/>
<path d="M40.964 6L42.304 0.86C42.324 0.797 42.334 0.7295 42.334 0.66C42.334 0.297 42.0405 0 41.677 0C41.4705 0 41.287 0.0935 41.1675 0.2435L34.4775 8.92C34.3875 9.0335 34.334 9.1765 34.334 9.3335C34.334 9.7 34.634 10 35.0005 10H39.037L37.697 15.14C37.6765 15.2035 37.667 15.2705 37.667 15.34C37.6675 15.7035 37.9605 16 38.324 16C38.5305 16 38.714 15.907 38.834 15.7565L45.5235 7.08C45.614 6.9665 45.667 6.8235 45.667 6.6665C45.667 6.3 45.367 6 45.0005 6H40.964Z" fill="#F4B54A"/>
<path d="M56.964 6L58.304 0.86C58.324 0.797 58.334 0.7295 58.334 0.66C58.334 0.297 58.0405 0 57.677 0C57.4705 0 57.287 0.0935 57.1675 0.2435L50.4775 8.92C50.3875 9.0335 50.334 9.1765 50.334 9.3335C50.334 9.7 50.634 10 51.0005 10H55.037L53.697 15.14C53.6765 15.2035 53.667 15.2705 53.667 15.34C53.6675 15.7035 53.9605 16 54.324 16C54.5305 16 54.714 15.907 54.834 15.7565L61.5235 7.08C61.614 6.9665 61.667 6.8235 61.667 6.6665C61.667 6.3 61.367 6 61.0005 6H56.964Z" fill="#F4B54A"/>
</svg>
