<svg width="62" height="16" viewBox="0 0 62 16" fill="none" xmlns="http://www.w3.org/2000/svg">
<path d="M6.79699 6L8.13699 0.86C8.15699 0.797 8.16699 0.7295 8.16699 0.66C8.16699 0.297 7.87349 0 7.50999 0C7.30349 0 7.11999 0.0935 7.00049 0.2435L0.310492 8.92C0.220492 9.0335 0.166992 9.1765 0.166992 9.3335C0.166992 9.7 0.466992 10 0.833492 10H4.86999L3.52999 15.14C3.50949 15.2035 3.49999 15.2705 3.49999 15.34C3.50049 15.7035 3.79349 16 4.15699 16C4.36349 16 4.54699 15.907 4.66699 15.7565L11.3565 7.08C11.447 6.9665 11.5 6.8235 11.5 6.6665C11.5 6.3 11.2 6 10.8335 6H6.79699Z" fill="#D1D1D1"/>
<path d="M22.797 6L24.137 0.86C24.157 0.797 24.167 0.7295 24.167 0.66C24.167 0.297 23.8735 0 23.51 0C23.3035 0 23.12 0.0935 23.0005 0.2435L16.3105 8.92C16.2205 9.0335 16.167 9.1765 16.167 9.3335C16.167 9.7 16.467 10 16.8335 10H20.87L19.53 15.14C19.5095 15.2035 19.5 15.2705 19.5 15.34C19.5005 15.7035 19.7935 16 20.157 16C20.3635 16 20.547 15.907 20.667 15.7565L27.3565 7.08C27.447 6.9665 27.5 6.8235 27.5 6.6665C27.5 6.3 27.2 6 26.8335 6H22.797Z" fill="#D1D1D1"/>
<path d="M38.797 6L40.137 0.86C40.157 0.797 40.167 0.7295 40.167 0.66C40.167 0.297 39.8735 0 39.51 0C39.3035 0 39.12 0.0935 39.0005 0.2435L32.3105 8.92C32.2205 9.0335 32.167 9.1765 32.167 9.3335C32.167 9.7 32.467 10 32.8335 10H36.87L35.53 15.14C35.5095 15.2035 35.5 15.2705 35.5 15.34C35.5005 15.7035 35.7935 16 36.157 16C36.3635 16 36.547 15.907 36.667 15.7565L43.3565 7.08C43.447 6.9665 43.5 6.8235 43.5 6.6665C43.5 6.3 43.2 6 42.8335 6H38.797Z" fill="#D1D1D1"/>
<path d="M54.797 6L56.137 0.86C56.157 0.797 56.167 0.7295 56.167 0.66C56.167 0.297 55.8735 0 55.51 0C55.3035 0 55.12 0.0935 55.0005 0.2435L48.3105 8.92C48.2205 9.0335 48.167 9.1765 48.167 9.3335C48.167 9.7 48.467 10 48.8335 10H52.87L51.53 15.14C51.5095 15.2035 51.5 15.2705 51.5 15.34C51.5005 15.7035 51.7935 16 52.157 16C52.3635 16 52.547 15.907 52.667 15.7565L59.3565 7.08C59.447 6.9665 59.5 6.8235 59.5 6.6665C59.5 6.3 59.2 6 58.8335 6H54.797Z" fill="#D1D1D1"/>
</svg>
