<svg width="40" height="41" viewBox="0 0 40 41" fill="none" xmlns="http://www.w3.org/2000/svg">
<circle cx="20" cy="20.5" r="20" fill="#DFDFDF"/>
<path d="M29 21.9245V28.5H25.3408V22.3255C25.3408 20.8019 24.8072 19.7594 23.5112 19.7594C22.5202 19.7594 21.9103 20.4811 21.6816 21.1226C21.6054 21.3632 21.5292 21.684 21.5292 22.0849V28.5H17.87C17.87 28.5 17.9462 18.0755 17.87 17.033H21.5292V18.6368C21.9865 17.8349 22.9013 16.7123 24.8072 16.7123C27.1704 16.7123 29 18.3962 29 21.9245ZM14.0583 11.5C12.8386 11.5 12 12.3821 12 13.5047C12 14.6274 12.7623 15.5094 13.9821 15.5094C15.278 15.5094 16.0404 14.6274 16.0404 13.5047C16.1166 12.3019 15.3543 11.5 14.0583 11.5ZM12.2287 28.5H15.8879V17.033H12.2287V28.5Z" fill="#17171A"/>
</svg>
