<svg width="135" height="51" viewBox="0 0 135 51" fill="none" xmlns="http://www.w3.org/2000/svg">
<path d="M130.688 46.8465C130.688 46.531 130.796 46.2156 130.956 45.9527C131.117 45.6898 131.331 45.4269 131.653 45.2692C131.975 45.1114 132.242 45.0063 132.618 45.0063C132.939 45.0063 133.261 45.1114 133.529 45.2692C133.796 45.4269 134.064 45.6372 134.225 45.9527C134.386 46.2681 134.493 46.531 134.493 46.8991C134.493 47.2145 134.386 47.53 134.225 47.7929C134.064 48.0558 133.85 48.3187 133.529 48.4764C133.261 48.6341 132.939 48.7393 132.564 48.7393C132.242 48.7393 131.921 48.6341 131.599 48.4764C131.331 48.3187 131.064 48.0558 130.903 47.7929C130.796 47.4774 130.688 47.2145 130.688 46.8465ZM130.956 46.8465C130.956 47.1094 131.01 47.3723 131.171 47.6352C131.331 47.898 131.492 48.0558 131.76 48.2135C132.028 48.3712 132.296 48.4238 132.564 48.4238C132.832 48.4238 133.1 48.3712 133.368 48.2135C133.636 48.0558 133.796 47.898 133.957 47.6352C134.118 47.3723 134.172 47.1094 134.172 46.8465C134.172 46.5836 134.118 46.3207 133.957 46.0578C133.796 45.7949 133.636 45.6372 133.368 45.4795C133.1 45.3218 132.832 45.2692 132.564 45.2692C132.296 45.2692 132.028 45.3218 131.76 45.4795C131.492 45.6372 131.331 45.7949 131.171 46.0578C131.01 46.3207 130.956 46.5836 130.956 46.8465ZM133.368 46.4259C133.368 46.531 133.314 46.6888 133.261 46.7939C133.207 46.8991 133.1 46.9516 132.939 47.0042L133.529 47.9506H133.1L132.564 47.1094H132.242V47.9506H131.867V45.7949H132.51C132.778 45.7949 132.993 45.8475 133.1 45.9527C133.261 46.0578 133.368 46.2156 133.368 46.4259ZM132.242 46.7939H132.51C132.618 46.7939 132.725 46.7413 132.832 46.6888C132.939 46.6362 132.939 46.531 132.939 46.4259C132.939 46.3207 132.885 46.2156 132.832 46.163C132.778 46.1104 132.671 46.0578 132.51 46.0578H132.242V46.7939ZM40.7703 39.8011V20.663H36.269V39.8011C36.269 43.1135 33.5361 45.7424 30.2138 45.7424C26.8378 45.7424 24.1585 43.0609 24.1585 39.8011V20.663H19.6572V39.8011C19.6572 45.5321 24.3728 50.1589 30.2138 50.1589C36.0547 50.1589 40.7703 45.4795 40.7703 39.8011ZM74.7441 19.1908C71.1002 19.1908 67.8315 20.9259 65.7952 23.6073C63.7589 20.9259 60.4901 19.1908 56.8462 19.1908C50.6838 19.1908 45.6467 24.1331 45.6467 30.1795V48.6867H50.0943V30.1795C50.0943 26.5516 53.0952 23.6073 56.7927 23.6073C60.4901 23.6073 63.491 26.5516 63.491 30.1795V48.6867H67.9922V30.1795C67.9922 26.5516 70.9931 23.6073 74.6905 23.6073C78.388 23.6073 81.3888 26.5516 81.3888 30.1795V48.6867H85.8901V30.1795C85.9437 24.1331 80.9066 19.1908 74.7441 19.1908ZM127.205 30.1269C127.205 24.0805 122.168 19.1382 116.006 19.1382C109.843 19.1382 104.806 24.0805 104.806 30.1269V48.6341H109.307V30.1269C109.307 26.4991 112.308 23.5547 116.006 23.5547C119.703 23.5547 122.704 26.4991 122.704 30.1269V48.6341H127.205V30.1269ZM98.1078 20.6104H93.6066V48.6867H98.1078V20.6104ZM12.7981 6.57227H8.29688V48.6867H12.7981V6.57227Z" fill="white"/>
<path d="M132.618 18.2439L109.576 5.3625L86.4805 18.2439L84.3906 14.5635L109.576 0.525391L134.708 14.5635L132.618 18.2439Z" fill="#F4B54A"/>
</svg>
