<svg width="136" height="133" viewBox="0 0 136 133" fill="none" xmlns="http://www.w3.org/2000/svg">
<g clip-path="url(#clip0_1145_116885)">
<path d="M125.137 127.779C125.137 126.909 125.427 126.038 125.862 125.313C126.296 124.588 126.875 123.863 127.744 123.428C128.613 122.993 129.338 122.703 130.351 122.703C131.22 122.703 132.089 122.993 132.814 123.428C133.538 123.863 134.262 124.443 134.696 125.313C135.131 126.184 135.421 126.909 135.421 127.924C135.421 128.794 135.131 129.664 134.696 130.39C134.262 131.115 133.683 131.84 132.814 132.275C132.089 132.71 131.22 133 130.207 133C129.338 133 128.469 132.71 127.6 132.275C126.875 131.84 126.151 131.115 125.717 130.39C125.427 129.519 125.137 128.794 125.137 127.779ZM125.862 127.779C125.862 128.504 126.006 129.229 126.441 129.954C126.875 130.68 127.31 131.115 128.034 131.55C128.758 131.985 129.482 132.13 130.207 132.13C130.931 132.13 131.655 131.985 132.379 131.55C133.103 131.115 133.538 130.68 133.972 129.954C134.407 129.229 134.552 128.504 134.552 127.779C134.552 127.054 134.407 126.329 133.972 125.603C133.538 124.878 133.103 124.443 132.379 124.008C131.655 123.573 130.931 123.428 130.207 123.428C129.482 123.428 128.758 123.573 128.034 124.008C127.31 124.443 126.875 124.878 126.441 125.603C126.006 126.329 125.862 127.054 125.862 127.779ZM132.379 126.619C132.379 126.909 132.234 127.344 132.089 127.634C131.945 127.924 131.655 128.069 131.22 128.214L132.814 130.825H131.655L130.207 128.504H129.338V130.825H128.324V124.878H130.062C130.786 124.878 131.365 125.023 131.655 125.313C132.089 125.603 132.379 126.038 132.379 126.619ZM129.338 127.634H130.062C130.351 127.634 130.641 127.489 130.931 127.344C131.22 127.199 131.22 126.909 131.22 126.619C131.22 126.329 131.076 126.038 130.931 125.893C130.786 125.748 130.496 125.603 130.062 125.603H129.338V127.634ZM115.723 81.6567C115.723 64.9773 102.109 51.3438 85.4526 51.3438C68.7966 51.3438 55.1821 64.9773 55.1821 81.6567V132.71H67.3483V81.6567C67.3483 71.6491 75.459 63.527 85.4526 63.527C95.4463 63.527 103.557 71.6491 103.557 81.6567V132.71H115.723V81.6567ZM37.0777 55.4048H24.9116V132.855H37.0777V55.4048Z" fill="white"/>
<path d="M130.351 48.8779L68.0724 13.3435L5.64855 48.8779L0 38.7252L68.0724 0L136 38.7252L130.351 48.8779Z" fill="#F4B54A"/>
</g>
<defs>
<clipPath id="clip0_1145_116885">
<rect width="136" height="133" fill="white"/>
</clipPath>
</defs>
</svg>
