<svg width="61" height="62" viewBox="0 0 61 62" fill="none" xmlns="http://www.w3.org/2000/svg">
<g clip-path="url(#clip0_1214_112451)">
<path d="M55.2077 58.6441C55.2077 58.2516 55.3355 57.859 55.5272 57.5318C55.7188 57.2047 55.9744 56.8775 56.3578 56.6812C56.7412 56.4849 57.0607 56.3541 57.508 56.3541C57.8914 56.3541 58.2748 56.4849 58.5942 56.6812C58.9137 56.8775 59.2332 57.1392 59.4249 57.5318C59.6166 57.9244 59.7444 58.2516 59.7444 58.7096C59.7444 59.1022 59.6166 59.4947 59.4249 59.8219C59.2332 60.1491 58.9776 60.4762 58.5942 60.6725C58.2748 60.8688 57.8914 60.9996 57.4441 60.9996C57.0607 60.9996 56.6773 60.8688 56.2939 60.6725C55.9744 60.4762 55.6549 60.1491 55.4633 59.8219C55.3355 59.4293 55.2077 59.1022 55.2077 58.6441ZM55.5272 58.6441C55.5272 58.9713 55.5911 59.2985 55.7828 59.6256C55.9744 59.9528 56.1661 60.149 56.4856 60.3453C56.8051 60.5416 57.1246 60.6071 57.4441 60.6071C57.7636 60.6071 58.0831 60.5416 58.4025 60.3453C58.722 60.149 58.9137 59.9528 59.1054 59.6256C59.2971 59.2985 59.361 58.9713 59.361 58.6441C59.361 58.317 59.2971 57.9898 59.1054 57.6627C58.9137 57.3355 58.722 57.1392 58.4025 56.9429C58.0831 56.7467 57.7636 56.6812 57.4441 56.6812C57.1246 56.6812 56.8051 56.7467 56.4856 56.9429C56.1661 57.1392 55.9744 57.3355 55.7828 57.6627C55.5911 57.9898 55.5272 58.317 55.5272 58.6441ZM58.4025 58.1207C58.4025 58.2516 58.3387 58.4478 58.2748 58.5787C58.2109 58.7096 58.0831 58.775 57.8914 58.8404L58.5942 60.0182H58.0831L57.4441 58.9713H57.0607V60.0182H56.6134V57.3355H57.3802C57.6997 57.3355 57.9553 57.401 58.0831 57.5318C58.2748 57.6627 58.4025 57.859 58.4025 58.1207ZM57.0607 58.5787H57.3802C57.508 58.5787 57.6358 58.5133 57.7636 58.4479C57.8914 58.3824 57.8914 58.2516 57.8914 58.1207C57.8914 57.9898 57.8275 57.859 57.7636 57.7935C57.6997 57.7281 57.5719 57.6627 57.3802 57.6627H57.0607V58.5787ZM51.0543 37.8371C51.0543 30.3126 45.0479 24.1621 37.6997 24.1621C30.3514 24.1621 24.345 30.3126 24.345 37.8371V60.8688H29.7125V37.8371C29.7125 33.3224 33.2907 29.6583 37.6997 29.6583C42.1086 29.6583 45.6869 33.3224 45.6869 37.8371V60.8688H51.0543V37.8371ZM16.3578 25.9942H10.9904V60.9342H16.3578V25.9942Z" fill="#17171A"/>
<path d="M57.508 23.0502L30.032 7.01963L2.49201 23.0502L0 18.47L30.032 1L60 18.47L57.508 23.0502Z" fill="#F4B54A"/>
</g>
<mask id="mask0_1214_112451" style="mask-type:alpha" maskUnits="userSpaceOnUse" x="-1" y="0" width="62" height="62">
<path d="M55.2077 58.6445C55.2077 58.2519 55.3355 57.8593 55.5272 57.5322C55.7189 57.205 55.9745 56.8779 56.3578 56.6816C56.7412 56.4853 57.0607 56.3544 57.508 56.3544C57.8914 56.3544 58.2748 56.4853 58.5943 56.6816C58.9137 56.8779 59.2332 57.1396 59.4249 57.5322C59.6166 57.9248 59.7444 58.2519 59.7444 58.7099C59.7444 59.1025 59.6166 59.4951 59.4249 59.8222C59.2332 60.1494 58.9776 60.4766 58.5943 60.6728C58.2748 60.8691 57.8914 61 57.4441 61C57.0607 61 56.6773 60.8691 56.2939 60.6728C55.9744 60.4766 55.655 60.1494 55.4633 59.8222C55.3355 59.4297 55.2077 59.1025 55.2077 58.6445ZM55.5272 58.6445C55.5272 58.9717 55.5911 59.2988 55.7828 59.626C55.9745 59.9531 56.1661 60.1494 56.4856 60.3457C56.8051 60.542 57.1246 60.6074 57.4441 60.6074C57.7636 60.6074 58.0831 60.542 58.4026 60.3457C58.722 60.1494 58.9137 59.9531 59.1054 59.626C59.2971 59.2988 59.361 58.9717 59.361 58.6445C59.361 58.3173 59.2971 57.9902 59.1054 57.663C58.9137 57.3359 58.722 57.1396 58.4026 56.9433C58.0831 56.747 57.7636 56.6816 57.4441 56.6816C57.1246 56.6816 56.8051 56.747 56.4856 56.9433C56.1661 57.1396 55.9745 57.3359 55.7828 57.663C55.5911 57.9902 55.5272 58.3173 55.5272 58.6445ZM58.4026 58.1211C58.4026 58.2519 58.3387 58.4482 58.2748 58.5791C58.2109 58.7099 58.0831 58.7754 57.8914 58.8408L58.5943 60.0185H58.0831L57.4441 58.9716H57.0607V60.0185H56.6134V57.3359H57.3802C57.6997 57.3359 57.9553 57.4013 58.0831 57.5322C58.2748 57.663 58.4026 57.8593 58.4026 58.1211ZM57.0607 58.5791H57.3802C57.508 58.5791 57.6358 58.5136 57.7636 58.4482C57.8914 58.3828 57.8914 58.2519 57.8914 58.1211C57.8914 57.9902 57.8275 57.8593 57.7636 57.7939C57.6997 57.7285 57.5719 57.663 57.3802 57.663H57.0607V58.5791ZM51.0543 37.8375C51.0543 30.313 45.0479 24.1625 37.6997 24.1625C30.3515 24.1625 24.3451 30.313 24.3451 37.8375V60.8691H29.7125V37.8375C29.7125 33.3228 33.2908 29.6586 37.6997 29.6586C42.1086 29.6586 45.6869 33.3228 45.6869 37.8375V60.8691H51.0543V37.8375ZM16.3578 25.9945H10.9904V60.9346H16.3578V25.9945Z" fill="#D9D9D9"/>
<path d="M57.508 23.0502L30.0319 7.01963L2.49201 23.0502L0 18.47L30.0319 1L60 18.47L57.508 23.0502Z" fill="#D9D9D9"/>
<path d="M55.2077 58.6445C55.2077 58.2519 55.3355 57.8593 55.5272 57.5322C55.7189 57.205 55.9745 56.8779 56.3578 56.6816C56.7412 56.4853 57.0607 56.3544 57.508 56.3544C57.8914 56.3544 58.2748 56.4853 58.5943 56.6816C58.9137 56.8779 59.2332 57.1396 59.4249 57.5322C59.6166 57.9248 59.7444 58.2519 59.7444 58.7099C59.7444 59.1025 59.6166 59.4951 59.4249 59.8222C59.2332 60.1494 58.9776 60.4766 58.5943 60.6728C58.2748 60.8691 57.8914 61 57.4441 61C57.0607 61 56.6773 60.8691 56.2939 60.6728C55.9744 60.4766 55.655 60.1494 55.4633 59.8222C55.3355 59.4297 55.2077 59.1025 55.2077 58.6445ZM55.5272 58.6445C55.5272 58.9717 55.5911 59.2988 55.7828 59.626C55.9745 59.9531 56.1661 60.1494 56.4856 60.3457C56.8051 60.542 57.1246 60.6074 57.4441 60.6074C57.7636 60.6074 58.0831 60.542 58.4026 60.3457C58.722 60.1494 58.9137 59.9531 59.1054 59.626C59.2971 59.2988 59.361 58.9717 59.361 58.6445C59.361 58.3173 59.2971 57.9902 59.1054 57.663C58.9137 57.3359 58.722 57.1396 58.4026 56.9433C58.0831 56.747 57.7636 56.6816 57.4441 56.6816C57.1246 56.6816 56.8051 56.747 56.4856 56.9433C56.1661 57.1396 55.9745 57.3359 55.7828 57.663C55.5911 57.9902 55.5272 58.3173 55.5272 58.6445ZM58.4026 58.1211C58.4026 58.2519 58.3387 58.4482 58.2748 58.5791C58.2109 58.7099 58.0831 58.7754 57.8914 58.8408L58.5943 60.0185H58.0831L57.4441 58.9716H57.0607V60.0185H56.6134V57.3359H57.3802C57.6997 57.3359 57.9553 57.4013 58.0831 57.5322C58.2748 57.663 58.4026 57.8593 58.4026 58.1211ZM57.0607 58.5791H57.3802C57.508 58.5791 57.6358 58.5136 57.7636 58.4482C57.8914 58.3828 57.8914 58.2519 57.8914 58.1211C57.8914 57.9902 57.8275 57.8593 57.7636 57.7939C57.6997 57.7285 57.5719 57.663 57.3802 57.663H57.0607V58.5791ZM51.0543 37.8375C51.0543 30.313 45.0479 24.1625 37.6997 24.1625C30.3515 24.1625 24.3451 30.313 24.3451 37.8375V60.8691H29.7125V37.8375C29.7125 33.3228 33.2908 29.6586 37.6997 29.6586C42.1086 29.6586 45.6869 33.3228 45.6869 37.8375V60.8691H51.0543V37.8375ZM16.3578 25.9945H10.9904V60.9346H16.3578V25.9945Z" stroke="#D9D9D9" stroke-width="0.8"/>
<path d="M57.508 23.0502L30.0319 7.01963L2.49201 23.0502L0 18.47L30.0319 1L60 18.47L57.508 23.0502Z" stroke="#D9D9D9" stroke-width="0.8"/>
</mask>
<g mask="url(#mask0_1214_112451)">
<path fill-rule="evenodd" clip-rule="evenodd" d="M0 58.6742L4.43333 61.4535C8.86667 64.1616 17.7333 69.6491 26.6 68.9364C35.4667 68.2951 44.3333 61.4535 53.2 61.4535C62.0667 61.4535 70.9333 68.2951 79.8 68.9364C88.6667 69.6491 97.5333 64.1616 106.4 62.8076C115.267 61.4535 124.133 64.1616 128.567 65.5157L133 66.941V-3H128.567C124.133 -3 115.267 -3 106.4 -3C97.5333 -3 88.6667 -3 79.8 -3C70.9333 -3 62.0667 -3 53.2 -3C44.3333 -3 35.4667 -3 26.6 -3C17.7333 -3 8.86667 -3 4.43333 -3H0V58.6742Z" fill="#D9D9D9"/>
</g>
<defs>
<clipPath id="clip0_1214_112451">
<rect width="60" height="60" fill="white" transform="translate(0 1)"/>
</clipPath>
</defs>
</svg>
