<svg width="120" height="46" viewBox="0 0 120 46" fill="none" xmlns="http://www.w3.org/2000/svg">
<path d="M116.164 42.4813C116.164 42.1952 116.259 41.9091 116.402 41.6707C116.545 41.4323 116.736 41.1939 117.022 41.0509C117.308 40.9079 117.547 40.8125 117.881 40.8125C118.167 40.8125 118.453 40.9079 118.691 41.0509C118.929 41.1939 119.168 41.3847 119.311 41.6707C119.454 41.9568 119.549 42.1952 119.549 42.529C119.549 42.815 119.454 43.1011 119.311 43.3395C119.168 43.5779 118.977 43.8163 118.691 43.9593C118.453 44.1024 118.167 44.1977 117.833 44.1977C117.547 44.1977 117.261 44.1024 116.975 43.9593C116.736 43.8163 116.498 43.5779 116.355 43.3395C116.259 43.0534 116.164 42.815 116.164 42.4813ZM116.402 42.4813C116.402 42.7197 116.45 42.9581 116.593 43.1965C116.736 43.4349 116.879 43.5779 117.118 43.7209C117.356 43.864 117.594 43.9117 117.833 43.9117C118.071 43.9117 118.31 43.864 118.548 43.7209C118.786 43.5779 118.929 43.4349 119.073 43.1965C119.216 42.9581 119.263 42.7197 119.263 42.4813C119.263 42.2429 119.216 42.0045 119.073 41.7661C118.929 41.5277 118.786 41.3847 118.548 41.2416C118.31 41.0986 118.071 41.0509 117.833 41.0509C117.594 41.0509 117.356 41.0986 117.118 41.2416C116.879 41.3847 116.736 41.5277 116.593 41.7661C116.45 42.0045 116.402 42.2429 116.402 42.4813ZM118.548 42.0998C118.548 42.1952 118.5 42.3382 118.453 42.4336C118.405 42.529 118.31 42.5766 118.167 42.6243L118.691 43.4825H118.31L117.833 42.7197H117.547V43.4825H117.213V41.5277H117.785C118.024 41.5277 118.214 41.5754 118.31 41.6707C118.453 41.7661 118.548 41.9091 118.548 42.0998ZM117.547 42.4336H117.785C117.881 42.4336 117.976 42.3859 118.071 42.3382C118.167 42.2906 118.167 42.1952 118.167 42.0998C118.167 42.0045 118.119 41.9091 118.071 41.8614C118.024 41.8138 117.928 41.7661 117.785 41.7661H117.547V42.4336Z" fill="white"/>
<path d="M36.1573 36.0923V18.737H32.1523V36.0923C32.1523 39.0961 29.7206 41.4801 26.7645 41.4801C23.7607 41.4801 21.3767 39.0484 21.3767 36.0923V18.737H17.3717V36.0923C17.3717 41.2894 21.5675 45.4851 26.7645 45.4851C31.9616 45.4851 36.1573 41.2417 36.1573 36.0923ZM66.3861 17.402C63.1439 17.402 60.2355 18.9754 58.4237 21.4071C56.6119 18.9754 53.7033 17.402 50.4611 17.402C44.978 17.402 40.4962 21.8839 40.4962 27.367V44.1501H44.4535V27.367C44.4535 24.0771 47.1236 21.4071 50.4135 21.4071C53.7033 21.4071 56.3735 24.0771 56.3735 27.367V44.1501H60.3785V27.367C60.3785 24.0771 63.0486 21.4071 66.3384 21.4071C69.6283 21.4071 72.2984 24.0771 72.2984 27.367V44.1501H76.3034V27.367C76.3511 21.8839 71.8693 17.402 66.3861 17.402ZM113.064 27.3193C113.064 21.8362 108.582 17.3543 103.099 17.3543C97.6161 17.3543 93.1342 21.8362 93.1342 27.3193V44.1024H97.1393V27.3193C97.1393 24.0294 99.8093 21.3594 103.099 21.3594C106.389 21.3594 109.059 24.0294 109.059 27.3193V44.1024H113.064V27.3193ZM87.1743 18.6894H83.1693V44.1501H87.1743V18.6894ZM11.2687 5.95898H7.26367V44.1501H11.2687V5.95898Z" fill="white"/>
<path d="M117.88 16.5445L97.378 4.86306L76.8282 16.5445L74.9688 13.2069L97.378 0.476562L119.74 13.2069L117.88 16.5445Z" fill="#F4B54A"/>
</svg>
