<svg width="574" height="561" viewBox="0 0 574 561" fill="none" xmlns="http://www.w3.org/2000/svg">
<g opacity="0.4" clip-path="url(#clip0_1551_137387)">
<path d="M528.152 538.975C528.152 535.305 529.375 531.634 531.209 528.575C533.043 525.516 535.488 522.457 539.156 520.622C542.823 518.787 545.88 517.563 550.159 517.563C553.826 517.563 557.494 518.787 560.551 520.622C563.607 522.457 566.664 524.905 568.497 528.575C570.331 532.246 571.554 535.305 571.554 539.587C571.554 543.258 570.331 546.928 568.497 549.987C566.664 553.046 564.218 556.105 560.551 557.941C557.494 559.776 553.826 560.999 549.547 560.999C545.88 560.999 542.212 559.776 538.544 557.941C535.488 556.105 532.431 553.046 530.597 549.987C529.375 546.317 528.152 543.258 528.152 538.975ZM531.209 538.975C531.209 542.034 531.82 545.093 533.654 548.152C535.488 551.211 537.322 553.046 540.378 554.882C543.435 556.717 546.491 557.329 549.547 557.329C552.604 557.329 555.66 556.717 558.717 554.882C561.773 553.046 563.607 551.211 565.441 548.152C567.275 545.093 567.886 542.034 567.886 538.975C567.886 535.917 567.275 532.858 565.441 529.799C563.607 526.74 561.773 524.905 558.717 523.069C555.66 521.234 552.604 520.622 549.547 520.622C546.491 520.622 543.435 521.234 540.378 523.069C537.322 524.905 535.488 526.74 533.654 529.799C531.82 532.858 531.209 535.917 531.209 538.975ZM558.717 534.081C558.717 535.305 558.105 537.14 557.494 538.364C556.883 539.587 555.66 540.199 553.826 540.811L560.551 551.823H555.66L549.547 542.034H545.88V551.823H541.601V526.74H548.936C551.993 526.74 554.438 527.352 555.66 528.575C557.494 529.799 558.717 531.634 558.717 534.081ZM545.88 538.364H548.936C550.159 538.364 551.381 537.752 552.604 537.14C553.826 536.528 553.826 535.305 553.826 534.081C553.826 532.858 553.215 531.634 552.604 531.022C551.993 530.411 550.77 529.799 548.936 529.799H545.88V538.364ZM488.418 344.43C488.418 274.075 430.958 216.568 360.659 216.568C290.361 216.568 232.9 274.075 232.9 344.43V559.776H284.248V344.43C284.248 302.217 318.48 267.958 360.659 267.958C402.838 267.958 437.07 302.217 437.07 344.43V559.776H488.418V344.43ZM156.489 233.698H105.141V560.388H156.489V233.698Z" fill="#EBEBEB"/>
<path d="M550.16 206.169L287.306 56.2836L23.8402 206.169L0 163.345L287.306 0L574 163.345L550.16 206.169Z" fill="#EBEBEB"/>
</g>
<defs>
<clipPath id="clip0_1551_137387">
<rect width="574" height="561" fill="white"/>
</clipPath>
</defs>
</svg>
