<svg width="137" height="133" viewBox="0 0 137 133" fill="none" xmlns="http://www.w3.org/2000/svg">
<g clip-path="url(#clip0_1145_118357)">
<path d="M125.637 127.779C125.637 126.909 125.927 126.038 126.362 125.313C126.796 124.588 127.375 123.863 128.244 123.428C129.113 122.993 129.838 122.703 130.851 122.703C131.72 122.703 132.589 122.993 133.314 123.428C134.038 123.863 134.762 124.443 135.196 125.313C135.631 126.184 135.921 126.909 135.921 127.924C135.921 128.794 135.631 129.664 135.196 130.39C134.762 131.115 134.183 131.84 133.314 132.275C132.589 132.71 131.72 133 130.707 133C129.838 133 128.969 132.71 128.1 132.275C127.375 131.84 126.651 131.115 126.217 130.39C125.927 129.519 125.637 128.794 125.637 127.779ZM126.362 127.779C126.362 128.504 126.506 129.229 126.941 129.954C127.375 130.68 127.81 131.115 128.534 131.55C129.258 131.985 129.982 132.13 130.707 132.13C131.431 132.13 132.155 131.985 132.879 131.55C133.603 131.115 134.038 130.68 134.472 129.954C134.907 129.229 135.052 128.504 135.052 127.779C135.052 127.054 134.907 126.329 134.472 125.603C134.038 124.878 133.603 124.443 132.879 124.008C132.155 123.573 131.431 123.428 130.707 123.428C129.982 123.428 129.258 123.573 128.534 124.008C127.81 124.443 127.375 124.878 126.941 125.603C126.506 126.329 126.362 127.054 126.362 127.779ZM132.879 126.619C132.879 126.909 132.734 127.344 132.589 127.634C132.445 127.924 132.155 128.069 131.72 128.214L133.314 130.825H132.155L130.707 128.504H129.838V130.825H128.824V124.878H130.562C131.286 124.878 131.865 125.023 132.155 125.313C132.589 125.603 132.879 126.038 132.879 126.619ZM129.838 127.634H130.562C130.851 127.634 131.141 127.489 131.431 127.344C131.72 127.199 131.72 126.909 131.72 126.619C131.72 126.329 131.576 126.038 131.431 125.893C131.286 125.748 130.996 125.603 130.562 125.603H129.838V127.634ZM116.223 81.6567C116.223 64.9773 102.609 51.3438 85.9526 51.3438C69.2966 51.3438 55.6821 64.9773 55.6821 81.6567V132.71H67.8483V81.6567C67.8483 71.6491 75.959 63.527 85.9526 63.527C95.9463 63.527 104.057 71.6491 104.057 81.6567V132.71H116.223V81.6567ZM37.5777 55.4048H25.4116V132.855H37.5777V55.4048Z" fill="#17171A"/>
<path d="M130.851 48.8779L68.5724 13.3435L6.14855 48.8779L0.5 38.7252L68.5724 0L136.5 38.7252L130.851 48.8779Z" fill="#F4B54A"/>
</g>
<defs>
<clipPath id="clip0_1145_118357">
<rect width="136" height="133" fill="white" transform="translate(0.5)"/>
</clipPath>
</defs>
</svg>
