<svg width="142" height="58" viewBox="0 0 142 58" fill="none" xmlns="http://www.w3.org/2000/svg">
<g clip-path="url(#clip0_1203_86968)">
<path d="M137.177 53.2764C137.177 52.9176 137.297 52.5589 137.476 52.2599C137.656 51.9609 137.896 51.6619 138.255 51.4826C138.615 51.3032 138.914 51.1836 139.334 51.1836C139.693 51.1836 140.053 51.3032 140.352 51.4826C140.652 51.6619 140.951 51.9011 141.131 52.2599C141.311 52.6186 141.431 52.9176 141.431 53.3362C141.431 53.6949 141.311 54.0537 141.131 54.3527C140.951 54.6516 140.712 54.9506 140.352 55.13C140.053 55.3094 139.693 55.429 139.274 55.429C138.914 55.429 138.555 55.3094 138.195 55.13C137.896 54.9506 137.596 54.6516 137.416 54.3527C137.297 53.9939 137.177 53.6949 137.177 53.2764ZM137.476 53.2764C137.476 53.5753 137.536 53.8743 137.716 54.1733C137.896 54.4723 138.075 54.6516 138.375 54.831C138.675 55.0104 138.974 55.0702 139.274 55.0702C139.573 55.0702 139.873 55.0104 140.173 54.831C140.472 54.6516 140.652 54.4723 140.832 54.1733C141.011 53.8743 141.071 53.5753 141.071 53.2764C141.071 52.9774 141.011 52.6784 140.832 52.3795C140.652 52.0805 140.472 51.9011 140.173 51.7217C139.873 51.5424 139.573 51.4826 139.274 51.4826C138.974 51.4826 138.675 51.5424 138.375 51.7217C138.075 51.9011 137.896 52.0805 137.716 52.3795C137.536 52.6784 137.476 52.9774 137.476 53.2764ZM140.173 52.798C140.173 52.9176 140.113 53.097 140.053 53.2166C139.993 53.3362 139.873 53.396 139.693 53.4558L140.352 54.532H139.873L139.274 53.5753H138.914V54.532H138.495V52.0805H139.214C139.513 52.0805 139.753 52.1403 139.873 52.2599C140.053 52.3795 140.173 52.5589 140.173 52.798ZM138.914 53.2166H139.214C139.334 53.2166 139.454 53.1568 139.573 53.097C139.693 53.0372 139.693 52.9176 139.693 52.798C139.693 52.6784 139.633 52.5589 139.573 52.4991C139.513 52.4393 139.394 52.3795 139.214 52.3795H138.914V53.2166Z" fill="#17171A"/>
<path d="M36.6384 45.2623V23.4974H31.6055V45.2623C31.6055 49.0294 28.5498 52.019 24.8351 52.019C21.0604 52.019 18.0646 48.9696 18.0646 45.2623V23.4974H13.0317V45.2623C13.0317 51.7799 18.3043 57.0417 24.8351 57.0417C31.3659 57.0417 36.6384 51.7201 36.6384 45.2623ZM74.6251 21.8232C70.5508 21.8232 66.896 23.7964 64.6192 26.8459C62.3424 23.7964 58.6874 21.8232 54.6131 21.8232C47.7228 21.8232 42.0908 27.4438 42.0908 34.3201V55.3675H47.0638V34.3201C47.0638 30.1943 50.419 26.8459 54.5532 26.8459C58.6874 26.8459 62.0428 30.1943 62.0428 34.3201V55.3675H67.0757V34.3201C67.0757 30.1943 70.431 26.8459 74.5651 26.8459C78.6993 26.8459 82.0546 30.1943 82.0546 34.3201V55.3675H87.0875V34.3201C87.1474 27.4438 81.5154 21.8232 74.6251 21.8232ZM133.282 34.2603C133.282 27.384 127.65 21.7634 120.76 21.7634C113.87 21.7634 108.238 27.384 108.238 34.2603V55.3077H113.271V34.2603C113.271 30.1345 116.626 26.7861 120.76 26.7861C124.894 26.7861 128.25 30.1345 128.25 34.2603V55.3077H133.282V34.2603ZM100.748 23.4376H95.7154V55.3675H100.748V23.4376ZM5.3625 7.47266H0.32959V55.3675H5.3625V7.47266Z" fill="#17171A"/>
<path d="M139.334 20.7482L113.57 6.09869L87.7464 20.7482L85.4097 16.5626L113.57 0.597656L141.67 16.5626L139.334 20.7482Z" fill="#F4B54A"/>
</g>
<defs>
<clipPath id="clip0_1203_86968">
<rect width="142" height="58" fill="white"/>
</clipPath>
</defs>
</svg>
