<svg width="20" height="13" viewBox="0 0 20 13" fill="none" xmlns="http://www.w3.org/2000/svg">
<path d="M9.05559 7.52449C9.21772 7.68067 9.48905 7.77977 9.77893 7.77941C10.0684 7.78154 10.3405 7.6789 10.4947 7.53081L17.6458 0.813474C18.1242 0.364249 17.9617 0 17.2827 0H2.32618C1.64749 0 1.48384 0.365313 1.96036 0.815897L9.05559 7.52449Z" fill="#1967D2"/>
<path d="M0.859384 11.1161L5.72682 6.47268L0.863501 1.87407C0.386593 1.42342 0 1.57151 0 2.20481V10.7895C0 11.4225 0.384693 11.5688 0.859384 11.1161Z" fill="#1967D2"/>
<path d="M2.31981 12.9996H17.167C17.8458 12.9996 18.0117 12.6322 17.5374 12.1794L12.6949 7.55298L11.6149 8.56921C11.1085 9.04207 10.435 9.25291 9.7775 9.25398C9.12218 9.25327 8.44387 9.04136 7.93105 8.56182L6.83321 7.52344L1.95063 12.1802C1.47594 12.6325 1.64112 12.9996 2.31981 12.9996Z" fill="#1967D2"/>
<path d="M19.4971 10.7899V2.31908C19.4971 1.68584 19.1094 1.53668 18.631 1.98585L13.8164 6.50758L18.6389 11.1161C19.1127 11.5692 19.4971 11.4232 19.4971 10.7899Z" fill="#1967D2"/>
</svg>
