<svg width="964" height="629" viewBox="0 0 964 629" fill="none" xmlns="http://www.w3.org/2000/svg">
<g clip-path="url(#clip0_1292_155272)">
<path d="M117.32 82.3194L87.0056 84.0295L78.8932 79.113L56.6908 77.6167L59.8931 69.7075L54.9829 60.0881L47.084 51.9651V44.0001L49 36.0001L47.084 34.0001L49 27.0001L52 24.0001L54.5 21.5001L53 20.5001L50 22.5001L49 21.5001L51.5 17.0001L53.5 15.0001L55.5 15.5001L54.9829 12.0001V5.57866L57.5 4.50012L58 6.00012L59.8931 8.00012H62L63.5 7.00012L65 8.00012V9.00012L66 11.0001L66.5 9.50012H69L70 11.0001L71 10.5001L72 12.5001L75 12.0001L75.6909 13.4879L73.5 17.5001L72.5 22.5001L70.5 23.5001L69.5 28.5001L67.792 31.2302L68 33.5001L70 34.5001V36.5001L72 38.0001L74.1965 42.3458L76.5 42.0001L78 38.5001L81.5 33.5001L83.5 33.0001L87.5 27.0001L91.7023 26.3136L90.5 20.5001L92.5 16.0001L90.5 15.0001L91.7023 11.0001L93.4102 9.50012L91.7023 5.57866L93.4102 0.662109L169.838 19.9007L157.242 88.7323L117.32 82.3194Z" fill="white" stroke="#616163" stroke-miterlimit="10" stroke-linecap="square"/>
<path d="M8.87109 146.448L11.8599 135.332L14.001 126L19.501 118.5H18.001V116.5L23.001 114.5H21.001V113L23.001 111.5L27.001 98.9999L33.501 91.9999V88.7321L37.001 85.4999L35.501 84.9999V84.0293L40.001 79.4999V75.9999H42.501L43.001 74.9999L41.001 73.9999L43.501 70.4999L45.501 68.4999V66.4999L47.0848 64.9999V61.5842L51.7815 60.0879L56.6916 69.7072L54.9838 77.6164L78.894 79.1128L87.0065 84.0293L115.613 82.3192L157.243 88.7321L163.647 104.764L145.928 124.003L150.838 135.332L145.928 138.539L138.029 177.016L75.6918 162.48L8.87109 146.448Z" fill="#F4F0EA" stroke="#616163" stroke-miterlimit="10" stroke-linecap="square"/>
<path d="M59.8931 233.021L147.635 338.62V351.446L154.04 357.859L147.635 364.271L141.231 385.22L144.006 393.129L136.5 392.499L134 394.999H130L125 393.129L122.5 391.633H118.5L116.5 393.129L110.5 391.633L106 393.129L98.1068 391.633V385.999L96 380.999L97 377.999L95.5 376.499V373.999L94 374.999L93.5 377.499L91.5 376.499V371.499L92.5 367.999L90.2079 365.999V359.569L83.5 354.999L80.5 349.999L79.5 351.446H78L75.6909 348.239L71 345.499L67 344.999V346.499L65 346.999L64 345.499L60.5 343.999L59.5 344.999L58 343.999L54.9829 340.33L51.5 335.999L48.5 334.499L47.084 329.001L42 327.999L39 325.999L35.9828 327.504L29 316.999L28.5 311.499L26.5 309.999L24 305.499L25.5 303.999V301.999L24 300.499L21.4658 299.499L21 295.499L22.5 293.999V291.999L21 290.999V292.999L19.9714 293.999L17.5 290.999L18.5 288.499L18 285.499L15.0613 282.614L21.4658 274.705L17.5 270.999L16 266.499V264.499L13.5669 263.375V255.466L19.9714 250.55L17.5 246.499L18 244.137L15.0613 242.64L10.3646 244.137L8.87024 238.499L9.5 236.999L8 236.499L6.5 234.999L7.16235 231.311L5 226.499V222.999L4.5 224.499L2.4657 222.999L3 220.195H0.757812V213.499L3 210.499H1.5L0.757812 208.499L1.5 206.999L0 203.999L2.4657 192.834L0.757812 181.718L2.4657 173.499L0.757812 168.999L3 165.499L5 164.499L6 161.499H5L4.5 158.999L6 158.499L7.16235 156.499H5.5L4.5 155.499L6 152.499V149.999L8.87024 146.447L75.6909 162.479L59.8931 233.021Z" fill="#F4F0EA" stroke="#616163" stroke-miterlimit="10" stroke-linecap="square"/>
<path d="M138.028 177.016L184.354 184.926L165.14 296.937L163.646 321.092H157.242L147.635 338.621L59.8926 233.022L75.6904 162.48L138.028 177.016Z" fill="white" stroke="#616163" stroke-miterlimit="10" stroke-linecap="square"/>
<path d="M169.837 19.9004H184.353L181.151 40.8491L184.353 61.5841L200.151 82.3191L195.455 100.061L192.252 104.764L193.96 109.681L200.151 107.971L211.466 136.829L219.365 135.332L235.376 136.829L236.871 135.332L238.579 136.829L232.174 192.834L184.353 184.925L138.027 177.016L145.926 138.539L150.836 135.332L145.926 124.003L163.646 104.764L157.241 88.732L169.837 19.9004Z" fill="white" stroke="#616163" stroke-miterlimit="10" stroke-linecap="square"/>
<path d="M184.354 184.926L232.175 192.835L228.973 216.99L263.984 223.403L249.681 309.763L165.141 296.937L184.354 184.926Z" fill="#F4F0EA" stroke="#616163" stroke-miterlimit="10" stroke-linecap="square"/>
<path d="M147.635 338.621L157.242 321.093H163.646L165.141 296.938L249.681 309.763L235.377 444.434L218.5 442L213 438.5L203.355 439.517L195.5 436L189 437L181.5 431L175 424L177.5 420L173.5 422L171.5 423.5L161 416L157 417.5L153 412L147.635 405.956L151.5 403L152.332 398.047L147 396L144.433 393.131L141.23 385.222L147.635 364.273L154.04 357.86L147.635 351.447V338.621Z" fill="#F4F0EA" stroke="#616163" stroke-miterlimit="10" stroke-linecap="square"/>
<path d="M184.355 21.6113L367.738 48.7592L363.041 120.797L359.839 138.539L241.782 127.21L238.58 136.829L236.872 135.333L235.378 136.829L219.366 135.333L211.467 136.829L200.153 107.971L193.961 109.682L192.254 104.765L195.456 100.062L200.153 82.3199L184.355 61.5849L181.152 40.85L184.355 21.6113Z" fill="white" stroke="#616163" stroke-miterlimit="10" stroke-linecap="square"/>
<path d="M359.839 138.538V181.718L354.929 231.311L263.984 223.402L228.973 216.989L232.175 192.834L238.579 136.828L241.782 127.209L359.839 138.538Z" fill="white" stroke="#616163" stroke-miterlimit="10" stroke-linecap="square"/>
<path d="M263.985 223.402L354.93 231.312L386.952 233.022V258.673L385.244 321.092L367.739 319.382L249.682 309.762L263.985 223.402Z" fill="#F4F0EA" stroke="#616163" stroke-miterlimit="10" stroke-linecap="square"/>
<path d="M249.68 309.764L367.737 319.383V329.002L361.333 442.724L331.416 441.113L301.499 439.501L295.999 436.001L269.499 438.021L264.499 436.001L257.579 438.021L252.883 444.434H235.377L249.68 309.764Z" fill="white" stroke="#616163" stroke-miterlimit="10" stroke-linecap="square"/>
<path d="M367.738 48.7578L471.491 51.9643L476.188 61.5836V69.7066L481.098 84.0286V93.648L482.592 101.557V120.796H363.041L367.738 48.7578Z" fill="white" stroke="#616163" stroke-miterlimit="10" stroke-linecap="square"/>
<path d="M363.042 120.797H482.594L484.301 127.21L482.594 135.333L487.504 136.829V175.306L488.998 184.926L484.301 189.628L490.706 197.751L482.594 192.835L469.998 189.628H463.593L452.279 184.926L359.84 181.719V138.539L363.042 120.797Z" fill="white" stroke="#616163" stroke-miterlimit="10" stroke-linecap="square"/>
<path d="M386.952 233.022L354.93 231.312L359.84 181.719L452.279 184.925L463.593 189.628H469.998L482.593 192.834L490.706 197.751L495.403 213.783L501.807 228.105V236.228L505.009 244.137V250.55L513.762 258.46L386.952 258.673V233.022Z" fill="white" stroke="#616163" stroke-miterlimit="10" stroke-linecap="square"/>
<path d="M386.952 258.674L513.548 258.246L519.313 263.376L514.616 266.583L525.717 277.912V321.092H385.244L386.952 258.674Z" fill="white" stroke="#616163" stroke-miterlimit="10" stroke-linecap="square"/>
<path d="M385.244 321.093H525.717L527.425 337.125L530.627 356.364L532.121 383.512L530.627 405.957L532.121 410.659L519.312 404.247H509.706L497.11 410.659L495.402 404.247L484.301 402.75L481.099 409.163L469.997 396.337L460.391 398.048L458.683 394.841L436.48 389.924L423.671 382.015L420.469 378.809L421.963 335.415L367.738 329.002V319.383L385.244 321.093Z" fill="white" stroke="#616163" stroke-miterlimit="10" stroke-linecap="square"/>
<path d="M367.737 329.002L421.962 335.415L420.468 378.809L423.67 382.015L436.479 389.924L458.682 394.841L460.39 398.047L469.996 396.337L481.098 409.163L484.3 402.75L495.401 404.246L497.109 410.659L509.705 404.246H519.311L532.121 410.659H538.525V421.989L543.222 442.724L548.132 452.343L551.334 465.169L544.93 492.53L540 493.5L536.5 497.233L530.5 498H527L525.716 495.737L522.5 497.233L521.5 502L521.019 508.563L516.5 511.5L511.5 510.059L508.5 508.563L505.008 510.059L499.5 516L492 520.5H490L487 526L481.5 528L477.895 534L477.5 541.5L479 545.5L477.895 553.5L474.5 559.5L477 561.5L476.188 570.981L482.592 587.013H474.5L464.5 581.5L457 583.5L452.5 581.5L451 576.5L450.5 578.891L448 579.5L446 577L441.176 578.891L439 575L439 571.5L433.277 564.568L436.5 562L437 557.5L433.277 555.5L435 550.5L433.277 546.826L431.5 541L425 537.5L420.5 536L418.5 534L417.5 530.5H420.5L417.5 526L417.5 528L415 527L414 522L414 519.5L409 515L408 508.563L402.5 502.5L401 495.737L394.85 489.324L387 490L376 487L369.445 489.324L365.5 495.5L360 500.5L358.131 508.563L351 502L342 498L339 494.5L340 493.5L334.22 490.82L333.5 479.5L332.726 476.5L334.22 473.5L332.726 468.375L328.5 467L324.5 468.375L320 465L319 467L315.22 463.672L311.5 457L311.5 451.5L305.5 447.5L300.703 439.517L361.333 442.724L367.737 329.002Z" fill="white" stroke="#616163" stroke-miterlimit="10" stroke-linecap="square"/>
<path d="M551.335 101.558V116.094L543.223 124.003L548.133 127.21L544.931 143.242L559.234 157.778L568.841 162.481L572.043 170.604L487.504 175.306V136.829L482.593 135.333L484.301 127.21L482.593 120.797V101.558L481.099 93.649V88.7324V84.0297L476.189 69.7076V61.5846L471.492 51.9653L505.009 48.7588L509.706 40.8496L511.001 41.5002L510.501 45.0002L511.501 43.0002L512.501 44.0002L514.001 45.5002L513.501 47.5002L514.616 48.7588L514.616 55.1717L538.526 60.0882L540.001 63.0002L543.223 63.5002L548.133 69.7076L557.501 67.0002L567.133 66.5011L570.336 69.7076H584.853L554.538 100.062L551.335 101.558Z" fill="white" stroke="#616163" stroke-miterlimit="10" stroke-linecap="square"/>
<path d="M579.942 189.628H584.852L586.346 194.545L589.549 200.958L592.751 205.661L586.346 220.196L579.942 228.106L578.875 230.671L575.245 239.435L573.537 250.551L568.841 244.138L505.009 250.551V244.138L501.807 236.229V228.106L495.402 213.784L490.705 197.751L484.301 189.628L488.997 184.926L487.503 175.306L572.043 170.604L578.448 175.306L575.245 181.719L579.942 189.628Z" fill="white" stroke="#616163" stroke-miterlimit="10" stroke-linecap="square"/>
<path d="M602.359 329.002L527.426 337.125L525.718 321.093V277.913L514.617 266.584L519.313 263.377L505.01 250.552L568.842 244.139L573.538 250.552L575.246 258.675L589.55 277.913H595.954H599.157L597.449 289.029L607.055 296.938L615.168 301.855L611.966 309.764L615.168 316.177H621.572L623.067 312.97L626.269 321.093L621.572 327.506L611.966 340.332L602.359 338.622L607.055 335.415L602.359 329.002Z" fill="white" stroke="#616163" stroke-miterlimit="10" stroke-linecap="square"/>
<path d="M602.359 338.621L611.966 340.331L608.763 357.86V365.983L602.359 375.602L595.527 387.573L591.258 398.047L592.752 410.659L591.258 417.072L538.527 421.989V410.659H532.122L530.628 405.956L532.122 383.511L530.628 356.364L527.426 337.125L602.359 329.002L607.056 335.415L602.359 338.621Z" fill="white" stroke="#616163" stroke-miterlimit="10" stroke-linecap="square"/>
<path d="M591.256 417.072L597.447 433.104L589.548 447.64L586.346 460.466L623.065 458.756V466.879L629.47 473.292L623.065 474.788L619.5 473.292L616.661 474.788L615.166 476.498L619 479.001L619.5 482.001L626.268 486.001H629.47L631 485.501L632.5 487.614L634 492.53L641 495.737L639.5 497.001H636.5V499.501L634.5 498.943L631.5 496.501L626.268 492.53L623.065 498.943L618 500.501L616.661 498.943H614.5L613 500.501L609.5 498.943L606.5 500.501L602.357 498.943V495.737L599.155 490.82L592.75 492.53L586.346 487.614L579.941 489.324V494.027L572.5 492.53L566.5 493.501L563 495.001L560 493.501L556.5 495.001L555 494.027L551.334 492.53L548.132 494.027L544.93 492.53L551.334 465.169L548.132 452.343L543.222 442.724L538.525 421.989L591.256 417.072Z" fill="white" stroke="#616163" stroke-miterlimit="10" stroke-linecap="square"/>
<path d="M562.436 103.268L578.448 96.8555L576.74 104.765H581.65L602.5 111L616.661 116.094L623.066 119.301V127.21L629.47 130.416V148.158L632.5 142.5L635 140.5L636 137L639.077 135.333L639.5 138L639.077 141L638 143V145L637.5 146.5H636.5L636 147.5L636.5 148.5V150.5L635 152.5L633.5 152L634.167 153.5L633 158.5L630.965 162.481L634.167 186.636L586.347 194.545L584.852 189.628H579.942L575.245 181.719L578.448 175.306L572.043 170.604L568.841 162.481L559.234 157.778L544.931 143.242L548.133 127.21L543.223 124.003L551.335 116.094V101.558L554.537 100.062L562.436 103.268Z" fill="white" stroke="#616163" stroke-miterlimit="10" stroke-linecap="square"/>
<path d="M573.537 250.55L575.245 239.434L579.942 228.105L586.346 220.195L592.751 205.66L589.548 200.957L586.346 194.544L634.167 186.635V205.66L640.571 208.866L646.976 266.582L651.886 277.911L640.571 293.944V301.853L632.672 308.266L634.167 309.762L623.066 312.968L621.571 316.175H615.167L611.964 309.762L615.167 301.853L607.054 296.936L597.447 289.027L599.155 277.911H595.953H589.548L575.245 258.673L573.537 250.55Z" fill="white" stroke="#616163" stroke-miterlimit="10" stroke-linecap="square"/>
<path d="M608.762 365.983L646.975 359.57L651.885 362.777V436.311L656.582 468.375L651 469.501L646.5 467.501L645.5 468.375L647.5 470.086L645 471.501L640.571 470.086L635 471.501L631.5 470.501L629.47 473.292L623.065 466.879V458.756L586.346 460.466L589.548 447.64L597.447 433.105L591.256 417.072L592.75 410.66L591.256 398.048L595.953 386.718L602.357 375.603L608.762 365.983Z" fill="white" stroke="#616163" stroke-miterlimit="10" stroke-linecap="square"/>
<path d="M611.965 98.3511L626.268 93.6484V100.061L645.482 104.764L650.179 96.8548L669.392 91.9383L686.898 96.8548L691.595 103.268L682.201 107.97L670.887 104.764L643.774 116.093L629.471 130.416L623.066 127.209V119.3L616.662 116.093L602.358 111.177L583.145 104.764L589.001 100.061L593.501 98.3512V96.8548L595.501 95.4996L596.501 96.8548L600.001 93.6484L603.501 91.9383L606.501 87.9996L611.965 85.5254L613.001 91.9383L611.965 98.3511Z" fill="white" stroke="#616163" stroke-miterlimit="10" stroke-linecap="square"/>
<path d="M688.605 116.094L704.403 119.3L710.807 135.332L707.605 143.242L704.403 146.448V151.365L718.92 143.242L728.313 159.274L717.212 194.545L694.796 200.958L656.582 205.66L662.987 200.958L666.189 177.016L656.582 159.274L658.29 138.539L664.481 128.92L669.391 135.332L674.088 122.507L688.605 116.094Z" fill="white" stroke="#616163" stroke-miterlimit="10" stroke-linecap="square"/>
<path d="M656.584 205.66L694.797 200.957L704.404 263.376V266.582L693.303 271.499L687.112 282.401H677.505L674.089 290.737L662.988 293.944L656.584 290.737L640.572 293.944L651.887 277.912L646.977 266.582L640.572 208.866L651.887 212.073L656.584 205.66Z" fill="white" stroke="#616163" stroke-miterlimit="10" stroke-linecap="square"/>
<path d="M626.267 321.093L623.065 312.97L634.166 309.763L632.671 308.267L640.57 301.854V293.945L656.582 290.738L662.986 293.945L674.088 290.738L677.503 282.401H687.11L693.301 271.5L704.402 266.583V263.377L710.807 258.674L725.11 266.583L737.919 263.377L742.83 266.583L746.032 277.912L749.234 285.822L758.627 289.028L731.515 312.97L621.57 327.505L626.267 321.093Z" fill="white" stroke="#616163" stroke-miterlimit="10" stroke-linecap="square"/>
<path d="M611.964 340.331L621.571 327.506L731.515 312.97L766.74 305.061L760.336 319.383H753.931L730.021 338.621L725.111 348.241L704.83 351.447L646.975 359.57L608.762 365.983V357.86L611.964 340.331Z" fill="white" stroke="#616163" stroke-miterlimit="10" stroke-linecap="square"/>
<path d="M718.921 404.247L725.112 417.072L718.921 428.402L721.91 447.64L669.392 452.343L674.089 458.756L677.291 461.963L674.56 466.501L669.501 468.001L669.392 463.501L668.001 468.375L666.19 471.582L664.482 470.001L665.501 466.501L664.001 463.001L664.482 458.756L660.001 460.501L656.583 468.375L651.887 436.311V362.777L646.977 359.57L704.404 351.447L718.921 404.247Z" fill="white" stroke="#616163" stroke-miterlimit="10" stroke-linecap="square"/>
<path d="M668 452.116L720.517 447.413L723.719 450.619L776.45 452.116L778.158 441H787.551L790 448.5L796 459.5L798 465L800.5 468.5L801.5 469L803 473L804.5 478.5L807 483L810.5 486.5L811.5 489.5L814.5 495H818.5L824.271 503.419L827 505.5L828 507.5L826.5 508L828 512L832.383 516.244L834.5 523.5L835 526L834 526.5V528.5L835.585 530.5L834.5 535L835.585 537L836 540.5L835 545L832.383 548.309L830 550L830.5 553.5L828.5 555.5L829.5 558.5L827.473 559.425L825 559.425L817.866 562.631L814.5 556.5L816.5 555L811.675 549.805L808 549.805L804.5 547.5L803 549.805L800.36 548.309V544.5L798.5 542.5L796.5 530.5L797.5 529.5L793.956 522.657H787.551L781.147 514.534V505.129L774.956 503.419L774 501.5L776.45 498V490.593L771.753 477.767L768.607 475.273L765.607 475.273L762.107 470.773L760.107 470.773L758.944 468.148L748.107 461.735L747.107 462.773L745.607 462.273L744.641 458.529L736.607 462.773L735.607 465.773L732.607 467.273L729.607 467.273L728.607 469.773L725.107 471.273L722.225 474.561L720.107 472.273L716.107 470.773L713.107 470.773L712.607 469.773L714.607 468.148L711.607 466.652L711.124 463.445L705.607 462.273L704.607 464.773L703.107 462.773V460.239L699.809 460.239L696.107 461.735L693.607 465.273L691.107 465.273L690.202 466.652L685.607 465.773L685.107 463.445L680.107 463.773L675.899 461.735L672.697 458.529L668 452.116Z" fill="white" stroke="#616163" stroke-miterlimit="10" stroke-linecap="square"/>
<path d="M717.213 194.545L728.314 197.751L730.022 200.957L752.224 192.834L753.932 184.925L765.033 181.719L768.236 208.867V239.435L760.337 247.344L749.235 263.376L742.831 266.583L737.921 263.376L725.112 266.583L710.808 258.673L704.404 263.376L694.797 200.957L717.213 194.545Z" fill="white" stroke="#616163" stroke-miterlimit="10" stroke-linecap="square"/>
<path d="M704.402 351.446L725.11 348.24L747.526 343.537L746.032 356.363L755.425 357.859L758.627 365.982L766.74 375.602L776.347 385.221L784.246 393.13V398.047L790.65 401.253V405.956L796.201 409.59L797.055 405.956L795.499 416.5L791.999 418.5L793.999 420.5L794.499 423.5L792.499 424L789.499 426V427.5L791.499 429V433.5L788.942 436V441.227H779.549L777.841 452.342L725.11 450.846L721.908 447.639L718.919 428.401L725.11 417.071L718.919 404.246L704.402 351.446Z" fill="white" stroke="#616163" stroke-miterlimit="10" stroke-linecap="square"/>
<path d="M797.056 405.956L796.202 409.59L790.651 405.956V401.253L784.247 398.047V393.13L776.348 385.221L766.741 375.601L758.629 365.982L755.426 357.859L747.527 356.577L746.033 356.363L747.527 343.537H753.932L755.426 340.331L784.247 335.414V338.621L790.651 340.331L813.067 338.621L833.775 354.653L830 366.5L823.5 377.5L821.5 383L819.5 384.5L818 383L816.5 382.5L815.5 388.5L813.5 389L813 387.5L811.5 390L813.5 391L809.865 394.84L803 395.5L804 393.13H802.5L800.5 396L798.55 398.047L797.056 405.956Z" fill="white" stroke="#616163" stroke-miterlimit="10" stroke-linecap="square"/>
<path d="M873.697 282.615L876 284V286.5L878 289L877.5 291L879.888 293.945L878 295L877.5 297.5L874.5 299H872.5L871.989 301.854L876 301L877.5 301.854L882.5 302.5L883.5 301L888 301.854L887 304L889.5 305.5L889 307L885.5 307.5L884 309L882 310H879.888V312.969L876.5 315L873.5 314.5L874 312.5L871.989 312.969L871 314.5L868.226 312.969L866.5 311.5L862.382 312.969L863.5 314.5L863 316.5L864 318L865 317L868.787 319.382L873.697 321.093L868.787 325.5H865L861.5 326.5V328L859.18 329.002L860.5 331.5V334.5L858 336L855.5 341L856.5 342L855 345.5L853 347L851.5 345L851.281 348.24L849 350.5L847.5 348.24L844 351L842 354.653H838.5V352.5H835.5L833.775 354.653L813.067 338.621L790.651 340.331L784.247 338.621V335.415L755.426 340.331L753.932 343.538H747.527L725.111 348.24L730.022 338.621L753.932 319.382H760.336L766.741 305.06L873.697 282.615Z" fill="white" stroke="#616163" stroke-miterlimit="10" stroke-linecap="square"/>
<path d="M731.516 312.969L758.628 289.027L766.741 293.944L790.651 282.614L788.943 277.912L795.348 263.376L803.46 250.55H804.954L816.056 236.228L825.662 239.434L828.865 233.021L843.382 242.641L840.179 250.55L864.09 258.673L868.786 274.705H866L862.5 273.5L861 272L857.5 272.5L855 271L852 271.5L853 273.5L859 274L861 277L864.09 277.912L867 278.275V280H868.5L869.5 278.275L871.989 277.912L873.696 280V282.614L766.741 305.06L731.516 312.969Z" fill="white" stroke="#616163" stroke-miterlimit="10" stroke-linecap="square"/>
<path d="M758.63 289.028L749.237 285.822L747.529 281.119L746.034 277.912L742.832 266.583L749.237 263.377L760.338 247.344L768.237 239.435V208.867L776.349 236.229L792.147 233.022L795.349 247.344L808.158 233.022L827.372 231.312L825.664 239.435L816.057 236.229L804.956 250.551H803.462L795.349 263.377L788.945 277.912L790.653 282.615L766.742 293.945L758.63 289.028Z" fill="white" stroke="#616163" stroke-miterlimit="10" stroke-linecap="square"/>
<path d="M792.145 233.022L862.381 213.783L868.786 220.196V223.403L871.988 247.344H879.887V261.88L868.786 258.673L862.381 247.344L859.179 239.435L857.684 224.899L859.179 220.196L854.482 231.312L857.684 244.138L864.089 255.467L840.179 250.55L843.381 242.641L828.864 233.022L825.662 239.435L827.37 231.312L808.156 233.022L795.347 247.344L792.145 233.022Z" fill="white" stroke="#616163" stroke-miterlimit="10" stroke-linecap="square"/>
<path d="M871.987 223.402L879.886 239.435V247.344H871.987L868.785 223.402H871.987Z" fill="white" stroke="#616163" stroke-miterlimit="10" stroke-linecap="square"/>
<path d="M765.033 181.719L776.348 170.603L777.842 178.513L852.775 162.48H857.686L864.09 165.687V173.81H871.989L864.09 184.926L868.787 192.835L876.686 196.041L868.787 205.661L862.382 213.784L792.146 233.022L776.348 236.229L768.235 208.867L765.033 181.719Z" fill="white" stroke="#616163" stroke-miterlimit="10" stroke-linecap="square"/>
<path d="M785.741 156.068V146.448L797.056 140.035L813.067 143.242L820.966 138.539L833.775 128.92L827.371 116.094H832.067L843.382 98.3517L846.5 96.5002L849.5 96.0002V97.5002L852 98.3517L856 95.5002L860 96.0002L862.5 93.0002L869 91.5002L875.5 92.0002L879.888 88.7324L881.596 117.59L888 122.507L892.697 135.333V149.655L895.899 167.397L892.697 177.016L895.5 175.5L898.5 176L901.5 174L904.012 173.81L906 169.5L908 168.5L910.203 165.687L914.5 167L914 168.5L910.5 169.5L908 172L906 174L904.012 176.5L900.5 177V178L899.5 180L895 182L892.697 184.926L891.5 183.5L893 180L892.697 177.016L873.697 173.81H864.09V165.687L857.685 162.481H852.775L777.842 178.513L776.348 170.604L785.741 156.068Z" fill="white"/>
<path d="M892.697 177.016L895.899 167.397L892.697 149.655V135.333L888 122.507L881.596 117.59L879.888 88.7324L875.5 92.0002L869 91.5002L862.5 93.0002L860 96.0002L856 95.5002L852 98.3517L849.5 97.5002V96.0002L846.5 96.5002L843.382 98.3517L832.067 116.094H827.371L833.775 128.92L820.966 138.539L813.067 143.242L797.056 140.035L785.741 146.448V156.068L776.348 170.604L777.842 178.513L852.775 162.481H857.685L864.09 165.687V173.81H873.697L892.697 177.016ZM892.697 177.016L893 180L891.5 183.5L892.697 184.926L895 182L899.5 180L900.5 178V177L904.012 176.5L906 174L908 172L910.5 169.5L914 168.5L914.5 167L910.203 165.687L908 168.5L906 169.5L904.012 173.81L901.5 174L898.5 176L895.5 175.5L892.697 177.016Z" stroke="#616163" stroke-miterlimit="10" stroke-linecap="square"/>
<path d="M868.787 220.197L862.383 213.784L868.787 205.661L876.686 196.042L868.787 192.835L864.091 184.926L871.99 173.811H873.697L892.698 177.017V178.513V177.017L888.001 189.629L892.698 200.958L884.799 228.106L871.99 223.403L868.787 220.197Z" fill="white" stroke="#616163" stroke-miterlimit="10" stroke-linecap="square"/>
<path d="M879.887 88.7315L882.499 86.9993L887.999 86.4993L894.999 82.4993H898.499L900.808 80.8223V88.7315V98.3508V127.209V135.332H892.696L887.999 122.506L881.595 117.589L879.887 88.7315Z" fill="white" stroke="#616163" stroke-miterlimit="10" stroke-linecap="square"/>
<path d="M892.695 149.656L918.313 146.449L919.808 159.275L895.898 167.398L892.695 149.656Z" fill="white" stroke="#616163" stroke-miterlimit="10" stroke-linecap="square"/>
<path d="M901.113 135.413L926.517 129L929 131V132.5L929.5 134H931L932.5 136L933.5 138V139.5L936.124 140.116L938 139L940 140L940.821 138.619L944.023 135.413L944.5 137L943.5 139.5L945 140.5L946 143.322L943.5 144.5L942.5 145.5L940.821 146.529L939.5 145L935.5 146.5L933.5 145.5L931.427 146.529L925.023 143.322L918.618 146.529L893 149.735V135.413H901.113Z" fill="white" stroke="#616163" stroke-miterlimit="10" stroke-linecap="square"/>
<path d="M931.125 146.449L919.811 159.274L918.316 146.449L924.721 143.242L931.125 146.449Z" fill="white" stroke="#616163" stroke-miterlimit="10" stroke-linecap="square"/>
<path d="M900.809 71.2034L902.5 70.4998L904 71.2034L907 71.4998L910.202 69.707L924.719 112.887L926.213 122L924 123.5H926.213V128.919L900.809 135.332V127.209V98.3512V88.7319V80.8227V71.2034Z" fill="white" stroke="#616163" stroke-miterlimit="10" stroke-linecap="square"/>
<path d="M926.214 13.4877L934.327 10.2812L940.518 11.9914L942 15.4999L941.5 18.9999L942.5 23.107L944.5 24.4999L946.923 29.4999L946 36.9999L947.5 35.4999L950.125 38.9999L951 45.4999L950.125 47.2622H952L956 52.4999L959 52.9999L962.934 56.8815L961.5 60.9999L962.934 61.9999L962.5 66.4999L962.934 69.7073L958.5 71.9999V74.4999L954.5 75.4999L952 74.4999L950.125 74.4999L946.923 77.6165L943.72 84.0294L940 84.9999V87.4999L929.5 96.8551H926.214L927 103L924.72 112.887L910.203 69.7073L911.5 66.4999L911.911 61.9999L914 60.9999L913 57.4999L915.113 55.9999L914.5 49.9999L916 45.4999L915.113 40.4999L916.5 38.9999L915.113 35.4999L914 31.4999L913.5 29.9999L914 27.4999H916L916.5 25.9999L914 26.4999L911.911 23.107L919.81 11.9914L926.214 13.4877Z" fill="white" stroke="#616163" stroke-miterlimit="10" stroke-linecap="square"/>
<path d="M145.455 511.955L148.308 514.334L147.357 584.751L148.783 586.179H150.684L152.586 584.751H155.438V588.082L160.191 592.364L161.142 594.743L164.469 593.791L164.945 591.412L167.321 589.033L168.747 588.082L171.599 590.461V592.364L173.976 593.316L174.927 596.17L177.304 597.122L183.483 606.638L186.335 610.92L195.367 613.775L196.317 619.96L195.367 623.766L193.465 626.621L191.564 623.766L190.613 621.863L187.761 619.96V622.815L189.187 626.145L187.761 628.049L186.335 626.145L183.483 624.718L184.909 628.049H183.483L181.582 622.815L179.205 624.718L178.254 622.815L180.631 620.912L180.156 619.96L179.205 619.008L180.156 613.775H178.254V617.105L177.304 619.008L175.878 611.871L174.927 610.92L176.353 619.008L174.927 618.057L171.599 612.347L169.223 611.871L168.747 608.065L167.321 605.686L165.895 604.735V602.356L168.747 601.404L167.321 600.928L164.945 602.356L160.191 597.122L152.586 593.316C151.825 592.935 152.903 589.668 153.536 588.082L151.635 590.461H148.783L141.177 587.13L136.899 589.033L133.572 586.179L129.769 584.751L126.442 586.179V583.8L128.343 581.421V579.517H125.016L121.213 580.469L120.262 582.848L123.59 583.8L125.016 585.703L122.639 589.985L121.213 589.033L121.688 587.606L120.262 587.13L118.836 588.082L116.935 587.13H115.033L110.28 592.364H105.526L104.576 589.985H107.428L108.379 589.033L105.526 588.082L108.379 583.8L109.329 579.517L112.181 578.566L113.132 580.469L115.984 579.517L115.509 576.663H111.706L107.428 579.042L103.15 586.179H101.724L96.4949 589.033V590.461L98.8717 591.412V594.267L93.1675 599.025L86.0373 602.831L80.3332 604.735L73.6784 606.638L75.5797 607.589L73.6784 610.92L72.7277 609.968C72.0939 609.81 70.3509 609.493 68.4496 609.493C66.5482 609.493 67.6573 610.444 68.4496 610.92L66.5482 613.775V614.25H64.1715L62.7454 612.347L59.8934 610.444L58.4673 612.347H55.1399L51.3371 614.25L49.9111 612.347H47.059L45.1577 615.202L42.7809 614.25V610.444L45.1577 609.493L49.9111 610.444L53.7139 609.493L55.1399 607.589H56.5659L59.8934 605.686H62.2701L64.1715 607.589L66.5482 604.735L71.3016 603.307L74.1537 603.783L75.1044 601.404L78.9072 599.977L81.7592 594.267L84.136 592.364L85.562 587.13L83.6606 589.985L80.8085 590.461L80.3332 588.082L78.9072 589.033L77.9565 592.364H76.5304L75.5797 586.179L74.1537 589.033L73.6784 587.13L72.2523 585.703L69.8756 586.179L66.5482 587.606L64.1715 587.13L66.5482 585.703L67.0235 583.8L66.5482 582.848L67.4989 581.421L69.8756 580.469L68.4496 579.042V575.711L67.9742 574.76L67.0235 575.711H64.1715L60.844 575.235V571.905L58.4673 570.002V568.098L60.844 567.147L62.7454 564.768H59.8934L58.4673 562.865V558.107L64.1715 554.776L65.1222 551.446L68.4496 549.067L70.8263 550.018V552.397L72.2523 552.873L76.5304 550.018L78.9072 551.446L81.7592 550.018L84.136 543.357L83.6606 541.454L78.9072 542.406L74.1537 540.502H69.8756L67.0235 537.172L67.4989 532.414L64.1715 527.656L65.1222 525.753H72.2523L73.6784 527.656V524.801H77.9565L79.8579 525.753L78.9072 529.559L84.136 532.414L86.5127 531.462L83.6606 525.753L85.562 524.325L80.8085 522.422L81.7592 520.995L80.8085 517.664L76.5304 509.576L78.9072 507.673H80.8085L82.7099 508.624H86.5127L89.3648 505.769L90.3154 503.39L93.1675 501.487H96.9703L100.773 499.108L102.199 500.536H105.526L108.379 497.205H110.28L113.607 500.536V503.39L115.984 501.963H118.836L119.312 504.342L120.738 505.769L126.442 506.721L132.146 510.527L133.097 509.1L137.375 511.955L141.177 510.527L145.455 511.955Z" fill="white"/>
<path d="M25.1932 612.347L19.0137 615.678H19.9644L21.8657 617.105L24.6626 615.678H27.5699L30.8973 617.581L34.2247 615.678H38.0275V613.775L35.6508 611.396L32.7987 612.347V613.775L30.8973 615.678L28.9959 612.347H25.1932Z" fill="white"/>
<path d="M48.9604 569.526V565.719L52.7632 566.195L56.2315 568.098L55.6152 572.381H53.7139L48.9604 569.526Z" fill="white"/>
<path d="M30.8973 556.204L31.848 553.825L35.6508 557.631L34.2247 559.058H32.7987L30.8973 556.204Z" fill="white"/>
<path d="M45.1577 536.696L48.0097 533.365L49.4358 536.696L52.3527 539.551L53.7139 543.357H50.8618L48.9604 539.551H45.1577V536.696Z" fill="white"/>
<path d="M81.7592 613.775L85.562 610.444L87.4634 613.775L85.562 615.678L81.7592 613.775Z" fill="white"/>
<path d="M91.2661 608.065V603.307L93.1675 600.928L96.9703 598.549L102.674 592.84L104.1 596.646L103.625 598.549L102.674 600.452L104.1 603.307L94.5936 608.065H91.2661Z" fill="white"/>
<path d="M235.296 567.623L231.018 572.856L235.296 570.953L237.672 569.05V567.623H235.296Z" fill="white"/>
<path d="M242.426 567.623V564.768L245.278 563.34L249.081 562.389L250.982 564.768L250.031 569.05L247.179 570.002L242.426 567.623Z" fill="white"/>
<path d="M267.619 574.76L272.848 572.174L275.7 577.614L279.027 579.517L275.7 581.896H270.947L267.619 577.614V574.76Z" fill="white"/>
<path d="M283.781 584.751L285.207 581.896L289.01 582.848L289.96 581.421C291.07 581.103 293.478 580.469 294.239 580.469C294.999 580.469 296.14 582.055 296.615 582.848L294.239 584.751H283.781Z" fill="white"/>
<path d="M289.01 591.412L287.584 587.13H292.337L294.239 590.461L291.386 592.364L289.01 591.412Z" fill="white"/>
<path d="M294.239 588.082L296.615 584.751L299.467 586.179L303.27 587.13L307.073 589.033V592.364L305.647 594.743L299.467 593.791L294.239 588.082Z" fill="white"/>
<path d="M308.974 599.977L312.302 598.549V599.977L322.284 604.735L325.136 610.444L328.939 613.299L326.562 616.154L322.284 617.581H320.383L318.006 618.533L314.678 623.766L313.252 625.194L309.925 623.766L308.974 621.387L309.925 617.581L308.974 613.299L307.073 610.444L305.647 608.065L308.974 606.638L311.351 603.783L308.974 601.88V599.977Z" fill="white"/>
<path d="M145.455 511.955L148.308 514.334L147.357 584.751L148.783 586.179H150.684L152.586 584.751H155.438V588.082L160.191 592.364L161.142 594.743L164.469 593.791L164.945 591.412L167.321 589.033L168.747 588.082L171.599 590.461V592.364L173.976 593.316L174.927 596.17L177.304 597.122L183.483 606.638L186.335 610.92L195.367 613.775L196.317 619.96L195.367 623.766L193.465 626.621L191.564 623.766L190.613 621.863L187.761 619.96V622.815L189.187 626.145L187.761 628.049L186.335 626.145L183.483 624.718L184.909 628.049H183.483L181.582 622.815L179.205 624.718L178.254 622.815L180.631 620.912L180.156 619.96L179.205 619.008L180.156 613.775H178.254V617.105L177.304 619.008L175.878 611.871L174.927 610.92L176.353 619.008L174.927 618.057L171.599 612.347L169.223 611.871L168.747 608.065L167.321 605.686L165.895 604.735V602.356L168.747 601.404L167.321 600.928L164.945 602.356L160.191 597.122L152.586 593.316C151.825 592.935 152.903 589.668 153.536 588.082L151.635 590.461H148.783L141.177 587.13L136.899 589.033L133.572 586.179L129.769 584.751L126.442 586.179V583.8L128.343 581.421V579.517H125.016L121.213 580.469L120.262 582.848L123.59 583.8L125.016 585.703L122.639 589.985L121.213 589.033L121.688 587.606L120.262 587.13L118.836 588.082L116.935 587.13H115.033L110.28 592.364H105.526L104.576 589.985H107.428L108.379 589.033L105.526 588.082L108.379 583.8L109.329 579.517L112.181 578.566L113.132 580.469L115.984 579.517L115.509 576.663H111.706L107.428 579.042L103.15 586.179H101.724L96.4949 589.033V590.461L98.8717 591.412V594.267L93.1675 599.025L86.0373 602.831L80.3332 604.735L73.6784 606.638L75.5797 607.589L73.6784 610.92L72.7277 609.968C72.0939 609.81 70.3509 609.493 68.4496 609.493C66.5482 609.493 67.6573 610.444 68.4496 610.92L66.5482 613.775V614.25H64.1715L62.7454 612.347L59.8934 610.444L58.4673 612.347H55.1399L51.3371 614.25L49.9111 612.347H47.059L45.1577 615.202L42.7809 614.25V610.444L45.1577 609.493L49.9111 610.444L53.7139 609.493L55.1399 607.589H56.5659L59.8934 605.686H62.2701L64.1715 607.589L66.5482 604.735L71.3016 603.307L74.1537 603.783L75.1044 601.404L78.9072 599.977L81.7592 594.267L84.136 592.364L85.562 587.13L83.6606 589.985L80.8085 590.461L80.3332 588.082L78.9072 589.033L77.9565 592.364H76.5304L75.5797 586.179L74.1537 589.033L73.6784 587.13L72.2523 585.703L69.8756 586.179L66.5482 587.606L64.1715 587.13L66.5482 585.703L67.0235 583.8L66.5482 582.848L67.4989 581.421L69.8756 580.469L68.4496 579.042V575.711L67.9742 574.76L67.0235 575.711H64.1715L60.844 575.235V571.905L58.4673 570.002V568.098L60.844 567.147L62.7454 564.768H59.8934L58.4673 562.865V558.107L64.1715 554.776L65.1222 551.446L68.4496 549.067L70.8263 550.018V552.397L72.2523 552.873L76.5304 550.018L78.9072 551.446L81.7592 550.018L84.136 543.357L83.6606 541.454L78.9072 542.406L74.1537 540.502H69.8756L67.0235 537.172L67.4989 532.414L64.1715 527.656L65.1222 525.753H72.2523L73.6784 527.656V524.801H77.9565L79.8579 525.753L78.9072 529.559L84.136 532.414L86.5127 531.462L83.6606 525.753L85.562 524.325L80.8085 522.422L81.7592 520.995L80.8085 517.664L76.5304 509.576L78.9072 507.673H80.8085L82.7099 508.624H86.5127L89.3648 505.769L90.3154 503.39L93.1675 501.487H96.9703L100.773 499.108L102.199 500.536H105.526L108.379 497.205H110.28L113.607 500.536V503.39L115.984 501.963H118.836L119.312 504.342L120.738 505.769L126.442 506.721L132.146 510.527L133.097 509.1L137.375 511.955L141.177 510.527L145.455 511.955Z" stroke="#616163"/>
<path d="M25.1932 612.347L19.0137 615.678H19.9644L21.8657 617.105L24.6626 615.678H27.5699L30.8973 617.581L34.2247 615.678H38.0275V613.775L35.6508 611.396L32.7987 612.347V613.775L30.8973 615.678L28.9959 612.347H25.1932Z" stroke="#616163"/>
<path d="M48.9604 569.526V565.719L52.7632 566.195L56.2315 568.098L55.6152 572.381H53.7139L48.9604 569.526Z" stroke="#616163"/>
<path d="M30.8973 556.204L31.848 553.825L35.6508 557.631L34.2247 559.058H32.7987L30.8973 556.204Z" stroke="#616163"/>
<path d="M45.1577 536.696L48.0097 533.365L49.4358 536.696L52.3527 539.551L53.7139 543.357H50.8618L48.9604 539.551H45.1577V536.696Z" stroke="#616163"/>
<path d="M81.7592 613.775L85.562 610.444L87.4634 613.775L85.562 615.678L81.7592 613.775Z" stroke="#616163"/>
<path d="M91.2661 608.065V603.307L93.1675 600.928L96.9703 598.549L102.674 592.84L104.1 596.646L103.625 598.549L102.674 600.452L104.1 603.307L94.5936 608.065H91.2661Z" stroke="#616163"/>
<path d="M235.296 567.623L231.018 572.856L235.296 570.953L237.672 569.05V567.623H235.296Z" stroke="#616163"/>
<path d="M242.426 567.623V564.768L245.278 563.34L249.081 562.389L250.982 564.768L250.031 569.05L247.179 570.002L242.426 567.623Z" stroke="#616163"/>
<path d="M267.619 574.76L272.848 572.174L275.7 577.614L279.027 579.517L275.7 581.896H270.947L267.619 577.614V574.76Z" stroke="#616163"/>
<path d="M283.781 584.751L285.207 581.896L289.01 582.848L289.96 581.421C291.07 581.103 293.478 580.469 294.239 580.469C294.999 580.469 296.14 582.055 296.615 582.848L294.239 584.751H283.781Z" stroke="#616163"/>
<path d="M289.01 591.412L287.584 587.13H292.337L294.239 590.461L291.386 592.364L289.01 591.412Z" stroke="#616163"/>
<path d="M294.239 588.082L296.615 584.751L299.467 586.179L303.27 587.13L307.073 589.033V592.364L305.647 594.743L299.467 593.791L294.239 588.082Z" stroke="#616163"/>
<path d="M308.974 599.977L312.302 598.549V599.977L322.284 604.735L325.136 610.444L328.939 613.299L326.562 616.154L322.284 617.581H320.383L318.006 618.533L314.678 623.766L313.252 625.194L309.925 623.766L308.974 621.387L309.925 617.581L308.974 613.299L307.073 610.444L305.647 608.065L308.974 606.638L311.351 603.783L308.974 601.88V599.977Z" stroke="#616163"/>
</g>
<defs>
<clipPath id="clip0_1292_155272">
<rect width="964" height="629" fill="white"/>
</clipPath>
</defs>
</svg>
