<svg width="1032" height="626" viewBox="0 0 1032 626" fill="none" xmlns="http://www.w3.org/2000/svg">
<circle opacity="0.2" cx="310" cy="410" r="22" fill="url(#paint0_radial_2042_118986)"/>
<circle cx="310" cy="410" r="15" fill="#F4B54A"/>
<path d="M310 404V416M316 410L304 410" stroke="white" stroke-width="2" stroke-linecap="round"/>
<circle opacity="0.2" cx="797" cy="372" r="22" fill="url(#paint1_radial_2042_118986)"/>
<circle cx="797" cy="372" r="15" fill="#F4B54A"/>
<path d="M797 366V378M803 372L791 372" stroke="white" stroke-width="2" stroke-linecap="round"/>
<circle opacity="0.2" cx="666" cy="216" r="22" fill="url(#paint2_radial_2042_118986)"/>
<circle cx="666" cy="216" r="15" fill="#F4B54A"/>
<path d="M666 210V222M672 216L660 216" stroke="white" stroke-width="2" stroke-linecap="round"/>
<circle opacity="0.2" cx="638" cy="410" r="22" fill="url(#paint3_radial_2042_118986)"/>
<circle cx="638" cy="410" r="15" fill="#F4B54A"/>
<path d="M638 404V416M644 410L632 410" stroke="white" stroke-width="2" stroke-linecap="round"/>
<defs>
<radialGradient id="paint0_radial_2042_118986" cx="0" cy="0" r="1" gradientUnits="userSpaceOnUse" gradientTransform="translate(310 410) rotate(90) scale(22)">
<stop offset="0.572917" stop-color="#F4B54A" stop-opacity="0"/>
<stop offset="1" stop-color="#F4B54A"/>
</radialGradient>
<radialGradient id="paint1_radial_2042_118986" cx="0" cy="0" r="1" gradientUnits="userSpaceOnUse" gradientTransform="translate(797 372) rotate(90) scale(22)">
<stop offset="0.572917" stop-color="#F4B54A" stop-opacity="0"/>
<stop offset="1" stop-color="#F4B54A"/>
</radialGradient>
<radialGradient id="paint2_radial_2042_118986" cx="0" cy="0" r="1" gradientUnits="userSpaceOnUse" gradientTransform="translate(666 216) rotate(90) scale(22)">
<stop offset="0.572917" stop-color="#F4B54A" stop-opacity="0"/>
<stop offset="1" stop-color="#F4B54A"/>
</radialGradient>
<radialGradient id="paint3_radial_2042_118986" cx="0" cy="0" r="1" gradientUnits="userSpaceOnUse" gradientTransform="translate(638 410) rotate(90) scale(22)">
<stop offset="0.572917" stop-color="#F4B54A" stop-opacity="0"/>
<stop offset="1" stop-color="#F4B54A"/>
</radialGradient>
</defs>
</svg>
