<?xml version="1.0" encoding="UTF-8" standalone="no"?>
<!DOCTYPE svg PUBLIC "-//W3C//DTD SVG 1.1//EN" "http://www.w3.org/Graphics/SVG/1.1/DTD/svg11.dtd">
<svg width="100%" height="100%" viewBox="0 0 964 629" version="1.1" xmlns="http://www.w3.org/2000/svg" xmlns:xlink="http://www.w3.org/1999/xlink" xml:space="preserve" xmlns:serif="http://www.serif.com/" style="fill-rule:evenodd;clip-rule:evenodd;stroke-linejoin:round;stroke-miterlimit:2;">
    <g transform="matrix(1,0,0,1,453.5,314.5)">
        <g id="Markers--1-.svg" serif:id="Markers (1).svg" transform="matrix(1,0,0,1,-449.5,-300)">
            <circle cx="750" cy="371" r="14" style="fill:rgb(20,174,54);"/>
            <path d="M750.63,369L751.97,363.86C751.99,363.797 752,363.73 752,363.66C752,363.297 751.707,363 751.343,363C751.137,363 750.953,363.093 750.833,363.243L744.144,371.92C744.054,372.034 744,372.176 744,372.333C744,372.7 744.3,373 744.667,373L748.703,373L747.363,378.14C747.342,378.204 747.333,378.271 747.333,378.34C747.334,378.704 747.627,379 747.99,379C748.197,379 748.38,378.907 748.5,378.757L755.189,370.08C755.28,369.966 755.333,369.824 755.333,369.667C755.333,369.3 755.033,369 754.667,369L750.63,369Z" style="fill:white;fill-rule:nonzero;"/>
            <circle cx="550" cy="206" r="14" style="fill:rgb(20,174,54);"/>
            <path d="M550.63,204L551.97,198.86C551.99,198.797 552,198.73 552,198.66C552,198.297 551.707,198 551.343,198C551.137,198 550.953,198.093 550.833,198.243L544.144,206.92C544.054,207.034 544,207.176 544,207.333C544,207.7 544.3,208 544.667,208L548.703,208L547.363,213.14C547.342,213.204 547.333,213.271 547.333,213.34C547.334,213.704 547.627,214 547.99,214C548.197,214 548.38,213.907 548.5,213.757L555.189,205.08C555.28,204.966 555.333,204.824 555.333,204.667C555.333,204.3 555.033,204 554.667,204L550.63,204Z" style="fill:white;fill-rule:nonzero;"/>
        </g>
        <g id="Markers--1-.svg1" serif:id="Markers (1).svg">
        </g>
    </g>
</svg>
