<svg width="20" height="20" viewBox="0 0 20 20" fill="none" xmlns="http://www.w3.org/2000/svg">
<circle cx="10" cy="10" r="10" fill="#14AE36"/>
<path d="M10.8502 8.4375L12.0326 4.42188C12.0502 4.37266 12.059 4.31992 12.059 4.26562C12.059 3.98203 11.8001 3.75 11.4793 3.75C11.2971 3.75 11.1352 3.82305 11.0297 3.94023L5.12662 10.7188C5.04721 10.8074 5 10.9191 5 11.0418C5 11.3281 5.26471 11.5625 5.58811 11.5625H9.14983L7.96744 15.5781C7.94935 15.6277 7.94097 15.6801 7.94097 15.7344C7.94141 16.0184 8.19995 16.25 8.52069 16.25C8.7029 16.25 8.86482 16.1773 8.97071 16.0598L14.8734 9.28125C14.9532 9.19258 15 9.08086 15 8.9582C15 8.67188 14.7353 8.4375 14.4119 8.4375H10.8502Z" fill="white"/>
</svg>
