<svg width="34" height="34" viewBox="0 0 34 34" fill="none" xmlns="http://www.w3.org/2000/svg">
<g clip-path="url(#clip0_2289_131111)">
<path d="M30.1611 29.8384C29.1978 31.2578 25.9566 32.1763 24.4643 32.0521C23.1791 31.9734 21.5225 31.6092 19.9514 30.856C19.0015 30.2393 17.6375 29.5316 16.152 28.3894C9.33867 23.8329 6.1154 15.7838 5.82954 15.1093C5.50091 14.6292 3.5359 10.7309 4.30565 7.22993C5.07539 3.72898 7.28118 2.58277 8.07347 1.94137C8.86575 1.29996 9.69406 1.48208 10.3153 1.61867C10.7294 1.70973 11.3507 1.84632 11.7648 1.93738C12.179 2.02843 12.843 1.97053 13.1649 3.46859C13.4867 4.96666 14.1665 8.78632 14.3308 9.02635C14.4524 9.46087 14.3669 9.84987 14.0743 10.1933C13.7817 10.5368 13.489 10.8803 12.9894 11.1782C12.4897 11.4761 11.9472 11.9686 11.6974 12.1175C11.1977 12.4155 10.698 12.7134 10.9839 13.388C11.227 14.257 12.2061 16.7152 14.0564 19.161C16.4423 22.1324 18.5491 23.4112 19.2918 23.9823C20.0346 24.5534 20.4915 24.4499 20.9912 24.152C21.4909 23.8541 23.2825 22.6168 23.8677 21.9299C24.4529 21.243 25.0314 21.574 25.6099 21.9051C26.1883 22.2362 29.5308 24.8062 30.0665 25.3318C30.8093 25.9029 31.1807 26.1885 31.345 26.4285C31.4238 27.0575 31.1245 28.419 30.1611 29.8384Z" fill="#1967D2"/>
</g>
<defs>
<clipPath id="clip0_2289_131111">
<rect width="34" height="34" fill="white"/>
</clipPath>
</defs>
</svg>
