<svg width="20" height="20" viewBox="0 0 20 20" fill="none" xmlns="http://www.w3.org/2000/svg">
<g clip-path="url(#clip0_1551_138262)">
<path d="M19.7408 9.29842C19.5651 9.09128 15.3669 4.23242 10.0001 4.23242C4.63315 4.23242 0.435139 9.09128 0.259063 9.29863C0.091846 9.49394 -3.72305e-05 9.7426 1.13166e-08 9.99972C3.72532e-05 10.2568 0.0919925 10.5055 0.259266 10.7007C0.435139 10.9079 4.63315 15.7665 10.0001 15.7665C15.3669 15.7665 19.5651 10.9075 19.741 10.7003C19.9082 10.5051 20.0001 10.2564 20 9.99934C20 9.74226 19.908 9.49366 19.7408 9.29842ZM11.6394 7.15119C12.0003 6.95419 12.5036 7.18023 12.7633 7.65586C13.0231 8.13169 12.941 8.67718 12.5801 8.87418C12.2195 9.07137 11.716 8.84514 11.4561 8.36951C11.1965 7.89367 11.2784 7.34818 11.6394 7.15119ZM10.0001 14.0062C6.25114 14.0062 3.09619 11.127 2.00419 9.99948C2.7416 9.23791 4.42052 7.6784 6.58725 6.74583C6.14934 7.41011 5.91623 8.18841 5.91686 8.98405C5.91686 11.2391 7.74485 13.0671 9.99992 13.0671C12.255 13.0671 14.0832 11.2391 14.0832 8.98405C14.0832 8.15708 13.8356 7.3888 13.413 6.74583C15.5797 7.6786 17.2585 9.23791 17.9959 9.99948C16.9039 11.1276 13.7489 14.0062 10.0001 14.0062Z" fill="#80868B"/>
</g>
<defs>
<clipPath id="clip0_1551_138262">
<rect width="20" height="20" fill="white"/>
</clipPath>
</defs>
</svg>
