<svg width="40" height="41" viewBox="0 0 40 41" fill="none" xmlns="http://www.w3.org/2000/svg">
<g clip-path="url(#clip0_1551_138404)">
<circle cx="20" cy="20.5" r="20" fill="#DFDFDF"/>
<path d="M29.3179 17.1759C28.9617 17.1782 28.6095 17.2505 28.282 17.3886C27.9546 17.5267 27.6583 17.7279 27.4107 17.9802C25.6039 16.7306 23.1708 15.9263 20.4736 15.8295L21.8746 9.51479L26.3196 10.5278C26.317 10.7874 26.3665 11.045 26.4653 11.2857C26.564 11.5264 26.7101 11.7455 26.895 11.9304C27.0799 12.1152 27.3001 12.2623 27.5429 12.363C27.7857 12.4637 28.0463 12.5162 28.3097 12.5173C28.6745 12.5243 29.0344 12.4346 29.352 12.2578C29.6696 12.0809 29.9332 11.8233 30.1153 11.5117C30.2974 11.2002 30.3914 10.8462 30.3874 10.4867C30.3833 10.1272 30.2815 9.77531 30.0925 9.46782C29.9034 9.16032 29.6341 8.90847 29.3126 8.73853C28.9912 8.5686 28.6293 8.48682 28.2649 8.50173C27.9004 8.51663 27.5467 8.62768 27.2406 8.82327C26.9345 9.01887 26.6873 9.29185 26.5247 9.61372L21.5975 8.51468C21.4751 8.4898 21.3477 8.5136 21.2431 8.58088C21.1385 8.64815 21.065 8.75346 21.0388 8.87386L19.5113 15.8359C16.836 15.9478 14.4269 16.75 12.6157 18.0018C12.3663 17.7408 12.0653 17.5329 11.7313 17.3909C11.3973 17.2489 11.0374 17.1757 10.6736 17.1759C7.86084 17.1759 6.93997 20.9505 9.51491 22.2409C9.4259 22.6516 9.382 23.0706 9.38398 23.4905C9.38398 27.7319 14.1585 31.1667 20.0241 31.1667C25.8897 31.1667 30.6839 27.7319 30.6839 23.4862C30.6879 23.0576 30.6351 22.6303 30.5268 22.2151C33.0515 20.9247 32.1219 17.1737 29.3244 17.1716L29.3179 17.1759ZM13.5912 22.5098C13.5942 22.1217 13.7136 21.7431 13.9343 21.4217C14.155 21.1003 14.4673 20.8504 14.8317 20.7034C15.1962 20.5565 15.5966 20.519 15.9826 20.5958C16.3686 20.6725 16.723 20.8601 17.0011 21.1348C17.2793 21.4096 17.4688 21.7592 17.5458 22.1399C17.6229 22.5205 17.584 22.9151 17.4341 23.274C17.2842 23.6329 17.03 23.9401 16.7034 24.1569C16.3769 24.3738 15.9925 24.4907 15.5987 24.4928C15.0661 24.4911 14.5558 24.2815 14.1795 23.9098C13.8033 23.5382 13.5917 23.0348 13.5912 22.5098ZM24.4321 27.2415C22.5903 29.0826 17.3946 29.0826 15.5529 27.2415C15.5068 27.1983 15.4697 27.1465 15.4439 27.0892C15.418 27.0319 15.4039 26.9701 15.4023 26.9074C15.4006 26.8447 15.4116 26.7823 15.4344 26.7237C15.4573 26.6652 15.4916 26.6116 15.5354 26.5662C15.5793 26.5207 15.6318 26.4842 15.69 26.4587C15.7481 26.4332 15.8108 26.4193 15.8744 26.4177C15.9381 26.4161 16.0014 26.4269 16.0608 26.4494C16.1202 26.4719 16.1745 26.5057 16.2206 26.5489C17.6259 27.99 22.2914 28.0158 23.76 26.5489C23.8542 26.4674 23.9768 26.4249 24.1022 26.4303C24.2275 26.4357 24.3458 26.4886 24.4325 26.578C24.5192 26.6673 24.5676 26.7862 24.5675 26.9098C24.5674 27.0335 24.5189 27.1523 24.4321 27.2415ZM24.3906 24.4993C23.9889 24.5022 23.5954 24.3874 23.2601 24.1693C22.9248 23.9512 22.6628 23.6398 22.5076 23.2746C22.3524 22.9094 22.3109 22.507 22.3883 22.1185C22.4658 21.73 22.6588 21.373 22.9427 21.0928C23.2266 20.8127 23.5886 20.6221 23.9827 20.5454C24.3768 20.4686 24.7851 20.5091 25.1558 20.6617C25.5265 20.8143 25.8428 21.0721 26.0644 21.4023C26.286 21.7326 26.4029 22.1203 26.4004 22.5162C26.4015 22.7767 26.3503 23.0348 26.2497 23.2756C26.1491 23.5165 26.0011 23.7353 25.8143 23.9195C25.6274 24.1036 25.4054 24.2495 25.1611 24.3486C24.9167 24.4478 24.6549 24.4982 24.3906 24.4971V24.4993Z" fill="#17171A"/>
</g>
<defs>
<clipPath id="clip0_1551_138404">
<rect width="40" height="40" fill="white" transform="translate(0 0.5)"/>
</clipPath>
</defs>
</svg>
