<svg width="22" height="22" viewBox="0 0 22 22" fill="none" xmlns="http://www.w3.org/2000/svg">
<g clip-path="url(#clip0_1145_118361)">
<path d="M10.8571 18.1426C12.4295 18.1426 13.958 17.6237 15.2054 16.6665C16.4529 15.7093 17.3496 14.3672 17.7566 12.8484C18.1636 11.3296 18.058 9.71896 17.4563 8.26627C16.8546 6.81357 15.7903 5.60002 14.4286 4.81383C13.0668 4.02763 11.4837 3.71274 9.92481 3.91797C8.36587 4.12321 6.91822 4.83712 5.80638 5.94896C4.69453 7.06081 3.98063 8.50846 3.77539 10.0674C3.57016 11.6263 3.88505 13.2094 4.67125 14.5712M4.67125 14.5712L0.5 13.4998M4.67125 14.5712L7.5 11.4998" stroke="#1967D2" stroke-width="2"/>
</g>
<defs>
<clipPath id="clip0_1145_118361">
<rect width="22" height="22" fill="white" transform="matrix(1.19249e-08 -1 -1 -1.19249e-08 22 22)"/>
</clipPath>
</defs>
</svg>
