<svg width="20" height="20" viewBox="0 0 20 20" fill="none" xmlns="http://www.w3.org/2000/svg">
<g clip-path="url(#clip0_1551_132685)">
<path fill-rule="evenodd" clip-rule="evenodd" d="M14.7073 2.5234C13.0803 0.896426 10.9162 0 8.61531 0C6.31446 0 4.1503 0.896426 2.52333 2.52339C0.896387 4.15032 -1.90735e-06 6.31447 -1.90735e-06 8.61531C-1.90735e-06 10.9161 0.896427 13.0803 2.52337 14.7072C4.15034 16.3342 6.31442 17.2306 8.61531 17.2306C10.6554 17.2306 12.588 16.5254 14.1342 15.2312L18.6758 19.7727C18.8272 19.9242 19.0262 20 19.2244 20C19.4226 20 19.6214 19.9242 19.7728 19.7728C20.0757 19.4699 20.0758 18.9787 19.7728 18.6758L15.2312 14.1341C16.5255 12.5879 17.2307 10.6554 17.2307 8.61527C17.2307 6.31447 16.3342 4.15032 14.7073 2.5234ZM8.61527 1.55485C10.4249 1.55485 12.2331 2.2433 13.6102 3.62041C16.3643 6.37449 16.3643 10.8562 13.6102 13.6102C10.8561 16.3643 6.37448 16.3643 3.62035 13.6102C0.866291 10.8561 0.866293 6.37445 3.62031 3.62041C4.99712 2.24365 6.80605 1.55485 8.61527 1.55485Z" fill="#C4C4C4"/>
</g>
<defs>
<clipPath id="clip0_1551_132685">
<rect width="20" height="20" fill="white"/>
</clipPath>
</defs>
</svg>
