<svg width="391" height="390" viewBox="0 0 391 390" fill="none" xmlns="http://www.w3.org/2000/svg">
<circle cx="195.731" cy="195" r="195" fill="#14AE36"/>
<path d="M246.269 215.455C245.305 212.381 244.134 209.705 242.76 207.433C241.386 205.158 239.418 202.939 236.853 200.769C234.291 198.6 231.986 196.853 229.942 195.525C227.9 194.196 225.094 192.71 221.526 191.065C217.962 189.421 215.138 188.197 213.059 187.392C210.977 186.589 207.966 185.487 204.027 184.088C200.535 182.83 197.935 181.868 196.224 181.204C194.516 180.539 192.268 179.595 189.482 178.371C186.696 177.148 184.615 176.063 183.24 175.119C181.866 174.176 180.399 173.022 178.838 171.658C177.277 170.295 176.181 168.843 175.549 167.305C174.919 165.766 174.602 164.087 174.602 162.268C174.602 157.513 176.831 153.63 181.289 150.624C185.748 147.617 191.508 146.113 198.567 146.113C201.686 146.113 204.867 146.515 208.097 147.32C211.327 148.125 214.095 149.032 216.399 150.047C218.705 151.062 220.877 152.181 222.922 153.404C224.965 154.629 226.414 155.555 227.269 156.184C228.124 156.814 228.665 157.233 228.886 157.443C229.853 158.143 230.854 158.387 231.894 158.178C233.008 158.108 233.864 157.548 234.459 156.5L243.489 141.182C244.381 139.784 244.196 138.455 242.932 137.195C242.39 136.69 241.831 136.2 241.257 135.727C240.59 135.167 239.141 134.153 236.91 132.683C234.661 131.204 232.296 129.889 229.834 128.749C227.344 127.596 224.11 126.424 220.134 125.236C216.161 124.045 212.054 123.242 207.818 122.822V104.357C207.818 103.379 207.484 102.574 206.817 101.944C206.149 101.316 205.294 101 204.252 101H189.203C188.238 101 187.402 101.332 186.696 101.997C185.99 102.661 185.637 103.448 185.637 104.357V123.241C173.97 125.339 164.496 130.025 157.214 137.299C149.933 144.573 146.291 153.035 146.291 162.688C146.291 165.555 146.608 168.283 147.239 170.869C147.87 173.458 148.651 175.784 149.58 177.847C150.509 179.911 151.828 181.939 153.537 183.933C155.246 185.926 156.862 187.64 158.385 189.073C159.909 190.505 161.897 191.992 164.348 193.53C166.801 195.07 168.9 196.312 170.647 197.256C172.394 198.197 174.716 199.284 177.613 200.505C180.511 201.73 182.797 202.656 184.469 203.287C186.141 203.916 188.425 204.791 191.324 205.908C195.337 207.376 198.31 208.513 200.241 209.318C202.174 210.123 204.626 211.242 207.6 212.675C210.571 214.108 212.744 215.42 214.12 216.609C215.494 217.799 216.738 219.267 217.854 221.015C218.969 222.763 219.528 224.617 219.528 226.576C219.528 232.102 217.243 236.367 212.672 239.372C208.102 242.381 202.806 243.884 196.788 243.884C194.015 243.882 191.251 243.602 188.541 243.047C178.881 241.226 169.853 236.855 161.457 229.931L161.234 229.721C160.564 228.954 159.672 228.639 158.559 228.78C157.37 228.919 156.515 229.339 155.995 230.04L144.514 244.202C143.399 245.6 143.475 247.034 144.738 248.503C145.11 248.923 145.76 249.554 146.688 250.391C147.619 251.233 149.347 252.542 151.872 254.329C154.398 256.113 157.147 257.79 160.12 259.365C163.093 260.938 166.863 262.494 171.434 264.033C176.005 265.57 180.741 266.654 185.645 267.283V285.642C185.645 286.553 185.999 287.339 186.704 288.004C187.41 288.669 188.246 289 189.212 289H204.26C205.302 289 206.157 288.686 206.825 288.057C207.493 287.428 207.826 286.624 207.826 285.642V267.283C219.643 265.465 229.247 260.691 236.639 252.962C244.033 245.233 247.731 236.019 247.731 225.318C247.727 221.822 247.245 218.535 246.269 215.455Z" fill="white"/>
</svg>
