<svg width="100" height="100" viewBox="0 0 100 100" fill="none" xmlns="http://www.w3.org/2000/svg">
<circle cx="50" cy="50" r="50" fill="#F4B54A"/>
<g clip-path="url(#clip0_1043_107787)">
<path d="M49.2878 49.5117C48.6415 49.5117 48.1171 50.0362 48.1171 50.6824C48.1171 51.3287 48.6416 51.8531 49.2878 51.8531C49.9341 51.8531 50.4585 51.3286 50.4585 50.6824C50.4586 50.0361 49.9341 49.5117 49.2878 49.5117Z" fill="#17171A"/>
<path d="M71.209 44.4355C73.3936 42.4383 74.634 39.645 74.634 36.6674C74.634 30.8575 69.9073 26.1309 64.0975 26.1309C58.703 26.1309 54.2315 30.2209 53.6303 35.4627H29.8536C29.2814 35.4627 28.7929 35.8765 28.6989 36.441L24.016 64.5386C23.9594 64.878 24.055 65.2252 24.2774 65.4878C24.4999 65.7504 24.8267 65.9018 25.1708 65.9018C26.6984 65.9018 41.0356 65.9018 43.1306 65.9018L41.3337 73.6287H35.239C34.5924 73.6287 34.0683 74.1529 34.0683 74.7994C34.0683 75.4459 34.5925 75.9701 35.239 75.9701C37.6751 75.9701 59.4632 75.9701 63.3366 75.9701C63.9832 75.9701 64.5073 75.4459 64.5073 74.7994C64.5073 74.1529 63.9831 73.6287 63.3366 73.6287H57.2419L55.4449 65.9018C57.5343 65.9018 71.8779 65.9018 73.4047 65.9018C73.7488 65.9018 74.0755 65.7504 74.2981 65.4878C74.5205 65.2252 74.6161 64.8781 74.5595 64.5386L71.209 44.4355ZM64.0976 28.4723C68.6163 28.4723 72.2927 32.1486 72.2927 36.6674C72.2927 38.4276 71.7329 40.1042 70.7185 41.4906L69.8768 36.4409C69.7828 35.8764 69.2943 35.4626 68.722 35.4626H55.9924C56.5785 31.5152 59.9943 28.4723 64.0976 28.4723ZM50.4586 37.8041C51.5683 37.8041 56.8565 37.8041 57.991 37.8041L58.3812 42.4871H50.4586V37.8041ZM40.5847 37.8041H48.1171V42.4871H40.1945L40.5847 37.8041ZM39.414 51.8529H44.605C45.2516 51.8529 45.7757 51.3288 45.7757 50.6822C45.7757 50.0356 45.2515 49.5115 44.605 49.5115H39.6093L39.9995 44.8286H48.1172V45.9993C48.1172 46.6459 48.6414 47.17 49.2879 47.17C49.9345 47.17 50.4586 46.6458 50.4586 45.9993V44.8286H58.5763L58.9665 49.5115H53.9708C53.3242 49.5115 52.8001 50.0357 52.8001 50.6822C52.8001 51.3289 53.3243 51.8529 53.9708 51.8529H59.1618L59.552 56.5359H50.4586V55.3652C50.4586 54.7185 49.9344 54.1945 49.2879 54.1945C48.6413 54.1945 48.1172 54.7186 48.1172 55.3652V56.5359H39.0239L39.414 51.8529ZM36.0888 63.5603H26.5528L27.3332 58.8774H36.4791L36.0888 63.5603ZM36.6742 56.5359H27.7235L28.5039 51.8529H37.0644L36.6742 56.5359ZM37.2597 49.5115H28.8942L29.6746 44.8286H37.6498L37.2597 49.5115ZM37.845 42.4871H30.0651L30.8454 37.8041H38.2351L37.845 42.4871ZM38.4385 63.5603L38.8287 58.8774H48.1172V63.5603C46.0519 63.5603 40.5054 63.5603 38.4385 63.5603ZM43.7378 73.6286L45.5347 65.9017H53.0411L54.838 73.6286H43.7378ZM50.4586 63.5603V58.8774H59.7471L60.1374 63.5603C58.0701 63.5603 52.5237 63.5603 50.4586 63.5603ZM60.3404 37.8041H67.7302L68.5108 42.4871H60.7308L60.3404 37.8041ZM60.9258 44.8286H68.901L69.6815 49.5115H61.316L60.9258 44.8286ZM61.5111 51.8529H70.0717L70.8522 56.5359H61.9015L61.5111 51.8529ZM62.4868 63.5603L62.0966 58.8774H71.2424L72.0229 63.5603H62.4868Z" fill="#17171A"/>
<path d="M64.039 16.0293C63.3923 16.0293 62.8683 16.5535 62.8683 17.2V22.5854C62.8683 23.232 63.3925 23.7561 64.039 23.7561C64.6856 23.7561 65.2097 23.2319 65.2097 22.5854V17.2C65.2098 16.5534 64.6856 16.0293 64.039 16.0293Z" fill="#17171A"/>
<path d="M82.8293 35.4629H78.1464C77.4998 35.4629 76.9757 35.9871 76.9757 36.6336C76.9757 37.2802 77.4999 37.8043 78.1464 37.8043H82.8293C83.476 37.8043 84 37.2801 84 36.6336C84 35.987 83.4759 35.4629 82.8293 35.4629Z" fill="#17171A"/>
<path d="M81.3296 26.7184C81.0062 26.1584 80.2903 25.9665 79.7303 26.29L75.6749 28.6315C75.115 28.9548 74.923 29.6707 75.2465 30.2307C75.5713 30.7935 76.2884 30.9811 76.8457 30.6592L80.9011 28.3178C81.461 27.9942 81.653 27.2783 81.3296 26.7184Z" fill="#17171A"/>
<path d="M74.0464 19.4363C73.4865 19.113 72.7705 19.305 72.4471 19.865L70.1068 23.9192C69.7836 24.4791 69.9755 25.1952 70.5355 25.5185C71.0917 25.8397 71.8093 25.6534 72.1347 25.0898L74.475 21.0356C74.7984 20.4757 74.6064 19.7597 74.0464 19.4363Z" fill="#17171A"/>
<path d="M58.0883 23.9185L55.748 19.8631C55.425 19.3031 54.7091 19.111 54.1489 19.4344C53.5889 19.7574 53.3968 20.4735 53.7201 21.0335L56.0605 25.0889C56.3819 25.646 57.097 25.8425 57.6596 25.5177C58.2195 25.1945 58.4115 24.4785 58.0883 23.9185Z" fill="#17171A"/>
<path d="M80.9021 45.0168L76.8467 42.6764C76.2869 42.3533 75.5707 42.5452 75.2475 43.1052C74.9243 43.6651 75.1163 44.3812 75.6763 44.7044L79.7317 47.0447C80.2881 47.3659 81.0057 47.1792 81.3308 46.6159C81.6542 46.056 81.4621 45.34 80.9021 45.0168Z" fill="#17171A"/>
<path d="M52.5188 28.6301L48.4634 26.2898C47.9036 25.9666 47.1874 26.1585 46.8642 26.7186C46.541 27.2785 46.733 27.9945 47.293 28.3177L51.3484 30.658C51.9048 30.9793 52.6224 30.7926 52.9476 30.2293C53.2709 29.6692 53.0789 28.9532 52.5188 28.6301Z" fill="#17171A"/>
</g>
<defs>
<clipPath id="clip0_1043_107787">
<rect width="60" height="60" fill="white" transform="translate(24 16)"/>
</clipPath>
</defs>
</svg>
