<?xml version="1.0" encoding="UTF-8" standalone="no"?>
<!DOCTYPE svg PUBLIC "-//W3C//DTD SVG 1.1//EN" "http://www.w3.org/Graphics/SVG/1.1/DTD/svg11.dtd">
<svg width="100%" height="100%" viewBox="0 0 964 629" version="1.1" xmlns="http://www.w3.org/2000/svg" xmlns:xlink="http://www.w3.org/1999/xlink" xml:space="preserve" xmlns:serif="http://www.serif.com/" style="fill-rule:evenodd;clip-rule:evenodd;stroke-linecap:square;stroke-miterlimit:10;">
    <g transform="matrix(1,0,0,0.997416,194,252)">
        <g id="Group-27438.svg" serif:id="Group 27438.svg" transform="matrix(1,0,0,1,-194,-193.5)">
            <clipPath id="_clip1">
                <rect x="0" y="0" width="388" height="387"/>
            </clipPath>
            <g clip-path="url(#_clip1)">
                <path d="M8.871,87.448L11.86,76.332L14.001,67L19.501,59.5L18.001,59.5L18.001,57.5L23.001,55.5L21.001,55.5L21.001,54L23.001,52.5L27.001,40L33.501,33L33.501,29.732L37.001,26.5L35.501,26L35.501,25.029L40.001,20.5L40.001,17L42.501,17L43.001,16L41.001,15L43.501,11.5L45.501,9.5L45.501,7.5L47.085,6L47.085,2.584L51.782,1.088L56.692,10.707L54.984,18.616L78.894,20.113L87.007,25.029L115.613,23.319L157.243,29.732L163.647,45.764L145.928,65.003L150.838,76.332L145.928,79.539L138.029,118.016L75.692,103.48L8.871,87.448Z" style="fill:rgb(244,240,234);fill-rule:nonzero;stroke:rgb(97,97,99);stroke-width:1px;"/>
                <path d="M59.893,174.021L147.635,279.62L147.635,292.446L154.04,298.859L147.635,305.271L141.231,326.22L144.006,334.129L136.5,333.499L134,335.999L130,335.999L125,334.129L122.5,332.633L118.5,332.633L116.5,334.129L110.5,332.633L106,334.129L98.107,332.633L98.107,326.999L96,321.999L97,318.999L95.5,317.499L95.5,314.999L94,315.999L93.5,318.499L91.5,317.499L91.5,312.499L92.5,308.999L90.208,306.999L90.208,300.569L83.5,295.999L80.5,290.999L79.5,292.446L78,292.446L75.691,289.239L71,286.499L67,285.999L67,287.499L65,287.999L64,286.499L60.5,284.999L59.5,285.999L58,284.999L54.983,281.33L51.5,276.999L48.5,275.499L47.084,270.001L42,268.999L39,266.999L35.983,268.504L29,257.999L28.5,252.499L26.5,250.999L24,246.499L25.5,244.999L25.5,242.999L24,241.499L21.466,240.499L21,236.499L22.5,234.999L22.5,232.999L21,231.999L21,233.999L19.971,234.999L17.5,231.999L18.5,229.499L18,226.499L15.061,223.614L21.466,215.705L17.5,211.999L16,207.499L16,205.499L13.567,204.375L13.567,196.466L19.971,191.55L17.5,187.499L18,185.137L15.061,183.64L10.365,185.137L8.87,179.499L9.5,177.999L8,177.499L6.5,175.999L7.162,172.311L5,167.499L5,163.999L4.5,165.499L2.466,163.999L3,161.195L0.758,161.195L0.758,154.499L3,151.499L1.5,151.499L0.758,149.499L1.5,147.999L0,144.999L2.466,133.834L0.758,122.718L2.466,114.499L0.758,109.999L3,106.499L5,105.499L6,102.499L5,102.499L4.5,99.999L6,99.499L7.162,97.499L5.5,97.499L4.5,96.499L6,93.499L6,90.999L8.87,87.447L75.691,103.479L59.893,174.021Z" style="fill:rgb(244,240,234);fill-rule:nonzero;stroke:rgb(97,97,99);stroke-width:1px;"/>
                <path d="M184.354,125.926L232.175,133.835L228.973,157.99L263.984,164.403L249.681,250.763L165.141,237.937L184.354,125.926Z" style="fill:rgb(244,240,234);fill-rule:nonzero;stroke:rgb(97,97,99);stroke-width:1px;"/>
                <path d="M147.635,279.621L157.242,262.093L163.646,262.093L165.141,237.938L249.681,250.763L235.377,385.434L218.5,383L213,379.5L203.355,380.517L195.5,377L189,378L181.5,372L175,365L177.5,361L173.5,363L171.5,364.5L161,357L157,358.5L153,353L147.635,346.956L151.5,344L152.332,339.047L147,337L144.433,334.131L141.23,326.222L147.635,305.273L154.04,298.86L147.635,292.447L147.635,279.621Z" style="fill:rgb(244,240,234);fill-rule:nonzero;stroke:rgb(97,97,99);stroke-width:1px;"/>
                <path d="M263.983,164.402L354.928,172.312L386.95,174.022L386.95,199.673L385.242,262.092L367.737,260.382L249.68,250.762L263.983,164.402Z" style="fill:rgb(244,240,234);fill-rule:nonzero;stroke:rgb(97,97,99);stroke-width:1px;"/>
            </g>
        </g>
        <g id="Group-27438.svg1" serif:id="Group 27438.svg">
        </g>
    </g>
</svg>
