<svg width="40" height="41" viewBox="0 0 40 41" fill="none" xmlns="http://www.w3.org/2000/svg">
<circle cx="20" cy="20.5" r="20" fill="#DFDFDF"/>
<path d="M30 15.3269C29.3571 15.6154 28.6225 15.8077 27.8878 15.9038C28.6225 15.4231 29.2653 14.6538 29.5408 13.7885C28.8061 14.2692 28.0714 14.5577 27.1531 14.75C26.5102 13.9808 25.5 13.5 24.4898 13.5C22.4694 13.5 20.8163 15.2308 20.8163 17.3462C20.8163 17.6346 20.8163 17.9231 20.9082 18.2115C17.8776 18.0192 15.1224 16.4808 13.2857 14.1731C13.0102 14.75 12.8265 15.4231 12.8265 16.0961C12.8265 17.4423 13.4694 18.5962 14.4796 19.2692C13.8367 19.2692 13.2857 19.0769 12.8265 18.7885C12.8265 20.6154 14.1122 22.25 15.7653 22.5385C15.4898 22.6346 15.1225 22.6346 14.7551 22.6346C14.4796 22.6346 14.2959 22.6346 14.0204 22.5385C14.4796 24.0769 15.8571 25.2308 17.5102 25.2308C16.2245 26.2885 14.6633 26.8654 12.9184 26.8654C12.6429 26.8654 12.3673 26.8654 12 26.7692C13.6531 27.8269 15.5816 28.5 17.6939 28.5C24.4898 28.5 28.1633 22.6346 28.1633 17.5385V17.0577C28.898 16.7692 29.5408 16.0961 30 15.3269Z" fill="#17171A"/>
</svg>
