<svg width="40" height="40" viewBox="0 0 40 40" fill="none" xmlns="http://www.w3.org/2000/svg">
<circle cx="20" cy="20" r="20" fill="#DFDFDF"/>
<path fill-rule="evenodd" clip-rule="evenodd" d="M29.9674 17.4141C29.9843 17.6739 30 17.9164 30 18.1414V20V21.8586C30 22.3434 30 22.9091 29.927 23.5556C29.927 24.2828 29.854 24.8485 29.708 25.4141C29.562 26.0606 29.2701 26.5455 28.9051 26.9495C28.5401 27.3535 28.0292 27.596 27.5183 27.6768C25.9124 27.9192 23.3577 28 20 28C16.6423 28 14.1606 27.9192 12.4817 27.6768C11.9708 27.596 11.4599 27.3535 11.0949 26.9495C10.6569 26.5455 10.438 26.0606 10.292 25.4141C10.219 24.849 10.1461 24.2031 10.0732 23.5572L10.073 23.5556C10.073 23.2091 10.052 22.8859 10.0326 22.5859C10.0157 22.326 10 22.0836 10 21.8586V20V18.1414C10 17.6566 10 17.0909 10.073 16.4444C10.073 15.7172 10.146 15.1515 10.292 14.5859C10.438 13.9394 10.7299 13.4545 11.0949 13.0505C11.4599 12.6465 11.9708 12.404 12.4817 12.3232C14.0876 12.0808 16.6423 12 20 12C23.3577 12 25.8394 12.0808 27.5183 12.3232C28.0292 12.404 28.5401 12.6465 28.9051 13.0505C29.3431 13.4545 29.562 13.9394 29.708 14.5859C29.781 15.1515 29.854 15.798 29.927 16.4444C29.927 16.7909 29.948 17.1141 29.9674 17.4141ZM18.0606 23.8661L23.6465 20.5858C23.8586 20.4519 24 20.1172 24 19.9163C24 19.7155 23.8586 19.5146 23.6465 19.3807L18.0606 16.1004C17.8485 15.9665 17.5657 15.9665 17.3535 16.1004C17.1414 16.2343 17 16.4351 17 16.7029V23.3305C17 23.5983 17.1414 23.7992 17.3535 23.9331C17.495 24 17.5657 24 17.7071 24C17.8485 24 17.9899 23.933 18.0606 23.8661Z" fill="#17171A"/>
</svg>
